<svg width="217" height="313" viewBox="0 0 217 313" fill="none" xmlns="http://www.w3.org/2000/svg">
<g opacity="0.2" clip-path="url(#clip0_2018_1814)">
<path d="M106.44 198.8C106.82 181.45 96.31 165.4 80.93 157.78C73.05 153.87 64.2299 152.13 55.4599 152.5C55.6699 152.25 55.68 151.96 55.1399 151.98C37.5799 152.53 19.5499 156.82 8.67995 171.76C-2.05005 186.5 -2.65005 206.24 5.93995 222.14C8.54995 226.98 12.01 231.1 15.75 235.11C19.5499 239.18 23.2699 243.23 25.1299 248.58C25.1299 248.58 25.1299 248.6 25.1399 248.61C24.93 249.18 25.0599 249.92 25.08 250.57C25.11 251.38 25.1 252.19 25.11 253.01C25.12 253.44 25.0499 253.94 25.41 254.25C25.7299 254.52 26.2699 254.46 26.6299 254.48C27.15 254.51 27.66 254.56 28.17 254.54C28.2199 254.57 28.28 254.58 28.35 254.6C29.54 260.6 31.3499 266.54 32.9599 272.43C33.77 275.38 34.5999 278.31 35.5 281.22C36.3499 283.98 37.01 287.02 38.27 289.64C37.68 289.71 37.1399 289.89 36.7299 290.4C35.7799 291.57 35.36 295.93 36.66 297.03C37.3899 297.64 38.33 297.71 39.27 297.57C38.88 300.05 38.9199 302.56 39.0499 305.06C39.16 307.16 39.08 310.05 40.86 311.54C42.07 312.55 43.7799 312.56 45.27 312.63C48.42 312.77 51.5999 312.75 54.75 312.77C57.99 312.8 63.22 313.86 65.85 311.27C68.7999 308.38 67.6499 301.6 67.13 297.68C68.02 297.6 68.85 297.33 69.42 296.59C70.32 295.42 70.11 291.29 69.24 290.24C69.0099 289.96 68.68 289.76 68.29 289.62C70.27 284.27 71.5 278.47 73.01 273C74.61 267.14 76.7199 260.97 77.45 254.89C78.25 254.92 79.0499 254.9 79.84 254.86C80.1099 254.84 80.53 254.65 80.53 254.34C80.61 252.55 81.17 250.58 81 248.82C80.94 248.22 80.68 247.85 80.29 247.65C80.33 247.62 80.36 247.59 80.38 247.57C92.59 233.8 105.99 218.25 106.42 198.82L106.44 198.8Z" fill="white"/>
<path d="M41.23 296.63C39.94 296.16 38.65 295.68 37.36 295.21C37.29 294.55 37.31 293.89 37.41 293.23C37.45 292.76 37.46 291.5 37.67 291.14C38.56 289.69 41.09 290.62 42.43 290.73C46.02 291.02 49.61 290.89 53.2 290.71C56.73 290.53 60.46 290.05 63.99 290.39C65.21 290.51 67.13 290.71 67.67 291.85C67.88 292.3 67.87 293.86 67.82 294.27C67.69 295.38 67.41 296.17 66.08 296.63C65.9 296.69 64.02 296.82 64.49 296.76C63.62 296.86 62.9 297.8 64.21 297.7C65.86 297.58 68.2 298.16 69.41 296.58C70.31 295.41 70.11 291.28 69.23 290.23C68.06 288.84 64.48 289.33 62.98 289.33C58.96 289.33 54.96 289.68 50.95 289.88C49.14 289.97 47.33 290.05 45.51 290.03C43.32 290.01 41.07 289.5 38.9 289.58C38.07 289.61 37.27 289.7 36.71 290.4C35.77 291.58 35.34 295.93 36.64 297.03C37.93 298.11 39.94 297.51 41.3 297C41.67 296.86 41.58 296.59 41.2 296.64L41.23 296.63Z" fill="black"/>
<path d="M39.3601 297.06C38.8801 299.71 38.9201 302.38 39.0601 305.06C39.1701 307.16 39.0801 310.05 40.8701 311.54C42.0801 312.55 43.7901 312.56 45.2801 312.62C48.4301 312.76 51.6101 312.74 54.7601 312.76C58.0001 312.78 63.2301 313.85 65.8601 311.26C68.9701 308.21 67.5201 300.83 67.0601 297.04C66.9901 296.47 65.2201 296.86 65.3001 297.51C65.7401 301.16 66.5001 305.92 65.1501 309.46C63.7801 313.05 55.1501 311.7 51.9001 311.72C48.1701 311.74 41.9501 313.05 40.8501 308.3C39.9801 304.57 40.4601 300.64 40.4101 296.85C40.4101 296.52 39.4201 296.77 39.3701 297.06H39.3601Z" fill="black"/>
<path d="M42.2304 297.68C49.7104 297.98 57.2204 297.68 64.7004 297.68C65.4204 297.68 65.6704 296.76 64.8104 296.76C57.3704 296.8 49.9004 296.54 42.4704 296.86C41.9904 296.88 41.5304 297.64 42.2304 297.67V297.68Z" fill="black"/>
<path d="M28.25 254.1C29.44 260.27 31.3 266.37 32.96 272.42C33.77 275.36 34.6 278.3 35.5 281.21C36.44 284.26 37.15 287.66 38.69 290.45C38.82 290.69 39.54 290.52 39.5 290.23C39.12 287.07 37.74 283.9 36.81 280.85C35.92 277.93 35.02 275.01 34.13 272.09C32.3 266.06 30.85 259.9 28.94 253.9C28.87 253.68 28.2 253.86 28.24 254.09L28.25 254.1Z" fill="black"/>
<path d="M36.21 254.14C36.46 260.31 38.77 266.81 40.41 272.73C42.05 278.67 43.35 285.38 46.11 290.9C46.24 291.15 47.14 290.92 47.08 290.64C45.81 284.51 43.05 278.52 41.37 272.47C39.69 266.45 38.9 259.83 36.62 254.03C36.58 253.92 36.22 254.03 36.22 254.14H36.21Z" fill="black"/>
<path d="M69.7001 253.93C67.1601 259.34 65.9401 265.6 64.3101 271.34C62.5701 277.51 60.9201 283.71 59.4201 289.94C59.2901 290.46 60.6101 290.25 60.7401 289.79C62.3601 283.8 63.9201 277.79 65.4701 271.79C66.9701 265.99 69.3301 259.89 69.8801 253.92C69.8801 253.84 69.7201 253.88 69.7001 253.92V253.93Z" fill="black"/>
<path d="M77.03 253.7C74.76 259.52 73.61 265.92 71.98 271.95C70.27 278.31 67.85 284.68 66.56 291.13C66.46 291.65 67.58 291.45 67.72 291.11C70.04 285.35 71.37 278.98 73.01 272.99C74.72 266.75 77 260.16 77.57 253.7C77.59 253.45 77.09 253.55 77.03 253.71V253.7Z" fill="black"/>
<path d="M27.8603 247.88C27.3103 247.46 26.4003 247.55 25.8003 247.86C24.7503 248.41 25.0403 249.57 25.0703 250.56C25.0903 251.37 25.0903 252.19 25.1103 253C25.1103 253.43 25.0503 253.93 25.4103 254.24C25.7203 254.5 26.2603 254.45 26.6303 254.47C27.3903 254.51 28.1403 254.6 28.9003 254.47C29.0103 254.45 29.6603 254.14 29.3003 254.01C28.7703 253.82 28.2803 253.84 27.7103 253.82C27.4403 253.82 26.9003 253.91 26.6603 253.79C26.1203 253.51 26.2903 252.83 26.2803 252.34C26.2803 251.6 26.2703 250.86 26.2803 250.12C26.2803 249.84 26.2103 249.15 26.3203 248.89C26.4903 248.49 27.0303 248.37 27.4003 248.32C27.4903 248.31 28.1003 248.08 27.8603 247.89V247.88Z" fill="black"/>
<path d="M78.75 248.25C80.24 248.38 79.6699 250.19 79.5899 251.13C79.4999 252.23 79.41 253.33 79.25 254.42C79.54 254.25 79.82 254.08 80.11 253.91C79.08 253.83 78.0199 253.8 76.9899 253.84C76.3799 253.86 75.8399 254.81 76.6999 254.86C77.7399 254.92 78.7999 254.91 79.8399 254.86C80.0999 254.85 80.52 254.65 80.54 254.34C80.61 252.56 81.18 250.59 81.01 248.82C80.9 247.66 80.0299 247.39 78.9899 247.43C78.4999 247.45 78.05 248.2 78.75 248.26V248.25Z" fill="black"/>
<path d="M28.4904 254.6C44.7004 255.05 60.9804 254.63 77.1904 254.7C78.0204 254.7 78.2604 253.63 77.3004 253.61C61.1104 253.36 44.7604 252.95 28.5804 253.71C27.9004 253.74 27.7104 254.58 28.4904 254.6Z" fill="black"/>
<path d="M26.4202 248.36C43.9502 249.1 61.5502 248.56 79.0902 248.77C79.7902 248.77 81.0702 247.72 79.8202 247.73C62.1602 247.88 44.5002 247.53 26.8402 247.76C26.4602 247.76 25.6802 248.32 26.4202 248.35V248.36Z" fill="black"/>
<path d="M71.9902 248.43C71.3802 248.98 71.4402 249.82 71.4002 250.6C71.3602 251.39 71.1702 252.48 71.6802 253.13C71.8602 253.36 72.3302 253.25 72.4402 253C72.7802 252.25 72.5102 251.35 72.5102 250.53C72.5102 249.86 72.8102 248.96 72.3202 248.44C72.2402 248.35 72.0802 248.35 71.9902 248.44V248.43Z" fill="black"/>
<path d="M34.0303 253.07C33.9603 253.08 33.9003 253.09 33.8303 253.11C33.9403 253.19 34.0403 253.26 34.1503 253.34C34.8503 252.51 34.7103 250.91 34.6403 249.88C34.6403 249.79 34.4703 249.72 34.4003 249.71C34.0203 249.65 33.9703 249.66 33.6403 249.86C33.5103 249.94 33.4003 250.05 33.4103 250.21C33.4403 250.81 33.4403 251.42 33.3903 252.02C33.3603 252.47 33.1603 253.02 33.3803 253.43C33.5203 253.69 34.1903 253.52 34.1703 253.22C34.1703 253.18 34.1703 253.15 34.1703 253.11C34.1703 253.06 34.0603 253.06 34.0303 253.06V253.07Z" fill="black"/>
<path d="M50.1003 248.43C49.8403 249.31 49.8703 250.2 49.8703 251.11C49.8703 252.06 49.7403 253.21 50.1403 254.08C50.2303 254.28 50.7603 254.11 50.8103 253.94C51.0603 253.09 50.8903 252.16 50.8103 251.29C50.7203 250.31 50.7003 249.29 50.2803 248.39C50.2503 248.34 50.1103 248.39 50.0903 248.43H50.1003Z" fill="black"/>
<path d="M56.53 248.55C56.31 249.32 56.25 250.13 56.21 250.93C56.17 251.79 55.98 252.75 56.26 253.57C56.32 253.74 56.91 253.55 56.96 253.42C57.21 252.66 57.12 251.87 57.1 251.08C57.08 250.22 57.09 249.33 56.83 248.5C56.81 248.43 56.55 248.5 56.53 248.57V248.55Z" fill="black"/>
<path d="M55.1402 151.99C37.5802 152.54 19.5502 156.82 8.67019 171.77C-2.05981 186.51 -2.65982 206.25 5.93018 222.15C8.55018 226.99 12.0002 231.11 15.7402 235.11C19.5402 239.17 23.2602 243.23 25.1202 248.58C25.3802 249.32 27.3302 248.77 27.0902 248.05C24.4702 240.24 17.6902 235.34 12.5702 229.24C6.83018 222.4 3.02018 213.89 1.72019 205.06C-0.899815 187.25 7.65018 168.71 23.7102 160.14C33.2202 155.07 44.1402 153.7 54.7402 152.91C55.3102 152.87 56.0902 151.95 55.1302 151.98L55.1402 151.99Z" fill="black"/>
<path d="M53.7601 153.11C75.6501 152.56 96.6601 165.26 102.89 186.91C109.73 210.68 93.1001 231.02 78.4801 247.7C78.0401 248.2 80.0501 247.95 80.4001 247.56C92.6101 233.79 106.01 218.24 106.44 198.81C106.82 181.46 96.3101 165.41 80.9301 157.78C72.7101 153.7 63.4601 151.99 54.3201 152.56C53.9701 152.58 52.8801 153.13 53.7501 153.1L53.7601 153.11Z" fill="black"/>
<path d="M43.6804 153.16C26.1504 156.77 17.2704 175.82 15.8104 191.97C14.9104 201.95 15.7204 212.27 19.0904 221.75C22.4904 231.32 28.1104 239.9 33.6304 248.35C33.9604 248.85 35.6504 248.28 35.2504 247.66C30.2204 239.87 25.1304 232.01 21.7104 223.35C18.0904 214.18 16.7404 204.33 17.3004 194.5C18.3104 176.62 26.3804 159.99 43.9904 153.7C44.6404 153.47 44.1904 153.06 43.6904 153.16H43.6804Z" fill="black"/>
<path d="M58.6001 153.71C78.7301 155.36 87.6701 177.21 88.4701 194.77C88.9501 205.16 86.6701 215.33 82.6901 224.89C80.9601 229.05 78.9501 233.08 76.8301 237.04C74.7601 240.89 71.7101 244.79 70.3801 248.95C70.1901 249.53 71.5001 249.24 71.6901 249.02C74.7901 245.33 76.9401 240.41 79.1701 236.15C81.4501 231.8 83.5601 227.35 85.3301 222.76C89.1201 212.91 90.9201 202.48 90.0301 191.93C88.5401 174.3 78.8101 154.42 59.0601 152.96C58.5601 152.92 57.7801 153.64 58.6001 153.71Z" fill="black"/>
<path d="M51.3102 152.49C38.7902 163.11 36.7102 180.15 36.9702 195.62C37.2702 213.59 40.3602 231.4 46.0902 248.44C46.3202 249.13 47.8902 248.69 47.6602 248.02C42.1602 231.88 38.8902 214.96 38.3002 197.91C37.7502 181.97 39.2902 164.22 52.0102 152.95C52.5502 152.47 51.7102 152.16 51.3202 152.49H51.3102Z" fill="black"/>
<path d="M57.2002 153.37C63.5002 157.81 66.5002 165.12 68.2602 172.37C70.2402 180.5 71.2702 188.89 71.5102 197.24C72.0202 214.88 68.1602 231.36 62.2502 247.84C62.0302 248.46 63.6402 248.24 63.8502 247.79C71.1902 232 73.7802 213.53 73.0802 196.25C72.7302 187.49 71.4802 178.64 69.0402 170.21C67.0802 163.42 64.0902 156.89 58.1002 152.77C57.7602 152.54 56.7002 153.02 57.1902 153.36L57.2002 153.37Z" fill="black"/>
<path d="M36.9203 292.3C39.6203 292.64 42.4603 292.98 45.1903 292.96C45.2803 292.96 45.6403 292.78 45.4003 292.74C42.7303 292.25 39.8503 292.17 37.1403 292.07C37.0303 292.07 36.6803 292.27 36.9203 292.3Z" fill="black"/>
<path d="M62.23 295.77C62.51 296.07 63.12 295.89 63.49 295.87C64.06 295.84 64.69 295.89 65.23 295.67C65.33 295.63 65.37 295.49 65.25 295.45C64.76 295.29 64.16 295.41 63.65 295.45C63.22 295.48 62.6 295.38 62.26 295.7C62.24 295.72 62.22 295.75 62.24 295.78L62.23 295.77Z" fill="black"/>
<path d="M42 309.26C43.18 309.2 44.31 309.39 45.45 309.68C45.52 309.7 45.86 309.59 45.72 309.53C44.61 309.05 43.42 308.94 42.22 309C42.05 309 41.64 309.28 42 309.26Z" fill="black"/>
<path d="M64.19 303.72C64.52 303.89 64.9 303.9 65.26 303.95C65.69 304.01 66.11 304.05 66.55 304.03C66.66 304.03 66.86 303.88 66.68 303.81C66.03 303.55 65.08 303.4 64.39 303.47C64.31 303.47 64.02 303.63 64.2 303.72H64.19Z" fill="black"/>
<path d="M81.4302 173.55C84.9802 181.62 86.0302 190.1 85.2602 198.84C85.2602 198.91 85.3902 198.88 85.4002 198.83C86.8202 190.31 85.2102 181.28 81.5402 173.52C81.5202 173.48 81.4102 173.51 81.4302 173.55Z" fill="black"/>
<path d="M21.46 207.51C21.5 215.69 23.85 224.3 28.37 231.15C28.4 231.19 28.55 231.15 28.53 231.1C24.51 223.63 22.1 215.97 21.61 207.48C21.61 207.43 21.46 207.46 21.46 207.52V207.51Z" fill="black"/>
<path d="M46.7701 164.12C43.7601 170.24 41.9501 177.52 42.1401 184.36C42.1401 184.41 42.2801 184.38 42.2901 184.33C42.5701 180.84 42.8701 177.4 43.6401 173.98C44.4001 170.59 45.5501 167.33 46.8401 164.12C46.8401 164.1 46.7801 164.11 46.7801 164.12H46.7701Z" fill="black"/>
<path d="M68.0104 211.71C67.9904 215.4 67.3404 218.87 66.5704 222.45C66.5504 222.52 66.7304 222.48 66.7504 222.43C68.0104 219.03 68.3404 215.28 68.1704 211.68C68.1704 211.63 68.0204 211.66 68.0204 211.71H68.0104Z" fill="black"/>
<path d="M101.42 204.32C99.9903 209.44 98.3003 214.43 95.9403 219.2C93.6603 223.83 90.7803 227.97 87.7703 232.15C87.6603 232.3 88.0203 232.3 88.0903 232.21C91.4403 228.27 94.1203 223.63 96.3603 218.98C98.6103 214.32 100.45 209.38 101.51 204.3C101.51 204.26 101.43 204.27 101.42 204.3V204.32Z" fill="black"/>
<path d="M15.4902 168.38C11.7102 171.95 8.7402 176.43 6.6602 181.19C4.5802 185.95 3.0102 191.54 3.3002 196.79C3.3002 196.84 3.4902 196.8 3.5002 196.75C4.0202 191.49 4.7202 186.54 6.7702 181.62C8.8502 176.64 11.8902 172.32 15.5702 168.39C15.6002 168.36 15.5002 168.37 15.4902 168.39V168.38Z" fill="black"/>
<path d="M216.77 116.46C217.02 104.93 210.04 94.2701 199.82 89.2001C194.59 86.6001 188.72 85.4501 182.89 85.6901C183.03 85.5201 183.04 85.3301 182.68 85.3501C171.01 85.7101 159.03 88.5601 151.81 98.4901C144.68 108.28 144.28 121.4 149.99 131.96C151.73 135.18 154.03 137.92 156.51 140.58C159.04 143.28 161.51 145.97 162.74 149.53C162.74 149.53 162.74 149.54 162.74 149.55C162.6 149.93 162.69 150.42 162.7 150.85C162.72 151.39 162.71 151.93 162.72 152.47C162.72 152.76 162.68 153.09 162.92 153.29C163.13 153.47 163.49 153.43 163.73 153.45C164.07 153.47 164.41 153.5 164.75 153.49C164.78 153.51 164.82 153.52 164.87 153.53C165.66 157.52 166.86 161.46 167.94 165.38C168.48 167.34 169.03 169.29 169.63 171.22C170.2 173.05 170.63 175.07 171.47 176.81C171.08 176.86 170.72 176.98 170.45 177.32C169.82 178.1 169.54 180.99 170.4 181.72C170.88 182.12 171.51 182.17 172.14 182.08C171.88 183.73 171.91 185.39 171.99 187.06C172.07 188.46 172.01 190.37 173.19 191.37C174 192.04 175.13 192.05 176.12 192.09C178.21 192.18 180.32 192.17 182.42 192.18C184.58 192.2 188.04 192.91 189.79 191.19C191.75 189.27 190.99 184.77 190.64 182.16C191.23 182.11 191.78 181.93 192.16 181.43C192.76 180.65 192.62 177.91 192.04 177.21C191.88 177.03 191.67 176.89 191.41 176.79C192.73 173.23 193.55 169.38 194.54 165.75C195.61 161.86 197.01 157.76 197.49 153.72C198.02 153.74 198.56 153.72 199.08 153.7C199.26 153.69 199.54 153.56 199.54 153.36C199.59 152.17 199.97 150.86 199.85 149.69C199.81 149.29 199.64 149.05 199.38 148.91C199.41 148.89 199.43 148.87 199.44 148.86C207.55 139.71 216.46 129.38 216.74 116.47L216.77 116.46Z" fill="white"/>
<path d="M173.45 181.46C172.59 181.15 171.73 180.83 170.88 180.52C170.84 180.08 170.85 179.64 170.91 179.21C170.93 178.9 170.94 178.06 171.08 177.82C171.67 176.85 173.35 177.47 174.24 177.55C176.62 177.74 179.01 177.66 181.4 177.53C183.75 177.41 186.22 177.09 188.57 177.31C189.38 177.39 190.66 177.52 191.02 178.28C191.16 178.58 191.15 179.61 191.12 179.88C191.03 180.62 190.85 181.14 189.96 181.45C189.84 181.49 188.59 181.57 188.9 181.54C188.32 181.61 187.84 182.23 188.71 182.16C189.81 182.08 191.36 182.46 192.17 181.42C192.77 180.64 192.63 177.9 192.05 177.2C191.27 176.28 188.89 176.6 187.9 176.6C185.23 176.6 182.57 176.84 179.91 176.96C178.71 177.02 177.5 177.07 176.3 177.06C174.84 177.05 173.35 176.7 171.91 176.76C171.36 176.78 170.83 176.84 170.46 177.3C169.83 178.08 169.55 180.98 170.42 181.7C171.28 182.42 172.61 182.02 173.52 181.68C173.77 181.59 173.7 181.41 173.46 181.44L173.45 181.46Z" fill="black"/>
<path d="M172.21 181.74C171.89 183.5 171.91 185.28 172.01 187.05C172.08 188.45 172.02 190.36 173.21 191.36C174.01 192.03 175.15 192.04 176.14 192.08C178.24 192.17 180.34 192.16 182.44 192.18C184.6 192.2 188.06 192.9 189.82 191.19C191.89 189.16 190.92 184.26 190.62 181.74C190.57 181.36 189.4 181.62 189.45 182.05C189.74 184.48 190.25 187.64 189.35 189.99C188.44 192.38 182.71 191.48 180.55 191.49C178.07 191.5 173.94 192.38 173.21 189.22C172.63 186.74 172.95 184.13 172.91 181.61C172.91 181.39 172.25 181.55 172.22 181.75L172.21 181.74Z" fill="black"/>
<path d="M174.11 182.16C179.08 182.36 184.07 182.16 189.04 182.16C189.52 182.16 189.68 181.55 189.12 181.55C184.18 181.58 179.22 181.4 174.28 181.62C173.96 181.63 173.66 182.14 174.12 182.16H174.11Z" fill="black"/>
<path d="M164.83 153.2C165.62 157.3 166.86 161.35 167.96 165.37C168.5 167.33 169.05 169.27 169.65 171.21C170.28 173.23 170.74 175.49 171.77 177.35C171.86 177.51 172.33 177.39 172.31 177.21C172.06 175.11 171.14 173.01 170.52 170.98C169.93 169.04 169.33 167.1 168.74 165.16C167.52 161.15 166.56 157.06 165.29 153.07C165.24 152.92 164.8 153.04 164.82 153.19L164.83 153.2Z" fill="black"/>
<path d="M170.11 153.23C170.27 157.33 171.81 161.65 172.9 165.58C173.99 169.53 174.85 173.99 176.69 177.66C176.77 177.83 177.37 177.67 177.34 177.49C176.49 173.42 174.66 169.44 173.54 165.42C172.43 161.42 171.9 157.02 170.38 153.17C170.35 153.1 170.11 153.17 170.11 153.24V153.23Z" fill="black"/>
<path d="M192.36 153.09C190.67 156.68 189.86 160.84 188.78 164.66C187.62 168.76 186.53 172.88 185.53 177.02C185.45 177.37 186.32 177.23 186.41 176.92C187.48 172.94 188.52 168.95 189.55 164.96C190.55 161.1 192.11 157.05 192.48 153.09C192.48 153.04 192.37 153.06 192.36 153.09Z" fill="black"/>
<path d="M197.23 152.94C195.72 156.81 194.96 161.06 193.88 165.07C192.74 169.29 191.13 173.53 190.28 177.81C190.21 178.15 190.96 178.02 191.05 177.8C192.59 173.97 193.47 169.74 194.56 165.76C195.69 161.61 197.21 157.23 197.59 152.94C197.6 152.77 197.27 152.84 197.23 152.94Z" fill="black"/>
<path d="M164.56 149.07C164.2 148.79 163.59 148.85 163.19 149.06C162.49 149.42 162.69 150.2 162.71 150.86C162.73 151.4 162.72 151.94 162.73 152.48C162.73 152.76 162.69 153.1 162.93 153.3C163.14 153.47 163.5 153.44 163.74 153.45C164.25 153.48 164.75 153.54 165.24 153.45C165.32 153.44 165.75 153.23 165.5 153.14C165.15 153.01 164.82 153.03 164.45 153.02C164.27 153.02 163.91 153.08 163.75 153C163.39 152.81 163.5 152.36 163.5 152.04C163.5 151.55 163.5 151.05 163.5 150.56C163.5 150.38 163.45 149.92 163.53 149.74C163.65 149.47 164 149.39 164.25 149.36C164.31 149.36 164.72 149.2 164.56 149.08V149.07Z" fill="black"/>
<path d="M198.38 149.31C199.37 149.4 198.99 150.6 198.94 151.22C198.88 151.95 198.82 152.68 198.71 153.41C198.9 153.3 199.09 153.18 199.28 153.07C198.6 153.02 197.89 153 197.21 153.02C196.81 153.03 196.45 153.66 197.02 153.7C197.71 153.74 198.42 153.74 199.11 153.7C199.28 153.7 199.56 153.56 199.57 153.36C199.62 152.18 200 150.87 199.88 149.69C199.81 148.92 199.23 148.74 198.54 148.77C198.21 148.78 197.92 149.28 198.38 149.32V149.31Z" fill="black"/>
<path d="M164.98 153.54C175.75 153.84 186.57 153.56 197.34 153.61C197.89 153.61 198.05 152.9 197.41 152.89C186.65 152.73 175.79 152.45 165.04 152.95C164.59 152.97 164.46 153.53 164.98 153.54Z" fill="black"/>
<path d="M163.61 149.39C175.26 149.88 186.95 149.52 198.6 149.66C199.07 149.66 199.92 148.96 199.09 148.97C187.36 149.07 175.62 148.84 163.89 148.99C163.64 148.99 163.12 149.36 163.61 149.39Z" fill="black"/>
<path d="M193.89 149.44C193.49 149.81 193.52 150.36 193.5 150.88C193.47 151.4 193.35 152.13 193.68 152.56C193.8 152.72 194.11 152.64 194.19 152.47C194.42 151.97 194.23 151.37 194.24 150.83C194.24 150.38 194.44 149.79 194.11 149.44C194.06 149.38 193.95 149.38 193.89 149.44Z" fill="black"/>
<path d="M168.66 152.52C168.66 152.52 168.57 152.54 168.53 152.54C168.6 152.59 168.67 152.64 168.74 152.69C169.2 152.14 169.11 151.07 169.07 150.39C169.07 150.33 168.96 150.28 168.91 150.28C168.66 150.24 168.62 150.25 168.41 150.38C168.32 150.44 168.25 150.5 168.26 150.61C168.28 151.01 168.28 151.41 168.25 151.82C168.23 152.12 168.1 152.48 168.25 152.76C168.34 152.93 168.79 152.82 168.78 152.62C168.78 152.6 168.78 152.57 168.78 152.55C168.78 152.52 168.71 152.52 168.69 152.52H168.66Z" fill="black"/>
<path d="M179.34 149.44C179.16 150.03 179.18 150.61 179.19 151.22C179.19 151.85 179.11 152.62 179.37 153.2C179.43 153.33 179.78 153.22 179.82 153.11C179.98 152.55 179.87 151.93 179.82 151.35C179.76 150.7 179.75 150.02 179.47 149.42C179.45 149.38 179.36 149.42 179.35 149.45L179.34 149.44Z" fill="black"/>
<path d="M183.61 149.52C183.46 150.03 183.42 150.57 183.4 151.1C183.37 151.67 183.25 152.31 183.43 152.85C183.47 152.96 183.86 152.84 183.89 152.75C184.05 152.24 183.99 151.72 183.98 151.19C183.97 150.62 183.98 150.03 183.8 149.47C183.79 149.42 183.61 149.47 183.6 149.51L183.61 149.52Z" fill="black"/>
<path d="M182.69 85.3599C171.02 85.7199 159.04 88.5699 151.82 98.4999C144.69 108.3 144.29 121.41 150 131.98C151.74 135.2 154.04 137.94 156.52 140.59C159.04 143.29 161.51 145.99 162.75 149.54C162.92 150.03 164.22 149.66 164.06 149.19C162.32 144 157.81 140.74 154.41 136.69C150.6 132.15 148.06 126.49 147.2 120.62C145.46 108.78 151.14 96.4699 161.81 90.7799C168.13 87.4099 175.38 86.4999 182.43 85.9799C182.81 85.9499 183.33 85.3399 182.69 85.3599Z" fill="black"/>
<path d="M181.77 86.1003C196.31 85.7403 210.28 94.1703 214.41 108.56C218.95 124.35 207.91 137.87 198.19 148.95C197.9 149.28 199.23 149.11 199.47 148.85C207.58 139.7 216.49 129.37 216.77 116.46C217.02 104.93 210.04 94.2703 199.82 89.2003C194.36 86.4903 188.21 85.3503 182.14 85.7303C181.91 85.7403 181.18 86.1103 181.76 86.0903L181.77 86.1003Z" fill="black"/>
<path d="M175.07 86.1402C163.42 88.5402 157.52 101.2 156.55 111.93C155.95 118.56 156.49 125.42 158.73 131.71C160.99 138.07 164.72 143.77 168.39 149.38C168.61 149.71 169.73 149.33 169.46 148.92C166.12 143.75 162.74 138.52 160.46 132.77C158.05 126.68 157.16 120.13 157.53 113.6C158.2 101.72 163.56 90.6702 175.26 86.4902C175.69 86.3402 175.39 86.0602 175.06 86.1302L175.07 86.1402Z" fill="black"/>
<path d="M184.99 86.5001C198.36 87.6001 204.3 102.11 204.84 113.78C205.16 120.68 203.64 127.44 201 133.79C199.85 136.55 198.52 139.23 197.1 141.86C195.73 144.42 193.7 147.01 192.81 149.77C192.69 150.16 193.55 149.97 193.68 149.82C195.74 147.37 197.17 144.1 198.65 141.27C200.17 138.38 201.57 135.42 202.74 132.38C205.26 125.83 206.45 118.9 205.86 111.89C204.87 100.18 198.41 86.9701 185.28 86.0001C184.94 85.9801 184.43 86.4501 184.98 86.5001H184.99Z" fill="black"/>
<path d="M180.15 85.6899C171.83 92.7499 170.45 104.07 170.62 114.35C170.82 126.29 172.87 138.12 176.68 149.44C176.83 149.9 177.88 149.61 177.72 149.16C174.06 138.43 171.89 127.2 171.5 115.86C171.13 105.27 172.16 93.4699 180.61 85.9899C180.97 85.6699 180.41 85.4699 180.15 85.6899Z" fill="black"/>
<path d="M184.06 86.28C188.24 89.23 190.24 94.09 191.41 98.9C192.73 104.3 193.41 109.88 193.57 115.43C193.91 127.15 191.34 138.1 187.42 149.05C187.27 149.46 188.34 149.32 188.48 149.02C193.35 138.53 195.08 126.25 194.62 114.78C194.39 108.96 193.56 103.08 191.94 97.48C190.64 92.97 188.65 88.63 184.67 85.9C184.44 85.75 183.74 86.07 184.06 86.29V86.28Z" fill="black"/>
<path d="M170.59 178.59C172.39 178.82 174.27 179.04 176.08 179.03C176.14 179.03 176.38 178.91 176.22 178.88C174.45 178.55 172.53 178.5 170.73 178.43C170.66 178.43 170.43 178.56 170.58 178.58L170.59 178.59Z" fill="black"/>
<path d="M187.4 180.89C187.59 181.09 187.99 180.97 188.23 180.96C188.61 180.94 189.03 180.97 189.38 180.83C189.44 180.8 189.47 180.71 189.39 180.68C189.06 180.57 188.67 180.65 188.32 180.68C188.03 180.7 187.62 180.64 187.4 180.84C187.39 180.85 187.37 180.87 187.39 180.89H187.4Z" fill="black"/>
<path d="M173.96 189.86C174.74 189.82 175.49 189.95 176.25 190.14C176.3 190.15 176.52 190.08 176.43 190.04C175.69 189.72 174.9 189.65 174.11 189.69C174 189.69 173.73 189.88 173.96 189.86Z" fill="black"/>
<path d="M188.7 186.17C188.92 186.28 189.17 186.29 189.41 186.32C189.69 186.36 189.98 186.39 190.26 186.38C190.33 186.38 190.46 186.28 190.35 186.23C189.92 186.06 189.29 185.96 188.83 186C188.78 186 188.59 186.1 188.7 186.16V186.17Z" fill="black"/>
<path d="M200.16 99.6799C202.52 105.04 203.22 110.68 202.71 116.48C202.71 116.52 202.8 116.51 202.8 116.48C203.74 110.82 202.67 104.82 200.23 99.6699C200.22 99.6399 200.14 99.6699 200.16 99.6899V99.6799Z" fill="black"/>
<path d="M160.31 122.25C160.33 127.68 161.9 133.4 164.9 137.96C164.92 137.99 165.02 137.96 165 137.92C162.33 132.96 160.73 127.87 160.4 122.22C160.4 122.19 160.3 122.21 160.3 122.25H160.31Z" fill="black"/>
<path d="M177.13 93.42C175.13 97.48 173.93 102.32 174.05 106.87C174.05 106.9 174.15 106.88 174.15 106.85C174.34 104.53 174.54 102.25 175.05 99.97C175.56 97.72 176.32 95.55 177.17 93.42C177.17 93.4 177.13 93.42 177.13 93.42Z" fill="black"/>
<path d="M191.24 125.04C191.23 127.49 190.8 129.79 190.28 132.18C190.27 132.23 190.38 132.2 190.4 132.17C191.24 129.91 191.46 127.42 191.34 125.03C191.34 125 191.24 125.02 191.24 125.05V125.04Z" fill="black"/>
<path d="M213.44 120.13C212.49 123.53 211.37 126.85 209.8 130.02C208.28 133.1 206.37 135.85 204.37 138.62C204.3 138.72 204.54 138.72 204.59 138.66C206.81 136.04 208.6 132.96 210.09 129.87C211.58 126.78 212.81 123.49 213.51 120.12C213.51 120.09 213.46 120.1 213.45 120.12L213.44 120.13Z" fill="black"/>
<path d="M156.34 96.2501C153.83 98.6201 151.86 101.6 150.47 104.76C149.09 107.93 148.04 111.64 148.24 115.12C148.24 115.16 148.37 115.12 148.37 115.09C148.72 111.59 149.18 108.31 150.55 105.03C151.93 101.72 153.95 98.8501 156.4 96.2401C156.42 96.2201 156.36 96.2301 156.35 96.2401L156.34 96.2501Z" fill="black"/>
<path d="M118.4 22.31C118.58 14.04 113.57 6.40002 106.24 2.76002C102.49 0.890018 98.2798 0.0700182 94.0998 0.250018C94.1998 0.130018 94.2098 -0.0099818 93.9498 1.82005e-05C85.5798 0.260018 76.9898 2.30002 71.8098 9.42002C66.6998 16.44 66.4098 25.85 70.4998 33.43C71.7498 35.74 73.3898 37.7 75.1698 39.61C76.9798 41.55 78.7498 43.48 79.6398 46.03C79.6398 46.03 79.6398 46.03 79.6398 46.04C79.5398 46.31 79.5998 46.66 79.6098 46.97C79.6198 47.36 79.6098 47.74 79.6298 48.13C79.6298 48.33 79.5998 48.58 79.7698 48.72C79.9198 48.85 80.1798 48.82 80.3498 48.83C80.5998 48.84 80.8398 48.87 81.0798 48.86C81.0998 48.87 81.1298 48.88 81.1598 48.89C81.7298 51.75 82.5898 54.58 83.3598 57.39C83.7398 58.79 84.1398 60.19 84.5698 61.58C84.9798 62.89 85.2898 64.34 85.8898 65.59C85.6098 65.62 85.3498 65.71 85.1598 65.95C84.7098 66.51 84.5098 68.59 85.1298 69.11C85.4798 69.4 85.9298 69.43 86.3798 69.37C86.1998 70.55 86.2098 71.75 86.2698 72.94C86.3198 73.94 86.2798 75.32 87.1298 76.03C87.7098 76.51 88.5198 76.51 89.2298 76.55C90.7298 76.62 92.2398 76.61 93.7498 76.62C95.2998 76.63 97.7798 77.14 99.0398 75.91C100.44 74.53 99.8998 71.3 99.6498 69.43C100.07 69.39 100.47 69.26 100.74 68.91C101.17 68.35 101.07 66.38 100.65 65.88C100.54 65.75 100.38 65.65 100.2 65.58C101.14 63.03 101.73 60.27 102.45 57.66C103.21 54.87 104.22 51.93 104.56 49.03C104.94 49.04 105.32 49.03 105.7 49.01C105.83 49.01 106.03 48.91 106.03 48.76C106.07 47.91 106.34 46.97 106.26 46.13C106.23 45.84 106.11 45.67 105.92 45.57C105.94 45.55 105.95 45.54 105.97 45.53C111.79 38.97 118.17 31.56 118.38 22.3L118.4 22.31Z" fill="white"/>
<path d="M87.3296 68.9202C86.7196 68.6902 86.0996 68.4702 85.4896 68.2402C85.4596 67.9202 85.4696 67.6102 85.5196 67.3002C85.5396 67.0702 85.5396 66.4702 85.6396 66.3102C86.0596 65.6202 87.2696 66.0602 87.9096 66.1102C89.6196 66.2502 91.3296 66.1902 93.0396 66.1002C94.7196 66.0102 96.4996 65.7802 98.1796 65.9502C98.7596 66.0102 99.6796 66.1002 99.9296 66.6502C100.03 66.8702 100.03 67.6102 99.9996 67.8002C99.9396 68.3302 99.8096 68.7002 99.1696 68.9302C99.0896 68.9602 98.1896 69.0202 98.4096 68.9902C97.9996 69.0402 97.6496 69.4902 98.2796 69.4402C99.0696 69.3802 100.18 69.6602 100.76 68.9102C101.19 68.3502 101.09 66.3802 100.67 65.8902C100.11 65.2302 98.4096 65.4602 97.6896 65.4602C95.7796 65.4602 93.8696 65.6302 91.9596 65.7202C91.0996 65.7602 90.2296 65.8002 89.3696 65.7902C88.3296 65.7802 87.2596 65.5402 86.2196 65.5802C85.8196 65.6002 85.4496 65.6402 85.1796 65.9702C84.7296 66.5302 84.5296 68.6102 85.1496 69.1302C85.7596 69.6502 86.7196 69.3602 87.3696 69.1102C87.5496 69.0402 87.4996 68.9202 87.3196 68.9402L87.3296 68.9202Z" fill="black"/>
<path d="M86.4397 69.1302C86.2097 70.3902 86.2297 71.6702 86.2997 72.9402C86.3497 73.9402 86.3097 75.3202 87.1597 76.0302C87.7397 76.5102 88.5497 76.5102 89.2597 76.5502C90.7597 76.6202 92.2697 76.6102 93.7797 76.6202C95.3297 76.6302 97.8097 77.1402 99.0697 75.9102C100.55 74.4602 99.8597 70.9402 99.6397 69.1402C99.6097 68.8702 98.7597 69.0602 98.7997 69.3602C99.0097 71.1002 99.3697 73.3702 98.7297 75.0502C98.0797 76.7602 93.9697 76.1202 92.4197 76.1302C90.6397 76.1402 87.6797 76.7702 87.1497 74.5002C86.7397 72.7202 86.9597 70.8502 86.9397 69.0402C86.9397 68.8802 86.4697 69.0002 86.4397 69.1402V69.1302Z" fill="black"/>
<path d="M87.8099 69.43C91.3699 69.57 94.9499 69.43 98.5199 69.43C98.8599 69.43 98.9799 68.99 98.5699 68.99C95.0299 69.01 91.4699 68.88 87.9299 69.04C87.6999 69.05 87.4799 69.41 87.8099 69.43Z" fill="black"/>
<path d="M81.1499 48.6598C81.7199 51.5998 82.5999 54.5098 83.3999 57.3898C83.7799 58.7898 84.1799 60.1898 84.6099 61.5798C85.0599 63.0298 85.3999 64.6498 86.1299 65.9898C86.1899 66.0998 86.5299 66.0198 86.5199 65.8898C86.3399 64.3798 85.6799 62.8698 85.2399 61.4198C84.8199 60.0298 84.3899 58.6398 83.9599 57.2498C83.0899 54.3798 82.3999 51.4398 81.4899 48.5798C81.4599 48.4698 81.1399 48.5598 81.1599 48.6698L81.1499 48.6598Z" fill="black"/>
<path d="M84.9399 48.6801C85.0599 51.6201 86.1599 54.7201 86.9399 57.5401C87.7199 60.3701 88.3399 63.5701 89.6599 66.2001C89.7199 66.3201 90.1499 66.2001 90.1199 66.0801C89.5099 63.1601 88.1999 60.3101 87.3999 57.4201C86.5999 54.5501 86.2199 51.4001 85.1399 48.6301C85.1199 48.5801 84.9499 48.6301 84.9499 48.6801H84.9399Z" fill="black"/>
<path d="M100.9 48.5802C99.6896 51.1602 99.1096 54.1402 98.3296 56.8802C97.4996 59.8202 96.7096 62.7702 95.9996 65.7402C95.9396 65.9902 96.5696 65.8902 96.6296 65.6702C97.3996 62.8202 98.1396 59.9502 98.8796 57.0902C99.5896 54.3202 100.72 51.4202 100.98 48.5802C100.98 48.5402 100.9 48.5602 100.89 48.5802H100.9Z" fill="black"/>
<path d="M104.39 48.4699C103.31 51.2499 102.76 54.2899 101.98 57.1699C101.16 60.1999 100.01 63.2399 99.3997 66.3099C99.3497 66.5599 99.8897 66.4599 99.9497 66.2999C101.06 63.5499 101.69 60.5199 102.47 57.6599C103.28 54.6899 104.37 51.5399 104.64 48.4699C104.65 48.3499 104.41 48.3999 104.38 48.4699H104.39Z" fill="black"/>
<path d="M80.96 45.6999C80.7 45.4999 80.26 45.5399 79.98 45.6999C79.48 45.9599 79.62 46.5199 79.63 46.9899C79.64 47.3799 79.63 47.7699 79.65 48.1499C79.65 48.3499 79.62 48.5899 79.79 48.7399C79.94 48.8599 80.2 48.8399 80.37 48.8499C80.73 48.8699 81.09 48.9099 81.45 48.8499C81.5 48.8399 81.81 48.6899 81.64 48.6299C81.39 48.5399 81.15 48.5499 80.88 48.5399C80.75 48.5399 80.49 48.5799 80.38 48.5199C80.12 48.3899 80.2 48.0599 80.2 47.8299C80.2 47.4799 80.2 47.1199 80.2 46.7699C80.2 46.6399 80.17 46.3099 80.22 46.1799C80.3 45.9899 80.56 45.9299 80.73 45.9099C80.78 45.9099 81.07 45.7999 80.95 45.7099L80.96 45.6999Z" fill="black"/>
<path d="M105.21 45.87C105.92 45.93 105.65 46.8 105.61 47.24C105.57 47.77 105.52 48.29 105.45 48.81C105.59 48.73 105.72 48.65 105.86 48.56C105.37 48.52 104.87 48.51 104.37 48.53C104.08 48.54 103.82 48.99 104.23 49.02C104.73 49.05 105.23 49.05 105.73 49.02C105.86 49.02 106.06 48.92 106.06 48.77C106.09 47.92 106.37 46.98 106.29 46.14C106.24 45.59 105.82 45.46 105.33 45.48C105.1 45.48 104.88 45.85 105.22 45.88L105.21 45.87Z" fill="black"/>
<path d="M81.2597 48.9001C88.9797 49.1101 96.7397 48.9201 104.47 48.9501C104.86 48.9501 104.98 48.4401 104.52 48.4301C96.7997 48.3101 89.0097 48.1201 81.2997 48.4801C80.9797 48.5001 80.8797 48.8901 81.2597 48.9001Z" fill="black"/>
<path d="M80.2799 45.9202C88.6299 46.2702 97.0199 46.0202 105.38 46.1202C105.71 46.1202 106.32 45.6202 105.73 45.6302C97.3199 45.7002 88.8999 45.5402 80.4799 45.6502C80.2999 45.6502 79.9299 45.9202 80.2799 45.9302V45.9202Z" fill="black"/>
<path d="M101.99 45.9602C101.7 46.2202 101.73 46.6202 101.71 47.0002C101.69 47.3802 101.6 47.9002 101.84 48.2002C101.93 48.3102 102.15 48.2602 102.2 48.1402C102.36 47.7802 102.23 47.3502 102.23 46.9602C102.23 46.6402 102.37 46.2102 102.14 45.9602C102.1 45.9202 102.03 45.9202 101.98 45.9602H101.99Z" fill="black"/>
<path d="M83.9 48.1699C83.9 48.1699 83.84 48.1799 83.8 48.1899C83.85 48.2299 83.9 48.2599 83.95 48.2999C84.28 47.9099 84.22 47.1399 84.18 46.6499C84.18 46.5999 84.1 46.5699 84.07 46.5699C83.89 46.5399 83.86 46.5499 83.71 46.6399C83.65 46.6799 83.59 46.7299 83.6 46.8099C83.62 47.0999 83.61 47.3899 83.6 47.6699C83.58 47.8799 83.49 48.1499 83.6 48.3399C83.67 48.4599 83.99 48.3799 83.98 48.2399C83.98 48.2199 83.98 48.2099 83.98 48.1899C83.98 48.1699 83.93 48.1699 83.92 48.1699H83.9Z" fill="black"/>
<path d="M91.5599 45.9602C91.4299 46.3802 91.4499 46.8002 91.4499 47.2402C91.4499 47.6902 91.3899 48.2402 91.5799 48.6602C91.6199 48.7502 91.8799 48.6802 91.8999 48.5902C92.0199 48.1902 91.9399 47.7402 91.8999 47.3302C91.8599 46.8602 91.8499 46.3802 91.6499 45.9502C91.6399 45.9202 91.5699 45.9502 91.5599 45.9702V45.9602Z" fill="black"/>
<path d="M94.6199 46.0102C94.5099 46.3802 94.4899 46.7602 94.4699 47.1402C94.4499 47.5502 94.3599 48.0102 94.4899 48.4002C94.5199 48.4802 94.7999 48.4002 94.8199 48.3302C94.9399 47.9702 94.8899 47.5902 94.8899 47.2102C94.8899 46.8002 94.8899 46.3802 94.7599 45.9802C94.7499 45.9502 94.6299 45.9802 94.6199 46.0102Z" fill="black"/>
<path d="M93.9596 0C85.5896 0.26 76.9996 2.3 71.8196 9.42C66.7096 16.45 66.4196 25.85 70.5096 33.43C71.7596 35.74 73.3996 37.7 75.1896 39.61C76.9996 41.55 78.7696 43.48 79.6596 46.03C79.7796 46.38 80.7096 46.12 80.5996 45.78C79.3496 42.06 76.1196 39.72 73.6796 36.82C70.9496 33.56 69.1296 29.51 68.5096 25.3C67.2596 16.81 71.3396 7.98 78.9896 3.9C83.5196 1.48 88.7196 0.83 93.7796 0.46C94.0496 0.44 94.4196 0 93.9696 0.02L93.9596 0Z" fill="black"/>
<path d="M93.2997 0.529996C103.73 0.269996 113.74 6.31999 116.71 16.63C119.97 27.95 112.05 37.65 105.08 45.6C104.87 45.84 105.83 45.72 105.99 45.53C111.81 38.97 118.2 31.56 118.4 22.3C118.58 14.03 113.57 6.39 106.25 2.75C102.33 0.819996 97.9197 -3.54648e-06 93.5697 0.279996C93.3997 0.289996 92.8797 0.549996 93.2997 0.539996V0.529996Z" fill="black"/>
<path d="M88.4998 0.559872C80.1498 2.27987 75.9098 11.3599 75.2198 19.0499C74.7898 23.8099 75.1798 28.7199 76.7798 33.2399C78.3998 37.7999 81.0798 41.8899 83.7098 45.9099C83.8698 46.1499 84.6698 45.8799 84.4798 45.5799C82.0798 41.8699 79.6598 38.1199 78.0298 33.9999C76.2998 29.6299 75.6598 24.9399 75.9298 20.2499C76.4098 11.7299 80.2598 3.80987 88.6498 0.809872C88.9598 0.699872 88.7498 0.499872 88.4998 0.549872V0.559872Z" fill="black"/>
<path d="M95.6096 0.819809C105.2 1.60981 109.46 12.0198 109.84 20.3898C110.07 25.3398 108.98 30.1898 107.09 34.7398C106.27 36.7198 105.31 38.6398 104.3 40.5298C103.31 42.3698 101.86 44.2198 101.23 46.1998C101.14 46.4798 101.76 46.3398 101.85 46.2298C103.33 44.4698 104.35 42.1298 105.42 40.0998C106.51 38.0298 107.51 35.9098 108.35 33.7198C110.15 29.0198 111.01 24.0598 110.59 19.0298C109.88 10.6298 105.24 1.15981 95.8296 0.459809C95.5896 0.439809 95.2196 0.789809 95.6096 0.819809Z" fill="black"/>
<path d="M92.1297 0.239937C86.1597 5.29994 85.1697 13.4199 85.2997 20.7899C85.4397 29.3499 86.9197 37.8399 89.6397 45.9599C89.7497 46.2899 90.4997 46.0799 90.3897 45.7599C87.7697 38.0699 86.2097 30.0099 85.9297 21.8799C85.6697 14.2899 86.3997 5.82994 92.4597 0.459937C92.7197 0.229937 92.3197 0.079937 92.1297 0.239937Z" fill="black"/>
<path d="M94.9399 0.660054C97.9399 2.77005 99.3699 6.26005 100.21 9.71005C101.15 13.5801 101.65 17.5801 101.76 21.5601C102 29.9601 100.16 37.8201 97.3499 45.6701C97.2399 45.9601 98.0099 45.8601 98.1099 45.6501C101.61 38.1301 102.84 29.3201 102.51 21.0901C102.34 16.9201 101.75 12.7001 100.59 8.68005C99.6599 5.44005 98.2299 2.33005 95.3799 0.370054C95.2199 0.260054 94.7099 0.490054 94.9499 0.650054L94.9399 0.660054Z" fill="black"/>
<path d="M85.2801 66.86C86.5701 67.02 87.9201 67.18 89.2201 67.18C89.2601 67.18 89.4301 67.1 89.3201 67.07C88.0501 66.84 86.6801 66.8 85.3901 66.75C85.3401 66.75 85.1701 66.85 85.2901 66.86H85.2801Z" fill="black"/>
<path d="M97.3398 68.52C97.4798 68.66 97.7598 68.58 97.9398 68.57C98.2098 68.56 98.5098 68.57 98.7698 68.48C98.8198 68.46 98.8398 68.39 98.7698 68.37C98.5298 68.29 98.2498 68.35 98.0098 68.37C97.7998 68.38 97.5098 68.34 97.3498 68.49C97.3498 68.49 97.3298 68.52 97.3498 68.53L97.3398 68.52Z" fill="black"/>
<path d="M87.7001 74.9399C88.2601 74.9099 88.8001 74.9999 89.3401 75.1399C89.3701 75.1399 89.5301 75.0999 89.4701 75.0699C88.9401 74.8399 88.3701 74.7899 87.8001 74.8199C87.7201 74.8199 87.5201 74.9499 87.6901 74.9399H87.7001Z" fill="black"/>
<path d="M98.2697 72.2998C98.4297 72.3798 98.6097 72.3898 98.7797 72.4098C98.9797 72.4398 99.1897 72.4598 99.3897 72.4498C99.4397 72.4498 99.5397 72.3798 99.4497 72.3398C99.1397 72.2198 98.6897 72.1398 98.3597 72.1798C98.3197 72.1798 98.1897 72.2498 98.2697 72.2998Z" fill="black"/>
<path d="M106.49 10.2798C108.18 14.1298 108.68 18.1698 108.32 22.3298C108.32 22.3598 108.38 22.3498 108.39 22.3298C109.06 18.2698 108.3 13.9698 106.55 10.2698C106.55 10.2498 106.49 10.2698 106.5 10.2798H106.49Z" fill="black"/>
<path d="M77.9099 26.4602C77.9299 30.3602 79.0499 34.4602 81.1999 37.7202C81.2099 37.7402 81.2899 37.7202 81.2699 37.6902C79.3599 34.1302 78.1999 30.4802 77.9699 26.4302C77.9699 26.4102 77.8999 26.4302 77.8999 26.4502L77.9099 26.4602Z" fill="black"/>
<path d="M89.9698 5.77984C88.5398 8.68984 87.6698 12.1698 87.7598 15.4198C87.7598 15.4398 87.8298 15.4198 87.8298 15.4098C87.9598 13.7498 88.1098 12.1098 88.4698 10.4798C88.8298 8.86983 89.3798 7.30984 89.9898 5.77984C89.9898 5.76984 89.9598 5.77984 89.9598 5.77984H89.9698Z" fill="black"/>
<path d="M100.09 28.46C100.09 30.22 99.7699 31.87 99.3999 33.58C99.3999 33.61 99.4699 33.6 99.4799 33.57C100.08 31.95 100.24 30.16 100.15 28.45C100.15 28.43 100.08 28.45 100.08 28.46H100.09Z" fill="black"/>
<path d="M116.01 24.9403C115.33 27.3803 114.52 29.7603 113.4 32.0303C112.31 34.2403 110.94 36.2103 109.51 38.2003C109.46 38.2703 109.63 38.2703 109.66 38.2303C111.25 36.3503 112.53 34.1403 113.6 31.9303C114.67 29.7103 115.55 27.3503 116.05 24.9403C116.05 24.9203 116.01 24.9303 116.01 24.9403Z" fill="black"/>
<path d="M75.0598 7.81011C73.2598 9.51011 71.8398 11.6501 70.8498 13.9101C69.8598 16.1801 69.1098 18.8401 69.2498 21.3401C69.2498 21.3701 69.3398 21.3401 69.3498 21.3201C69.5998 18.8101 69.9298 16.4501 70.9098 14.1101C71.8998 11.7301 73.3498 9.68011 75.0998 7.81011C75.1098 7.80011 75.0698 7.81011 75.0598 7.81011Z" fill="black"/>
</g>
<defs>
<clipPath id="clip0_2018_1814">
<rect width="216.78" height="313" fill="white"/>
</clipPath>
</defs>
</svg>
