<svg width="70" height="70" viewBox="0 0 70 70" fill="none" xmlns="http://www.w3.org/2000/svg">
<circle opacity="0.15" cx="35" cy="35" r="35" fill="url(#paint0_linear_2560_26)"/>
<path d="M14.1562 42.625V44.0625C14.1574 44.4434 14.3092 44.8084 14.5785 45.0777C14.8479 45.347 15.2129 45.4989 15.5938 45.5H18.4688C18.4688 44.3563 18.9231 43.2594 19.7319 42.4506C20.5406 41.6419 21.6375 41.1875 22.7812 41.1875C23.925 41.1875 25.0219 41.6419 25.8306 42.4506C26.6394 43.2594 27.0938 44.3563 27.0938 45.5H34.2812V34H22.7812L15.3566 35.2363C15.0218 35.2931 14.7178 35.4663 14.4982 35.7254C14.2787 35.9844 14.1575 36.3126 14.1562 36.6522V36.875H17.75C17.9406 36.875 18.1234 36.9507 18.2582 37.0855C18.393 37.2203 18.4688 37.4031 18.4688 37.5938V39.0312C18.4688 39.2219 18.393 39.4047 18.2582 39.5395C18.1234 39.6743 17.9406 39.75 17.75 39.75H14.1562V42.625Z" fill="#02EDD6"/>
<path d="M55.8438 42.625V35.9909C55.8437 35.6404 55.716 35.3019 55.4845 35.0387C55.253 34.7754 54.9336 34.6055 54.5859 34.5606L50.0938 34L45.8603 25.5259C45.62 25.0493 45.2523 24.6486 44.7981 24.3682C44.3439 24.0878 43.821 23.9388 43.2872 23.9375H30.1988C29.692 23.9382 29.1943 24.0729 28.7564 24.3278C28.3184 24.5828 27.9556 24.949 27.7047 25.3894L26.8925 26.8125H43.0931C43.2469 26.8121 43.3966 26.8616 43.5197 26.9537C43.6429 27.0457 43.7328 27.1752 43.7759 27.3228L45.5009 33.0728C45.5334 33.1798 45.5404 33.2929 45.5214 33.403C45.5025 33.5132 45.4581 33.6175 45.3918 33.7075C45.3255 33.7975 45.2392 33.8708 45.1396 33.9216C45.04 33.9724 44.9299 33.9992 44.8181 34H34.2813V45.5H42.9063C42.9063 44.3563 43.3606 43.2594 44.1694 42.4506C44.9781 41.6419 46.075 41.1875 47.2188 41.1875C48.3625 41.1875 49.4594 41.6419 50.2681 42.4506C51.0769 43.2594 51.5313 44.3563 51.5313 45.5H54.4063C54.7871 45.4989 55.1521 45.347 55.4215 45.0777C55.6908 44.8084 55.8426 44.4434 55.8438 44.0625V42.625Z" fill="#02EDD6"/>
<path d="M15.2394 34.5283L22.3263 33.3474L27.0794 25.03C27.3941 24.4803 27.8484 24.0234 28.3962 23.7054C28.944 23.3873 29.566 23.2195 30.1995 23.2188H31.4062V21.7812H29.9688C29.7781 21.7812 29.5953 21.7055 29.4605 21.5707C29.3257 21.4359 29.25 21.2531 29.25 21.0625V18.1875C29.25 17.9969 29.3257 17.8141 29.4605 17.6793C29.5953 17.5445 29.7781 17.4688 29.9688 17.4688H42.9062C43.0969 17.4688 43.2797 17.5445 43.4145 17.6793C43.5493 17.8141 43.625 17.9969 43.625 18.1875V21.0625C43.625 21.2531 43.5493 21.4359 43.4145 21.5707C43.2797 21.7055 43.0969 21.7812 42.9062 21.7812H41.4688V23.2188H43.2857C43.9536 23.2164 44.6088 23.4014 45.1769 23.7525C45.745 24.1036 46.2034 24.607 46.5 25.2054L50.5645 33.3344L54.6736 33.8483C55.1952 33.9135 55.6749 34.1669 56.0228 34.561C56.3706 34.955 56.5625 35.4625 56.5625 35.9881V44.0625C56.5625 44.6344 56.3353 45.1828 55.9309 45.5872C55.5266 45.9916 54.9781 46.2188 54.4062 46.2188H52.1925C52.0206 47.4154 51.4231 48.5099 50.5096 49.3017C49.596 50.0934 48.4276 50.5292 47.2188 50.5292C46.0099 50.5292 44.8415 50.0934 43.9279 49.3017C43.0144 48.5099 42.4169 47.4154 42.245 46.2188H27.755C27.5831 47.4154 26.9856 48.5099 26.0721 49.3017C25.1585 50.0934 23.9901 50.5292 22.7812 50.5292C21.5724 50.5292 20.404 50.0934 19.4904 49.3017C18.5769 48.5099 17.9794 47.4154 17.8075 46.2188H15.5938C15.0219 46.2188 14.4734 45.9916 14.0691 45.5872C13.6647 45.1828 13.4375 44.6344 13.4375 44.0625V36.6551C13.4362 36.1443 13.6169 35.6498 13.947 35.2601C14.2772 34.8703 14.7354 34.6109 15.2394 34.5283ZM33.5625 27.5312H27.3094L24.0233 33.2812H33.5625V27.5312ZM35 33.2812H44.8124L43.0931 27.5312H35V33.2812ZM42.1875 18.9062H30.6875V20.3438H42.1875V18.9062ZM40.0312 21.7812H32.8438V23.2188H40.0312V21.7812ZM55.125 44.0625V43.3438H52.9688V41.9062H55.125V35.9881C55.1251 35.8128 55.0612 35.6435 54.9452 35.5121C54.8293 35.3806 54.6693 35.2961 54.4954 35.2743L50.0046 34.713C49.8871 34.6984 49.7751 34.655 49.6784 34.5867C49.5817 34.5183 49.5034 34.4272 49.4505 34.3213L45.2142 25.8479C45.0363 25.4889 44.7613 25.1869 44.4204 24.9763C44.0795 24.7656 43.6864 24.6548 43.2857 24.6562H30.1995C29.8199 24.6569 29.4472 24.7577 29.1191 24.9485C28.7909 25.1393 28.519 25.4134 28.3307 25.743L28.1302 26.0938H43.0931C43.4014 26.0936 43.7015 26.193 43.9487 26.3774C44.1958 26.5617 44.3768 26.821 44.4645 27.1165L46.1895 32.8586C46.2572 33.073 46.2729 33.3005 46.2354 33.5222C46.1979 33.7438 46.1083 33.9534 45.9739 34.1337C45.8405 34.3149 45.6664 34.4622 45.4656 34.5638C45.2649 34.6654 45.0431 34.7185 44.8181 34.7188H35V44.7812H42.245C42.4169 43.5846 43.0144 42.4901 43.9279 41.6983C44.8415 40.9066 46.0099 40.4708 47.2188 40.4708C48.4276 40.4708 49.596 40.9066 50.5096 41.6983C51.4231 42.4901 52.0206 43.5846 52.1925 44.7812H54.4062C54.5969 44.7812 54.7797 44.7055 54.9145 44.5707C55.0493 44.4359 55.125 44.2531 55.125 44.0625ZM47.2188 49.0938C47.9295 49.0938 48.6243 48.883 49.2153 48.4881C49.8063 48.0932 50.2669 47.5319 50.5389 46.8753C50.8109 46.2186 50.8821 45.496 50.7434 44.7989C50.6048 44.1018 50.2625 43.4614 49.7599 42.9588C49.2573 42.4562 48.617 42.114 47.9199 41.9753C47.2227 41.8366 46.5002 41.9078 45.8435 42.1798C45.1868 42.4518 44.6255 42.9124 44.2307 43.5034C43.8358 44.0944 43.625 44.7892 43.625 45.5C43.6261 46.4528 44.0051 47.3662 44.6788 48.0399C45.3526 48.7136 46.266 49.0926 47.2188 49.0938ZM22.7812 49.0938C23.492 49.0938 24.1868 48.883 24.7778 48.4881C25.3688 48.0932 25.8294 47.5319 26.1014 46.8753C26.3734 46.2186 26.4446 45.496 26.3059 44.7989C26.1673 44.1018 25.825 43.4614 25.3224 42.9588C24.8198 42.4562 24.1795 42.114 23.4824 41.9753C22.7852 41.8366 22.0627 41.9078 21.406 42.1798C20.7493 42.4518 20.188 42.9124 19.7932 43.5034C19.3983 44.0944 19.1875 44.7892 19.1875 45.5C19.1886 46.4528 19.5676 47.3662 20.2413 48.0399C20.9151 48.7136 21.8285 49.0926 22.7812 49.0938ZM15.5938 44.7812H17.8075C17.9794 43.5846 18.5769 42.4901 19.4904 41.6983C20.404 40.9066 21.5724 40.4708 22.7812 40.4708C23.9901 40.4708 25.1585 40.9066 26.0721 41.6983C26.9856 42.4901 27.5831 43.5846 27.755 44.7812H33.5625V34.7188H22.8402L15.4752 35.9464C15.3263 35.9731 15.1898 36.0466 15.0856 36.1562H17.75C18.1312 36.1562 18.4969 36.3077 18.7665 36.5773C19.036 36.8469 19.1875 37.2125 19.1875 37.5938V39.0312C19.1875 39.4125 19.036 39.7781 18.7665 40.0477C18.4969 40.3173 18.1312 40.4688 17.75 40.4688H14.875V41.9062H17.0312V43.3438H14.875V44.0625C14.875 44.2531 14.9507 44.4359 15.0855 44.5707C15.2203 44.7055 15.4031 44.7812 15.5938 44.7812ZM14.875 37.5938V39.0312H17.75V37.5938H14.875Z" fill="#122986"/>
<path d="M32.125 36.1562H29.25V37.5938H32.125V36.1562Z" fill="#122986"/>
<path d="M44.3438 36.1562H41.4688V37.5938H44.3438V36.1562Z" fill="#122986"/>
<path d="M47.9375 44.7812H46.5V46.2188H47.9375V44.7812Z" fill="#122986"/>
<path d="M23.5 44.7812H22.0625V46.2188H23.5V44.7812Z" fill="#122986"/>
<defs>
<linearGradient id="paint0_linear_2560_26" x1="35" y1="0" x2="35" y2="70" gradientUnits="userSpaceOnUse">
<stop offset="0.55" stop-color="#8FCCB9"/>
<stop offset="1" stop-color="#FBFBFB"/>
</linearGradient>
</defs>
</svg>
