<svg width="86" height="59" viewBox="0 0 86 59" fill="none" xmlns="http://www.w3.org/2000/svg">
<path d="M18.8796 21.4545C22.5967 21.4545 26.2302 22.5555 29.3208 24.6183C32.4115 26.6811 34.8203 29.613 36.2427 33.0433C37.6652 36.4735 38.0374 40.2481 37.3122 43.8896C36.5871 47.5312 34.7971 50.8762 32.1688 53.5016C29.5404 56.127 26.1917 57.9149 22.5461 58.6393C18.9005 59.3636 15.1217 58.9919 11.6876 57.571C8.25348 56.1501 5.3183 53.744 3.25322 50.6568C1.18815 47.5697 0.0859141 43.9402 0.0859141 40.2273L0 37.5454C0 27.5878 3.96009 18.0379 11.0091 10.9968C18.0581 3.95567 27.6186 0 37.5874 0V10.7273C34.0601 10.7178 30.5659 11.4069 27.3069 12.7547C24.0479 14.1025 21.0887 16.0823 18.6004 18.5796C17.6333 19.5438 16.7412 20.5802 15.9317 21.6798C16.8929 21.5296 17.8755 21.4492 18.8743 21.4492L18.8796 21.4545ZM67.2063 21.4545C70.9233 21.4545 74.5569 22.5555 77.6475 24.6183C80.7381 26.6811 83.147 29.613 84.5694 33.0433C85.9919 36.4735 86.364 40.2481 85.6389 43.8896C84.9137 47.5312 83.1238 50.8762 80.4954 53.5016C77.8671 56.127 74.5184 57.9149 70.8728 58.6393C67.2271 59.3636 63.4484 58.9919 60.0143 57.571C56.5802 56.1501 53.645 53.744 51.5799 50.6568C49.5148 47.5697 48.4126 43.9402 48.4126 40.2273L48.3267 37.5454C48.3267 27.5878 52.2868 18.0379 59.3358 10.9968C66.3848 3.95567 75.9453 0 85.9141 0V10.7273C82.3868 10.7178 78.8926 11.4069 75.6336 12.7547C72.3745 14.1025 69.4153 16.0823 66.9271 18.5796C65.96 19.5438 65.0678 20.5802 64.2584 21.6798C65.2195 21.5296 66.2022 21.4492 67.2063 21.4492V21.4545Z" fill="#DADADA" fill-opacity="0.8"/>
</svg>
