<svg width="365" height="223" viewBox="0 0 365 223" fill="none" xmlns="http://www.w3.org/2000/svg">
<g opacity="0.2" clip-path="url(#clip0_2031_3011)">
<path d="M101.75 32.1551C107.211 31.0162 112.917 32.6144 118.098 34.2646C118.205 34.2896 118.347 34.3843 118.485 34.4986C120.185 32.3178 122.954 31.054 125.759 31.2669C127.364 31.3846 130.403 32.2682 131.634 33.8594C133.39 32.1434 136.415 31.1036 138.548 30.5436C141.251 29.829 144.118 29.6455 146.88 30.0846C152.33 30.935 157.629 34.143 160.609 38.843C161.714 35.9996 164.885 34.0285 167.663 33.1672C171.282 32.0501 175.124 32.5256 178.535 34.0606C182.028 35.6355 185.093 38.3015 187.368 41.3583C189.102 43.6935 190.919 47.085 190.531 50.1572C193.171 50.198 195.811 51.6045 197.174 53.9043C198.317 55.8244 198.423 59.1555 196.979 61.0776C199.02 60.8247 201.274 61.022 203.01 61.2833C205.47 61.6519 207.924 62.5325 209.849 64.1419C214.126 67.7275 215.521 72.9304 215.203 78.2985C214.869 84.1763 211.795 87.9773 205.793 88.5692C199.961 89.1391 192.484 88.442 187.27 85.4389C183.108 86.9939 178.116 86.6918 173.949 85.4938C170.828 84.6116 167.07 83.0675 165.365 80.123C163.04 81.4186 159.807 81.8965 157.319 82.2608C154.362 82.7004 151.3 82.7051 148.392 81.9238C144.061 80.7696 139.713 77.794 138.24 73.4147C134.919 74.6629 130.812 74.9266 127.369 74.8524C124.275 74.7775 121.151 74.1718 118.38 72.7553C112.56 69.7544 109.617 63.2661 108.892 56.9975C101.013 56.2171 89.5264 50.128 91.7767 40.7028C92.8663 36.1205 97.3881 33.068 101.781 32.1521L101.75 32.1551Z" fill="white"/>
<path d="M187.006 84.4631C189.499 85.0448 191.893 86.0039 194.414 86.5099C196.945 87.0182 199.523 87.2807 202.101 87.2764C204.515 87.2747 207.217 87.1351 209.411 86.0041C212.118 84.6127 213.329 81.8453 213.608 78.9326C214.08 73.9598 213.294 69.3198 209.689 65.6242C207.66 63.5386 204.871 62.6414 202.008 62.4561C199.48 62.2874 196.896 62.9783 194.395 62.5593C194.118 62.5151 193.643 62.086 194.072 61.8779C196.522 60.6628 200.339 60.8961 202.989 61.2885C205.449 61.6572 207.894 62.5355 209.826 64.1569C214.103 67.7425 215.488 72.943 215.18 78.3135C214.836 84.189 211.771 87.9923 205.77 88.5842C199.768 89.1761 192.009 88.4132 186.777 85.1799C186.346 84.915 186.429 84.3388 187.003 84.4729L187.006 84.4631Z" fill="black"/>
<path d="M194.658 62.2203C195.364 60.0334 196.953 58.8125 196.771 56.2441C196.52 52.7455 193.338 50.6271 189.99 51.2015C189.562 51.2761 188.391 50.3971 189.003 50.2832C192.096 49.7007 195.532 51.1698 197.152 53.9095C198.677 56.4833 198.357 61.5532 194.958 62.4339C194.859 62.4622 194.609 62.3424 194.658 62.2203Z" fill="black"/>
<path d="M189.397 51.104C189.303 47.4161 188.664 44.6075 186.39 41.5919C184.163 38.6387 181.19 36.1071 177.748 34.7084C174.728 33.4802 171.398 33.2271 168.316 34.3357C165.096 35.5048 163.548 37.608 161.632 40.2725C161.328 40.6945 160.219 40.2099 160.338 39.7035C161.059 36.3908 164.601 34.1057 167.657 33.1551C171.265 32.0358 175.11 32.5015 178.526 34.0582C182.017 35.6429 185.084 38.2991 187.359 41.3559C189.344 44.0268 191.431 48.0665 190.211 51.4478C190.087 51.799 189.411 51.3536 189.4 51.0943L189.397 51.104Z" fill="black"/>
<path d="M160.118 39.6732C156.571 34.7178 151.455 31.1624 145.206 30.9675C142.83 30.8959 140.447 31.2949 138.221 32.1208C135.853 32.9853 134.079 34.6457 131.837 35.6732C131.515 35.8238 130.536 35.3081 130.797 34.8964C132.225 32.5598 136.017 31.2265 138.546 30.5535C141.249 29.839 144.116 29.6555 146.878 30.0946C152.634 30.9959 158.23 34.5194 161.088 39.6531C161.435 40.2783 160.354 39.9849 160.128 39.6755L160.118 39.6732Z" fill="black"/>
<path d="M131.84 35.0883C129.41 33.5767 127.63 31.7443 124.451 32.43C121.932 32.9718 120.176 34.6878 118.954 36.8877C118.657 37.4139 117.26 36.667 117.504 36.1077C118.917 32.9563 122.306 31.0157 125.738 31.272C127.695 31.4207 131.812 32.6995 132.126 35.0523C132.143 35.2 131.875 35.1169 131.83 35.0861L131.84 35.0883Z" fill="black"/>
<path d="M118.478 34.9282C110.653 32.8152 99.722 30.2854 94.5262 38.7359C92.4403 42.1308 92.9267 46.2079 95.1602 49.3988C98.4259 54.0628 103.852 54.8358 108.949 56.2302C109.209 56.3013 110.359 57.0933 109.558 57.0502C101.68 56.5778 89.4298 50.4134 91.746 40.7058C92.8356 36.1235 97.3573 33.071 101.75 32.1551C107.212 31.0162 112.918 32.6145 118.099 34.2647C118.433 34.3734 119.281 35.1362 118.48 34.9184L118.478 34.9282Z" fill="black"/>
<path d="M109.906 56.8338C111.378 62.9378 113.155 69.3596 119.473 72.0761C122.533 73.3959 125.869 73.712 129.174 73.4973C132.302 73.2927 135.361 72.3737 138.49 72.3437C138.798 72.3437 139.551 72.8582 139.004 73.09C135.566 74.619 131.047 74.9304 127.33 74.8435C124.234 74.7784 121.11 74.1728 118.341 72.7465C112.43 69.6937 109.49 63.0622 108.817 56.703C108.744 56.0493 109.777 56.3726 109.896 56.8316L109.906 56.8338Z" fill="black"/>
<path d="M138.955 72.8115C140.886 77.7391 145.34 80.7907 150.575 81.3242C153.355 81.6029 156.141 81.2776 158.848 80.6358C161.088 80.1007 163.248 79.1158 165.537 78.8589C165.788 78.8356 166.577 79.2864 166.203 79.5689C163.87 81.2939 160.092 81.8605 157.285 82.2735C154.328 82.7131 151.267 82.7177 148.358 81.9365C143.776 80.7135 139.177 77.4532 137.975 72.6548C137.838 72.099 138.829 72.4739 138.955 72.8115Z" fill="black"/>
<path d="M188.112 85.091C183.786 87.0391 178.383 86.7848 173.906 85.5043C170.383 84.4974 166.044 82.6739 164.774 78.9172C164.527 78.1715 166.086 78.7097 166.276 79.2161C167.692 83.0481 172.572 84.5357 176.237 85.1546C180.07 85.8024 183.624 85.2248 187.377 84.4573C187.614 84.4099 188.471 84.9179 188.114 85.0812L188.112 85.091Z" fill="black"/>
<path d="M146.214 40.7319C145.731 40.0749 145.527 39.627 144.738 39.2683C144.061 38.9564 143.514 38.8801 142.828 39.2232C142.434 39.4187 142.075 39.7251 141.826 40.088C141.546 40.4951 141.582 40.7808 141.134 40.9843C141.021 41.0298 140.734 40.8499 140.686 40.7464C140.119 39.2175 142.997 38.4104 144.084 38.6843C144.89 38.8826 146.648 39.7961 146.427 40.8329C146.415 40.8816 146.219 40.7537 146.204 40.7297L146.214 40.7319Z" fill="black"/>
<path d="M139.211 41.7472C138.649 41.2054 137.934 41.1003 137.207 41.3107C136.7 41.4594 136.325 41.834 135.806 41.9489C135.709 41.9674 135.399 41.8437 135.395 41.7298C135.319 40.7777 136.952 40.6452 137.618 40.739C138.413 40.8526 139.275 41.2489 139.761 41.8962C139.885 42.0689 139.289 41.8066 139.22 41.7495L139.211 41.7472Z" fill="black"/>
<path d="M111.958 36.5494C109.585 36.5092 106.989 36.1087 104.723 37.0177C103.544 37.4923 102.486 38.2415 101.768 39.2959C101.189 40.1467 101.112 41.0939 100.666 41.9961C100.586 42.1623 100.304 41.963 100.268 41.8519C99.4748 39.7056 101.557 37.6037 103.338 36.7048C105.98 35.3702 109.132 35.7668 111.898 36.412C111.947 36.4234 112.08 36.5571 111.968 36.5516L111.958 36.5494Z" fill="black"/>
<path d="M209.323 80.4384C209.32 77.9012 209.15 75.3254 208.602 72.8356C208.118 70.6383 207.141 68.7981 204.889 67.8415C203.693 67.3365 202.215 67.4641 200.95 67.2512C200.834 67.2239 200.167 66.8221 200.47 66.8003C202.91 66.5993 206.144 67.3948 207.78 69.358C210.114 72.1617 209.985 77.163 209.546 80.5416C209.537 80.5805 209.331 80.4916 209.333 80.4406L209.323 80.4384Z" fill="black"/>
<path d="M190.633 58.2623C191.013 57.4679 191.309 56.3766 190.395 55.7627C189.978 55.4807 189.401 55.531 188.961 55.7465C188.578 55.9345 188.349 56.302 187.97 56.4705C187.833 56.5309 187.557 56.3945 187.542 56.2371C187.454 55.5593 188.195 55.1571 188.772 55.0146C189.427 54.849 190.134 54.9421 190.703 55.3213C191.683 55.9607 192.195 57.7743 191.121 58.5917C190.946 58.7255 190.515 58.5018 190.621 58.2697L190.633 58.2623Z" fill="black"/>
<path d="M186.182 57.008C186.121 56.8294 185.975 56.6619 185.892 56.4886C185.789 56.2283 185.762 55.9449 185.479 55.8378C185.064 55.6794 184.585 56.0605 184.197 56.1855C184.076 56.2189 183.746 56.0907 183.739 55.9453C183.72 55.0578 185.018 55.1756 185.567 55.4167C185.921 55.5712 186.243 55.8209 186.457 56.1377C186.556 56.2841 186.681 56.498 186.688 56.6846C186.712 56.9778 186.544 56.9077 186.377 57.0946C186.325 57.144 186.192 57.0515 186.174 56.996L186.182 57.008Z" fill="black"/>
<path d="M143.995 69.2124C143.759 68.5515 143.361 67.8834 142.539 68.0613C142.053 68.1636 141.756 68.5976 141.303 68.7794C141.098 68.8651 140.787 68.659 140.767 68.4386C140.681 67.443 142.234 67.2099 142.955 67.4192C143.755 67.6468 144.65 68.4307 144.517 69.3545C144.472 69.6318 144.041 69.3669 143.991 69.2318L143.995 69.2124Z" fill="black"/>
<path d="M136.427 70.7122C135.432 69.9153 134.737 70.9135 133.918 71.3897C133.822 71.4495 133.611 71.3388 133.573 71.2375C133.34 70.4334 133.959 69.8488 134.718 69.7179C135.509 69.5842 136.398 69.9146 136.926 70.5103C137.284 70.9121 136.668 70.9121 136.427 70.7122Z" fill="black"/>
<path d="M231.694 136.354C233.37 131.549 237.513 128.182 242.581 127.629C245.836 127.28 250.731 128.083 253.36 130.637C254.691 125.854 259.375 121.885 263.947 120.425C268.752 118.887 273.117 119.279 277.322 121.851C283.358 118.998 291.616 119.035 297.489 121.987C301.477 123.995 305.604 128.09 306.67 132.724C311.719 131.899 316.64 134.485 320.052 138.125C321.871 140.059 323.222 142.408 324.017 144.944C324.599 146.805 325.145 149.397 324.727 151.497C329.744 150.942 335.008 152.366 338.735 155.844C342.352 159.224 344.17 164.238 342.69 169.088C339.618 179.215 326.245 178.262 318.442 174.254C314.07 176.839 308.298 177.063 303.526 175.642C300.636 174.783 297.377 173.17 294.936 170.958C293.508 172.103 290.19 171.935 288.609 171.977C285.821 172.045 283.053 171.717 280.349 171.025C277.587 170.319 274.914 169.233 272.454 167.807C270.99 166.952 269.386 165.993 268.086 164.786C266.42 165.896 263.433 166.154 261.807 166.217C259.194 166.326 256.591 165.862 254.193 164.83C250.099 163.054 245.737 158.997 244.462 154.427C240.828 155.479 236.921 153.52 234.586 150.675C231.259 146.624 229.942 141.357 231.696 136.344L231.694 136.354Z" fill="white"/>
<path d="M323.344 151.698C328.755 150.691 334.651 152.046 338.725 155.841C342.352 159.224 344.17 164.238 342.689 169.088C339.48 179.676 324.996 178.156 317.404 173.684C316.682 173.258 317.042 172.593 317.804 172.935C319.197 173.568 320.495 174.477 321.96 174.931C323.788 175.502 325.866 175.75 327.765 175.926C332.68 176.385 338.047 175.255 340.637 170.622C343.038 166.315 342.167 161.07 339.055 157.376C335.236 152.84 329.403 151.828 323.766 152.269C323.514 152.292 322.921 151.754 323.329 151.674L323.344 151.698Z" fill="black"/>
<path d="M323.921 152.747C323.636 150.36 323.942 148.08 323.32 145.686C322.734 143.444 321.709 141.325 320.275 139.502C318.584 137.331 316.191 135.356 313.613 134.343C311.104 133.347 308.714 133.776 306.115 133.826C305.816 133.829 304.823 133.155 305.437 132.99C310.9 131.492 316.349 134.191 320.043 138.123C321.861 140.057 323.222 142.408 324.007 144.942C324.722 147.245 325.383 150.664 324.254 152.907C324.181 153.044 323.926 152.861 323.919 152.757L323.921 152.747Z" fill="black"/>
<path d="M306.169 136.324C305.491 130.117 302.488 124.765 296.517 122.191C290.033 119.395 283.75 121.194 277.383 123.087C277.096 123.174 276.028 122.515 276.403 122.315C282.495 119.002 291.313 118.882 297.489 121.987C302.553 124.534 307.854 130.463 306.798 136.573C306.751 136.819 306.196 136.515 306.178 136.326L306.169 136.324Z" fill="black"/>
<path d="M277.442 122.701C275.573 121.864 273.772 120.828 271.699 120.601C269.157 120.316 266.224 120.874 263.869 121.814C259.033 123.746 256.505 127.407 254.32 131.888C254.069 132.394 253.062 131.913 253.168 131.414C254.178 126.289 259.129 121.971 263.934 120.433C268.906 118.841 273.415 119.318 277.748 122.136C278.221 122.441 277.96 122.945 277.44 122.711L277.442 122.701Z" fill="black"/>
<path d="M254.056 132.052C252.233 130.846 250.682 129.571 248.516 128.952C246.454 128.369 244.285 128.294 242.183 128.718C238.247 129.524 235.084 132.257 233.475 135.897C231.847 139.573 231.917 143.717 233.72 147.301C234.744 149.337 236.109 151.452 238.129 152.611C240.256 153.837 242.545 153.488 244.866 153.269C245.076 153.246 245.968 153.783 245.573 153.978C241.646 155.845 237.158 153.781 234.581 150.654C231.254 146.602 229.946 141.337 231.691 136.323C233.367 131.518 237.51 128.151 242.576 127.608C246.337 127.202 252.302 128.347 254.409 131.95C254.554 132.209 254.166 132.109 254.059 132.043L254.056 132.052Z" fill="black"/>
<path d="M269.008 163.871C267.876 165.774 263.816 166.141 261.816 166.219C259.203 166.328 256.6 165.864 254.195 164.82C249.598 162.824 244.673 157.968 244.149 152.732C244.074 151.996 245.186 152.245 245.383 152.722C247.265 157.33 249.33 161.334 254.083 163.583C256.534 164.74 259.266 165.264 261.971 165.115C263.314 165.038 264.671 164.81 265.953 164.421C266.947 164.12 267.758 163.682 268.801 163.659C268.883 163.657 269.069 163.742 269 163.859L269.008 163.871Z" fill="black"/>
<path d="M318.524 174.212C314.141 176.845 308.335 177.082 303.527 175.642C299.359 174.402 294.427 171.599 292.262 167.674C292.068 167.321 293.121 167.823 293.227 167.94C296.66 171.668 300.144 174.647 305.344 175.511C309.683 176.236 313.704 175.285 317.72 173.696C317.923 173.62 318.702 174.109 318.524 174.212Z" fill="black"/>
<path d="M295.316 170.563C294.217 172.145 290.353 171.942 288.607 171.986C285.818 172.055 283.05 171.727 280.347 171.035C277.585 170.329 274.912 169.243 272.452 167.817C270.29 166.563 267.846 165.068 266.499 162.916C266.238 162.496 266.876 162.316 267.162 162.496C269.311 163.849 271.096 165.662 273.311 166.949C275.566 168.246 277.985 169.231 280.501 169.89C283.017 170.549 285.63 170.881 288.24 170.874C290.43 170.861 293.143 169.841 295.226 170.419C295.275 170.431 295.368 170.514 295.323 170.575L295.316 170.563Z" fill="black"/>
<path d="M337.404 167.229C335.572 173.23 326.754 174.982 322.316 170.938C322.188 170.826 322.31 170.7 322.447 170.773C325.417 172.349 328.453 173.242 331.754 171.99C334.255 171.043 335.754 169.236 337.32 167.189C337.349 167.154 337.413 167.19 337.404 167.229Z" fill="black"/>
<path d="M314.6 146.793C315.128 145.191 313.739 143.707 311.982 143.975C310.992 144.124 310.298 144.722 309.429 145.146C309.314 145.201 308.835 144.966 308.944 144.848C310.063 143.661 312.089 143.209 313.579 143.906C314.728 144.441 315.422 145.691 314.764 146.883C314.743 146.929 314.579 146.84 314.6 146.793Z" fill="black"/>
<path d="M308.803 143.079C308.324 142.536 308.571 141.782 308.034 141.226C307.114 140.282 306.234 141.062 305.306 141.431C305.171 141.482 304.768 141.357 304.804 141.16C305.014 140.039 306.756 140.014 307.583 140.34C308.579 140.737 309.533 141.842 309.308 142.981C309.294 143.04 309.271 143.096 309.198 143.099C309.092 143.115 308.913 143.177 308.815 143.071L308.803 143.079Z" fill="black"/>
<path d="M267.093 131.408C266.771 130.059 265.459 128.86 264.068 129.716C263.684 129.955 263.362 130.322 263.182 130.742C263.013 131.113 263.079 131.405 262.689 131.581C262.619 131.616 262.518 131.562 262.469 131.51C261.381 130.321 263.707 128.8 264.762 128.81C266.167 128.819 267.54 130.023 267.356 131.469C267.334 131.608 267.112 131.504 267.084 131.405L267.093 131.408Z" fill="black"/>
<path d="M261.12 131.133C260.627 130.515 259.662 131.748 259.277 131.946C259.183 131.996 258.868 131.85 258.899 131.714C259.177 130.526 260.873 130.254 261.591 131.181C261.787 131.443 261.216 131.248 261.112 131.121L261.12 131.133Z" fill="black"/>
<path d="M254.573 157.608C254.026 157.09 253.133 157.179 252.726 157.824C252.562 158.084 251.892 157.701 252.051 157.461C252.64 156.561 254.364 156.522 254.811 157.602C254.871 157.739 254.608 157.636 254.573 157.608Z" fill="black"/>
<path d="M304.848 171.165C304.164 170.708 303.654 171 302.966 171.219C302.855 171.255 302.503 171.09 302.579 170.944C302.795 170.501 303.478 170.476 303.904 170.544C304.32 170.611 304.75 170.793 305.019 171.133C305.106 171.246 304.894 171.186 304.86 171.158L304.848 171.165Z" fill="black"/>
<path d="M291.695 165.354C291.582 165.266 291.447 165.184 291.315 165.132C291.154 165.074 290.994 165.057 290.835 164.99C290.667 164.919 290.379 164.657 290.648 164.515C291.161 164.254 291.894 164.764 292.167 165.177C292.227 165.273 292.188 165.398 292.084 165.445C291.959 165.498 291.8 165.43 291.704 165.357L291.695 165.354Z" fill="black"/>
<path d="M237.735 143.781C237.547 143.398 237.281 143.172 236.844 143.152C236.456 143.143 236.13 143.396 235.756 143.37C235.654 143.367 235.532 143.318 235.497 143.207C235.263 142.536 236.58 142.525 236.94 142.609C237.563 142.755 238.318 143.218 238.438 143.893C238.512 144.321 237.835 143.968 237.727 143.769L237.735 143.781Z" fill="black"/>
<path d="M247.91 132.343C243.15 131.53 239.355 134.506 238.535 139.161C238.482 139.478 237.938 139.258 237.96 138.986C238.272 133.997 243.167 130.795 247.896 131.96C248.111 132.01 248.216 132.394 247.91 132.343Z" fill="black"/>
<path d="M288.297 126.835C285.905 125.866 283.936 126.116 281.484 126.55C281.365 126.574 280.849 126.32 281.063 126.195C283.163 124.939 286.301 125.487 288.372 126.514C288.638 126.648 288.651 126.99 288.295 126.845L288.297 126.835Z" fill="black"/>
<path d="M289.205 168.542C287.792 168.788 285.625 168.878 284.514 167.787C284.396 167.677 284.415 167.507 284.599 167.509C285.274 167.523 285.924 167.818 286.588 167.921C287.361 168.04 288.134 168.026 288.899 167.917C289.26 167.867 289.686 168.46 289.195 168.54L289.205 168.542Z" fill="black"/>
</g>
<defs>
<clipPath id="clip0_2031_3011">
<rect width="339.07" height="149.62" fill="white" transform="matrix(-0.973848 -0.227201 -0.227201 0.973848 364.196 77.0371)"/>
</clipPath>
</defs>
</svg>
