<svg width="365" height="223" viewBox="0 0 365 223" fill="none" xmlns="http://www.w3.org/2000/svg">
<g opacity="0.2" clip-path="url(#clip0_76_2)">
<path d="M262.446 32.1551C256.985 31.0162 251.279 32.6144 246.098 34.2646C245.991 34.2896 245.849 34.3843 245.711 34.4986C244.011 32.3178 241.242 31.054 238.437 31.2669C236.831 31.3846 233.793 32.2682 232.562 33.8594C230.806 32.1434 227.781 31.1036 225.648 30.5436C222.945 29.829 220.078 29.6455 217.316 30.0846C211.866 30.935 206.567 34.143 203.586 38.843C202.482 35.9996 199.311 34.0285 196.532 33.1672C192.914 32.0501 189.072 32.5256 185.661 34.0606C182.168 35.6355 179.103 38.3015 176.828 41.3583C175.093 43.6935 173.276 47.085 173.665 50.1572C171.025 50.198 168.385 51.6045 167.022 53.9043C165.878 55.8244 165.773 59.1555 167.217 61.0776C165.176 60.8247 162.922 61.022 161.186 61.2833C158.725 61.6519 156.271 62.5325 154.347 64.1419C150.069 67.7275 148.675 72.9304 148.993 78.2985C149.327 84.1763 152.401 87.9773 158.403 88.5692C164.235 89.1391 171.712 88.442 176.926 85.4389C181.088 86.9939 186.08 86.6918 190.247 85.4938C193.368 84.6116 197.125 83.0675 198.831 80.123C201.156 81.4186 204.389 81.8965 206.877 82.2608C209.834 82.7004 212.895 82.7051 215.804 81.9238C220.135 80.7696 224.483 77.794 225.956 73.4147C229.277 74.6629 233.384 74.9266 236.827 74.8524C239.921 74.7775 243.045 74.1718 245.816 72.7553C251.636 69.7544 254.579 63.2661 255.304 56.9975C263.182 56.2171 274.669 50.128 272.419 40.7028C271.329 36.1205 266.808 33.068 262.415 32.1521L262.446 32.1551Z" fill="white"/>
<path d="M177.191 84.4631C174.698 85.0448 172.304 86.0039 169.783 86.5099C167.252 87.0182 164.674 87.2807 162.096 87.2764C159.682 87.2747 156.98 87.1351 154.785 86.0041C152.078 84.6127 150.868 81.8453 150.589 78.9326C150.117 73.9598 150.903 69.3198 154.508 65.6242C156.537 63.5386 159.326 62.6414 162.189 62.4561C164.717 62.2874 167.301 62.9783 169.801 62.5593C170.079 62.5151 170.554 62.086 170.125 61.8779C167.675 60.6628 163.858 60.8961 161.208 61.2885C158.747 61.6572 156.303 62.5355 154.371 64.1569C150.094 67.7425 148.709 72.943 149.017 78.3135C149.361 84.189 152.425 87.9923 158.427 88.5842C164.428 89.1761 172.188 88.4132 177.42 85.1799C177.851 84.915 177.768 84.3388 177.194 84.4729L177.191 84.4631Z" fill="black"/>
<path d="M169.537 62.2203C168.832 60.0334 167.243 58.8125 167.424 56.2441C167.676 52.7455 170.858 50.6271 174.206 51.2015C174.634 51.2761 175.805 50.3971 175.193 50.2832C172.1 49.7007 168.664 51.1698 167.044 53.9095C165.519 56.4833 165.839 61.5532 169.238 62.4339C169.337 62.4622 169.586 62.3424 169.537 62.2203Z" fill="black"/>
<path d="M174.799 51.104C174.894 47.4161 175.533 44.6075 177.807 41.5919C180.034 38.6387 183.007 36.1071 186.449 34.7084C189.469 33.4802 192.799 33.2271 195.881 34.3357C199.101 35.5048 200.649 37.608 202.565 40.2725C202.868 40.6945 203.977 40.2099 203.859 39.7035C203.138 36.3908 199.596 34.1057 196.54 33.1551C192.931 32.0358 189.087 32.5015 185.671 34.0582C182.18 35.6429 179.113 38.2991 176.838 41.3559C174.853 44.0268 172.766 48.0665 173.986 51.4478C174.109 51.799 174.786 51.3536 174.797 51.0943L174.799 51.104Z" fill="black"/>
<path d="M204.078 39.6732C207.625 34.7178 212.741 31.1624 218.99 30.9675C221.366 30.8959 223.749 31.2949 225.975 32.1208C228.343 32.9853 230.117 34.6457 232.359 35.6732C232.682 35.8238 233.66 35.3081 233.4 34.8964C231.971 32.5598 228.179 31.2265 225.65 30.5535C222.947 29.839 220.081 29.6555 217.318 30.0946C211.562 30.9959 205.967 34.5194 203.108 39.6531C202.761 40.2783 203.843 39.9849 204.068 39.6755L204.078 39.6732Z" fill="black"/>
<path d="M232.356 35.0883C234.786 33.5767 236.566 31.7443 239.745 32.43C242.264 32.9718 244.02 34.6878 245.241 36.8877C245.539 37.4139 246.936 36.667 246.692 36.1077C245.279 32.9563 241.89 31.0157 238.458 31.272C236.501 31.4207 232.384 32.6995 232.07 35.0523C232.053 35.2 232.321 35.1169 232.365 35.0861L232.356 35.0883Z" fill="black"/>
<path d="M245.719 34.9282C253.544 32.8152 264.475 30.2854 269.671 38.7359C271.756 42.1308 271.27 46.2079 269.037 49.3988C265.771 54.0628 260.345 54.8358 255.248 56.2302C254.987 56.3013 253.837 57.0933 254.638 57.0502C262.517 56.5778 274.767 50.4134 272.451 40.7058C271.361 36.1235 266.839 33.071 262.446 32.1551C256.985 31.0162 251.279 32.6145 246.098 34.2647C245.764 34.3734 244.915 35.1362 245.717 34.9184L245.719 34.9282Z" fill="black"/>
<path d="M254.29 56.8338C252.818 62.9378 251.041 69.3596 244.723 72.0761C241.662 73.3959 238.327 73.712 235.022 73.4973C231.894 73.2927 228.835 72.3737 225.706 72.3437C225.398 72.3437 224.645 72.8582 225.192 73.09C228.63 74.619 233.148 74.9304 236.866 74.8435C239.962 74.7784 243.086 74.1728 245.855 72.7465C251.766 69.6937 254.706 63.0622 255.379 56.703C255.452 56.0493 254.418 56.3726 254.3 56.8316L254.29 56.8338Z" fill="black"/>
<path d="M225.24 72.8115C223.309 77.7391 218.856 80.7907 213.621 81.3242C210.841 81.6029 208.054 81.2776 205.348 80.6358C203.108 80.1007 200.947 79.1158 198.659 78.8589C198.407 78.8356 197.619 79.2864 197.993 79.5689C200.326 81.2939 204.104 81.8605 206.911 82.2735C209.868 82.7131 212.929 82.7177 215.838 81.9365C220.42 80.7135 225.019 77.4532 226.22 72.6548C226.358 72.099 225.367 72.4739 225.24 72.8115Z" fill="black"/>
<path d="M176.085 85.091C180.411 87.0391 185.814 86.7848 190.29 85.5043C193.814 84.4974 198.153 82.6739 199.423 78.9172C199.67 78.1715 198.111 78.7097 197.921 79.2161C196.505 83.0481 191.625 84.5357 187.96 85.1546C184.127 85.8024 180.573 85.2248 176.82 84.4573C176.583 84.4099 175.726 84.9179 176.083 85.0812L176.085 85.091Z" fill="black"/>
<path d="M217.982 40.7319C218.466 40.0749 218.669 39.627 219.458 39.2683C220.135 38.9564 220.682 38.8801 221.368 39.2232C221.763 39.4187 222.122 39.7251 222.371 40.088C222.65 40.4951 222.614 40.7808 223.062 40.9843C223.176 41.0298 223.462 40.8499 223.51 40.7464C224.077 39.2175 221.199 38.4104 220.113 38.6843C219.307 38.8826 217.548 39.7961 217.77 40.8329C217.781 40.8816 217.977 40.7537 217.992 40.7297L217.982 40.7319Z" fill="black"/>
<path d="M224.986 41.7472C225.547 41.2054 226.262 41.1003 226.989 41.3107C227.496 41.4594 227.871 41.834 228.391 41.9489C228.487 41.9674 228.797 41.8437 228.802 41.7298C228.877 40.7777 227.244 40.6452 226.578 40.739C225.783 40.8526 224.921 41.2489 224.435 41.8962C224.311 42.0689 224.907 41.8066 224.976 41.7495L224.986 41.7472Z" fill="black"/>
<path d="M252.238 36.5494C254.611 36.5092 257.208 36.1087 259.474 37.0177C260.652 37.4923 261.71 38.2415 262.428 39.2959C263.007 40.1467 263.084 41.0939 263.531 41.9961C263.611 42.1623 263.893 41.963 263.928 41.8519C264.721 39.7056 262.639 37.6037 260.859 36.7048C258.216 35.3702 255.064 35.7668 252.298 36.412C252.25 36.4234 252.116 36.5571 252.228 36.5516L252.238 36.5494Z" fill="black"/>
<path d="M154.873 80.4384C154.877 77.9012 155.046 75.3254 155.595 72.8356C156.078 70.6383 157.055 68.7981 159.307 67.8415C160.503 67.3365 161.981 67.4641 163.246 67.2512C163.363 67.2239 164.029 66.8221 163.726 66.8003C161.286 66.5993 158.053 67.3948 156.416 69.358C154.082 72.1617 154.212 77.163 154.651 80.5416C154.66 80.5805 154.865 80.4916 154.863 80.4406L154.873 80.4384Z" fill="black"/>
<path d="M173.563 58.2623C173.183 57.4679 172.887 56.3766 173.802 55.7627C174.218 55.4807 174.795 55.531 175.235 55.7465C175.618 55.9345 175.848 56.302 176.226 56.4705C176.363 56.5309 176.639 56.3945 176.654 56.2371C176.742 55.5593 176.002 55.1571 175.424 55.0146C174.769 54.849 174.062 54.9421 173.493 55.3213C172.513 55.9607 172.002 57.7743 173.075 58.5917C173.25 58.7255 173.681 58.5018 173.575 58.2697L173.563 58.2623Z" fill="black"/>
<path d="M178.015 57.008C178.076 56.8294 178.222 56.6619 178.305 56.4886C178.408 56.2283 178.434 55.9449 178.718 55.8378C179.132 55.6794 179.611 56.0605 180 56.1855C180.121 56.2189 180.45 56.0907 180.457 55.9453C180.476 55.0578 179.179 55.1756 178.63 55.4167C178.275 55.5712 177.954 55.8209 177.74 56.1377C177.641 56.2841 177.516 56.498 177.508 56.6846C177.484 56.9778 177.653 56.9077 177.82 57.0946C177.872 57.144 178.005 57.0515 178.022 56.996L178.015 57.008Z" fill="black"/>
<path d="M220.201 69.2124C220.437 68.5515 220.836 67.8834 221.658 68.0613C222.144 68.1636 222.44 68.5976 222.893 68.7794C223.098 68.8651 223.409 68.659 223.43 68.4386C223.516 67.443 221.962 67.2099 221.241 67.4192C220.442 67.6468 219.546 68.4307 219.68 69.3545C219.724 69.6318 220.155 69.3669 220.206 69.2318L220.201 69.2124Z" fill="black"/>
<path d="M227.77 70.7122C228.765 69.9153 229.46 70.9135 230.279 71.3897C230.375 71.4495 230.586 71.3388 230.624 71.2375C230.857 70.4334 230.238 69.8488 229.478 69.7179C228.687 69.5842 227.799 69.9146 227.271 70.5103C226.913 70.9121 227.529 70.9121 227.77 70.7122Z" fill="black"/>
<path d="M227.349 127.626C225.376 126.167 222.217 127.15 220.016 127.664C217.18 128.315 214.429 129.244 211.771 130.439C210.171 131.152 211.194 133.952 212.884 133.363C215.487 132.458 218.114 131.66 220.82 131.152C222.982 130.74 225.895 130.944 227.517 129.312C228.022 128.794 227.9 128.052 227.342 127.638L227.349 127.626Z" fill="white"/>
<path d="M216.82 150.979C214.584 150.022 212.375 149.049 210.058 148.316C208.817 147.928 207.964 149.729 209.106 150.397C211.319 151.698 213.653 152.724 215.987 153.792C217.829 154.646 219.743 155.894 221.818 155.677C222.688 155.576 222.719 154.522 222.325 153.977C221.161 152.38 218.598 151.735 216.83 150.977L216.82 150.979Z" fill="white"/>
<path d="M202.129 117.543C204.915 115.578 207.638 113.074 209.478 110.18C210.277 108.936 208.487 107.382 207.436 108.511C205.212 110.909 203.123 113.44 200.875 115.822C200.093 116.652 201.081 118.29 202.129 117.543Z" fill="white"/>
<path d="M194.029 159.408C194.629 163.653 195.698 167.973 196.924 172.082C197.133 172.803 197.689 173.248 198.425 173.323C198.772 173.355 198.961 173.332 199.253 173.13C199.852 172.703 200.215 172.105 200.05 171.352C199.089 167.058 197.878 162.659 196.293 158.551C195.767 157.175 193.85 158.156 194.021 159.42L194.029 159.408Z" fill="white"/>
<path d="M184.199 115.647C184.632 115.916 185.367 115.723 185.475 115.174C185.948 112.713 184.127 110.098 183.334 107.798C182.749 106.086 182.563 103.131 180.662 102.466C180.549 102.42 180.374 102.461 180.292 102.552C178.84 104.164 180.343 107.038 180.906 108.837C181.602 111.026 182.155 114.368 184.202 115.656L184.199 115.647Z" fill="white"/>
<path d="M198.729 119.209C194.718 117.29 190.106 117.021 185.827 118.091C182.072 119.029 177.328 121.275 175.498 124.916C175.102 124.978 174.708 125.142 174.53 125.389C169.781 131.836 169.366 141.062 174.103 147.679C178.672 154.057 187.287 157.007 194.841 155.009C202.316 153.028 208.334 146.295 209.355 138.612C210.406 130.706 205.893 122.631 198.736 119.197L198.729 119.209Z" fill="white"/>
<path d="M163.055 124.091C164.183 124.66 165.348 125.559 166.649 125.194C167.334 125.003 167.624 124.309 167.331 123.669C166.772 122.464 165.302 122.15 164.163 121.666C162.784 121.084 161.373 120.582 159.97 120.067C158.88 119.664 158.113 121.353 159.12 121.929C160.421 122.662 161.717 123.418 163.064 124.089L163.055 124.091Z" fill="white"/>
<path d="M174.872 156.258C172.611 156.734 171.072 159.424 169.61 161.079C167.963 162.953 166.131 164.828 165.095 167.123C164.613 168.18 166.129 169.439 167.076 168.746C169.124 167.272 170.602 165.109 172.108 163.115C173.426 161.37 175.77 159.314 175.787 157.01C175.785 156.517 175.352 156.156 174.863 156.26L174.872 156.258Z" fill="white"/>
<path d="M168.477 142.316C168.881 141.976 168.755 141.348 168.351 141.073C166.573 139.875 164.489 140.362 162.476 140.667C160.027 141.043 157.663 141.605 155.359 142.512C153.809 143.13 154.864 145.41 156.36 145.133C158.647 144.723 160.909 144.164 163.212 143.822C165.118 143.542 166.951 143.607 168.463 142.299L168.477 142.316Z" fill="white"/>
<path d="M176.015 125.329C178.95 122.991 181.499 120.754 185.212 119.723C188.752 118.743 192.578 118.857 196.003 120.204C202.445 122.726 207.118 129.378 207.361 136.273C207.607 143.445 202.883 150.616 196.08 153.014C189.448 155.352 181.569 152.878 177.1 147.544C171.946 141.383 172.012 132.291 176.367 125.74C177.113 124.621 175.008 124.712 174.51 125.393C169.761 131.84 169.346 141.066 174.083 147.683C178.652 154.061 187.267 157.011 194.821 155.013C202.296 153.033 208.314 146.299 209.335 138.616C210.396 130.708 205.874 122.635 198.716 119.201C194.715 117.28 190.094 117.013 185.817 118.093C181.994 119.046 177.142 121.359 175.38 125.118C175.174 125.556 175.789 125.505 176.005 125.331L176.015 125.329Z" fill="black"/>
<path d="M180.29 102.542C178.828 104.156 180.34 107.028 180.913 108.825C181.609 111.014 182.153 114.358 184.209 115.644C184.632 115.915 185.377 115.721 185.485 115.172C185.968 112.708 184.139 110.106 183.353 107.794C182.769 106.082 182.582 103.127 180.682 102.461C180.559 102.418 180.393 102.457 180.312 102.547L180.29 102.542Z" fill="black"/>
<path d="M194.029 159.408C194.627 163.643 195.698 167.973 196.924 172.082C197.143 172.801 197.679 173.251 198.425 173.323C198.782 173.353 198.964 173.341 199.253 173.13C199.842 172.705 200.215 172.105 200.05 171.352C199.099 167.056 197.868 162.661 196.293 158.551C195.767 157.175 193.85 158.156 194.031 159.418L194.029 159.408Z" fill="black"/>
<path d="M212.892 133.351C215.495 132.446 218.122 131.648 220.835 131.128C222.998 130.716 225.91 130.92 227.522 129.291C228.028 128.772 227.906 128.031 227.347 127.617C225.374 126.157 222.215 127.14 220.014 127.654C217.18 128.315 214.427 129.234 211.769 130.43C210.169 131.142 211.192 133.943 212.882 133.353L212.892 133.351Z" fill="black"/>
<path d="M156.365 145.152C158.651 144.742 160.916 144.193 163.216 143.841C165.122 143.561 166.965 143.624 168.477 142.316C168.88 141.976 168.754 141.348 168.351 141.072C166.573 139.875 164.489 140.361 162.475 140.667C160.027 141.043 157.663 141.605 155.361 142.522C153.811 143.14 154.866 145.42 156.363 145.143L156.365 145.152Z" fill="black"/>
<path d="M202.129 117.542C204.915 115.578 207.638 113.074 209.488 110.178C210.286 108.934 208.487 107.382 207.445 108.508C205.222 110.906 203.13 113.427 200.883 115.81C200.101 116.64 201.089 118.278 202.136 117.53L202.129 117.542Z" fill="black"/>
<path d="M174.872 156.258C172.611 156.734 171.062 159.426 169.61 161.08C167.963 162.953 166.131 164.828 165.085 167.126C164.603 168.183 166.119 169.441 167.078 168.756C169.117 167.284 170.592 165.112 172.11 163.125C173.428 161.38 175.772 159.324 175.792 157.029C175.799 156.534 175.364 156.164 174.875 156.268L174.872 156.258Z" fill="black"/>
<path d="M159.121 121.929C160.421 122.662 161.717 123.418 163.055 124.091C164.184 124.66 165.36 125.566 166.652 125.203C167.336 125.013 167.626 124.319 167.333 123.679C166.773 122.464 165.305 122.16 164.153 121.669C162.775 121.086 161.364 120.584 159.96 120.069C158.87 119.666 158.092 121.347 159.109 121.921L159.121 121.929Z" fill="black"/>
<path d="M209.106 150.397C211.319 151.698 213.653 152.724 215.977 153.794C217.817 154.638 219.733 155.896 221.806 155.669C222.668 155.581 222.707 154.514 222.315 153.979C221.152 152.382 218.588 151.737 216.82 150.979C214.584 150.022 212.375 149.049 210.058 148.316C208.817 147.928 207.964 149.729 209.106 150.397Z" fill="black"/>
<path d="M175.813 138.592C174.895 148.079 186.334 154.549 194.689 151.542C195.618 151.212 195.343 149.767 194.33 150.003C190.264 150.973 186.305 150.859 182.709 148.474C179.259 146.188 177.342 142.374 176.005 138.578C175.973 138.483 175.829 138.486 175.813 138.592Z" fill="black"/>
<path d="M189.685 121.73C191.439 121.854 193.123 122.119 194.701 122.941C196.21 123.729 197.129 124.983 198.407 126.02C198.941 126.46 199.619 125.974 199.364 125.324C198.071 121.981 192.84 120.377 189.634 121.248C189.361 121.312 189.403 121.713 189.675 121.732L189.685 121.73Z" fill="black"/>
<path d="M358.918 123.434C357.243 118.629 353.099 115.263 348.031 114.71C344.777 114.36 339.881 115.163 337.253 117.717C335.921 112.935 331.237 108.965 326.666 107.505C321.86 105.967 317.495 106.359 313.29 108.932C307.254 106.078 298.996 106.116 293.123 109.067C289.135 111.076 285.008 115.171 283.943 119.804C278.893 118.979 273.972 121.565 270.56 125.206C268.742 127.139 267.39 129.488 266.596 132.025C266.013 133.886 265.468 136.477 265.886 138.577C260.869 138.023 255.604 139.446 251.877 142.924C248.251 146.306 246.432 151.32 247.903 156.173C250.974 166.3 264.348 165.347 272.151 161.339C276.523 163.923 282.295 164.148 287.066 162.727C289.957 161.867 293.216 160.255 295.657 158.042C297.084 159.188 300.403 159.02 301.984 159.061C304.772 159.13 307.54 158.802 310.244 158.11C313.005 157.404 315.679 156.318 318.139 154.892C319.603 154.037 321.207 153.077 322.507 151.871C324.173 152.981 327.159 153.239 328.786 153.301C331.399 153.41 334.002 152.947 336.4 151.915C340.494 150.139 344.856 146.081 346.131 141.512C349.765 142.564 353.672 140.605 356.009 137.77C359.336 133.718 360.653 128.451 358.899 123.439L358.918 123.434Z" fill="white"/>
<path d="M267.267 138.779C261.857 137.771 255.961 139.127 251.886 142.921C248.26 146.304 246.442 151.318 247.913 156.171C251.122 166.758 265.606 165.238 273.198 160.766C273.92 160.341 273.56 159.675 272.798 160.018C271.405 160.65 270.107 161.559 268.642 162.014C266.814 162.584 264.736 162.833 262.837 163.009C257.922 163.467 252.555 162.337 249.965 157.705C247.564 153.398 248.435 148.152 251.547 144.459C255.366 139.922 261.199 138.911 266.836 139.351C267.088 139.375 267.681 138.836 267.273 138.757L267.267 138.779Z" fill="black"/>
<path d="M266.691 139.827C266.976 137.44 266.67 135.16 267.292 132.766C267.878 130.524 268.904 128.406 270.337 126.583C272.028 124.412 274.422 122.436 276.999 121.424C279.508 120.428 281.898 120.856 284.498 120.907C284.796 120.909 285.789 120.236 285.176 120.071C279.712 118.573 274.263 121.272 270.57 125.204C268.752 127.137 267.39 129.488 266.605 132.023C265.89 134.326 265.23 137.745 266.358 139.987C266.431 140.124 266.687 139.941 266.693 139.837L266.691 139.827Z" fill="black"/>
<path d="M284.444 123.404C285.121 117.198 288.124 111.846 294.095 109.272C300.579 106.476 306.863 108.275 313.229 110.168C313.517 110.255 314.585 109.595 314.209 109.395C308.117 106.083 299.3 105.963 293.123 109.067C288.06 111.614 282.758 117.544 283.814 123.654C283.861 123.9 284.416 123.595 284.434 123.407L284.444 123.404Z" fill="black"/>
<path d="M313.16 109.783C315.029 108.947 316.83 107.911 318.903 107.684C321.445 107.399 324.378 107.957 326.733 108.896C331.569 110.828 334.097 114.49 336.282 118.97C336.534 119.476 337.541 118.995 337.434 118.496C336.424 113.372 331.473 109.054 326.668 107.515C321.696 105.923 317.187 106.4 312.854 109.218C312.381 109.524 312.642 110.028 313.162 109.793L313.16 109.783Z" fill="black"/>
<path d="M336.546 119.135C338.37 117.929 339.921 116.653 342.087 116.035C344.148 115.451 346.318 115.376 348.419 115.8C352.355 116.607 355.519 119.34 357.128 122.979C358.756 126.656 358.686 130.8 356.882 134.383C355.858 136.419 354.493 138.535 352.474 139.694C350.347 140.919 348.057 140.57 345.737 140.352C345.526 140.329 344.635 140.865 345.03 141.061C348.956 142.927 353.445 140.864 356.022 137.736C359.348 133.685 360.656 128.42 358.911 123.405C357.236 118.6 353.093 115.233 348.027 114.69C344.266 114.284 338.3 115.429 336.194 119.032C336.049 119.292 336.436 119.191 336.544 119.125L336.546 119.135Z" fill="black"/>
<path d="M321.605 150.952C322.736 152.854 326.796 153.222 328.796 153.299C331.409 153.408 334.012 152.945 336.418 151.901C341.014 149.904 345.94 145.048 346.464 139.812C346.538 139.076 345.426 139.325 345.229 139.803C343.347 144.411 341.283 148.414 336.529 150.663C334.078 151.82 331.346 152.345 328.641 152.196C327.299 152.119 325.941 151.891 324.659 151.502C323.665 151.2 322.854 150.763 321.812 150.739C321.729 150.738 321.543 150.822 321.612 150.94L321.605 150.952Z" fill="black"/>
<path d="M272.089 161.292C276.471 163.925 282.277 164.162 287.086 162.722C291.253 161.483 296.185 158.679 298.35 154.755C298.545 154.401 297.491 154.904 297.385 155.021C293.952 158.748 290.468 161.728 285.268 162.592C280.93 163.317 276.908 162.365 272.892 160.776C272.69 160.7 271.911 161.19 272.089 161.292Z" fill="black"/>
<path d="M295.287 157.646C296.385 159.228 300.25 159.024 301.996 159.069C304.784 159.137 307.552 158.81 310.256 158.117C313.017 157.411 315.691 156.326 318.151 154.899C320.313 153.645 322.757 152.151 324.103 149.999C324.364 149.578 323.727 149.399 323.44 149.578C321.292 150.932 319.507 152.745 317.291 154.032C315.037 155.328 312.617 156.314 310.101 156.972C307.585 157.631 304.972 157.964 302.363 157.956C300.172 157.944 297.46 156.923 295.377 157.502C295.328 157.513 295.234 157.597 295.28 157.658L295.287 157.646Z" fill="black"/>
<path d="M253.208 154.309C255.04 160.31 263.858 162.062 268.296 158.018C268.423 157.906 268.302 157.781 268.165 157.854C265.195 159.43 262.159 160.323 258.858 159.07C256.357 158.124 254.858 156.317 253.291 154.269C253.263 154.235 253.199 154.27 253.208 154.309Z" fill="black"/>
<path d="M276.012 133.874C275.484 132.272 276.873 130.787 278.63 131.055C279.62 131.204 280.314 131.802 281.183 132.226C281.298 132.281 281.777 132.046 281.668 131.928C280.558 130.739 278.523 130.289 277.032 130.986C275.884 131.521 275.19 132.771 275.848 133.963C275.869 134.01 276.033 133.92 276.012 133.874Z" fill="black"/>
<path d="M281.81 130.159C282.289 129.616 282.041 128.863 282.579 128.306C283.498 127.363 284.379 128.143 285.307 128.512C285.442 128.562 285.844 128.438 285.808 128.241C285.598 127.119 283.857 127.094 283.029 127.421C282.033 127.817 281.08 128.923 281.304 130.062C281.318 130.12 281.341 130.176 281.414 130.18C281.52 130.196 281.699 130.257 281.798 130.152L281.81 130.159Z" fill="black"/>
<path d="M323.519 118.488C323.841 117.139 325.152 115.94 326.543 116.796C326.928 117.035 327.249 117.402 327.43 117.822C327.598 118.193 327.533 118.486 327.923 118.661C327.993 118.697 328.093 118.642 328.143 118.59C329.231 117.401 326.905 115.88 325.849 115.89C324.445 115.9 323.072 117.103 323.256 118.549C323.278 118.688 323.5 118.584 323.528 118.485L323.519 118.488Z" fill="black"/>
<path d="M329.483 118.216C329.975 117.597 330.94 118.83 331.325 119.028C331.419 119.078 331.734 118.933 331.703 118.796C331.425 117.608 329.729 117.336 329.011 118.264C328.815 118.525 329.386 118.33 329.49 118.204L329.483 118.216Z" fill="black"/>
<path d="M336.039 144.688C336.585 144.171 337.479 144.26 337.886 144.904C338.049 145.164 338.72 144.782 338.561 144.542C337.971 143.642 336.247 143.603 335.801 144.682C335.741 144.82 336.004 144.717 336.039 144.688Z" fill="black"/>
<path d="M285.754 158.248C286.438 157.79 286.948 158.082 287.636 158.302C287.747 158.337 288.099 158.173 288.024 158.026C287.807 157.584 287.124 157.558 286.698 157.627C286.282 157.693 285.853 157.876 285.583 158.216C285.496 158.328 285.708 158.269 285.742 158.24L285.754 158.248Z" fill="black"/>
<path d="M298.908 152.437C299.021 152.349 299.156 152.266 299.288 152.215C299.449 152.157 299.609 152.14 299.768 152.072C299.937 152.002 300.224 151.74 299.955 151.597C299.442 151.337 298.709 151.847 298.436 152.26C298.376 152.356 298.415 152.48 298.519 152.528C298.644 152.581 298.803 152.513 298.899 152.439L298.908 152.437Z" fill="black"/>
<path d="M352.877 130.861C353.065 130.478 353.331 130.252 353.768 130.232C354.156 130.224 354.482 130.476 354.856 130.451C354.958 130.448 355.08 130.399 355.116 130.288C355.349 129.617 354.032 129.606 353.672 129.69C353.049 129.835 352.294 130.299 352.175 130.974C352.1 131.402 352.777 131.049 352.885 130.849L352.877 130.861Z" fill="black"/>
<path d="M342.693 119.426C347.453 118.613 351.248 121.588 352.068 126.244C352.121 126.56 352.665 126.341 352.643 126.069C352.331 121.079 347.436 117.878 342.707 119.043C342.492 119.092 342.389 119.486 342.693 119.426Z" fill="black"/>
<path d="M302.315 113.915C304.708 112.946 306.676 113.196 309.129 113.63C309.247 113.654 309.763 113.4 309.549 113.275C307.449 112.019 304.311 112.567 302.24 113.594C301.974 113.728 301.961 114.07 302.318 113.925L302.315 113.915Z" fill="black"/>
<path d="M301.407 155.622C302.82 155.868 304.987 155.958 306.098 154.867C306.216 154.757 306.197 154.587 306.013 154.589C305.338 154.603 304.688 154.898 304.025 155.002C303.251 155.12 302.478 155.106 301.713 154.997C301.352 154.947 300.926 155.54 301.417 155.62L301.407 155.622Z" fill="black"/>
<path d="M132.502 136.354C130.827 131.549 126.683 128.182 121.615 127.629C118.361 127.28 113.465 128.083 110.837 130.637C109.505 125.854 104.821 121.885 100.25 120.425C95.4445 118.887 91.0794 119.279 86.874 121.851C80.8379 118.998 72.5803 119.035 66.7073 121.987C62.7194 123.995 58.5918 128.09 57.5266 132.724C52.4773 131.899 47.5561 134.485 44.1439 138.125C42.3257 140.059 40.974 142.408 40.1796 144.944C39.5971 146.805 39.0517 149.397 39.4698 151.497C34.4525 150.942 29.1882 152.366 25.4609 155.844C21.8443 159.224 20.026 164.238 21.5067 169.088C24.5779 179.215 37.9511 178.262 45.7546 174.254C50.1261 176.839 55.898 177.063 60.6699 175.642C63.5603 174.783 66.8191 173.17 69.2603 170.958C70.6879 172.103 74.0064 171.935 75.5873 171.977C78.3757 172.045 81.1437 171.717 83.8471 171.025C86.609 170.319 89.2822 169.233 91.7425 167.807C93.2065 166.952 94.8105 165.993 96.1102 164.786C97.7761 165.896 100.763 166.154 102.39 166.217C105.003 166.326 107.605 165.862 110.004 164.83C114.097 163.054 118.459 158.997 119.735 154.427C123.369 155.479 127.276 153.52 129.61 150.675C132.937 146.624 134.255 141.357 132.5 136.344L132.502 136.354Z" fill="white"/>
<path d="M40.8514 151.698C35.4411 150.691 29.5448 152.046 25.4705 155.841C21.8441 159.224 20.0258 164.238 21.5065 169.088C24.716 179.676 39.1994 178.156 46.7919 173.684C47.5142 173.258 47.1535 172.593 46.3913 172.935C44.9987 173.568 43.7012 174.477 42.2362 174.931C40.408 175.502 38.3301 175.75 36.4305 175.926C31.5161 176.385 26.149 175.255 23.5587 170.622C21.1573 166.315 22.0284 161.07 25.1406 157.376C28.9598 152.84 34.7925 151.828 40.4301 152.269C40.682 152.292 41.2751 151.754 40.8664 151.674L40.8514 151.698Z" fill="black"/>
<path d="M40.2748 152.747C40.5599 150.36 40.2539 148.08 40.8762 145.686C41.4622 143.444 42.4877 141.325 43.921 139.502C45.6119 137.331 48.0057 135.356 50.5832 134.343C53.0925 133.347 55.4823 133.776 58.0818 133.826C58.3801 133.829 59.3731 133.155 58.7596 132.99C53.2964 131.492 47.847 134.191 44.1538 138.123C42.3355 140.057 40.974 142.408 40.1894 144.942C39.4739 147.245 38.8135 150.664 39.9424 152.907C40.0155 153.044 40.2706 152.861 40.2771 152.757L40.2748 152.747Z" fill="black"/>
<path d="M58.0277 136.324C58.7053 130.117 61.7078 124.765 67.6792 122.191C74.1634 119.395 80.4466 121.194 86.8132 123.087C87.1005 123.174 88.1685 122.515 87.7932 122.315C81.7013 119.002 72.8835 118.882 66.7073 121.987C61.6436 124.534 56.3421 130.463 57.3979 136.573C57.445 136.819 58.0004 136.515 58.0179 136.326L58.0277 136.324Z" fill="black"/>
<path d="M86.7538 122.701C88.6226 121.864 90.4242 120.828 92.4969 120.601C95.0386 120.316 97.9721 120.874 100.327 121.814C105.163 123.746 107.691 127.407 109.876 131.888C110.127 132.394 111.134 131.913 111.028 131.414C110.017 126.289 105.067 121.971 100.262 120.433C95.2899 118.841 90.7804 119.318 86.4473 122.136C85.9744 122.441 86.2357 122.945 86.756 122.711L86.7538 122.701Z" fill="black"/>
<path d="M110.14 132.052C111.964 130.846 113.514 129.571 115.681 128.952C117.742 128.369 119.912 128.294 122.013 128.718C125.949 129.524 129.113 132.257 130.722 135.897C132.349 139.573 132.279 143.717 130.476 147.301C129.452 149.337 128.087 151.452 126.068 152.611C123.94 153.837 121.651 153.488 119.331 153.269C119.12 153.246 118.229 153.783 118.623 153.978C122.55 155.845 127.039 153.781 129.616 150.654C132.942 146.602 134.25 141.337 132.505 136.323C130.83 131.518 126.686 128.151 121.62 127.608C117.86 127.202 111.894 128.347 109.787 131.95C109.643 132.209 110.03 132.109 110.138 132.043L110.14 132.052Z" fill="black"/>
<path d="M95.1885 163.871C96.3204 165.774 100.38 166.141 102.38 166.219C104.993 166.328 107.596 165.864 110.002 164.82C114.598 162.824 119.524 157.968 120.048 152.732C120.122 151.996 119.01 152.245 118.813 152.722C116.931 157.33 114.867 161.334 110.113 163.583C107.662 164.74 104.93 165.264 102.225 165.115C100.883 165.038 99.5253 164.81 98.2434 164.421C97.2488 164.12 96.4383 163.682 95.3956 163.659C95.3132 163.657 95.1275 163.742 95.196 163.859L95.1885 163.871Z" fill="black"/>
<path d="M45.673 174.212C50.0559 176.845 55.8616 177.082 60.6701 175.642C64.8375 174.402 69.7695 171.599 71.9344 167.674C72.1292 167.321 71.0758 167.823 70.9697 167.94C67.5368 171.668 64.0526 174.647 58.8529 175.511C54.5141 176.236 50.4928 175.285 46.4768 173.696C46.2742 173.62 45.4951 174.109 45.673 174.212Z" fill="black"/>
<path d="M68.8807 170.563C69.9788 172.145 73.8437 171.942 75.5895 171.986C78.3779 172.055 81.1459 171.727 83.8493 171.035C86.6111 170.329 89.2844 169.243 91.7446 167.817C93.9063 166.563 96.3507 165.068 97.6969 162.916C97.9582 162.496 97.3207 162.316 97.0341 162.496C94.8854 163.849 93.1006 165.662 90.8851 166.949C88.6306 168.246 86.2112 169.231 83.6951 169.89C81.179 170.549 78.5662 170.881 75.9563 170.874C73.7662 170.861 71.0534 169.841 68.9703 170.419C68.9216 170.431 68.8281 170.514 68.8733 170.575L68.8807 170.563Z" fill="black"/>
<path d="M26.7927 167.229C28.624 173.23 37.4427 174.982 41.88 170.938C42.0079 170.826 41.8862 170.7 41.7492 170.773C38.7796 172.349 35.7431 173.242 32.4421 171.99C29.9417 171.043 28.442 169.236 26.8758 167.189C26.8472 167.154 26.7836 167.19 26.7927 167.229Z" fill="black"/>
<path d="M49.5957 146.793C49.068 145.191 50.457 143.707 52.2138 143.975C53.2036 144.124 53.8976 144.722 54.7666 145.146C54.8821 145.201 55.3613 144.966 55.2515 144.848C54.1326 143.661 52.1071 143.209 50.6164 143.906C49.4679 144.441 48.7739 145.691 49.4318 146.883C49.4529 146.929 49.6168 146.84 49.5957 146.793Z" fill="black"/>
<path d="M55.3936 143.079C55.8727 142.536 55.6251 141.782 56.1627 141.226C57.0823 140.282 57.9626 141.062 58.8907 141.431C59.0257 141.482 59.4279 141.357 59.3922 141.16C59.1819 140.039 57.4407 140.014 56.6132 140.34C55.6173 140.737 54.6636 141.842 54.8882 142.981C54.9018 143.04 54.9252 143.096 54.9979 143.099C55.1044 143.115 55.2829 143.177 55.3816 143.071L55.3936 143.079Z" fill="black"/>
<path d="M97.1026 131.408C97.4246 130.059 98.7364 128.86 100.127 129.716C100.512 129.955 100.833 130.322 101.014 130.742C101.182 131.113 101.117 131.405 101.507 131.581C101.577 131.616 101.677 131.562 101.727 131.51C102.815 130.321 100.489 128.8 99.4334 128.81C98.0288 128.819 96.6563 130.023 96.8396 131.469C96.8617 131.608 97.0841 131.504 97.1123 131.405L97.1026 131.408Z" fill="black"/>
<path d="M103.076 131.133C103.569 130.515 104.534 131.748 104.919 131.946C105.013 131.996 105.328 131.85 105.296 131.714C105.019 130.526 103.323 130.254 102.605 131.181C102.409 131.443 102.98 131.248 103.084 131.121L103.076 131.133Z" fill="black"/>
<path d="M109.623 157.608C110.169 157.09 111.063 157.179 111.47 157.824C111.633 158.084 112.304 157.701 112.145 157.461C111.555 156.561 109.831 156.522 109.385 157.602C109.325 157.739 109.588 157.636 109.623 157.608Z" fill="black"/>
<path d="M59.3482 171.165C60.0322 170.708 60.5418 171 61.2297 171.219C61.3407 171.255 61.6926 171.09 61.6173 170.944C61.4011 170.501 60.7175 170.476 60.2919 170.544C59.8761 170.611 59.4463 170.793 59.1765 171.133C59.0898 171.246 59.3018 171.186 59.3362 171.158L59.3482 171.165Z" fill="black"/>
<path d="M72.5022 165.354C72.6152 165.266 72.7499 165.184 72.8817 165.132C73.0427 165.074 73.2031 165.057 73.3618 164.99C73.5303 164.919 73.8182 164.657 73.5488 164.515C73.0362 164.254 72.3029 164.764 72.0296 165.177C71.9698 165.273 72.0091 165.398 72.1127 165.445C72.238 165.498 72.3967 165.43 72.4925 165.357L72.5022 165.354Z" fill="black"/>
<path d="M126.461 143.781C126.649 143.398 126.915 143.172 127.352 143.152C127.74 143.143 128.066 143.396 128.44 143.37C128.542 143.367 128.664 143.318 128.7 143.207C128.933 142.536 127.616 142.525 127.256 142.609C126.633 142.755 125.878 143.218 125.759 143.893C125.684 144.321 126.361 143.968 126.469 143.769L126.461 143.781Z" fill="black"/>
<path d="M116.287 132.343C121.047 131.53 124.842 134.506 125.661 139.161C125.715 139.478 126.259 139.258 126.237 138.986C125.925 133.997 121.029 130.795 116.3 131.96C116.086 132.01 115.981 132.394 116.287 132.343Z" fill="black"/>
<path d="M75.8993 126.835C78.2918 125.866 80.2599 126.116 82.7127 126.55C82.8311 126.574 83.347 126.32 83.133 126.195C81.0328 124.939 77.8951 125.487 75.8244 126.514C75.5578 126.648 75.5452 126.99 75.9016 126.845L75.8993 126.835Z" fill="black"/>
<path d="M74.9912 168.542C76.404 168.788 78.5711 168.878 79.6823 167.787C79.8004 167.677 79.7813 167.507 79.5969 167.509C78.9223 167.523 78.2725 167.818 77.6086 167.921C76.8354 168.04 76.0618 168.026 75.2971 167.917C74.9364 167.867 74.5098 168.46 75.001 168.54L74.9912 168.542Z" fill="black"/>
</g>
<defs>
<clipPath id="clip0_76_2">
<rect width="339.07" height="149.62" fill="white" transform="translate(0 77.0371) rotate(-13.1323)"/>
</clipPath>
</defs>
</svg>
