<svg width="143" height="179" viewBox="0 0 143 179" fill="none" xmlns="http://www.w3.org/2000/svg">
<g opacity="0.1" clip-path="url(#clip0_2031_2079)">
<path d="M78.6287 36.2446C77.945 35.2189 76.7485 34.0221 75.8938 32.9963C75.2101 32.1415 74.3555 31.1157 73.5008 30.2609C71.6206 28.2093 69.7403 26.1577 67.5183 24.4481C63.4159 21.0288 58.9717 17.9514 54.5276 15.216C50.0834 12.3096 45.4683 9.57416 40.6822 7.52258C35.7252 5.471 30.7683 3.93232 25.6403 2.73557C24.4438 2.39364 24.9566 0.342064 26.1531 0.513029C37.6055 1.70978 47.6903 7.35162 57.2624 13.8483C61.8776 16.9256 66.4927 20.174 70.4241 24.1062C72.3043 25.9868 74.1845 28.0383 75.8938 30.0899C77.0903 31.6286 79.4834 33.8511 79.6543 35.9027C79.4834 36.4156 78.7996 36.5866 78.6287 36.2446Z" fill="black"/>
<path d="M29.2295 1.53878C29.9132 2.05167 30.426 2.05167 31.1097 2.3936C31.9643 2.73553 32.819 3.41939 33.5027 4.10325C35.0411 5.3 36.2376 6.66772 37.6051 8.03543C40.5109 10.7709 43.2457 13.6773 45.8097 16.9256C48.2027 20.003 50.5958 22.9094 52.8178 26.1577C53.8434 27.6964 54.869 29.406 56.0655 30.9447C57.0911 32.3124 58.2876 33.8511 58.6295 35.5607C58.9713 37.0994 56.7492 37.9543 56.2364 36.4156C55.5527 34.8769 54.6981 33.5092 53.6725 32.1415C52.6469 30.7737 51.7923 29.2351 50.7667 27.6964C48.7155 24.448 46.3225 21.5416 43.9295 18.4643C41.7074 15.7288 39.3144 12.9934 36.7504 10.4289C35.383 9.23219 34.1865 8.03543 32.9899 6.83868C32.1353 5.98386 31.4516 5.12903 30.5969 4.44518C29.7423 3.76132 29.0585 3.41939 28.3748 2.56456C27.862 1.88071 28.5457 1.02588 29.2295 1.53878Z" fill="black"/>
<path d="M68.3721 40.0059C65.2954 39.151 62.3896 37.9543 59.3128 37.2704C56.578 36.7575 54.014 36.7575 51.2791 36.5866C48.0315 36.2447 44.9547 36.9285 41.878 37.7833C38.8012 38.6382 35.7245 39.322 32.6477 40.5188C26.8361 42.7413 21.1954 45.4767 15.8966 48.5541C13.3326 49.9218 10.9396 51.9734 8.37564 53.1702C6.32448 54.1959 4.10239 55.2217 2.39308 56.9314C1.3675 58.1281 -0.68367 56.4185 0.170982 55.2217C1.70936 53.1702 3.58959 51.6315 5.98262 50.6057C8.7175 49.238 11.1105 47.5283 13.6745 46.1606C19.657 42.9123 25.6396 40.0059 32.1349 37.7833C35.0408 36.7575 38.1175 36.0737 41.1942 35.3898C44.1 34.706 47.0059 34.0221 50.0826 34.1931C53.5012 34.364 56.9198 34.535 60.1675 35.3898C63.2442 36.2447 65.9791 37.9543 68.8849 39.151C69.3977 39.151 69.0559 40.1768 68.3721 40.0059Z" fill="black"/>
<path d="M61.8772 54.5378C56.4075 53.341 50.5959 51.2895 44.9552 51.2895C39.4854 51.2895 33.8447 51.6314 28.3749 52.3152C19.6575 53.341 9.91445 52.9991 1.88073 56.7603C0.684219 57.2732 -0.341358 55.5636 0.855152 55.0507C8.88887 50.7766 18.9738 51.4604 27.8621 50.6056C33.8447 49.9217 39.8272 49.5798 45.8098 49.9217C51.4505 50.2637 56.7493 52.3152 62.2191 53.683C62.9028 53.683 62.561 54.7087 61.8772 54.5378Z" fill="black"/>
<path d="M63.0741 54.0248C62.3903 53.8539 61.1938 54.8796 60.681 55.2216C60.3392 55.5635 59.8264 56.0764 59.4845 56.4183C58.8008 57.1022 58.288 57.786 57.7752 58.4699C56.4078 60.1796 55.2113 62.0602 54.0148 63.9408C51.9636 67.3601 49.9124 71.1213 48.7159 74.8825C47.1775 79.1566 45.8101 83.4307 44.9555 87.8758C44.4427 90.4403 44.1008 93.1757 43.9299 95.7402C43.7589 97.9627 44.1008 100.185 43.7589 102.408C43.588 103.434 41.8787 103.776 41.3659 102.921C38.9729 98.4756 40.5113 92.1499 41.3659 87.5339C42.3915 82.063 44.2717 76.4212 46.6648 71.2923C48.7159 66.8472 51.1089 62.5731 54.1857 58.8118C56.2368 56.2474 59.8264 50.9475 63.7578 52.4861C64.0996 53.17 63.9287 54.1958 63.0741 54.0248Z" fill="black"/>
<path d="M74.5261 58.8118C67.1761 64.2827 60.3389 70.4374 55.0401 77.7889C52.4761 81.3792 50.254 85.1404 48.7157 89.0726C47.861 91.2951 47.3482 93.3467 46.8354 95.7402C46.4936 97.6208 45.8098 99.3304 45.9808 101.211C46.1517 102.066 44.9552 102.408 44.4424 101.895C43.075 100.527 43.4168 98.9885 43.7587 97.1079C44.2715 94.8854 44.7843 92.8338 45.468 90.6113C47.0063 85.9952 49.2284 81.892 51.7924 77.9599C57.2622 69.7536 64.954 62.915 72.9877 57.1022C74.1843 56.5893 75.5517 57.957 74.5261 58.8118Z" fill="black"/>
<path d="M76.9185 55.5636C73.3289 64.4537 71.1068 74.8826 71.1068 84.6276C71.1068 89.7565 71.6196 94.8854 72.3034 100.014C72.8161 103.434 73.4999 107.537 75.2092 110.614C75.8929 111.982 74.1836 113.35 72.9871 112.495C70.0813 110.443 69.5685 105.827 69.0557 102.579C68.0301 96.766 67.6882 90.7823 67.8592 84.9695C68.0301 74.7116 70.5941 63.9408 75.3801 54.8797C75.8929 53.6829 77.2603 54.5378 76.9185 55.5636Z" fill="black"/>
<path d="M88.3712 62.4022C84.2689 71.6343 81.0212 80.8664 78.97 90.7823C77.9444 95.5693 77.4316 100.527 77.0898 105.314C76.9188 106.853 76.7479 108.392 76.7479 110.101C76.7479 111.469 77.0898 112.495 77.6026 113.863C77.7735 114.375 77.4316 115.059 76.7479 115.059C73.5002 115.401 73.6712 110.956 73.8421 108.734C74.013 103.947 74.6968 98.9886 75.3805 94.3726C76.2351 88.7307 77.6026 83.0889 79.6537 77.618C81.534 72.1472 84.2689 66.8473 87.0037 61.7183C87.5165 61.0345 88.713 61.7183 88.3712 62.4022Z" fill="black"/>
<path d="M86.8327 59.6666C87.8583 60.0085 89.2257 59.1537 90.2513 59.3246C91.4478 59.4956 92.6443 60.0085 93.8408 60.5214C96.2339 61.5472 98.6269 62.9149 100.849 64.2826C104.609 66.5051 108.028 69.5825 111.105 72.8308C114.352 76.2501 117.258 79.8404 119.993 83.6016C121.532 85.6532 123.07 87.8757 124.608 89.9273C125.805 91.8079 127.343 93.5176 127.685 95.7401C127.856 96.5949 127.001 97.2788 126.147 96.7659C124.266 95.3982 123.07 93.1756 121.873 91.295C120.335 89.0725 118.797 87.0209 117.258 84.9693C114.523 81.2081 111.447 77.7888 108.37 74.3695C105.122 71.1212 101.704 68.2148 97.7722 65.9922C95.5501 64.7955 93.499 63.4278 91.2769 62.402C90.0804 61.8891 89.2257 61.7181 87.8583 61.7181C87.1746 61.7181 86.6618 61.5472 86.149 61.2052C85.4653 60.5214 85.9781 59.4956 86.8327 59.6666Z" fill="black"/>
<path d="M126.66 96.0821C128.369 95.5692 125.805 85.9952 125.634 84.7985C124.95 81.7211 123.583 78.8147 122.386 75.9083C121.19 73.1729 120.164 70.2665 118.626 67.702C117.258 65.4795 115.549 63.086 113.84 61.0344C111.96 58.6409 109.396 56.9312 107.174 54.8796C102.217 50.7765 97.4305 47.0153 91.9608 43.7669C90.5933 42.9121 91.448 40.8605 92.9863 41.5444C99.8236 44.6218 105.122 49.9217 110.934 54.5377C113.669 56.7603 115.891 58.9828 117.771 61.8892C119.651 64.6246 121.532 67.1891 122.728 70.2665C124.096 73.6858 125.805 76.9341 127.001 80.3534C127.856 83.0888 128.369 85.9952 128.882 88.9016C129.224 90.4403 129.736 96.937 127.001 96.937C126.318 97.1079 126.147 96.2531 126.66 96.0821Z" fill="black"/>
<path d="M73.5003 30.4317C72.9875 28.5511 73.6713 27.0124 74.1841 25.3028C74.8678 23.5931 75.7224 21.8835 76.5771 20.3448C78.4573 16.9255 80.5085 14.0191 83.4143 11.2837C85.9782 8.54824 89.055 6.3257 92.3027 4.44509C93.841 3.59026 95.3794 2.73544 96.9178 1.88062C98.4561 1.19676 100.678 -0.17096 102.558 4.68176e-06C103.242 0.170969 103.413 0.854828 103.071 1.36772C102.046 2.56447 100.336 2.9064 99.1399 3.4193C97.6015 4.10316 96.0631 4.95798 94.5247 5.8128C91.7899 7.35149 89.055 9.2321 86.662 11.2837C84.098 13.5062 81.8759 15.8997 79.9957 18.8061C78.9701 20.3448 78.1154 21.8835 77.2608 23.5931C76.4061 25.3028 74.6968 27.6963 75.2096 29.7479C75.3806 30.9446 73.8422 31.4575 73.5003 30.4317Z" fill="black"/>
<path d="M102.559 2.3936C100.508 3.76132 99.3111 5.64193 98.2855 7.6935C97.089 9.91604 95.8925 12.1386 95.0379 14.3611C92.9867 19.3191 92.1321 24.619 90.9355 29.7479C90.5937 31.4576 88.0297 30.7737 88.3716 29.0641C89.2262 23.4223 91.1065 17.6095 93.6704 12.4805C94.8669 10.258 96.0635 7.6935 97.4309 5.64193C98.6274 3.76132 100.337 2.56456 102.388 1.70974C102.559 1.53878 102.901 2.05167 102.559 2.3936Z" fill="black"/>
<path d="M89.3966 31.4573C90.935 28.7219 95.2082 27.0123 97.9431 25.6445C102.045 23.7639 106.661 23.0801 111.276 23.0801C115.72 23.251 119.822 24.6188 123.924 26.3284C128.198 28.0381 132.3 30.2606 135.719 33.338C136.573 34.0218 135.377 35.5605 134.522 34.8766C128.027 30.6025 120.335 26.1574 112.472 25.6445C108.199 25.3026 103.584 25.6445 99.6524 27.3542C97.9431 28.0381 96.2338 28.8929 94.5245 29.7477C93.157 30.4316 91.6187 30.9445 90.764 32.3122C90.2512 32.996 88.8838 32.3122 89.3966 31.4573Z" fill="black"/>
<path d="M137.258 38.1253C131.959 36.7576 126.318 36.5866 121.019 37.6124C118.626 38.1253 116.404 38.4672 114.011 39.1511C112.815 39.493 111.618 39.8349 110.422 40.3478C109.225 40.8607 107.858 41.7155 106.49 41.7155C105.636 41.7155 104.61 40.6898 105.465 39.8349C106.49 38.8091 107.858 38.2963 109.225 37.7834C110.593 37.2705 111.96 36.7576 113.327 36.4156C115.891 35.7318 118.626 35.5608 121.19 35.0479C126.66 34.1931 132.301 35.2189 137.429 37.2705C137.941 37.4414 137.771 38.1253 137.258 38.1253Z" fill="black"/>
<path d="M104.61 38.9802C105.122 39.4931 106.832 39.1511 107.515 39.3221C108.37 39.4931 109.396 39.664 110.25 39.835C112.472 40.3479 114.695 41.2027 116.746 42.2285C121.19 44.451 125.121 47.0155 128.882 50.2638C132.642 52.9993 135.548 56.5895 138.454 60.1798C139.992 62.0604 141.189 63.77 142.214 65.8216C142.898 67.3603 143.753 69.0699 143.069 70.6086C142.727 71.2925 142.043 71.4635 141.531 71.2925C141.189 71.1215 141.018 70.9506 141.018 70.6086C141.018 70.4377 141.018 69.5828 141.189 69.5828C140.847 69.9248 140.676 69.9248 140.676 69.5828C140.676 69.4119 140.676 69.2409 140.505 69.07C140.334 68.5571 140.163 67.8732 139.821 67.3603C139.308 66.3345 138.796 65.4797 138.283 64.4539C137.086 62.5733 135.548 60.6927 134.181 58.983C131.446 55.5637 128.198 52.4864 124.779 49.9219C121.019 47.0155 116.917 44.451 112.643 42.7414C110.763 42.0575 108.712 41.3737 106.661 41.0317C105.293 40.8608 104.097 40.6898 103.413 39.3221C103.071 38.9802 104.097 38.4673 104.61 38.9802Z" fill="black"/>
<path d="M140.676 72.318C136.403 68.7278 131.446 65.4794 126.489 62.915C123.925 61.5473 121.361 60.3505 118.626 59.3247C117.259 58.8118 115.891 58.4699 114.524 58.128C112.985 57.786 111.618 57.6151 110.251 57.1022C109.396 56.7602 109.738 55.5635 110.421 55.5635C113.156 55.2216 116.404 56.4183 118.968 57.4441C121.532 58.4699 124.096 59.6666 126.66 61.0344C131.959 63.9408 137.258 67.36 141.189 71.9761C141.36 72.1471 141.018 72.489 140.676 72.318Z" fill="black"/>
<path d="M97.2596 64.4536C97.9433 64.6246 98.2852 64.7955 98.798 65.3084C98.9689 65.6504 99.1398 65.8213 99.3108 66.1633C99.6526 66.8471 99.4817 67.7019 99.4817 68.3858C99.3108 69.9245 98.4561 71.2922 97.4305 72.6599C95.5503 74.8825 92.4735 76.4211 89.5677 76.0792C87.6875 75.9082 85.6363 74.8825 84.7817 73.1728C84.2689 72.318 85.1235 71.4632 86.1491 71.8051C86.8328 72.147 87.6875 72.4889 88.3712 72.8309C89.0549 73.0018 89.7387 73.3438 90.2514 73.3438C91.6189 73.5147 92.8154 73.1728 94.0119 72.489C94.6956 72.147 95.2084 71.6341 95.7212 71.1212C96.234 70.6083 96.5759 70.2664 96.9177 69.4116C97.2596 68.7277 97.4305 68.2148 97.4305 67.531C97.4305 66.8471 97.4305 65.9923 97.0887 65.4794C96.4049 64.9665 96.7468 64.4536 97.2596 64.4536Z" fill="black"/>
<path d="M88.7129 74.8824C88.8838 75.3953 88.8838 75.9082 88.8838 76.592C88.8838 77.2759 88.7129 77.7888 88.5419 78.3017C88.2001 79.3275 87.5163 80.1823 86.6617 80.8662C85.807 81.379 84.7815 81.721 83.9268 81.8919C82.7303 82.0629 81.5338 81.721 80.5082 81.379C79.9954 81.2081 79.6536 80.5242 79.8245 80.0113C79.9954 79.3275 80.6791 79.1565 81.1919 79.3275C81.021 79.3275 81.3629 79.3275 81.3629 79.3275C81.5338 79.3275 81.5338 79.3275 81.7047 79.3275C81.8756 79.3275 82.0466 79.3275 82.2175 79.3275C82.3884 79.3275 82.3884 79.3275 82.5594 79.3275C82.9012 79.3275 82.3884 79.3275 82.7303 79.3275C82.9012 79.3275 83.0722 79.3275 83.2431 79.3275C83.585 79.3275 83.9268 79.3275 84.2687 79.3275C84.4396 79.3275 84.6105 79.3275 84.6105 79.3275H84.7815C84.9524 79.3275 85.1233 79.1565 85.1233 79.1565H85.2943C85.2943 79.1565 86.1489 78.6436 86.1489 78.4727C87.0036 77.6178 87.6873 76.2501 87.8582 75.0534C88.0291 74.5405 88.5419 74.7114 88.7129 74.8824Z" fill="black"/>
<path d="M49.7412 45.4765C48.5447 45.4765 47.5191 45.3056 46.1517 45.3056C44.6133 45.3056 43.075 45.3056 41.7075 45.3056C37.4343 45.1346 33.5029 45.6475 29.4005 46.5023C25.811 47.1862 22.3924 48.7249 18.6319 49.5797C15.5552 50.2635 12.4784 50.9474 9.57263 52.3151C8.88891 52.6571 8.37611 51.6313 8.8889 51.2893C11.4529 49.5797 14.8715 49.0668 17.9482 48.5539C21.8796 47.87 25.6401 46.6733 29.4005 45.9894C33.161 45.3056 36.9215 44.7927 40.6819 44.4508C42.3912 44.2798 44.2715 44.2798 45.9808 44.2798C47.3482 44.4507 48.2029 44.9636 49.5703 45.3056C50.0831 45.1346 50.0831 45.4765 49.7412 45.4765Z" fill="black"/>
<path d="M60.1679 26.8413C59.1423 26.1574 58.4586 25.3026 57.7749 24.4478C56.9202 23.251 55.8946 22.3962 54.8691 21.3704C52.647 19.3188 50.4249 17.0963 48.2028 15.0447C46.1516 13.1641 43.9295 11.1125 41.7074 9.57385C39.3144 7.8642 36.5795 6.66745 33.8446 5.64166C33.1609 5.29973 33.3319 4.10298 34.1865 4.27394C39.9981 5.12876 44.6132 9.23192 48.7156 13.1641C50.9377 15.3866 52.9888 17.4382 55.04 19.8317C55.8946 20.8575 56.9202 21.8833 57.7749 22.9091C58.6295 24.1058 59.3133 25.4736 60.5098 26.3284C60.8516 26.4993 60.5098 27.0122 60.1679 26.8413Z" fill="black"/>
<path d="M95.5504 3.59003C95.7214 3.2481 96.0632 3.07713 96.576 2.90617C96.9179 2.73521 97.4307 3.41906 97.4307 3.93196C97.0888 5.29968 95.8923 6.49643 95.2086 7.69318C94.8667 8.37704 94.5249 8.88993 94.0121 9.40283C93.3283 10.0867 92.8156 10.7705 92.1318 11.4544C90.9353 12.8221 89.7388 14.1898 88.5423 15.5576C87.1748 17.0962 85.8074 18.6349 84.44 20.1736C83.7562 21.0284 82.3888 20.0026 82.9016 19.1478C84.7818 16.0704 86.833 13.164 89.3969 10.5996C89.9097 9.91572 90.5935 9.40283 91.1062 8.71897C91.619 8.20607 92.3028 7.69318 92.6446 7.00932C93.6702 5.6416 94.6958 4.44485 95.8923 3.07713C96.0632 3.59003 96.2342 4.10292 96.4051 4.44485C95.8923 4.61582 95.2086 4.10292 95.5504 3.59003Z" fill="black"/>
<path d="M78.6282 66.3344C77.0898 69.2408 76.4061 72.8311 75.7224 76.0794C74.8678 79.6696 74.5259 83.2599 74.184 86.8502C73.8422 90.4404 74.0131 93.8597 74.184 97.45C74.355 100.527 75.0387 104.118 74.355 107.195C74.184 107.708 73.5003 107.708 73.3294 107.195C72.8166 105.485 72.9875 103.605 72.9875 101.895C72.9875 100.185 72.8166 98.4757 72.8166 96.7661C72.6457 93.0049 72.4747 89.0727 72.9875 85.3115C73.6712 78.9858 74.5259 71.4633 78.2864 66.1634C78.4573 65.8215 78.7991 65.9925 78.6282 66.3344Z" fill="black"/>
<path d="M55.8943 65.8211C54.6978 67.8727 53.5013 70.0952 52.3048 72.3178C51.2792 74.3694 50.0827 76.25 49.0571 78.4725C47.3478 82.5757 46.3222 87.0207 45.2966 91.4658C45.1257 91.9787 44.442 91.8078 44.6129 91.2949C45.6385 86.8498 46.4931 82.4047 48.2025 78.1306C49.228 75.908 50.4245 73.8565 51.6211 71.6339C52.8176 69.5823 53.8431 67.5308 55.0397 65.4792C55.5525 64.9663 56.2362 65.4792 55.8943 65.8211Z" fill="black"/>
<path d="M125.463 93.3467C124.608 92.3209 124.437 90.9532 124.096 89.7564C123.583 88.0468 123.07 86.3371 122.386 84.6275C121.19 81.2082 119.993 77.6179 118.284 74.3696C115.036 67.702 110.421 62.2311 104.097 58.2989C103.242 57.786 103.926 56.0764 104.781 56.7603C110.763 60.1795 115.378 65.6504 118.626 71.6342C120.335 74.7115 121.532 77.9599 122.728 81.2082C123.241 82.9178 123.754 84.7985 124.437 86.5081C124.779 87.3629 124.95 88.2177 125.121 89.0726C125.463 90.2693 125.121 91.808 125.805 93.0048C126.147 93.1757 125.634 93.5177 125.463 93.3467Z" fill="black"/>
<path d="M138.283 70.4375C138.112 69.5827 137.257 68.3859 136.744 67.7021C136.232 66.8472 135.719 65.9924 135.206 65.1376C133.839 63.086 132.129 61.2054 130.249 59.6667C126.489 56.4184 122.215 53.8539 118.113 51.2895C117.087 50.6056 117.942 49.0669 118.968 49.5798C123.754 52.3153 128.54 55.0507 132.471 58.8119C134.351 60.6925 136.061 62.7441 137.428 65.1376C138.283 66.6763 139.821 68.3859 139.65 70.4375C139.821 71.2923 138.454 71.2923 138.283 70.4375Z" fill="black"/>
<path d="M132.983 35.5604C130.59 33.3379 127.856 31.6282 124.95 30.4315C122.044 29.2347 119.138 29.0637 116.232 28.7218C110.592 27.867 104.096 27.0122 99.6521 31.4573C98.7975 32.3121 97.43 31.1153 98.2847 30.0895C102.558 25.1316 109.908 26.1573 115.72 26.8412C118.796 27.3541 121.873 27.5251 124.779 28.5509C128.368 29.9186 131.616 31.9701 133.667 35.2185C133.838 35.3894 133.325 35.9023 132.983 35.5604Z" fill="black"/>
<path d="M94.1827 73.5147C93.1571 77.4469 94.6955 81.2081 96.4048 84.7984C97.9432 88.2177 99.8234 91.466 101.704 94.5434C105.464 100.869 109.737 106.853 114.011 112.837C118.113 118.82 122.386 124.633 126.489 130.446C130.591 136.088 134.693 141.901 138.283 147.884C140.163 151.133 141.872 154.723 143.582 158.142C145.12 161.391 146.829 164.81 147 168.4C147.171 170.11 144.436 170.11 144.094 168.571C142.385 161.903 139.308 155.407 135.89 149.423C132.3 143.097 128.027 136.943 123.754 131.13C119.48 125.146 115.378 119.162 111.276 113.008C107.173 106.853 102.9 100.869 99.3106 94.3724C97.2594 90.6112 95.2083 86.8499 93.6699 82.9178C92.3025 79.6694 91.7897 76.2501 92.8152 73.0018C93.1571 72.147 94.5246 72.6599 94.1827 73.5147Z" fill="black"/>
<path d="M80.6788 81.2083C79.9951 82.4051 81.0206 85.8244 81.3625 87.1921C81.8753 89.2437 82.7299 91.2952 83.5846 93.1759C85.2939 96.4242 86.6613 100.014 88.3706 103.434C92.1311 111.298 96.2334 118.821 99.4811 126.856C102.387 134.207 104.609 142.072 106.147 149.936C106.831 154.039 107.857 157.971 108.369 162.075C108.711 166.178 109.053 170.281 108.882 174.384C108.882 176.094 105.976 176.265 105.806 174.384C105.464 168.058 105.976 161.904 104.78 155.578C103.583 148.739 102.045 142.072 99.9939 135.575C95.8916 122.24 88.5416 110.101 83.2427 97.279C81.8753 94.0307 80.3369 91.1243 79.4823 87.876C78.9695 85.6534 77.773 82.4051 79.4823 80.5245C80.166 79.8406 81.0206 80.5245 80.6788 81.2083Z" fill="black"/>
<path d="M145.291 169.255C143.239 171.477 140.846 173.7 137.941 174.897C134.18 176.435 130.249 177.632 126.146 178.316C119.651 179.513 112.13 179.855 106.831 175.239C105.806 174.384 106.831 172.674 108.028 173.187C110.25 174.042 112.301 175.581 114.694 176.094C117.942 176.948 121.873 176.777 125.292 176.435C132.3 175.752 139.479 173.358 144.778 168.742C145.12 168.229 145.632 168.913 145.291 169.255Z" fill="black"/>
<path d="M94.8662 88.5598C93.4988 90.0984 91.7895 91.2952 89.9092 92.15C88.8836 92.492 88.029 92.8339 87.0034 93.0049C85.8069 93.1758 84.6104 93.1758 83.4139 92.8339C82.7302 92.6629 82.9011 91.6371 83.5848 91.8081C85.636 91.9791 87.6871 91.8081 89.5674 91.1242C91.4476 90.4404 92.986 89.4146 94.5243 88.0469C94.8662 88.0469 95.2081 88.3888 94.8662 88.5598Z" fill="black"/>
<path d="M101.02 95.2271C99.1394 97.2787 97.601 99.6722 95.208 101.211C93.1568 102.579 91.1057 103.946 88.5417 104.459C87.3452 104.63 85.465 104.801 84.4394 103.946C83.7557 103.262 83.9266 102.066 84.9522 101.724C85.6359 101.553 86.4905 101.895 87.1743 101.895C89.3964 101.895 91.4475 100.869 93.4987 99.8432C94.8661 99.1593 96.0626 98.3045 97.0882 97.2787C98.1138 96.4239 99.1394 95.3981 100.165 94.3723C100.678 94.0304 101.532 94.7142 101.02 95.2271Z" fill="black"/>
<path d="M110.934 108.562C110.592 109.246 110.421 110.101 110.079 110.785C109.566 111.64 108.883 112.324 108.37 113.007C107.686 113.862 106.831 114.546 105.977 115.23C105.122 115.914 104.609 116.598 103.755 117.111C100.507 119.504 95.7209 120.53 92.4733 117.965C91.4477 117.282 92.3023 115.572 93.4988 115.914C95.0372 116.427 96.9174 116.94 98.6268 116.598C100.165 116.427 101.703 115.572 103.071 114.717C103.755 114.204 104.267 113.862 104.951 113.349C105.806 112.837 106.66 112.153 107.515 111.298C108.199 110.785 108.883 110.101 109.395 109.588C109.737 109.075 110.079 108.562 110.25 108.049C110.421 107.366 111.276 107.879 110.934 108.562Z" fill="black"/>
<path d="M119.139 124.291C116.575 128.907 111.959 131.985 106.832 133.01C106.319 133.181 105.635 133.181 105.122 133.352C104.439 133.352 103.242 133.523 102.558 133.181C101.875 132.839 101.704 132.156 102.216 131.643C102.729 131.13 103.755 131.13 104.439 131.13C106.832 130.788 109.225 130.446 111.447 129.42C114.182 128.223 116.404 126.343 118.113 123.949C118.626 123.094 119.651 123.607 119.139 124.291Z" fill="black"/>
<path d="M134.522 143.781C131.104 148.055 127.172 152.158 122.215 154.552C117.258 156.774 111.96 156.774 106.832 155.407C105.635 155.065 105.977 153.184 107.174 153.355C111.96 153.868 116.746 154.552 121.19 152.5C125.976 150.449 129.907 146.688 133.326 142.926C133.839 142.072 135.035 142.926 134.522 143.781Z" fill="black"/>
<path d="M141.359 160.878C137.086 163.955 132.813 167.374 127.685 168.742C122.386 170.11 117.087 169.597 111.617 169.255C110.592 169.255 110.763 167.716 111.617 167.545C116.574 167.203 121.702 167.545 126.488 166.519C131.616 165.494 136.06 162.245 140.334 159.51C141.188 159.168 142.214 160.194 141.359 160.878Z" fill="black"/>
</g>
<defs>
<clipPath id="clip0_2031_2079">
<rect width="147" height="179" fill="white" transform="matrix(-1 0 0 1 147 0)"/>
</clipPath>
</defs>
</svg>
