<svg width="147" height="179" viewBox="0 0 147 179" fill="none" xmlns="http://www.w3.org/2000/svg">
<g opacity="0.1" clip-path="url(#clip0_2031_2188)">
<path d="M68.3713 36.2446C69.055 35.2189 70.2515 34.0221 71.1062 32.9963C71.7899 32.1415 72.6445 31.1157 73.4992 30.2609C75.3794 28.2093 77.2597 26.1577 79.4817 24.4481C83.5841 21.0288 88.0283 17.9514 92.4724 15.216C96.9166 12.3096 101.532 9.57416 106.318 7.52258C111.275 5.471 116.232 3.93232 121.36 2.73557C122.556 2.39364 122.043 0.342064 120.847 0.513029C109.395 1.70978 99.3097 7.35162 89.7376 13.8483C85.1224 16.9256 80.5073 20.174 76.5759 24.1062C74.6957 25.9868 72.8155 28.0383 71.1062 30.0899C69.9097 31.6286 67.5166 33.8511 67.3457 35.9027C67.5166 36.4156 68.2004 36.5866 68.3713 36.2446Z" fill="black"/>
<path d="M117.771 1.53829C117.087 2.05118 116.574 2.05118 115.89 2.39311C115.036 2.73504 114.181 3.4189 113.497 4.10276C111.959 5.29951 110.762 6.66723 109.395 8.03495C106.489 10.7704 103.754 13.6768 101.19 16.9251C98.7973 20.0025 96.4042 22.9089 94.1822 26.1572C93.1566 27.6959 92.131 29.4055 90.9345 30.9442C89.9089 32.3119 88.7124 33.8506 88.3705 35.5603C88.0287 37.0989 90.2508 37.9538 90.7636 36.4151C91.4473 34.8764 92.3019 33.5087 93.3275 32.141C94.3531 30.7732 95.2077 29.2346 96.2333 27.6959C98.2845 24.4476 100.678 21.5412 103.071 18.4638C105.293 15.7284 107.686 12.9929 110.25 10.4285C111.617 9.2317 112.814 8.03495 114.01 6.83819C114.865 5.98337 115.548 5.12855 116.403 4.44469C117.258 3.76083 117.941 3.4189 118.625 2.56408C119.138 1.88022 118.454 1.02539 117.771 1.53829Z" fill="black"/>
<path d="M78.6279 40.0054C81.7046 39.1506 84.6104 37.9538 87.6872 37.2699C90.422 36.7571 92.986 36.7571 95.7209 36.5861C98.9685 36.2442 102.045 36.928 105.122 37.7828C108.199 38.6377 111.276 39.3215 114.352 40.5183C120.164 42.7408 125.805 45.4763 131.103 48.5536C133.667 49.9213 136.06 51.9729 138.624 53.1697C140.676 54.1955 142.898 55.2212 144.607 56.9309C145.632 58.1276 147.684 56.418 146.829 55.2212C145.291 53.1697 143.41 51.631 141.017 50.6052C138.283 49.2375 135.889 47.5278 133.326 46.1601C127.343 42.9118 121.36 40.0054 114.865 37.7828C111.959 36.7571 108.883 36.0732 105.806 35.3893C102.9 34.7055 99.9941 34.0216 96.9174 34.1926C93.4988 34.3636 90.0802 34.5345 86.8325 35.3893C83.7558 36.2442 81.0209 37.9538 78.1151 39.1506C77.6023 39.1506 77.9441 40.1763 78.6279 40.0054Z" fill="black"/>
<path d="M85.1228 54.5373C90.5925 53.3405 96.4041 51.289 102.045 51.289C107.515 51.289 113.155 51.6309 118.625 52.3148C127.343 53.3405 137.086 52.9986 145.119 56.7598C146.316 57.2727 147.341 55.5631 146.145 55.0502C138.111 50.7761 128.026 51.4599 119.138 50.6051C113.155 49.9212 107.173 49.5793 101.19 49.9213C95.5495 50.2632 90.2507 52.3148 84.7809 53.6825C84.0972 53.6825 84.439 54.7083 85.1228 54.5373Z" fill="black"/>
<path d="M83.9259 54.0248C84.6097 53.8539 85.8062 54.8796 86.319 55.2216C86.6608 55.5635 87.1736 56.0764 87.5155 56.4183C88.1992 57.1022 88.712 57.786 89.2248 58.4699C90.5922 60.1796 91.7887 62.0602 92.9852 63.9408C95.0364 67.3601 97.0876 71.1213 98.2841 74.8825C99.8225 79.1566 101.19 83.4307 102.045 87.8758C102.557 90.4403 102.899 93.1757 103.07 95.7402C103.241 97.9627 102.899 100.185 103.241 102.408C103.412 103.434 105.121 103.776 105.634 102.921C108.027 98.4756 106.489 92.1499 105.634 87.5339C104.608 82.063 102.728 76.4212 100.335 71.2923C98.2841 66.8472 95.8911 62.5731 92.8143 58.8118C90.7632 56.2474 87.1736 50.9475 83.2422 52.4861C82.9004 53.17 83.0713 54.1958 83.9259 54.0248Z" fill="black"/>
<path d="M72.4739 58.8118C79.8239 64.2827 86.6611 70.4374 91.9599 77.7889C94.5239 81.3792 96.746 85.1404 98.2843 89.0726C99.139 91.2951 99.6518 93.3467 100.165 95.7402C100.506 97.6208 101.19 99.3304 101.019 101.211C100.848 102.066 102.045 102.408 102.558 101.895C103.925 100.527 103.583 98.9885 103.241 97.1079C102.729 94.8854 102.216 92.8338 101.532 90.6113C99.9937 85.9952 97.7716 81.892 95.2076 77.9599C89.7378 69.7536 82.046 62.915 74.0123 57.1022C72.8157 56.5893 71.4483 57.957 72.4739 58.8118Z" fill="black"/>
<path d="M70.0815 55.5631C73.6711 64.4532 75.8932 74.8821 75.8932 84.6271C75.8932 89.756 75.3804 94.8849 74.6966 100.014C74.1839 103.433 73.5001 107.536 71.7908 110.614C71.1071 111.981 72.8164 113.349 74.0129 112.494C76.9187 110.443 77.4315 105.827 77.9443 102.578C78.9699 96.7656 79.3118 90.7818 79.1408 84.969C78.9699 74.7111 76.4059 63.9403 71.6199 54.8792C71.1071 53.6825 69.7397 54.5373 70.0815 55.5631Z" fill="black"/>
<path d="M58.6288 62.4017C62.7311 71.6338 65.9788 80.8659 68.03 90.7818C69.0556 95.5688 69.5684 100.527 69.9102 105.314C70.0812 106.853 70.2521 108.391 70.2521 110.101C70.2521 111.469 69.9102 112.494 69.3974 113.862C69.2265 114.375 69.5684 115.059 70.2521 115.059C73.4998 115.401 73.3288 110.956 73.1579 108.733C72.987 103.946 72.3032 98.9881 71.6195 94.3721C70.7649 88.7303 69.3974 83.0884 67.3463 77.6176C65.466 72.1467 62.7311 66.8468 59.9963 61.7178C59.4835 61.034 58.287 61.7178 58.6288 62.4017Z" fill="black"/>
<path d="M60.1673 59.6666C59.1417 60.0085 57.7743 59.1537 56.7487 59.3246C55.5522 59.4956 54.3557 60.0085 53.1592 60.5214C50.7661 61.5472 48.3731 62.9149 46.151 64.2826C42.3905 66.5051 38.9719 69.5825 35.8952 72.8308C32.6475 76.2501 29.7417 79.8404 27.0068 83.6016C25.4685 85.6532 23.9301 87.8757 22.3917 89.9273C21.1952 91.8079 19.6568 93.5176 19.315 95.7401C19.144 96.5949 19.9987 97.2788 20.8533 96.7659C22.7336 95.3982 23.9301 93.1756 25.1266 91.295C26.665 89.0725 28.2033 87.0209 29.7417 84.9693C32.4766 81.2081 35.5533 77.7888 38.6301 74.3695C41.8778 71.1212 45.2964 68.2148 49.2278 65.9922C51.4499 64.7955 53.501 63.4278 55.7231 62.402C56.9196 61.8891 57.7743 61.7181 59.1417 61.7181C59.8254 61.7181 60.3382 61.5472 60.851 61.2052C61.5347 60.5214 61.0219 59.4956 60.1673 59.6666Z" fill="black"/>
<path d="M20.3404 96.0821C18.6311 95.5692 21.195 85.9952 21.366 84.7985C22.0497 81.7211 23.4171 78.8147 24.6136 75.9083C25.8102 73.1729 26.8357 70.2665 28.3741 67.702C29.7416 65.4795 31.4509 63.086 33.1602 61.0344C35.0404 58.6409 37.6043 56.9312 39.8264 54.8796C44.7834 50.7765 49.5695 47.0153 55.0392 43.7669C56.4067 42.9121 55.552 40.8605 54.0137 41.5444C47.1764 44.6218 41.8776 49.9217 36.066 54.5377C33.3311 56.7603 31.109 58.9828 29.2288 61.8892C27.3485 64.6246 25.4683 67.1891 24.2718 70.2665C22.9043 73.6858 21.195 76.9341 19.9985 80.3534C19.1439 83.0888 18.6311 85.9952 18.1183 88.9016C17.7764 90.4403 17.2636 96.937 19.9985 96.937C20.6823 97.1079 20.8532 96.2531 20.3404 96.0821Z" fill="black"/>
<path d="M73.4997 30.4317C74.0125 28.5511 73.3287 27.0124 72.8159 25.3028C72.1322 23.5931 71.2776 21.8835 70.4229 20.3448C68.5427 16.9255 66.4915 14.0191 63.5857 11.2837C61.0218 8.54824 57.945 6.3257 54.6973 4.44509C53.159 3.59026 51.6206 2.73544 50.0822 1.88062C48.5439 1.19676 46.3218 -0.17096 44.4415 4.68176e-06C43.7578 0.170969 43.5869 0.854828 43.9287 1.36772C44.9543 2.56447 46.6636 2.9064 47.8601 3.4193C49.3985 4.10316 50.9369 4.95798 52.4753 5.8128C55.2101 7.35149 57.945 9.2321 60.338 11.2837C62.902 13.5062 65.1241 15.8997 67.0043 18.8061C68.0299 20.3448 68.8846 21.8835 69.7392 23.5931C70.5939 25.3028 72.3032 27.6963 71.7904 29.7479C71.6194 30.9446 73.1578 31.4575 73.4997 30.4317Z" fill="black"/>
<path d="M44.4412 2.3936C46.4924 3.76132 47.6889 5.64193 48.7145 7.6935C49.911 9.91604 51.1075 12.1386 51.9621 14.3611C54.0133 19.3191 54.8679 24.619 56.0645 29.7479C56.4063 31.4576 58.9703 30.7737 58.6284 29.0641C57.7738 23.4223 55.8935 17.6095 53.3296 12.4805C52.1331 10.258 50.9365 7.6935 49.5691 5.64193C48.3726 3.76132 46.6633 2.56456 44.6121 1.70974C44.4412 1.53878 44.0993 2.05167 44.4412 2.3936Z" fill="black"/>
<path d="M57.6034 31.4573C56.065 28.7219 51.7918 27.0123 49.0569 25.6445C44.9546 23.7639 40.3395 23.0801 35.7243 23.0801C31.2802 23.251 27.1778 24.6188 23.0755 26.3284C18.8023 28.0381 14.6999 30.2606 11.2813 33.338C10.4267 34.0218 11.6232 35.5605 12.4778 34.8766C18.9732 30.6025 26.665 26.1574 34.5278 25.6445C38.8011 25.3026 43.4162 25.6445 47.3476 27.3542C49.0569 28.0381 50.7662 28.8929 52.4755 29.7477C53.843 30.4316 55.3813 30.9445 56.236 32.3122C56.7488 32.996 58.1162 32.3122 57.6034 31.4573Z" fill="black"/>
<path d="M9.74227 38.1248C15.0411 36.7571 20.6818 36.5861 25.9806 37.6119C28.3737 38.1248 30.5958 38.4667 32.9888 39.1506C34.1853 39.4925 35.3818 39.8344 36.5783 40.3473C37.7748 40.8602 39.1423 41.7151 40.5097 41.7151C41.3644 41.7151 42.3899 40.6893 41.5353 39.8344C40.5097 38.8087 39.1423 38.2958 37.7748 37.7829C36.4074 37.27 35.0399 36.7571 33.6725 36.4152C31.1085 35.7313 28.3737 35.5603 25.8097 35.0474C20.3399 34.1926 14.6992 35.2184 9.57134 37.27C9.05855 37.4409 9.22948 38.1248 9.74227 38.1248Z" fill="black"/>
<path d="M42.3904 38.9797C41.8776 39.4926 40.1683 39.1506 39.4845 39.3216C38.6299 39.4926 37.6043 39.6635 36.7497 39.8345C34.5276 40.3474 32.3055 41.2022 30.2543 42.228C25.8101 44.4506 21.8787 47.015 18.1183 50.2633C14.3578 52.9988 11.452 56.589 8.54617 60.1793C7.0078 62.0599 5.81128 63.7696 4.7857 65.8211C4.10198 67.3598 3.24733 69.0695 3.93105 70.6081C4.27291 71.292 4.95663 71.463 5.46942 71.292C5.81128 71.121 5.98221 70.9501 5.98221 70.6081C5.98221 70.4372 5.98221 69.5824 5.81128 69.5824C6.15314 69.9243 6.32407 69.9243 6.32407 69.5824C6.32407 69.4114 6.32407 69.2404 6.495 69.0695C6.66594 68.5566 6.83686 67.8727 7.17873 67.3598C7.69152 66.334 8.20431 65.4792 8.7171 64.4534C9.91361 62.5728 11.452 60.6922 12.8194 58.9825C15.5543 55.5633 18.802 52.4859 22.2206 49.9214C25.9811 47.015 30.0834 44.4505 34.3566 42.7409C36.2369 42.057 38.288 41.3732 40.3392 41.0313C41.7066 40.8603 42.9031 40.6893 43.5869 39.3216C43.9287 38.9797 42.9031 38.4668 42.3904 38.9797Z" fill="black"/>
<path d="M6.32388 72.318C10.5971 68.7278 15.5541 65.4794 20.5111 62.915C23.075 61.5473 25.639 60.3505 28.3739 59.3247C29.7413 58.8118 31.1088 58.4699 32.4762 58.128C34.0146 57.786 35.382 57.6151 36.7495 57.1022C37.6041 56.7602 37.2623 55.5635 36.5785 55.5635C33.8436 55.2216 30.596 56.4183 28.032 57.4441C25.4681 58.4699 22.9041 59.6666 20.3402 61.0344C15.0413 63.9408 9.74249 67.36 5.81109 71.9761C5.64016 72.1471 5.98202 72.489 6.32388 72.318Z" fill="black"/>
<path d="M49.7404 64.4541C49.0567 64.6251 48.7148 64.796 48.202 65.3089C48.0311 65.6509 47.8602 65.8218 47.6892 66.1637C47.3474 66.8476 47.5183 67.7024 47.5183 68.3863C47.6892 69.925 48.5439 71.2927 49.5695 72.6604C51.4497 74.8829 54.5265 76.4216 57.4323 76.0797C59.3125 75.9087 61.3637 74.8829 62.2183 73.1733C62.7311 72.3185 61.8765 71.4637 60.8509 71.8056C60.1672 72.1475 59.3125 72.4894 58.6288 72.8314C57.9451 73.0023 57.2613 73.3443 56.7486 73.3443C55.3811 73.5152 54.1846 73.1733 52.9881 72.4894C52.3044 72.1475 51.7916 71.6346 51.2788 71.1217C50.766 70.6088 50.4241 70.2669 50.0823 69.4121C49.7404 68.7282 49.5695 68.2153 49.5695 67.5315C49.5695 66.8476 49.5695 65.9928 49.9113 65.4799C50.5951 64.967 50.2532 64.4541 49.7404 64.4541Z" fill="black"/>
<path d="M58.2871 74.8829C58.1162 75.3958 58.1162 75.9087 58.1162 76.5925C58.1162 77.2764 58.2871 77.7893 58.4581 78.3022C58.7999 79.328 59.4837 80.1828 60.3383 80.8666C61.193 81.3795 62.2185 81.7215 63.0732 81.8924C64.2697 82.0634 65.4662 81.7215 66.4918 81.3795C67.0046 81.2086 67.3464 80.5247 67.1755 80.0118C67.0046 79.328 66.3209 79.157 65.8081 79.328C65.979 79.328 65.6371 79.328 65.6371 79.328C65.4662 79.328 65.4662 79.328 65.2953 79.328C65.1244 79.328 64.9534 79.328 64.7825 79.328C64.6116 79.328 64.6116 79.328 64.4406 79.328C64.0988 79.328 64.6116 79.328 64.2697 79.328C64.0988 79.328 63.9278 79.328 63.7569 79.328C63.415 79.328 63.0732 79.328 62.7313 79.328C62.5604 79.328 62.3895 79.328 62.3895 79.328H62.2185C62.0476 79.328 61.8767 79.157 61.8767 79.157H61.7057C61.7057 79.157 60.8511 78.6441 60.8511 78.4731C59.9964 77.6183 59.3127 76.2506 59.1418 75.0538C58.9709 74.541 58.4581 74.7119 58.2871 74.8829Z" fill="black"/>
<path d="M97.2588 45.4761C98.4553 45.4761 99.4809 45.3051 100.848 45.3051C102.387 45.3051 103.925 45.3051 105.292 45.3051C109.566 45.1341 113.497 45.647 117.599 46.5018C121.189 47.1857 124.608 48.7244 128.368 49.5792C131.445 50.2631 134.522 50.9469 137.427 52.3146C138.111 52.6566 138.624 51.6308 138.111 51.2888C135.547 49.5792 132.129 49.0663 129.052 48.5534C125.12 47.8696 121.36 46.6728 117.599 45.9889C113.839 45.3051 110.079 44.7922 106.318 44.4503C104.609 44.2793 102.729 44.2793 101.019 44.2793C99.6518 44.4503 98.7971 44.9632 97.4297 45.3051C96.9169 45.1341 96.9169 45.4761 97.2588 45.4761Z" fill="black"/>
<path d="M86.8321 26.8418C87.8577 26.1579 88.5414 25.3031 89.2251 24.4483C90.0798 23.2515 91.1054 22.3967 92.1309 21.3709C94.353 19.3193 96.5751 17.0968 98.7972 15.0452C100.848 13.1646 103.07 11.113 105.293 9.57433C107.686 7.86469 110.42 6.66793 113.155 5.64215C113.839 5.30022 113.668 4.10346 112.813 4.27443C107.002 5.12925 102.387 9.2324 98.2844 13.1646C96.0623 15.3871 94.0112 17.4387 91.96 19.8322C91.1054 20.858 90.0798 21.8838 89.2251 22.9096C88.3705 24.1063 87.6867 25.474 86.4902 26.3289C86.1484 26.4998 86.4902 27.0127 86.8321 26.8418Z" fill="black"/>
<path d="M51.4496 3.59052C51.2786 3.24859 50.9368 3.07762 50.424 2.90666C50.0821 2.73569 49.5693 3.41955 49.5693 3.93245C49.9112 5.30016 51.1077 6.49692 51.7914 7.69367C52.1333 8.37753 52.4751 8.89042 52.9879 9.40332C53.6717 10.0872 54.1844 10.771 54.8682 11.4549C56.0647 12.8226 57.2612 14.1903 58.4577 15.558C59.8252 17.0967 61.1926 18.6354 62.56 20.1741C63.2438 21.0289 64.6112 20.0031 64.0984 19.1483C62.2182 16.0709 60.167 13.1645 57.6031 10.6001C57.0903 9.91621 56.4065 9.40332 55.8938 8.71946C55.381 8.20656 54.6972 7.69367 54.3554 7.00981C53.3298 5.64209 52.3042 4.44534 51.1077 3.07762C50.9368 3.59052 50.7658 4.10341 50.5949 4.44534C51.1077 4.6163 51.7914 4.10341 51.4496 3.59052Z" fill="black"/>
<path d="M68.3718 66.3339C69.9102 69.2403 70.5939 72.8306 71.2776 76.0789C72.1322 79.6692 72.4741 83.2594 72.816 86.8497C73.1578 90.4399 72.9869 93.8592 72.816 97.4495C72.645 100.527 71.9613 104.117 72.645 107.194C72.816 107.707 73.4997 107.707 73.6706 107.194C74.1834 105.485 74.0125 103.604 74.0125 101.895C74.0125 100.185 74.1834 98.4753 74.1834 96.7656C74.3543 93.0044 74.5253 89.0722 74.0125 85.311C73.3288 78.9853 72.4741 71.4628 68.7136 66.1629C68.5427 65.821 68.2009 65.992 68.3718 66.3339Z" fill="black"/>
<path d="M91.1057 65.8216C92.3022 67.8732 93.4987 70.0957 94.6952 72.3183C95.7208 74.3698 96.9173 76.2505 97.9429 78.473C99.6522 82.5761 100.678 87.0212 101.703 91.4663C101.874 91.9792 102.558 91.8082 102.387 91.2953C101.362 86.8503 100.507 82.4052 98.7975 78.1311C97.772 75.9085 96.5755 73.857 95.3789 71.6344C94.1824 69.5828 93.1569 67.5313 91.9603 65.4797C91.4475 64.9668 90.7638 65.4797 91.1057 65.8216Z" fill="black"/>
<path d="M21.5369 93.3462C22.3916 92.3204 22.5625 90.9527 22.9044 89.7559C23.4172 88.0463 23.93 86.3366 24.6137 84.627C25.8102 81.2077 27.0067 77.6175 28.716 74.3691C31.9637 67.7015 36.5788 62.2306 42.9032 58.2984C43.7579 57.7855 43.0741 56.0759 42.2195 56.7598C36.2369 60.1791 31.6218 65.6499 28.3741 71.6337C26.6648 74.7111 25.4683 77.9594 24.2718 81.2077C23.759 82.9174 23.2462 84.798 22.5625 86.5076C22.2207 87.3624 22.0497 88.2173 21.8788 89.0721C21.5369 90.2688 21.8788 91.8075 21.1951 93.0043C20.8532 93.1752 21.366 93.5172 21.5369 93.3462Z" fill="black"/>
<path d="M8.71715 70.437C8.88808 69.5822 9.74274 68.3854 10.2555 67.7016C10.7683 66.8468 11.2811 65.9919 11.7939 65.1371C13.1613 63.0855 14.8706 61.2049 16.7509 59.6662C20.5113 56.4179 24.7846 53.8534 28.8869 51.289C29.9125 50.6051 29.0579 49.0664 28.0323 49.5793C23.2462 52.3148 18.4602 55.0502 14.5288 58.8114C12.6485 60.692 10.9392 62.7436 9.57181 65.1371C8.71715 66.6758 7.17878 68.3854 7.34971 70.437C7.17878 71.2918 8.54622 71.2918 8.71715 70.437Z" fill="black"/>
<path d="M14.0165 35.5609C16.4095 33.3383 19.1444 31.6287 22.0502 30.4319C24.956 29.2352 27.8618 29.0642 30.7677 28.7223C36.4084 27.8675 42.9037 27.0127 47.3479 31.4577C48.2025 32.3126 49.57 31.1158 48.7153 30.09C44.4421 25.132 37.0921 26.1578 31.2805 26.8417C28.2037 27.3546 25.127 27.5256 22.2212 28.5513C18.6316 29.9191 15.3839 31.9706 13.3328 35.219C13.1618 35.3899 13.6746 35.9028 14.0165 35.5609Z" fill="black"/>
<path d="M52.8173 73.5147C53.8429 77.4469 52.3045 81.2081 50.5952 84.7984C49.0568 88.2177 47.1766 91.466 45.2964 94.5434C41.5359 100.869 37.2627 106.853 32.9894 112.837C28.8871 118.82 24.6138 124.633 20.5115 130.446C16.4092 136.088 12.3068 141.901 8.71731 147.884C6.83708 151.133 5.12778 154.723 3.41847 158.142C1.8801 161.391 0.170799 164.81 -0.00013091 168.4C-0.171061 170.11 2.56382 170.11 2.90568 168.571C4.61499 161.903 7.69173 155.407 11.1103 149.423C14.6999 143.097 18.9731 136.943 23.2464 131.13C27.5196 125.146 31.622 119.162 35.7243 113.008C39.8266 106.853 44.0999 100.869 47.6894 94.3724C49.7406 90.6112 51.7917 86.8499 53.3301 82.9178C54.6975 79.6694 55.2103 76.2501 54.1848 73.0018C53.8429 72.147 52.4754 72.6599 52.8173 73.5147Z" fill="black"/>
<path d="M66.3212 81.2083C67.0049 82.4051 65.9794 85.8244 65.6375 87.1921C65.1247 89.2437 64.2701 91.2952 63.4154 93.1759C61.7061 96.4242 60.3387 100.014 58.6294 103.434C54.8689 111.298 50.7666 118.821 47.5189 126.856C44.6131 134.207 42.391 142.072 40.8526 149.936C40.1689 154.039 39.1433 157.971 38.6305 162.075C38.2887 166.178 37.9468 170.281 38.1177 174.384C38.1177 176.094 41.0235 176.265 41.1945 174.384C41.5363 168.058 41.0235 161.904 42.2201 155.578C43.4166 148.739 44.9549 142.072 47.0061 135.575C51.1084 122.24 58.4584 110.101 63.7573 97.279C65.1247 94.0307 66.6631 91.1243 67.5177 87.876C68.0305 85.6534 69.227 82.4051 67.5177 80.5245C66.834 79.8406 65.9794 80.5245 66.3212 81.2083Z" fill="black"/>
<path d="M1.70942 169.255C3.76058 171.477 6.15361 173.7 9.05942 174.897C12.8199 176.435 16.7513 177.632 20.8536 178.316C27.349 179.513 34.8699 179.855 40.1687 175.239C41.1943 174.384 40.1687 172.674 38.9722 173.187C36.7501 174.042 34.699 175.581 32.3059 176.094C29.0583 176.948 25.1269 176.777 21.7083 176.435C14.7001 175.752 7.52105 173.358 2.22221 168.742C1.88035 168.229 1.36756 168.913 1.70942 169.255Z" fill="black"/>
<path d="M52.1338 88.5598C53.5012 90.0984 55.2105 91.2952 57.0908 92.15C58.1164 92.492 58.971 92.8339 59.9966 93.0049C61.1931 93.1758 62.3896 93.1758 63.5861 92.8339C64.2698 92.6629 64.0989 91.6371 63.4152 91.8081C61.364 91.9791 59.3129 91.8081 57.4326 91.1242C55.5524 90.4404 54.014 89.4146 52.4757 88.0469C52.1338 88.0469 51.7919 88.3888 52.1338 88.5598Z" fill="black"/>
<path d="M45.9804 95.2271C47.8606 97.2787 49.399 99.6722 51.792 101.211C53.8432 102.579 55.8943 103.946 58.4583 104.459C59.6548 104.63 61.535 104.801 62.5606 103.946C63.2443 103.262 63.0734 102.066 62.0478 101.724C61.3641 101.553 60.5095 101.895 59.8257 101.895C57.6036 101.895 55.5525 100.869 53.5013 99.8432C52.1339 99.1593 50.9374 98.3045 49.9118 97.2787C48.8862 96.4239 47.8606 95.3981 46.835 94.3723C46.3222 94.0304 45.4676 94.7142 45.9804 95.2271Z" fill="black"/>
<path d="M36.0663 108.562C36.4081 109.246 36.5791 110.101 36.9209 110.785C37.4337 111.64 38.1174 112.324 38.6302 113.007C39.3139 113.862 40.1686 114.546 41.0232 115.23C41.8779 115.914 42.3907 116.598 43.2453 117.111C46.493 119.504 51.2791 120.53 54.5267 117.965C55.5523 117.282 54.6977 115.572 53.5012 115.914C51.9628 116.427 50.0826 116.94 48.3732 116.598C46.8349 116.427 45.2965 115.572 43.9291 114.717C43.2453 114.204 42.7326 113.862 42.0488 113.349C41.1942 112.837 40.3395 112.153 39.4849 111.298C38.8012 110.785 38.1174 110.101 37.6046 109.588C37.2628 109.075 36.9209 108.562 36.75 108.049C36.5791 107.366 35.7244 107.879 36.0663 108.562Z" fill="black"/>
<path d="M27.8614 124.292C30.4254 128.908 35.0405 131.985 40.1684 133.011C40.6812 133.182 41.3649 133.182 41.8777 133.353C42.5614 133.353 43.7579 133.524 44.4417 133.182C45.1254 132.84 45.2963 132.156 44.7835 131.643C44.2707 131.13 43.2452 131.13 42.5614 131.13C40.1684 130.788 37.7754 130.446 35.5533 129.421C32.8184 128.224 30.5963 126.343 28.887 123.95C28.3742 123.095 27.3486 123.608 27.8614 124.292Z" fill="black"/>
<path d="M12.4776 143.781C15.8962 148.055 19.8276 152.158 24.7846 154.552C29.7416 156.774 35.0404 156.774 40.1683 155.407C41.3648 155.065 41.023 153.184 39.8265 153.355C35.0404 153.868 30.2544 154.552 25.8102 152.5C21.0241 150.449 17.0927 146.688 13.6741 142.926C13.1613 142.072 11.9648 142.926 12.4776 143.781Z" fill="black"/>
<path d="M5.64084 160.878C9.9141 163.955 14.1874 167.375 19.3153 168.742C24.6141 170.11 29.9129 169.597 35.3827 169.255C36.4083 169.255 36.2374 167.717 35.3827 167.546C30.4257 167.204 25.2978 167.546 20.5118 166.52C15.3839 165.494 10.9397 162.246 6.66642 159.51C5.81177 159.168 4.78619 160.194 5.64084 160.878Z" fill="black"/>
</g>
<defs>
<clipPath id="clip0_2031_2188">
<rect width="147" height="179" fill="white"/>
</clipPath>
</defs>
</svg>
