<svg width="70" height="70" viewBox="0 0 70 70" fill="none" xmlns="http://www.w3.org/2000/svg">
<circle opacity="0.15" cx="35" cy="35" r="35" fill="url(#paint0_linear_2449_26)"/>
<path d="M54.9375 35V35.6875C54.9375 36.4168 54.6478 37.1163 54.132 37.632C53.6163 38.1478 52.9168 38.4375 52.1875 38.4375H40.2456L43.25 35H35L32.855 38.4375H21.25C20.5207 38.4375 19.8212 38.1478 19.3055 37.632C18.7897 37.1163 18.5 36.4168 18.5 35.6875V26.0625H22.625L24 31.5625H51.5L54.9375 33.625V35Z" fill="#02EDD6"/>
<path d="M43.25 31.5625H35L28.125 26.0625H33.625L43.25 31.5625Z" fill="#02EDD6"/>
<path d="M35 35L32.855 38.4375L28.125 46H33.625L40.2456 38.4375L43.25 35H35Z" fill="#02EDD6"/>
<path d="M50.125 18.4999H50.0563C50.1033 18.2738 50.1263 18.0434 50.125 17.8124C50.123 17.0224 49.8488 16.2571 49.3487 15.6455C48.8487 15.0338 48.1531 14.6131 47.3792 14.4541C46.6053 14.2951 45.8002 14.4076 45.0995 14.7726C44.3988 15.1376 43.8452 15.7328 43.5319 16.4581C43.4386 16.4441 43.3443 16.4372 43.25 16.4375C42.7035 16.4391 42.1798 16.6569 41.7934 17.0433C41.407 17.4298 41.1891 17.9534 41.1875 18.4999H40.5C39.7707 18.4999 39.0712 18.7897 38.5555 19.3054C38.0397 19.8211 37.75 20.5206 37.75 21.2499C37.75 21.9793 38.0397 22.6788 38.5555 23.1945C39.0712 23.7102 39.7707 23.9999 40.5 23.9999H50.125C50.8543 23.9999 51.5538 23.7102 52.0695 23.1945C52.5853 22.6788 52.875 21.9793 52.875 21.2499C52.875 20.5206 52.5853 19.8211 52.0695 19.3054C51.5538 18.7897 50.8543 18.4999 50.125 18.4999ZM50.125 22.6249H40.5C40.1353 22.6249 39.7856 22.4801 39.5277 22.2222C39.2699 21.9644 39.125 21.6146 39.125 21.2499C39.125 20.8853 39.2699 20.5355 39.5277 20.2777C39.7856 20.0198 40.1353 19.8749 40.5 19.8749H42.0675C42.1878 19.8759 42.3062 19.8445 42.4102 19.7841C42.5142 19.7236 42.6001 19.6362 42.6587 19.5312C42.7196 19.4268 42.7516 19.3082 42.7516 19.1874C42.7516 19.0667 42.7196 18.9481 42.6587 18.8437C42.5797 18.7116 42.5478 18.5566 42.5681 18.4041C42.5884 18.2515 42.6597 18.1103 42.7706 18.0034C42.8814 17.8966 43.0251 17.8304 43.1783 17.8157C43.3316 17.801 43.4853 17.8386 43.6144 17.9224C43.7097 17.9829 43.8184 18.0189 43.931 18.0273C44.0436 18.0358 44.1565 18.0164 44.2597 17.9709C44.363 17.9253 44.4535 17.8551 44.5232 17.7663C44.5929 17.6775 44.6397 17.573 44.6594 17.4618C44.7524 16.9579 45.0296 16.5066 45.4371 16.1959C45.8446 15.8852 46.3532 15.7374 46.8638 15.7811C47.3743 15.8249 47.8503 16.0571 48.199 16.4327C48.5477 16.8082 48.7441 17.3 48.75 17.8124C48.7484 18.1759 48.6486 18.5322 48.4613 18.8437C48.4004 18.9481 48.3684 19.0667 48.3684 19.1874C48.3684 19.3082 48.4004 19.4268 48.4613 19.5312C48.5218 19.6361 48.609 19.7232 48.7141 19.7835C48.8191 19.8439 48.9382 19.8754 49.0594 19.8749H50.125C50.4897 19.8749 50.8394 20.0198 51.0973 20.2777C51.3551 20.5355 51.5 20.8853 51.5 21.2499C51.5 21.6146 51.3551 21.9644 51.0973 22.2222C50.8394 22.4801 50.4897 22.6249 50.125 22.6249Z" fill="#122986"/>
<path d="M26.75 50.1249H26.6812C26.7283 49.8988 26.7513 49.6684 26.75 49.4374C26.748 48.6474 26.4738 47.8821 25.9737 47.2705C25.4737 46.6588 24.7781 46.2381 24.0042 46.0791C23.2303 45.9201 22.4252 46.0326 21.7245 46.3976C21.0238 46.7626 20.4702 47.3578 20.1569 48.0831C20.0636 48.0691 19.9693 48.0622 19.875 48.0624C19.3285 48.0641 18.8048 48.2819 18.4184 48.6683C18.032 49.0548 17.8141 49.5784 17.8125 50.1249H17.125C16.3957 50.1249 15.6962 50.4147 15.1805 50.9304C14.6647 51.4461 14.375 52.1456 14.375 52.8749C14.375 53.6043 14.6647 54.3038 15.1805 54.8195C15.6962 55.3352 16.3957 55.6249 17.125 55.6249H26.75C27.4793 55.6249 28.1788 55.3352 28.6945 54.8195C29.2103 54.3038 29.5 53.6043 29.5 52.8749C29.5 52.1456 29.2103 51.4461 28.6945 50.9304C28.1788 50.4147 27.4793 50.1249 26.75 50.1249ZM26.75 54.2499H17.125C16.7603 54.2499 16.4106 54.1051 16.1527 53.8472C15.8949 53.5894 15.75 53.2396 15.75 52.8749C15.75 52.5103 15.8949 52.1605 16.1527 51.9027C16.4106 51.6448 16.7603 51.4999 17.125 51.4999H18.6925C18.8128 51.5009 18.9312 51.4695 19.0352 51.4091C19.1392 51.3486 19.2251 51.2612 19.2838 51.1562C19.3446 51.0518 19.3766 50.9332 19.3766 50.8124C19.3766 50.6917 19.3446 50.5731 19.2838 50.4687C19.2047 50.3366 19.1728 50.1816 19.1931 50.0291C19.2134 49.8765 19.2847 49.7353 19.3956 49.6284C19.5064 49.5216 19.6501 49.4554 19.8033 49.4407C19.9566 49.426 20.1103 49.4636 20.2394 49.5474C20.3347 49.6079 20.4434 49.6439 20.556 49.6523C20.6686 49.6608 20.7815 49.6414 20.8847 49.5959C20.988 49.5503 21.0785 49.4801 21.1482 49.3913C21.2179 49.3025 21.2647 49.198 21.2844 49.0868C21.3774 48.5829 21.6546 48.1316 22.0621 47.8209C22.4696 47.5102 22.9782 47.3624 23.4888 47.4061C23.9993 47.4499 24.4753 47.6821 24.824 48.0577C25.1727 48.4332 25.3691 48.925 25.375 49.4374C25.3734 49.8009 25.2736 50.1572 25.0863 50.4687C25.0254 50.5731 24.9934 50.6917 24.9934 50.8124C24.9934 50.9332 25.0254 51.0518 25.0863 51.1562C25.1468 51.2611 25.234 51.3482 25.3391 51.4085C25.4441 51.4689 25.5632 51.5004 25.6844 51.4999H26.75C27.1147 51.4999 27.4644 51.6448 27.7223 51.9027C27.9801 52.1605 28.125 52.5103 28.125 52.8749C28.125 53.2396 27.9801 53.5894 27.7223 53.8472C27.4644 54.1051 27.1147 54.2499 26.75 54.2499Z" fill="#122986"/>
<path d="M55.2881 33.0337L51.8506 30.9712C51.7445 30.9083 51.6234 30.875 51.5 30.875H43.4356L33.9687 25.4644C33.8629 25.4076 33.7451 25.3769 33.625 25.375H28.125C27.9829 25.3756 27.8444 25.4202 27.7287 25.5027C27.613 25.5851 27.5256 25.7015 27.4787 25.8356C27.4302 25.9698 27.4253 26.1158 27.4648 26.2529C27.5043 26.39 27.5862 26.5111 27.6987 26.5988L33.0406 30.875H24.5363L23.2919 25.8975C23.255 25.7484 23.1693 25.616 23.0485 25.5213C22.9276 25.4266 22.7785 25.3751 22.625 25.375H18.5C18.3177 25.375 18.1428 25.4474 18.0139 25.5764C17.8849 25.7053 17.8125 25.8802 17.8125 26.0625V35.6875C17.8125 36.5992 18.1747 37.4735 18.8193 38.1182C19.464 38.7628 20.3383 39.125 21.25 39.125H31.6106L27.5406 45.6356C27.4774 45.7401 27.4428 45.8595 27.4406 45.9816C27.4383 46.1038 27.4683 46.2243 27.5276 46.3311C27.587 46.4379 27.6735 46.5271 27.7784 46.5897C27.8833 46.6523 28.0029 46.686 28.125 46.6875H33.625C33.7227 46.6882 33.8195 46.6677 33.9085 46.6273C33.9976 46.587 34.0768 46.5278 34.1406 46.4538L40.555 39.125H52.1875C53.0992 39.125 53.9735 38.7628 54.6182 38.1182C55.2628 37.4735 55.625 36.5992 55.625 35.6875V33.625C55.6257 33.5056 55.5949 33.388 55.5358 33.2843C55.4766 33.1805 55.3912 33.0941 55.2881 33.0337ZM30.0844 26.75H33.4394L40.6581 30.875H35.2406L30.0844 26.75ZM33.3156 45.3125H29.3625L35.3781 35.6875H41.7375L33.3156 45.3125ZM54.25 34.3125H50.8125V35.6875H54.25C54.2484 36.234 54.0305 36.7577 53.6441 37.1441C53.2577 37.5305 52.734 37.7484 52.1875 37.75H41.7581L43.7656 35.4537C43.8528 35.3545 43.9096 35.2322 43.9291 35.1015C43.9486 34.9709 43.93 34.8373 43.8756 34.7169C43.8212 34.5965 43.7333 34.4944 43.6224 34.4226C43.5114 34.3509 43.3821 34.3127 43.25 34.3125H35C34.8833 34.313 34.7686 34.3429 34.6665 34.3994C34.5644 34.4558 34.4781 34.5371 34.4156 34.6356L32.47 37.75H21.25C20.7035 37.7484 20.1798 37.5305 19.7934 37.1441C19.407 36.7577 19.1891 36.234 19.1875 35.6875V26.75H22.0887L23.3331 31.7275C23.37 31.8766 23.4557 32.009 23.5765 32.1037C23.6974 32.1984 23.8465 32.2499 24 32.25H51.3075L54.25 34.0169V34.3125Z" fill="#122986"/>
<path d="M48.0625 34.3125H49.4375V35.6875H48.0625V34.3125Z" fill="#122986"/>
<path d="M45.3125 34.3125H46.6875V35.6875H45.3125V34.3125Z" fill="#122986"/>
<path d="M31.5625 34.3125H32.9375V35.6875H31.5625V34.3125Z" fill="#122986"/>
<path d="M28.8125 34.3125H30.1875V35.6875H28.8125V34.3125Z" fill="#122986"/>
<path d="M26.0625 34.3125H27.4375V35.6875H26.0625V34.3125Z" fill="#122986"/>
<path d="M26.0625 21.25H31.5625V22.625H26.0625V21.25Z" fill="#122986"/>
<path d="M23.3125 21.25H24.6875V22.625H23.3125V21.25Z" fill="#122986"/>
<path d="M23.3125 18.5H28.8125V19.875H23.3125V18.5Z" fill="#122986"/>
<path d="M20.5625 18.5H21.9375V19.875H20.5625V18.5Z" fill="#122986"/>
<path d="M19.875 43.25H25.375V44.625H19.875V43.25Z" fill="#122986"/>
<path d="M17.125 43.25H18.5V44.625H17.125V43.25Z" fill="#122986"/>
<path d="M17.125 40.5H22.625V41.875H17.125V40.5Z" fill="#122986"/>
<path d="M14.375 40.5H15.75V41.875H14.375V40.5Z" fill="#122986"/>
<defs>
<linearGradient id="paint0_linear_2449_26" x1="35" y1="0" x2="35" y2="70" gradientUnits="userSpaceOnUse">
<stop offset="0.55" stop-color="#8FCCB9"/>
<stop offset="1" stop-color="#FBFBFB"/>
</linearGradient>
</defs>
</svg>
