<svg width="1047" height="854" viewBox="0 0 1047 854" fill="none" xmlns="http://www.w3.org/2000/svg">
<path d="M1018.67 220.972C1016.07 222.174 1011.94 224.841 1006.98 230.732L996.242 243.49L985.522 242.317L987.452 240.022L988.322 238.99C988.579 238.683 988.541 238.228 988.234 237.971L985.018 235.267C984.712 235.011 984.256 235.048 983.999 235.355L983.129 236.388L978.759 241.579L970.994 240.731L972.977 238.376L973.847 237.343C974.103 237.037 974.066 236.581 973.759 236.324L970.543 233.62C970.236 233.364 969.78 233.402 969.524 233.708L968.654 234.741L964.233 239.993L935.916 236.898C935.675 236.872 935.44 236.968 935.284 237.152L930.927 242.329C930.767 242.518 930.715 242.77 930.789 243.007C930.832 243.142 930.91 243.261 931.015 243.347C931.093 243.412 931.184 243.462 931.286 243.491L975.806 256.025C975.837 256.04 975.865 256.057 975.896 256.073L981.606 260.875L967.047 278.169C965.029 280.566 961.62 287.02 959.137 292.354C958.827 293.018 958.529 293.671 958.246 294.308L947.179 293.221C946.139 293.117 945.118 293.534 944.446 294.333L942.45 296.705C942.31 296.872 942.232 297.09 942.267 297.305C942.296 297.483 942.383 297.639 942.514 297.749C942.573 297.799 942.64 297.838 942.714 297.87L955.051 302.804C955.037 302.88 955.024 302.951 955.012 303.017L954.321 304.291C954.026 304.834 954.689 305.389 955.173 305.006L956.352 304.074C956.401 304.057 956.451 304.035 956.504 304.014L963.49 315.342C963.533 315.41 963.584 315.47 963.641 315.519C963.772 315.629 963.94 315.69 964.122 315.686C964.341 315.682 964.542 315.567 964.683 315.403L966.677 313.032C967.348 312.234 967.583 311.156 967.306 310.149L964.301 299.293C965.013 298.805 965.754 298.292 966.519 297.75C971.466 294.25 977.255 289.782 978.746 288.012L993.305 270.718L998.798 275.337C998.818 275.365 998.839 275.39 998.86 275.417L1018.83 317.116C1018.87 317.212 1018.94 317.292 1019.02 317.357C1019.12 317.445 1019.25 317.503 1019.39 317.522C1019.64 317.552 1019.88 317.46 1020.04 317.269L1024.39 312.092C1024.55 311.906 1024.6 311.657 1024.53 311.427L1016.79 284.574L1021.4 279.099L1022.27 278.066C1022.52 277.76 1022.48 277.304 1022.18 277.048L1018.96 274.344C1018.66 274.087 1018.2 274.125 1017.94 274.432L1017.07 275.464L1014.9 278.042L1012.74 270.54L1017.29 265.126L1018.16 264.094C1018.42 263.787 1018.38 263.331 1018.08 263.075L1014.86 260.371C1014.55 260.115 1014.1 260.152 1013.84 260.459L1012.97 261.492L1010.85 264.009L1007.81 253.479L1018.68 240.573C1023.64 234.682 1025.56 230.158 1026.3 227.396C1027.16 224.174 1026.9 221.593 1025.59 220.492C1024.28 219.39 1021.69 219.569 1018.66 220.973L1018.67 220.972Z" fill="#133441" fill-opacity="0.1"/>
<path d="M18.4426 632.696C16.2019 632.126 13.9426 631.521 11.7254 630.898L12.6358 627.66C14.825 628.276 17.0586 628.874 19.2714 629.437L19.5602 629.51L18.7361 632.77L18.4449 632.696L18.4426 632.696ZM23.432 633.915L24.2002 630.641C26.5122 631.184 28.865 631.703 31.1964 632.189L30.5126 635.483C28.1526 634.992 25.7695 634.465 23.4291 633.917L23.432 633.915ZM7.08163 629.548C4.77087 628.854 2.4428 628.121 0.161405 627.37L1.21437 624.175C3.4684 624.917 5.7668 625.64 8.04961 626.327L7.08163 629.548ZM35.2577 636.424L35.8844 633.121C38.2171 633.564 40.5925 633.984 42.9423 634.369L42.3983 637.688C40.0199 637.298 37.616 636.873 35.2577 636.424ZM47.1768 638.43L47.6632 635.103C50.0132 635.448 52.4047 635.767 54.7672 636.053L54.3647 639.39C51.9731 639.102 49.5554 638.779 47.1768 638.43ZM59.1703 639.928L59.5174 636.584C61.88 636.831 64.2795 637.049 66.6546 637.237L66.3896 640.59C63.9877 640.4 61.5591 640.179 59.1697 639.931L59.1703 639.928ZM71.2111 640.929L71.4201 637.572C73.7878 637.72 76.1976 637.84 78.5777 637.93L78.4521 641.291C76.0422 641.201 73.6062 641.077 71.2111 640.929ZM83.2836 641.434L83.3551 638.072C85.7278 638.122 88.1403 638.144 90.5226 638.137L90.5327 641.501C88.123 641.507 85.6832 641.487 83.2836 641.434ZM95.3674 641.446L95.3025 638.084C97.6797 638.039 100.09 637.963 102.467 637.859L102.615 641.218C100.21 641.322 97.7726 641.399 95.368 641.444L95.3674 641.446ZM107.439 640.97L107.239 637.613C109.611 637.473 112.016 637.299 114.39 637.1L114.671 640.45C112.272 640.65 109.839 640.825 107.44 640.968L107.439 640.97ZM119.483 640.008L119.146 636.661C121.51 636.425 123.907 636.157 126.271 635.863L126.687 639.201C124.295 639.497 121.872 639.771 119.483 640.008ZM131.48 638.566L131.01 635.237C133.363 634.906 135.748 634.541 138.098 634.155L138.648 637.472C136.272 637.864 133.862 638.233 131.48 638.566ZM143.409 636.646L142.807 633.338C145.144 632.913 147.512 632.455 149.844 631.973L150.525 635.266C148.164 635.753 145.769 636.217 143.409 636.646ZM155.251 634.252L154.516 630.97C156.835 630.452 159.183 629.899 161.494 629.324L162.306 632.587C159.969 633.167 157.595 633.726 155.249 634.249L155.251 634.252ZM166.989 631.383L166.124 628.133C168.422 627.522 170.747 626.875 173.032 626.209L173.974 629.437C171.662 630.111 169.313 630.765 166.989 631.383ZM178.602 628.049L177.606 624.837C179.877 624.136 182.174 623.394 184.43 622.637L185.502 625.824C183.221 626.59 180.898 627.34 178.602 628.049ZM190.071 624.248L188.946 621.077C191.189 620.281 193.454 619.45 195.673 618.602L196.876 621.743C194.632 622.599 192.342 623.442 190.072 624.245L190.071 624.248ZM201.378 619.983L200.126 616.862C202.335 615.976 204.561 615.053 206.746 614.114L208.076 617.203C205.866 618.153 203.614 619.087 201.38 619.984L201.378 619.983ZM212.499 615.257L211.119 612.19C213.292 611.214 215.48 610.196 217.618 609.171L219.074 612.203C216.91 613.242 214.697 614.27 212.499 615.257ZM223.417 610.076L221.91 607.068C224.036 606.003 226.179 604.898 228.276 603.78L229.86 606.748C227.737 607.879 225.57 608.998 223.417 610.074L223.417 610.076ZM234.105 604.44L232.472 601.499C234.551 600.345 236.645 599.15 238.693 597.946L240.401 600.844C238.327 602.064 236.21 603.272 234.105 604.44ZM244.544 598.359L242.786 595.49C244.819 594.247 246.859 592.962 248.848 591.674L250.68 594.496C248.667 595.801 246.603 597.1 244.544 598.359ZM254.71 591.834L252.83 589.043C254.805 587.714 256.785 586.344 258.717 584.969L260.669 587.708C258.713 589.1 256.709 590.488 254.71 591.834ZM264.585 584.87L262.585 582.166C263.583 581.428 264.594 580.669 265.59 579.914C266.147 579.49 266.707 579.061 267.264 578.627L267.398 578.032C267.562 578.069 267.724 578.105 267.888 578.142C268.019 578.038 268.151 577.936 268.282 577.833L268.659 578.31C270.555 578.723 272.482 579.114 274.404 579.474L273.782 582.778C272.09 582.459 270.391 582.119 268.713 581.762C268.353 582.039 267.992 582.317 267.63 582.591C266.622 583.356 265.598 584.124 264.587 584.871L264.585 584.87ZM261.139 579.991C259.049 579.46 256.955 578.89 254.918 578.298L255.856 575.069C258.112 575.725 260.44 576.351 262.756 576.93L261.941 580.193C261.673 580.125 261.405 580.057 261.137 579.988L261.139 579.991ZM250.277 576.882C247.946 576.138 245.629 575.343 243.388 574.52L244.546 571.362C246.744 572.169 249.016 572.948 251.3 573.677L250.277 576.88L250.277 576.882ZM278.551 583.624L279.107 580.308C281.447 580.7 283.833 581.062 286.193 581.387L285.737 584.718C283.344 584.389 280.925 584.022 278.553 583.625L278.551 583.624ZM238.853 572.782C236.578 571.869 234.324 570.902 232.154 569.909L233.554 566.852C235.675 567.823 237.88 568.77 240.106 569.661L238.853 572.782ZM290.542 585.328L290.933 581.987C293.291 582.262 295.688 582.508 298.061 582.715L297.769 586.066C295.363 585.855 292.934 585.607 290.542 585.328ZM227.768 567.809C225.568 566.709 223.402 565.551 221.33 564.368L223 561.449C225.018 562.602 227.129 563.731 229.274 564.804L227.767 567.811L227.768 567.809ZM302.596 586.441L302.825 583.086C305.192 583.247 307.599 583.376 309.979 583.468L309.848 586.828C307.437 586.733 304.998 586.603 302.599 586.441L302.596 586.441ZM274.13 577.432L271.984 574.841C273.821 573.323 275.642 571.757 277.403 570.187L279.644 572.697C277.854 574.294 275.998 575.887 274.13 577.432ZM314.685 586.97L314.751 583.609C317.125 583.657 319.534 583.67 321.913 583.651L321.94 587.013C319.529 587.035 317.086 587.018 314.682 586.972L314.685 586.97ZM217.152 561.868C215.064 560.561 213.019 559.193 211.078 557.797L213.042 555.067C214.927 556.422 216.91 557.751 218.938 559.018L217.155 561.868L217.152 561.868ZM326.778 586.928L326.686 583.566C329.055 583.502 331.464 583.403 333.84 583.274L334.025 586.632C331.616 586.763 329.177 586.864 326.776 586.927L326.778 586.928ZM207.18 554.86C205.245 553.332 203.368 551.732 201.601 550.108L203.877 547.634C205.583 549.203 207.398 550.747 209.266 552.224L207.18 554.86ZM338.852 586.325L338.606 582.972C340.974 582.798 343.373 582.59 345.74 582.352L346.077 585.697C343.68 585.937 341.248 586.149 338.852 586.325ZM283.219 569.426L280.916 566.974C282.659 565.338 284.38 563.661 286.028 561.986L288.426 564.346C286.745 566.05 284.994 567.761 283.219 569.426ZM198.084 546.706C196.36 544.946 194.706 543.111 193.168 541.25L195.761 539.109C197.24 540.898 198.831 542.66 200.49 544.356L198.086 546.709L198.084 546.706ZM350.883 585.17L350.485 581.829C352.84 581.551 355.229 581.234 357.584 580.889L358.071 584.217C355.687 584.565 353.266 584.886 350.883 585.17ZM362.849 583.479L362.302 580.16C364.644 579.777 367.016 579.354 369.354 578.908L369.987 582.211C367.622 582.663 365.22 583.091 362.849 583.479ZM190.155 537.38C188.702 535.398 187.329 533.336 186.078 531.256L188.961 529.523C190.16 531.518 191.476 533.493 192.867 535.394L190.152 537.38L190.155 537.38ZM291.784 560.846L289.322 558.551C290.955 556.801 292.554 555.009 294.075 553.23L296.634 555.415C295.081 557.233 293.45 559.061 291.784 560.846ZM374.724 581.26L374.034 577.969C376.357 577.482 378.71 576.958 381.025 576.409L381.802 579.682C379.459 580.236 377.079 580.769 374.727 581.261L374.724 581.26ZM183.683 526.974C183.458 526.54 183.237 526.104 183.018 525.667C182.148 523.911 181.342 522.088 180.626 520.251L183.761 519.031C184.441 520.775 185.206 522.506 186.032 524.173C186.24 524.593 186.452 525.009 186.666 525.422L183.68 526.973L183.683 526.974ZM386.495 578.526L385.662 575.269C387.961 574.681 390.29 574.056 392.58 573.41L393.495 576.646C391.179 577.301 388.823 577.934 386.494 578.529L386.495 578.526ZM299.732 551.67L297.108 549.565C298.607 547.696 300.062 545.788 301.431 543.898L304.156 545.87C302.754 547.804 301.266 549.755 299.733 551.667L299.732 551.67ZM398.133 575.29L397.161 572.069C399.436 571.384 401.736 570.66 403.995 569.916L405.048 573.111C402.761 573.863 400.435 574.594 398.133 575.288L398.133 575.29ZM179.007 515.601C178.289 513.272 177.684 510.865 177.211 508.443L180.512 507.798C180.965 510.104 181.54 512.396 182.222 514.612L179.007 515.601ZM409.625 571.564L408.518 568.387C410.76 567.607 413.027 566.786 415.256 565.95L416.442 569.097C414.188 569.943 411.896 570.776 409.625 571.564ZM306.942 541.885L304.148 540.01C305.485 538.02 306.765 535.999 307.951 533.998L310.846 535.713C309.629 537.768 308.314 539.845 306.942 541.887L306.942 541.885ZM420.949 567.358L419.711 564.23C421.919 563.357 424.148 562.442 426.341 561.512L427.657 564.608C425.441 565.549 423.182 566.474 420.949 567.358ZM176.432 503.59C176.127 501.18 175.937 498.708 175.87 496.245L179.233 496.154C179.299 498.51 179.479 500.871 179.769 503.172L176.431 503.592L176.432 503.59ZM432.09 562.682L430.721 559.61C432.891 558.645 435.081 557.638 437.232 556.619L438.677 559.656C436.503 560.689 434.285 561.706 432.09 562.682ZM313.247 531.468L310.285 529.872C311.42 527.767 312.485 525.629 313.448 523.52L316.507 524.917C315.513 527.093 314.416 529.297 313.244 531.468L313.247 531.468ZM175.889 491.333C175.974 488.903 176.174 486.436 176.484 484L179.823 484.425C179.527 486.761 179.334 489.126 179.251 491.452L175.889 491.333ZM443.026 557.545L441.53 554.532C443.658 553.478 445.807 552.381 447.912 551.273L449.481 554.25C447.35 555.371 445.178 556.481 443.023 557.547L443.026 557.545ZM534.169 575.545L534.935 572.27C537.205 572.8 539.544 573.259 541.889 573.632L541.36 576.952C538.938 576.567 536.519 576.093 534.169 575.543L534.169 575.545ZM529.435 574.314C527.085 573.639 524.739 572.869 522.464 572.025L523.635 568.873C525.828 569.689 528.092 570.431 530.361 571.082L529.435 574.314ZM318.436 520.426L315.312 519.176C316.199 516.963 317 514.72 317.696 512.511L320.906 513.52C320.185 515.81 319.356 518.135 318.436 520.426ZM546.194 577.612L546.57 574.27C548.882 574.531 551.261 574.722 553.643 574.835L553.483 578.194C551.028 578.076 548.576 577.881 546.191 577.611L546.194 577.612ZM517.922 570.204C515.943 569.348 513.966 568.414 512.045 567.425C511.795 567.297 511.548 567.167 511.3 567.038L512.87 564.064C513.109 564.189 513.347 564.314 513.586 564.437C515.437 565.391 517.344 566.295 519.253 567.117L517.92 570.203L517.922 570.204ZM453.743 551.961L452.125 549.011C454.208 547.868 456.31 546.685 458.367 545.489L460.058 548.397C457.978 549.605 455.852 550.804 453.743 551.961ZM558.349 578.329L558.373 574.967C560.7 574.984 563.091 574.933 565.481 574.817L565.649 578.176C563.196 578.295 560.739 578.35 558.351 578.332L558.349 578.329ZM507.039 564.643C504.963 563.406 502.894 562.062 500.891 560.648L502.83 557.899C504.764 559.264 506.761 560.559 508.763 561.753L507.04 564.64L507.039 564.643ZM177.247 479.158C177.572 477.431 177.956 475.685 178.392 473.974C178.559 473.318 178.735 472.654 178.918 472.001L182.159 472.91C181.982 473.539 181.812 474.175 181.652 474.806C181.234 476.449 180.863 478.124 180.552 479.783L177.246 479.16L177.247 479.158ZM570.491 577.848L570.207 574.497C572.526 574.301 574.907 574.039 577.287 573.72L577.736 577.054C575.302 577.381 572.866 577.647 570.493 577.849L570.491 577.848ZM496.969 557.737C495.073 556.259 493.187 554.676 491.358 553.034L493.606 550.532C495.376 552.123 497.206 553.656 499.039 555.086L496.969 557.737ZM582.529 576.335L581.979 573.018C584.275 572.638 586.634 572.197 588.991 571.705L589.679 574.998C587.277 575.5 584.871 575.949 582.528 576.337L582.529 576.335ZM464.218 545.933L462.478 543.054C464.514 541.827 466.563 540.554 468.57 539.275L470.381 542.11C468.351 543.403 466.278 544.69 464.218 545.933ZM322.248 508.811L318.987 507.981L319.009 507.893C319.586 505.628 320.065 503.331 320.436 501.073L323.757 501.618C323.371 503.974 322.87 506.364 322.269 508.729L322.248 508.811ZM487.8 549.695C486.091 548.021 484.39 546.245 482.738 544.42L485.236 542.168C486.84 543.944 488.494 545.668 490.154 547.295L487.798 549.695L487.8 549.695ZM594.407 573.948L593.632 570.675C595.907 570.138 598.235 569.546 600.556 568.909L601.448 572.152C599.089 572.799 596.72 573.404 594.407 573.948ZM183.56 468.414L180.379 467.322C181.172 465.013 182.074 462.712 183.061 460.48L186.137 461.84C185.188 463.983 184.32 466.196 183.561 468.411L183.56 468.414ZM474.435 539.478L472.577 536.674C473.391 536.135 474.206 535.591 475.019 535.039C475.015 535.036 475.011 535.03 475.01 535.027L477.698 533.007C477.732 533.05 477.763 533.093 477.796 533.138C478.034 532.973 478.269 532.81 478.505 532.644L480.432 535.402C480.239 535.537 480.049 535.669 479.856 535.804C480.607 536.75 481.365 537.682 482.124 538.588L479.544 540.745C478.719 539.76 477.893 538.744 477.077 537.711C476.196 538.308 475.314 538.899 474.435 539.481L474.435 539.478ZM606.099 570.82L605.135 567.598C607.373 566.931 609.671 566.206 611.959 565.448L613.02 568.639C610.698 569.409 608.369 570.145 606.096 570.821L606.099 570.82ZM321.058 496.416C321.296 494.075 321.424 491.709 321.435 489.384L324.8 489.405C324.787 491.835 324.654 494.309 324.406 496.757L321.058 496.416ZM472.151 531.093C470.783 529.149 469.419 527.112 468.095 525.043L470.931 523.234C472.228 525.261 473.564 527.256 474.904 529.161L472.151 531.093ZM617.595 567.069L616.472 563.899C618.682 563.118 620.944 562.285 623.195 561.423L624.4 564.562C622.122 565.435 619.832 566.278 617.593 567.069L617.595 567.069ZM188.164 457.594L185.17 456.057C186.29 453.878 187.514 451.729 188.81 449.672L191.658 451.464C190.414 453.438 189.238 455.501 188.164 457.594ZM484.374 532.598L482.401 529.873C484.328 528.48 486.263 527.041 488.155 525.599L490.198 528.272C488.285 529.731 486.324 531.188 484.376 532.599L484.374 532.598ZM321.308 484.695C321.168 482.362 320.911 480.009 320.54 477.702L323.862 477.171C324.249 479.587 324.52 482.052 324.667 484.496L321.308 484.698L321.308 484.695ZM628.903 562.798L627.646 559.677C629.823 558.803 632.049 557.878 634.27 556.926L635.597 560.017C633.354 560.978 631.1 561.914 628.901 562.797L628.903 562.798ZM465.536 520.917C464.314 518.887 463.093 516.767 461.903 514.618L464.849 512.993C466.015 515.106 467.216 517.188 468.417 519.184L465.534 520.917L465.536 520.917ZM494.017 525.308L491.93 522.671C493.798 521.195 495.67 519.676 497.498 518.156L499.652 520.741C497.805 522.279 495.909 523.817 494.019 525.311L494.017 525.308ZM194.284 447.562L191.549 445.602C192.982 443.605 194.516 441.661 196.108 439.827L198.65 442.03C197.127 443.787 195.656 445.648 194.284 447.562ZM640.028 558.08L638.659 555.008C640.795 554.057 642.995 553.053 645.191 552.025L646.618 555.07C644.403 556.107 642.186 557.122 640.028 558.08ZM459.611 510.352C458.514 508.259 457.417 506.077 456.345 503.866L459.374 502.401C460.429 504.58 461.512 506.729 462.591 508.793L459.611 510.352ZM319.623 473.117C319.08 470.864 318.394 468.608 317.587 466.41L320.746 465.251C321.599 467.57 322.32 469.951 322.893 472.33L319.623 473.117ZM503.34 517.612L501.143 515.066C502.947 513.51 504.752 511.912 506.509 510.316L508.773 512.805C506.993 514.42 505.166 516.039 503.34 517.612ZM650.986 552.991L649.521 549.964C651.631 548.944 653.8 547.875 655.961 546.787L657.477 549.789C655.295 550.888 653.112 551.965 650.986 552.991ZM201.838 438.583L199.44 436.221C201.171 434.466 202.999 432.787 204.87 431.235L207.019 433.822C205.234 435.303 203.492 436.905 201.838 438.581L201.838 438.583ZM454.278 499.494C453.29 497.352 452.295 495.123 451.325 492.872L454.415 491.543C455.374 493.77 456.355 495.97 457.331 498.087L454.275 499.496L454.278 499.494ZM315.808 462.084C314.85 459.979 313.756 457.884 312.557 455.862L315.452 454.15C316.712 456.277 317.863 458.478 318.872 460.695L315.809 462.087L315.808 462.084ZM661.774 547.598L660.233 544.609C662.361 543.515 664.508 542.395 666.615 541.288L668.182 544.264C666.067 545.374 663.911 546.496 661.774 547.596L661.774 547.598ZM512.323 509.522L510.018 507.072C511.752 505.441 513.487 503.769 515.172 502.096L517.541 504.482C515.833 506.175 514.078 507.87 512.322 509.52L512.323 509.522ZM210.726 430.955L208.759 428.227C210.763 426.784 212.855 425.442 214.974 424.239L216.636 427.162C214.622 428.305 212.632 429.584 210.724 430.955L210.726 430.955ZM449.451 488.422C448.992 487.309 448.528 486.17 448.076 485.034C447.63 483.919 447.188 482.801 446.762 481.706L449.896 480.488C450.318 481.572 450.757 482.682 451.197 483.788C451.647 484.914 452.105 486.041 452.558 487.143L449.448 488.424L449.451 488.422ZM310.03 451.913C308.712 450.004 307.273 448.127 305.749 446.329L308.316 444.154C309.913 446.035 311.421 448.004 312.8 450.003L310.03 451.911L310.03 451.913ZM672.436 542.015L670.852 539.047C672.955 537.929 675.086 536.783 677.19 535.64L678.796 538.596C676.684 539.742 674.544 540.893 672.436 542.015ZM220.788 425.004L219.346 421.965C221.388 420.998 223.493 420.13 225.607 419.384C225.803 419.315 226 419.246 226.197 419.18L227.288 422.362C227.1 422.426 226.915 422.49 226.727 422.556C224.722 423.263 222.722 424.088 220.788 425.004ZM520.948 501.052L518.536 498.706C520.195 497.001 521.855 495.252 523.466 493.509L525.939 495.79C524.307 497.556 522.628 499.328 520.947 501.054L520.948 501.052ZM302.597 442.848C300.982 441.173 299.256 439.545 297.472 438.008L299.667 435.461C301.531 437.065 303.33 438.767 305.018 440.514L302.597 442.848ZM445.04 477.194C444.184 474.904 443.353 472.613 442.574 470.383L445.75 469.275C446.522 471.484 447.344 473.752 448.191 476.017L445.04 477.194ZM683.023 536.289L681.402 533.343C683.492 532.192 685.609 531.018 687.693 529.853L689.34 532.787C687.249 533.958 685.126 535.138 683.025 536.292L683.023 536.289ZM231.765 421.022L230.924 417.765C233.289 417.157 235.73 416.672 238.178 416.331L238.648 419.662C236.325 419.988 234.01 420.445 231.767 421.025L231.765 421.022ZM293.816 435.046C291.956 433.631 290.004 432.277 288.016 431.026L289.809 428.18C291.882 429.486 293.917 430.896 295.855 432.372L293.816 435.046ZM529.186 492.205L526.673 489.97C528.255 488.194 529.834 486.372 531.362 484.557L533.936 486.724C532.387 488.56 530.79 490.405 529.186 492.205ZM243.306 419.179L243.081 415.823C245.511 415.66 247.994 415.628 250.463 415.72L250.335 419.08C247.982 418.99 245.617 419.023 243.304 419.178L243.306 419.179ZM283.959 428.636C281.904 427.503 279.773 426.451 277.63 425.507L278.986 422.429C281.22 423.414 283.439 424.511 285.581 425.69L283.959 428.636ZM255.015 419.418L255.367 416.075C257.784 416.331 260.234 416.711 262.65 417.206L261.976 420.5C259.666 420.026 257.323 419.663 255.015 419.418ZM273.269 423.739C271.062 422.919 268.801 422.196 266.551 421.586L267.431 418.34C269.781 418.978 272.138 419.733 274.44 420.587L273.269 423.739ZM693.531 530.418L691.869 527.495C693.938 526.321 696.04 525.116 698.113 523.918L699.798 526.83C697.718 528.033 695.609 529.239 693.531 530.418ZM441.015 465.808C440.245 463.491 439.504 461.168 438.814 458.899L442.034 457.921C442.716 460.161 443.446 462.459 444.208 464.749L441.015 465.808ZM537.018 483L534.405 480.88C535.906 479.034 537.399 477.143 538.842 475.263L541.513 477.31C540.051 479.216 538.538 481.128 537.018 483ZM703.957 524.408L702.255 521.506C704.312 520.302 706.396 519.07 708.448 517.845L710.174 520.732C708.113 521.961 706.021 523.198 703.958 524.406L703.957 524.408ZM437.449 454.262C436.781 451.913 436.146 449.556 435.566 447.255L438.828 446.431C439.401 448.701 440.028 451.026 440.686 453.342L437.449 454.262ZM714.303 518.256L712.563 515.377C714.611 514.138 716.68 512.88 718.708 511.634L720.471 514.499C718.437 515.751 716.362 517.015 714.303 518.256ZM544.421 473.45L541.713 471.452C543.124 469.541 544.53 467.584 545.883 465.638L548.645 467.56C547.273 469.533 545.851 471.514 544.419 473.452L544.421 473.45ZM434.428 442.551C433.878 440.171 433.37 437.782 432.914 435.45L436.217 434.806C436.665 437.1 437.168 439.454 437.708 441.797L434.428 442.551ZM724.565 511.966L722.786 509.112C724.819 507.847 726.87 506.559 728.88 505.286L730.682 508.126C728.663 509.405 726.607 510.696 724.567 511.967L724.565 511.966ZM551.369 463.566L548.571 461.697C549.892 459.721 551.202 457.702 552.461 455.695L555.312 457.483C554.036 459.516 552.71 461.562 551.37 463.564L551.369 463.566ZM432.04 430.685C431.63 428.278 431.263 425.86 430.954 423.497L434.29 423.059C434.595 425.379 434.955 427.756 435.358 430.119L432.041 430.683L432.04 430.685ZM734.74 505.54L732.923 502.709C734.92 501.427 736.953 500.113 738.963 498.802L740.803 501.62C738.784 502.938 736.745 504.256 734.739 505.542L734.74 505.54ZM557.841 453.37L554.956 451.638C556.18 449.605 557.388 447.525 558.55 445.462L561.484 447.11C560.307 449.202 559.082 451.309 557.841 453.37ZM744.828 498.978L742.973 496.171C744.958 494.86 746.973 493.518 748.961 492.185L750.838 494.977C748.843 496.316 746.821 497.663 744.827 498.98L744.828 498.978ZM430.386 418.683C430.132 416.257 429.932 413.816 429.788 411.43L433.145 411.228C433.286 413.567 433.484 415.959 433.732 418.337L430.386 418.683ZM754.829 492.28L752.938 489.499C754.913 488.157 756.908 486.788 758.872 485.432L760.787 488.199C758.816 489.561 756.813 490.935 754.832 492.28L754.829 492.28ZM563.81 442.878L560.845 441.287C561.969 439.196 563.075 437.061 564.135 434.941L567.145 436.445C566.07 438.593 564.949 440.759 563.81 442.878ZM429.563 406.58C429.489 404.142 429.472 401.692 429.511 399.295L432.874 399.353C432.834 401.694 432.851 404.093 432.924 406.478L429.561 406.579L429.563 406.58ZM764.737 485.451L762.807 482.695C764.764 481.327 766.743 479.932 768.687 478.55L770.639 481.289C768.687 482.676 766.701 484.077 764.737 485.451ZM569.262 432.099L566.222 430.654C566.905 429.217 567.581 427.758 568.23 426.317C568.553 425.601 568.875 424.873 569.187 424.152L572.274 425.492C571.955 426.228 571.625 426.97 571.296 427.699C570.637 429.16 569.952 430.641 569.26 432.098L569.262 432.099ZM429.672 394.439C429.727 393.328 429.796 392.208 429.877 391.108C429.972 389.799 430.091 388.471 430.226 387.162L433.572 387.512C433.438 388.787 433.323 390.079 433.232 391.354C433.152 392.429 433.087 393.523 433.032 394.607L429.672 394.439ZM774.555 478.488L772.589 475.758C774.516 474.372 776.474 472.951 778.412 471.533L780.4 474.247C778.456 475.669 776.489 477.096 774.556 478.486L774.555 478.488ZM574.144 421.013L571.02 419.763C571.903 417.561 572.749 415.315 573.534 413.086L576.707 414.203C575.906 416.475 575.043 418.766 574.142 421.013L574.144 421.013ZM430.824 382.333C431.168 379.93 431.585 377.51 432.064 375.139L435.361 375.804C434.896 378.112 434.49 380.47 434.155 382.811L430.824 382.333ZM784.277 471.397L782.274 468.694C784.195 467.274 786.135 465.827 788.04 464.393L790.064 467.082C788.15 468.521 786.204 469.973 784.276 471.399L784.277 471.397ZM578.256 409.605L575.052 408.58C575.778 406.311 576.46 404.011 577.076 401.744L580.323 402.627C579.695 404.943 578.998 407.291 578.255 409.608L578.256 409.605ZM793.905 464.175L791.868 461.498C793.762 460.059 795.682 458.585 797.577 457.121L799.635 459.781C797.734 461.25 795.805 462.73 793.905 464.175ZM433.119 370.384C433.232 369.922 433.347 369.46 433.464 368.999C433.947 367.102 434.478 365.198 435.047 363.34L438.264 364.322C437.713 366.129 437.194 367.983 436.725 369.828C436.611 370.278 436.499 370.725 436.39 371.176L433.119 370.384ZM803.437 456.827L801.363 454.178C803.248 452.705 805.149 451.208 807.014 449.724L809.11 452.356C807.239 453.843 805.331 455.348 803.44 456.825L803.437 456.827ZM578.252 397.138C578.809 394.814 579.309 392.468 579.74 390.168L583.046 390.791C582.604 393.142 582.09 395.542 581.523 397.92L578.25 397.138L578.252 397.138ZM439.736 359.821L436.559 358.711C437.363 356.407 438.247 354.111 439.182 351.89L442.282 353.195C441.373 355.355 440.519 357.584 439.736 359.823L439.736 359.821ZM812.866 449.354L810.758 446.733C812.616 445.24 814.499 443.717 816.349 442.205L818.479 444.808C816.62 446.326 814.734 447.853 812.866 449.354ZM580.539 385.487C580.901 383.118 581.197 380.742 581.42 378.424L584.769 378.748C584.542 381.127 584.236 383.564 583.866 385.996L580.54 385.489L580.539 385.487ZM444.208 348.869L441.163 347.435C442.207 345.222 443.327 343.031 444.495 340.924L447.438 342.555C446.306 344.599 445.218 346.722 444.206 348.868L444.208 348.869ZM822.199 441.755L820.056 439.162C821.898 437.643 823.758 436.094 825.586 434.561L827.751 437.137C825.916 438.675 824.05 440.23 822.201 441.755L822.199 441.755ZM581.779 373.698C581.913 371.306 581.972 368.919 581.954 366.602L585.318 366.576C585.338 368.965 585.278 371.425 585.138 373.885L581.779 373.695L581.779 373.698ZM449.825 338.476L446.96 336.711C448.245 334.624 449.612 332.573 451.02 330.616L453.752 332.58C452.39 334.471 451.07 336.455 449.825 338.476ZM831.43 434.03L829.252 431.466C831.064 429.93 832.902 428.357 834.719 426.792L836.916 429.338C835.093 430.91 833.245 432.489 831.427 434.029L831.43 434.03ZM581.806 361.88C581.674 359.492 581.454 357.122 581.15 354.836L584.485 354.396C584.8 356.768 585.028 359.223 585.166 361.696L581.806 361.88ZM456.601 328.818L453.97 326.722C455.5 324.801 457.113 322.934 458.759 321.169L461.221 323.463C459.633 325.166 458.078 326.968 456.601 328.818ZM840.554 426.187L838.342 423.652C840.133 422.09 841.953 420.493 843.748 418.905L845.979 421.423C844.177 423.019 842.351 424.622 840.554 426.187ZM580.403 350.185C579.959 347.844 579.411 345.536 578.778 343.323L582.011 342.398C582.673 344.71 583.246 347.121 583.709 349.561L580.402 350.188L580.403 350.185ZM849.576 418.221L847.332 415.715C849.104 414.128 850.9 412.508 852.674 410.895L854.938 413.381C853.16 414.999 851.355 416.626 849.576 418.219L849.576 418.221ZM464.528 320.103L462.193 317.68C463.963 315.979 465.813 314.341 467.692 312.811L469.816 315.421C468.008 316.892 466.229 318.466 464.528 320.103ZM473.553 312.554L471.583 309.828C472.373 309.256 473.183 308.693 473.988 308.152C475.206 307.334 476.471 306.541 477.748 305.792L479.45 308.694C478.232 309.407 477.025 310.164 475.865 310.944C475.09 311.463 474.313 312.004 473.554 312.552L473.553 312.554ZM577.338 338.855C576.539 336.632 575.625 334.454 574.62 332.38L577.649 330.914C578.704 333.094 579.664 335.383 580.504 337.717L577.338 338.853L577.338 338.855ZM858.489 410.136L856.212 407.661C857.96 406.053 859.737 404.409 861.488 402.772L863.786 405.23C862.027 406.872 860.246 408.523 858.491 410.139L858.489 410.136ZM483.575 306.456L482.066 303.45C484.24 302.36 486.506 301.358 488.801 300.467L490.017 303.602C487.822 304.453 485.654 305.411 483.573 306.453L483.575 306.456ZM572.429 328.251C571.255 326.228 569.957 324.262 568.569 322.404L571.265 320.394C572.731 322.355 574.1 324.431 575.34 326.565L572.429 328.251ZM867.293 401.934L864.981 399.489C866.717 397.851 868.47 396.183 870.19 394.529L872.522 396.956C870.793 398.615 869.033 400.289 867.291 401.933L867.293 401.934ZM494.451 302.043L493.431 298.839C495.756 298.099 498.146 297.458 500.54 296.932L501.264 300.216C498.971 300.721 496.679 301.335 494.451 302.043ZM565.631 318.775C564.549 317.541 563.396 316.33 562.21 315.184C561.724 314.713 561.221 314.246 560.716 313.792L562.964 311.291C563.499 311.772 564.034 312.27 564.55 312.768C565.804 313.981 567.019 315.257 568.163 316.561L565.633 318.778L565.631 318.775ZM875.988 393.612L873.647 391.197C875.359 389.536 877.09 387.845 878.792 386.169L881.153 388.564C879.446 390.246 877.71 391.943 875.991 393.61L875.988 393.612ZM505.888 299.343L505.364 296.02C507.785 295.639 510.245 295.365 512.68 295.209L512.898 298.566C510.566 298.716 508.208 298.979 505.888 299.343ZM557.116 310.825C555.273 309.432 553.31 308.132 551.282 306.959L552.967 304.05C555.114 305.29 557.191 306.668 559.144 308.144L557.116 310.825ZM517.596 298.405L517.586 295.041C520.048 295.033 522.524 295.145 524.945 295.367L524.637 298.716C522.32 298.501 519.951 298.397 517.596 298.405ZM547.148 304.783C545.065 303.79 542.88 302.894 540.654 302.128L541.753 298.95C544.099 299.759 546.401 300.702 548.599 301.749L547.151 304.784L547.148 304.783ZM529.293 299.303L529.82 295.982C532.264 296.37 534.687 296.885 537.038 297.51L536.172 300.76C533.933 300.163 531.619 299.674 529.291 299.302L529.293 299.303ZM884.571 385.178L882.196 382.797C883.89 381.108 885.598 379.394 887.271 377.701L889.666 380.064C887.986 381.764 886.271 383.486 884.571 385.18L884.571 385.178ZM893.04 376.627L890.632 374.278C892.301 372.571 893.985 370.833 895.64 369.113L898.065 371.444C896.406 373.171 894.713 374.914 893.04 376.627ZM901.393 367.966L898.954 365.648C900.605 363.914 902.266 362.153 903.892 360.418L906.348 362.716C904.717 364.46 903.051 366.224 901.393 367.966ZM909.63 359.193L907.161 356.907C908.781 355.158 910.42 353.375 912.027 351.61L914.514 353.875C912.9 355.646 911.255 357.436 909.628 359.19L909.63 359.193ZM917.749 350.311L915.249 348.06C916.841 346.296 918.453 344.49 920.044 342.699L922.562 344.931C920.966 346.73 919.345 348.541 917.749 350.311ZM925.747 341.319L923.216 339.102C924.784 337.315 926.374 335.489 927.939 333.676L930.487 335.873C928.916 337.692 927.322 339.524 925.747 341.319ZM933.623 332.222L931.063 330.039C932.624 328.213 934.187 326.368 935.713 324.55L938.29 326.712C936.76 328.536 935.19 330.39 933.623 332.222ZM941.375 323.018L938.786 320.871C940.306 319.041 941.844 317.175 943.36 315.32L945.966 317.447C944.444 319.308 942.9 321.183 941.374 323.021L941.375 323.018ZM949.002 313.711L946.385 311.598C947.879 309.75 949.391 307.862 950.882 305.986L953.517 308.079C952.021 309.961 950.5 311.857 949.001 313.714L949.002 313.711Z" fill="#133441" fill-opacity="0.1"/>
</svg>
