<svg width="122" height="166" viewBox="0 0 122 166" fill="none" xmlns="http://www.w3.org/2000/svg">
<g opacity="0.1" clip-path="url(#clip0_2031_2438)">
<path d="M43.0192 13.9453C21.8456 19.6578 4.87316 37.8036 0.8401 59.4776C-2.85687 79.4716 4.87316 101.986 22.1817 113.243C32.7685 120.131 46.212 122.82 58.6473 122.484C70.0743 122.148 81.3332 118.955 90.2396 111.731C99.482 104.17 105.868 93.2489 108.724 81.8238C111.413 70.7347 110.573 58.9736 107.044 48.2206C103.347 36.9635 96.4572 26.7145 87.2148 19.1538C82.3415 15.2894 77.1321 12.0971 71.0825 10.753C64.3608 9.24081 57.3029 9.74485 50.5812 11.089C47.2203 11.761 44.0274 12.6011 41.0026 13.7772C39.6583 14.2813 40.3305 16.1295 41.6748 15.7934C48.2285 14.4493 54.6142 12.4331 61.336 12.4331C68.0577 12.4331 74.4434 13.9453 80.1569 17.4736C89.9035 23.5222 97.8015 32.9311 102.675 43.3481C107.38 53.5971 109.397 64.8542 107.716 75.9432C106.036 87.0323 100.658 97.2813 92.9283 105.346C76.796 121.98 48.9007 122.316 28.7354 113.747C10.0825 105.85 0.167924 84.344 1.68032 64.8542C3.52881 42.004 22.0137 21.674 43.0192 14.2813C43.1872 14.1133 43.1872 13.9453 43.0192 13.9453Z" fill="black"/>
<path d="M61.6721 12.7693C62.8484 12.2653 63.3526 10.9211 63.6887 9.74503C64.0248 8.56892 64.3608 7.22479 64.865 6.04867C65.2011 5.04058 63.6887 4.36851 63.1845 5.37661C62.6804 6.55272 62.5123 7.89685 62.3443 9.24098C62.1763 10.0811 62.0082 11.5932 61.168 12.0973C60.8319 12.2653 61.168 12.9373 61.6721 12.7693Z" fill="black"/>
<path d="M67.0494 11.4251C67.2175 11.4251 67.2175 11.4251 67.2175 11.4251C67.3855 11.4251 67.3855 11.2571 67.5536 11.2571C67.7216 11.0891 68.0577 10.9211 68.2257 10.753C68.5618 10.417 68.8979 10.081 69.066 9.57693C69.402 9.07288 69.5701 8.73685 69.9062 8.2328C70.2423 7.89677 70.4103 7.39272 70.7464 7.05669C71.0825 6.55264 71.0825 6.04859 70.7464 5.54454C70.4103 5.20851 69.7381 5.04049 69.234 5.37653C68.7299 5.71256 68.2257 6.21661 67.8897 6.72066C67.5536 7.39272 67.3855 7.89677 67.2175 8.40082C66.8814 9.07288 66.5453 9.57693 66.0412 10.081C65.8731 10.249 65.7051 10.585 65.7051 10.753C65.7051 10.9211 65.7051 11.0891 65.8731 11.2571C66.2092 11.5931 66.5453 11.5931 67.0494 11.4251Z" fill="black"/>
<path d="M37.9779 120.131C38.482 120.131 39.1542 120.299 39.6583 119.963H39.4903C39.4903 119.963 39.4903 119.963 39.6583 119.963C39.4903 119.627 39.1542 119.291 38.9862 119.123C38.9862 119.459 38.8181 119.963 38.6501 120.299C38.482 120.635 38.482 121.139 38.314 121.475C38.1459 121.979 38.1459 122.315 37.9779 122.82C37.9779 122.988 37.9779 123.156 37.9779 123.324C37.9779 123.66 38.1459 123.996 38.1459 124.332C38.314 124.836 39.1542 124.836 39.3222 124.332C39.4903 124.164 39.4903 123.828 39.6583 123.66C39.6583 123.492 39.8264 123.156 39.8264 122.988C39.9944 122.652 39.9944 122.316 40.1625 121.811C40.3305 121.475 40.3305 120.971 40.4985 120.635C40.4985 120.131 40.4985 119.795 40.4985 119.291C40.4985 118.619 39.6583 118.451 39.3222 118.787C38.8181 119.123 38.8181 119.795 39.3222 120.131C39.3222 119.963 39.1542 119.795 39.1542 119.627C38.9861 119.627 38.9861 119.627 38.8181 119.795C38.6501 119.795 38.314 119.795 38.1459 119.963C37.6418 119.795 37.6418 120.131 37.9779 120.131Z" fill="black"/>
<path d="M43.8595 120.635C43.8595 121.308 43.6914 122.148 43.6914 122.82C43.6914 123.156 43.6914 123.492 43.6914 123.828C43.6914 124.332 43.6914 125.34 44.3636 125.676C44.8677 126.012 45.5399 125.676 45.5399 125.172C45.5399 125.004 45.5399 124.836 45.7079 124.836C45.7079 124.836 45.7079 124.836 45.7079 124.668C45.7079 124.5 45.7079 124.5 45.7079 124.332C45.7079 123.996 45.876 123.828 45.7079 123.492C45.7079 123.324 45.7079 123.156 45.7079 122.988C45.7079 122.148 45.5399 121.308 45.5399 120.635C45.5399 120.131 45.0358 119.963 44.6997 119.963C44.1955 119.963 43.8595 120.299 43.8595 120.635Z" fill="black"/>
<path d="M57.9752 3.52807C71.2507 7.89649 85.1983 11.9289 95.6171 21.6738C105.196 30.9147 111.917 42.6758 113.766 55.9491C114.774 63.3418 114.942 70.9026 113.934 78.2953C112.926 85.52 110.573 92.2406 107.548 98.7932C102.507 109.546 95.1129 119.795 83.854 124.668C67.0496 131.892 49.9091 126.852 33.1047 122.147C31.5923 121.643 30.7521 124.164 32.2645 124.5C40.3306 126.684 48.2286 129.036 56.4628 130.212C64.697 131.388 72.427 130.716 80.3251 128.364C92.4242 124.668 101.163 115.427 107.044 104.506C114.102 91.4005 117.463 77.1192 116.455 62.3337C115.95 55.2771 114.942 48.2204 112.253 41.6677C109.733 35.2831 106.036 29.4026 101.499 24.1941C96.2893 18.1455 89.9036 13.273 82.6777 9.74467C74.7796 6.04831 66.3774 4.70418 57.9752 2.68799C57.8072 2.68799 57.6391 3.36005 57.9752 3.52807Z" fill="black"/>
<path d="M59.9917 4.20021C59.9917 4.0322 59.9917 3.86418 60.1597 3.69617C60.1597 3.86418 60.1597 3.86418 59.9917 4.0322C59.9917 3.86418 60.1597 3.52815 60.3278 3.36013C60.4958 3.19212 60.4958 2.85609 60.6639 2.68807L60.4958 2.85609C60.4958 2.68807 60.6639 2.68807 60.6639 2.52005L60.4958 2.68807C60.6639 2.52005 60.8319 2.35204 60.8319 2.18402C60.8319 2.016 61 2.016 61 2.016L60.8319 2.18402C60.8319 2.18402 60.8319 2.18402 61 2.016C61.168 1.84799 61.3361 1.51196 61.3361 1.17592C61.168 0.839891 61 0.671875 60.6639 0.671875C60.4958 0.671875 60.3278 0.671875 59.9917 0.671875C59.8237 0.671875 59.4876 0.839891 59.3195 0.839891C58.9834 1.00791 58.6473 1.34394 58.4793 1.67997C58.3113 1.84799 58.3113 2.016 58.1432 2.35204C57.9752 2.52005 57.9752 2.85609 57.9752 3.0241C57.9752 3.36013 57.8071 3.69617 57.8071 4.0322C57.9752 4.53625 58.3113 5.0403 58.8154 5.0403C58.9834 5.0403 59.3195 5.0403 59.4876 4.87228C59.6556 4.70426 59.9917 4.53625 59.9917 4.20021Z" fill="black"/>
<path d="M59.6555 1.00798C67.3855 2.68815 74.9475 4.36831 82.1734 7.89665C89.0632 11.089 95.6169 15.2894 101.33 20.3298C112.085 30.0748 119.479 44.1881 120.487 58.8055C120.823 63.006 120.487 67.2064 120.487 71.4068C120.319 75.6072 120.319 79.8076 119.647 84.008C118.303 92.0728 114.606 99.8015 110.405 106.858C106.54 113.075 101.835 119.123 96.4571 124.164C93.7684 126.684 90.9117 128.7 87.5508 130.212C84.0218 131.893 79.9888 132.397 76.1238 132.733C66.8814 133.573 57.4709 133.069 48.3965 132.061C41.5067 131.389 34.7849 129.876 31.9282 122.82C31.256 121.308 29.0714 122.316 29.7436 123.828C32.2643 129.708 37.1376 132.565 43.3552 133.741C51.0852 135.253 59.4874 135.421 67.3855 135.421C75.2836 135.421 84.0219 135.085 91.0797 131.221C97.8015 127.524 102.843 121.644 107.548 115.763C112.589 109.21 116.958 101.818 119.647 94.089C122.672 85.6881 122.84 76.7833 122.504 67.8784C122 58.9736 120.992 50.2367 117.967 41.8359C115.446 34.9473 112.085 28.2266 107.212 22.8501C101.33 16.2975 93.9364 11.257 86.0384 7.22458C78.3083 3.36021 69.0659 -0.336145 60.3276 0.33592C59.3194 0.33592 59.3194 0.839969 59.6555 1.00798Z" fill="black"/>
<path d="M34.4489 130.044C34.2809 133.237 32.9365 136.093 31.5922 138.949C30.2478 141.469 28.5674 144.494 28.5674 147.686C28.5674 148.694 30.0798 149.03 30.4159 148.022C30.92 146.51 31.088 144.998 31.7602 143.486C32.4324 142.141 33.1046 140.629 33.7768 139.285C35.2891 136.429 36.4655 133.405 36.2974 130.212C36.2974 128.868 34.617 128.7 34.4489 130.044Z" fill="black"/>
<path d="M46.5479 133.909C45.7077 135.421 45.5396 136.765 45.3716 138.445C45.2036 139.957 44.6994 141.469 44.5314 142.981C44.1953 144.494 44.3633 146.174 44.1953 147.854C44.1953 149.702 44.0272 151.55 44.1953 153.398C44.1953 153.902 44.5314 154.575 45.2036 154.743C47.5562 155.079 46.884 150.71 46.884 149.366C46.884 147.518 46.5479 145.502 46.716 143.654C46.884 142.141 47.2201 140.797 47.2201 139.453C47.2201 137.773 47.052 136.429 47.7242 134.917C48.0603 133.741 47.052 133.068 46.5479 133.909Z" fill="black"/>
<path d="M32.7683 140.126C34.7849 140.294 36.6334 141.47 38.3138 142.31C39.9942 143.15 42.3469 144.158 44.0273 143.15C44.5314 142.814 44.3634 142.142 44.0273 141.974C43.1871 141.47 42.1788 141.47 41.1705 141.302C40.3303 141.134 39.6581 140.798 38.8179 140.462C36.9694 139.621 34.9529 138.445 32.7683 138.613C31.9281 138.445 31.7601 139.957 32.7683 140.126Z" fill="black"/>
<path d="M30.0798 142.814C30.9201 144.83 33.7768 145.67 35.7933 146.006C36.9696 146.174 37.8099 146.51 38.8181 147.014C40.1625 147.518 41.8429 148.358 43.3553 147.686C43.8595 147.518 44.0275 146.678 43.5234 146.342C42.6831 145.838 41.8429 145.67 41.0027 145.502C40.1625 145.334 39.3223 144.998 38.482 144.662C37.4738 144.326 36.6336 144.326 35.7933 144.326C34.1129 144.326 31.7603 143.99 30.9201 142.478C30.4159 141.974 29.9118 142.31 30.0798 142.814Z" fill="black"/>
<path d="M15.628 154.575C16.3002 153.399 17.1404 152.223 17.9806 151.214C18.6528 150.542 19.6611 149.534 20.6694 149.366C21.5096 149.366 22.6859 149.702 23.5261 149.87C25.2065 150.206 26.887 150.206 28.3994 150.542C29.7437 150.878 30.92 151.718 32.2644 152.054C35.7933 153.063 39.6583 154.407 43.3553 154.743C45.2038 154.911 47.0523 155.415 49.0688 155.751C50.5812 155.919 52.2616 156.087 53.438 156.927C55.1184 158.271 57.639 156.087 55.9586 154.575C53.2699 152.223 49.2368 152.391 45.876 151.886C43.5233 151.55 41.3388 151.214 39.1542 150.71C36.8016 150.206 34.1129 150.038 31.9283 149.198C30.2479 148.526 28.7355 148.022 26.887 147.854C24.8705 147.686 22.6859 147.014 20.6694 147.182C17.6446 147.35 15.7961 151.382 14.9559 153.903C14.6198 154.743 15.2919 155.079 15.628 154.575Z" fill="black"/>
<path d="M14.7878 153.735C16.3002 156.087 19.157 157.095 21.5096 158.271C23.19 159.111 24.5344 160.119 26.2148 160.959C28.5674 161.968 30.9201 162.472 33.4407 163.144C37.8099 164.152 42.179 164.656 46.5482 165.664C50.2451 166.504 55.2865 166.336 58.1432 163.648C58.4793 163.312 58.4793 162.304 57.9752 162.136C56.2947 160.959 54.9504 161.8 53.1019 162.472C51.0854 163.144 49.2369 163.144 47.2203 162.808C43.3553 162.136 39.3223 161.632 35.4573 160.959C31.5922 160.287 27.2231 159.615 23.8622 157.599C21.3416 156.087 17.6446 155.751 15.6281 153.399C15.292 152.895 14.4517 153.231 14.7878 153.735Z" fill="black"/>
<path d="M54.6141 157.095C54.7822 157.599 54.9502 158.103 55.1182 158.607C55.2863 159.279 55.2863 160.119 55.4543 160.791C55.4543 161.127 55.4543 161.295 55.6224 161.631C55.6224 161.799 55.6224 162.136 55.6224 161.631C55.6224 161.799 55.6224 162.136 55.6224 162.304C55.6224 162.64 55.7904 162.976 55.9585 163.312C56.4626 164.32 57.975 164.32 58.6472 163.48C59.3193 162.64 58.9833 161.463 58.6472 160.455C58.4791 159.951 58.3111 159.447 58.143 158.943C57.8069 158.439 57.6389 157.935 57.3028 157.431C57.1348 157.095 56.9667 156.759 56.6306 156.423C56.2946 156.087 55.9585 155.751 55.4543 156.087C54.7822 156.087 54.4461 156.591 54.6141 157.095Z" fill="black"/>
<path d="M18.9889 43.852C19.493 43.0119 19.9971 42.1719 20.8374 41.3318C21.1734 40.9957 21.5095 40.6597 22.0137 40.4917C22.3498 40.3237 22.6858 39.9877 23.0219 39.8196C23.19 39.6516 23.358 39.6516 23.5261 39.4836C24.5343 39.4836 25.5426 40.1557 26.3828 40.4917C27.3911 40.9957 28.3993 41.4998 29.7437 41.3318C30.2478 41.3318 30.4159 40.3237 29.7437 40.3237C28.3993 40.1557 27.223 39.6516 26.0467 39.1476C25.5426 38.9796 25.0385 38.8115 24.3663 38.6435C23.8622 38.4755 23.5261 38.6435 23.0219 38.6435C22.3498 38.6435 21.8456 38.8115 21.1734 39.1476C20.6693 39.4836 20.1652 39.8196 19.8291 40.3237C19.1569 41.1638 18.6528 42.1719 18.3167 43.18C17.9806 43.852 18.6528 44.3561 18.9889 43.852Z" fill="black"/>
<path d="M22.5178 40.8276C22.1817 41.3317 21.8456 41.6677 21.5095 42.0037C21.1734 42.1717 20.8373 42.3397 20.5012 42.5078C19.493 43.0118 18.9889 44.0199 18.8208 45.028C18.6528 46.0361 18.8208 47.0442 19.1569 48.0523C19.3249 48.5564 19.493 48.8924 19.8291 49.3964C19.9971 49.9005 20.3332 50.4045 20.6693 50.5725C21.0054 50.9086 21.5095 50.5725 21.5095 50.0685C21.5095 49.7325 21.3415 49.2284 21.1734 48.8924C21.0054 48.5564 20.8373 48.0523 20.6693 47.7163C20.3332 46.8762 19.9971 46.0361 20.1652 45.196C20.1652 44.692 20.3332 44.1879 20.6693 43.6839C20.8373 43.1798 21.3415 43.0118 21.6776 42.6758C22.3497 42.1717 22.6858 41.4997 23.0219 40.8276C23.19 40.8276 22.6858 40.6596 22.5178 40.8276Z" fill="black"/>
<path d="M21.1734 51.413C22.1817 51.413 23.0219 51.077 23.8621 50.573C24.3662 50.4049 24.7023 50.0689 25.2064 49.7329C25.3745 49.7329 25.3745 49.5649 25.5425 49.5649C25.5425 49.5649 25.7106 49.5649 25.7106 49.3968H25.8786C26.0467 49.2288 26.5508 49.0608 26.7188 48.8928C27.223 48.3887 26.7188 47.5487 26.0467 47.7167C25.5425 47.7167 25.0384 48.2207 24.5343 48.5568C24.1982 48.8928 23.6941 49.0608 23.358 49.3968C22.6858 49.9009 21.8456 50.4049 21.0053 50.573C20.5012 50.573 20.5012 51.413 21.1734 51.413Z" fill="black"/>
<path d="M27.5591 40.3238C29.4076 42.34 31.5921 44.1882 34.4489 43.0121C35.6252 42.5081 36.6335 41.5 37.9778 41.5C39.6583 41.5 41.3387 42.5081 43.0191 42.172C43.5233 42.004 43.3552 41.3319 43.0191 41.3319C41.5067 40.9959 39.8263 40.4919 38.3139 40.3238C36.9695 40.3238 35.7932 40.8279 34.785 41.5C33.7767 42.004 32.6004 42.34 31.4241 42.172C30.0797 41.836 29.0715 40.8279 28.0632 39.8198C27.7271 39.4838 27.223 39.9878 27.5591 40.3238Z" fill="black"/>
<path d="M42.1789 42.172C43.5232 42.004 43.5232 40.8278 43.0191 39.8197C42.8511 39.3157 42.515 38.9797 42.3469 38.4756C42.1789 37.9716 42.515 37.6355 42.683 37.1315C42.515 37.2995 42.3469 37.2995 42.1789 37.4675C43.5232 37.4675 44.8676 37.9716 46.2119 38.1396C47.3882 38.3076 48.5646 38.3076 49.7409 38.1396C52.0935 37.9716 54.2781 37.6355 56.6307 37.2995C57.1348 37.2995 57.3029 36.4594 56.6307 36.2914C54.2781 35.9554 52.0935 36.4594 49.7409 36.7954C48.5646 36.9635 47.3882 37.1315 46.2119 37.1315C45.7078 37.1315 45.0356 37.1315 44.5315 37.1315C44.3635 37.1315 44.0274 37.1315 43.8593 36.9635C43.3552 36.9635 43.0191 36.6274 42.683 36.2914L42.515 36.1234C41.8428 35.9554 41.1706 36.4594 40.8345 37.1315C40.6665 37.6355 40.6665 38.1396 40.8345 38.6436C41.0026 39.1477 41.3387 39.6517 41.6747 39.9878C42.0108 40.4918 42.8511 40.9959 42.0108 41.3319C41.6748 41.6679 41.8428 42.172 42.1789 42.172Z" fill="black"/>
<path d="M60.8321 36.2915C62.0084 35.7874 63.1847 35.4514 63.6888 34.2753C63.8569 33.6032 64.0249 32.7631 64.0249 32.0911C64.193 31.083 64.361 30.0749 64.361 29.0668C64.361 27.7226 63.8569 26.0425 62.1764 26.0425C60.664 26.0425 59.4877 27.2186 58.3114 28.0587C57.6392 28.5627 56.799 28.8988 55.9588 29.4028C55.7908 29.4028 55.4547 29.7388 55.2866 29.7388C54.4464 29.9069 55.2866 29.9069 54.9505 29.7388C54.6144 29.5708 54.4464 28.8988 54.2784 28.5627C53.7742 27.2186 54.1103 25.3704 54.6144 24.0263C54.7825 23.3542 54.9505 22.3461 55.4547 21.8421C55.9588 21.506 56.799 21.506 57.4712 21.6741C58.4795 21.6741 58.9836 21.338 59.9919 20.834C61.0001 20.3299 62.0084 19.9939 63.0166 19.6579C65.5373 18.8178 67.8899 18.1457 70.5786 17.8097C73.2673 17.4737 75.788 17.6417 78.4767 17.4737C79.485 17.4737 79.3169 15.7935 78.3087 15.7935C73.9395 15.4575 69.0662 15.6255 64.8651 16.9696C62.8486 17.6417 60.8321 18.3137 58.9836 19.3218C58.6475 19.4899 58.3114 19.8259 57.9753 19.9939C57.6392 20.1619 57.1351 19.9939 56.799 20.1619C56.1268 20.3299 55.4547 20.3299 54.7825 20.834C53.6062 21.6741 53.102 23.1862 52.5979 24.3623C52.0938 25.8745 51.7577 27.5546 52.0938 29.0668C52.4299 30.4109 53.4381 31.923 54.9505 31.923C55.7908 31.923 56.4629 31.419 57.1351 30.915C57.9753 30.4109 58.6475 30.0749 59.4877 29.5708C60.1599 29.0668 61.0001 28.3947 61.8403 28.0587C62.3445 27.8907 62.3445 27.8907 62.5125 28.2267C62.8486 28.8988 62.6806 29.9069 62.6806 30.5789C62.6806 31.755 62.6806 32.7631 62.5125 33.9392C62.5125 34.9473 61.1682 35.2834 60.3279 35.6194C59.9919 35.7874 60.3279 36.4595 60.8321 36.2915Z" fill="black"/>
<path d="M26.0467 48.0523C27.3911 48.5564 28.7354 48.8924 30.0798 49.0604C30.752 49.0604 31.2561 49.2284 31.9283 49.2284C32.6005 49.2284 33.2726 49.2284 33.9448 49.0604C34.2809 48.8924 34.4489 48.3884 33.9448 48.2203C33.2726 47.8843 32.6005 47.8843 31.9283 47.8843C31.2561 47.8843 30.752 47.8843 30.0798 47.8843C28.7354 47.8843 27.5591 47.7163 26.3828 47.3803C25.8787 47.2122 25.5426 47.8843 26.0467 48.0523Z" fill="black"/>
<path d="M33.6089 47.8847C34.2811 47.8847 34.9533 48.0527 35.6254 47.8847C35.7935 47.8847 35.9615 47.8847 36.1296 47.8847C36.2976 47.8847 36.4657 47.8847 36.4657 47.7167C36.8018 47.5487 37.1378 47.3807 37.4739 47.2127C37.3059 47.2127 37.1378 47.3807 36.9698 47.3807C37.3059 47.3807 37.81 47.3807 38.1461 47.3807C38.3142 47.3807 38.4822 47.3807 38.8183 47.3807C38.9863 47.3807 38.9863 47.3807 39.1544 47.3807C38.9863 47.3807 39.1544 47.3807 39.3224 47.3807H39.4905C39.4905 47.3807 39.4905 47.3807 39.6585 47.3807V47.2127C39.6585 47.2127 39.6585 47.2127 39.6585 47.3807C39.4905 47.7167 39.4905 47.8847 39.3224 48.2208C39.3224 48.0528 39.4905 48.0527 39.4905 47.8847C38.9863 48.5568 38.1461 49.0608 37.642 49.7329C37.4739 50.0689 37.1378 50.237 37.1378 50.573C36.9698 50.909 36.9698 51.2451 36.9698 51.5811C36.9698 52.2532 36.9698 52.9252 37.3059 53.4293C37.642 53.9333 38.4822 54.9414 39.3224 54.6054C39.4905 54.6054 39.6585 54.2694 39.6585 54.1013C39.4905 53.5973 38.6502 53.4293 38.3141 52.9252C37.9781 52.5892 37.9781 51.9171 37.81 51.4131C37.81 51.2451 37.642 50.909 37.81 50.741C37.9781 50.405 38.4822 50.237 38.6502 50.0689C39.1544 49.7329 39.8265 49.3969 40.3307 48.8928C41.1709 48.2208 41.507 46.5406 40.3307 46.0366C39.4905 45.7005 38.4822 46.0366 37.642 46.0366C37.3059 46.0366 36.9698 46.0366 36.6337 46.3726C36.4657 46.5406 36.2976 46.7086 35.9615 46.8766C35.7935 47.0447 35.6254 47.0447 35.4574 47.2127C35.2894 47.2127 35.1213 47.2127 34.9533 47.2127C34.6172 47.2127 34.113 47.3807 33.777 47.3807C33.4409 47.5487 33.4409 47.8847 33.6089 47.8847Z" fill="black"/>
<path d="M39.6584 54.6052C41.5069 54.1011 42.179 52.589 43.0193 50.9088C43.1873 50.5728 43.3553 50.2368 43.6914 49.9007C44.0275 49.5647 44.5316 49.7327 45.0358 49.7327C45.5399 49.7327 46.044 49.7327 46.7162 49.7327C47.0523 49.7327 47.7245 49.5647 48.0606 49.9007C48.5647 50.4048 48.0606 51.4129 47.8925 51.9169C47.5564 52.925 47.0523 53.7651 47.0523 54.7732C47.0523 55.4453 47.2204 56.4534 48.0606 56.7894C49.0688 57.1254 49.573 55.9493 50.2451 55.4453C50.7493 54.9412 51.4215 54.7732 51.9256 54.2692C52.4297 53.9331 52.9339 53.4291 53.606 53.093C54.1102 52.757 54.6143 52.589 55.2865 52.589C55.9586 52.589 56.4628 53.2611 56.9669 53.7651C57.6391 54.2692 58.4793 53.4291 57.9752 52.925C57.303 51.9169 56.2947 51.0768 55.1184 51.0768C54.1102 51.0768 53.2699 51.5809 52.4297 52.0849C51.4215 52.757 50.2451 53.5971 49.4049 54.6052C49.2369 54.9412 48.5647 56.1173 48.5647 55.2773C48.5647 54.6052 48.7328 53.9331 48.9008 53.4291C49.4049 52.0849 50.2451 49.9007 48.9008 48.8926C48.0606 48.5566 47.0523 48.7246 46.044 48.7246C45.0358 48.7246 43.6914 48.5566 43.0193 49.3967C41.5069 50.7408 41.5069 53.2611 39.4903 54.2692C39.1542 54.2692 39.3223 54.7732 39.6584 54.6052Z" fill="black"/>
<path d="M58.6471 54.7733C59.4874 55.2773 59.6554 56.1174 59.9915 56.9575C60.1595 57.9656 60.4956 58.9737 60.6637 59.9818C60.9997 61.3259 61.6719 62.8381 61.5039 64.3502C61.5039 64.6862 61.3358 65.0223 61.3358 65.3583C61.3358 65.5263 61.1678 65.8624 61.3358 65.8624L61.5039 65.6943C61.5039 65.6943 60.9997 65.5263 60.8317 65.5263C60.6637 65.5263 60.4956 65.3583 60.3276 65.1903C59.9915 65.0223 59.6554 64.6862 59.3193 64.3502C57.975 63.1741 56.6306 61.998 55.1182 60.8219C54.278 60.1498 53.2697 59.6458 52.4295 59.3097C51.4212 58.8057 50.2449 58.4696 49.2367 58.6377C48.5645 58.6377 48.2284 59.6457 48.9006 59.8138C50.0769 60.3178 51.4212 60.6539 52.5975 61.1579C53.6058 61.6619 54.446 62.334 55.2863 63.0061C56.1265 63.6781 56.7986 64.3502 57.6389 65.0223C58.4791 65.6943 59.3193 66.5344 60.3276 67.0385C61.1678 67.3745 62.1761 67.7105 62.8482 67.2065C63.1843 67.0385 63.3524 66.5344 63.5204 66.1984C63.6885 65.6943 63.6885 65.1903 63.8565 64.6862C64.1926 62.8381 63.1843 60.9899 62.6802 59.1417C62.5121 58.8057 62.3441 58.3016 62.1761 57.7976C62.008 57.2935 61.84 56.7895 61.6719 56.2854C61.1678 55.2773 60.6637 54.1012 59.6554 53.5972C58.6471 53.7652 58.143 54.4372 58.6471 54.7733Z" fill="black"/>
<path d="M48.0604 58.8053C46.548 58.6373 45.5397 60.1495 44.8676 61.3256C44.5315 61.9977 44.1954 62.6697 44.0273 63.3418C43.8593 63.8458 43.6912 64.3499 43.6912 64.6859C43.3552 67.5422 46.0439 68.8863 48.2284 70.0624C49.2367 70.7345 50.0769 71.4066 50.581 72.4147C50.7491 72.7507 50.7491 73.0867 51.0852 73.2547C51.7574 73.7588 52.2615 72.9187 52.2615 72.2466C52.4295 71.5746 51.9254 70.9025 51.5893 70.3985C50.9171 69.3904 49.7408 68.7183 48.7326 68.0462C47.7243 67.5422 46.716 67.0381 46.0439 66.1981C45.7078 65.862 45.5397 65.358 45.5397 64.8539C45.5397 64.6859 45.5397 64.5179 45.5397 64.3499C45.5397 64.0138 45.5397 64.3499 45.5397 64.1819C45.5397 63.8458 45.7078 63.6778 45.7078 63.3418C45.8758 62.6697 46.3799 61.9977 46.716 61.3256C47.0521 60.8215 47.3882 59.9815 48.0604 59.8134C48.9006 59.8134 48.7326 58.9734 48.0604 58.8053Z" fill="black"/>
<path d="M50.581 72.5828C48.5645 72.4147 46.716 71.5747 44.8675 70.9026C43.1871 70.2305 41.5067 69.8945 40.1623 68.7184C38.818 67.7103 37.9777 66.3662 37.3056 64.854C36.8014 63.5099 36.6334 62.1658 36.2973 60.8216C35.7932 58.4694 32.9364 57.2933 30.9199 56.2852C27.8951 54.9411 24.5342 53.4289 21.1733 54.101C20.6692 54.269 20.5011 54.9411 21.1733 55.1091C23.0218 55.4451 24.8703 55.1091 26.5507 55.6131C28.0631 55.9492 29.5755 56.6212 30.9199 57.2933C31.256 57.4613 31.5921 57.6293 31.9281 57.7973C32.0962 57.7973 32.0962 57.9653 32.2642 57.9653C32.7684 58.3014 32.9364 58.6374 33.1045 59.1415C33.4405 59.4775 34.1127 59.6455 34.4488 60.1496C35.289 60.9896 35.121 62.5018 35.4571 63.6779C36.2973 66.5342 37.4736 68.7184 39.9943 70.5666C41.6747 71.7427 43.5232 72.0787 45.5397 72.7508C47.2202 73.4228 48.9006 73.5909 50.7491 73.5909C50.9171 73.2548 51.0852 72.5828 50.581 72.5828Z" fill="black"/>
<path d="M20.3331 52.2528C18.6527 51.9167 16.9722 51.0767 15.1237 51.0767C13.7794 51.0767 12.435 51.4127 11.2587 51.9167C9.74633 52.4208 8.40198 53.0929 7.22567 53.7649C6.04936 54.437 4.53697 55.2771 3.86479 56.6212C3.5287 57.1252 4.03283 57.7973 4.70501 57.4613C5.88132 56.7892 6.88958 55.9491 8.06589 55.2771C9.2422 54.605 10.5866 53.9329 11.9309 53.4289C13.1072 53.0929 14.4516 52.7568 15.6279 52.7568C17.3083 52.7568 18.8207 53.4289 20.5012 53.2609C20.8372 53.0929 20.8372 52.4208 20.3331 52.2528Z" fill="black"/>
<path d="M1.51234 59.6454C2.18451 61.3256 3.52887 62.5017 4.87322 63.6778C5.37735 64.1819 6.04953 64.6859 6.38562 65.19C6.7217 65.694 7.05779 66.3661 7.05779 67.0381C7.22584 67.7102 8.2341 67.5422 8.2341 67.0381C8.40214 65.19 7.22584 63.8458 5.88148 62.8377C4.53713 61.8296 3.02473 60.8215 2.01647 59.3094C1.84843 58.8053 1.34429 59.1414 1.51234 59.6454Z" fill="black"/>
<path d="M7.39379 69.7265C8.40205 71.0706 8.73814 72.5827 9.07423 74.2629C9.41032 75.9431 9.07423 77.4552 8.57009 78.9674C7.72987 81.3196 6.72161 83.5038 6.55357 86.024C6.38552 88.5443 6.88965 91.0645 7.56183 93.4168C8.40205 95.769 9.41031 98.4572 11.2588 100.137C11.7629 100.641 12.6032 99.9694 12.2671 99.4653C9.41032 94.5929 6.38552 89.0483 7.89792 83.1678C8.57009 80.6475 10.2505 78.4633 10.2505 75.7751C10.2505 73.4228 9.24227 70.9026 7.56183 69.2224C7.56183 69.0544 7.22574 69.3904 7.39379 69.7265Z" fill="black"/>
<path d="M12.9393 103.498C13.4434 104.674 14.9558 105.346 16.1322 105.85C16.6363 106.186 17.1404 106.354 17.8126 106.69C18.1487 106.858 18.6528 107.194 18.8209 107.53C18.9889 108.37 20.1652 108.034 20.3333 107.362C20.5013 106.69 21.0054 105.85 21.3415 105.178C21.6776 104.674 22.0137 104.002 22.1817 103.498C22.8539 102.322 23.5261 101.145 24.0302 99.9693C25.3746 97.4491 26.7189 95.0969 28.2313 92.7446C28.5674 92.2406 27.7272 91.5685 27.3911 92.0726C25.7107 94.4248 24.1983 96.777 22.8539 99.2973C22.1817 100.473 21.5096 101.817 21.0054 102.994C20.6693 103.498 20.5013 104.17 20.1652 104.674C19.8291 105.514 19.493 106.354 18.9889 107.026C19.493 107.194 19.8291 107.362 20.3333 107.53C20.5013 106.186 18.9889 105.178 17.9806 104.842C17.3085 104.506 16.4682 104.338 15.7961 104.002C15.2919 103.834 14.6198 103.498 14.2837 102.994C13.6115 101.986 12.6032 102.658 12.9393 103.498Z" fill="black"/>
<path d="M31.4243 89.3843C33.1048 88.5442 34.7852 87.3681 36.4657 86.696C37.3059 86.36 38.3141 86.024 39.1544 85.6879C40.1626 85.3519 41.507 85.0159 42.3472 84.5118C43.0194 84.0078 42.8513 82.8317 41.8431 82.9997C40.6668 83.1677 39.4905 83.6717 38.3141 84.1758C37.4739 84.5118 36.4657 84.8479 35.6254 85.3519C34.7852 85.6879 33.945 86.192 33.1048 86.8641C32.2646 87.3681 31.5924 88.0402 30.7522 88.5442C30.248 88.7122 30.7522 89.7203 31.4243 89.3843Z" fill="black"/>
<path d="M28.2314 102.322C28.2314 101.482 29.0716 100.642 29.5757 100.138C30.4159 99.4656 31.0881 98.9615 32.0964 98.7935C32.2644 98.7935 31.9283 98.7935 32.2644 98.7935H32.4325C32.6005 98.7935 32.6005 98.7935 32.7686 98.7935C32.7686 98.7935 32.7686 98.7935 32.9366 98.7935C33.1046 98.7935 33.1046 98.7935 33.2727 98.7935C33.2727 98.7935 33.4407 98.7935 33.4407 98.9615L33.6088 99.1296C33.6088 99.1296 33.6088 99.1296 33.6088 99.2976C33.6088 99.4656 33.6088 99.6336 33.6088 99.8016V99.9696C33.6088 99.8016 33.6088 100.138 33.6088 99.9696V100.138C33.4407 100.306 33.7768 100.138 33.6088 100.138C33.6088 100.138 33.4407 100.138 33.4407 100.306H33.2727C33.1046 100.306 33.1046 100.306 32.9366 100.474H32.7686C32.6005 100.474 32.6005 100.474 32.4325 100.474C32.4325 100.474 32.4325 100.474 32.2644 100.474C32.2644 100.474 32.2644 100.474 32.0964 100.474C31.9283 100.474 31.9283 100.474 31.7603 100.306C31.5922 100.306 31.9283 100.474 31.7603 100.306C31.7603 100.306 31.5922 100.306 31.5922 100.138C31.7603 100.306 31.5922 99.9696 31.4242 99.9696C31.4242 99.9696 31.4242 99.9696 31.2562 99.8016C31.2562 99.8016 31.2562 99.8016 31.2562 99.6336C31.0881 99.4656 31.0881 99.2976 30.9201 99.1296C30.4159 98.4575 29.2396 99.1296 29.4077 99.9696C29.4077 99.9696 29.4077 99.2976 29.4077 99.4656V99.6336C29.4077 99.8016 29.4077 99.9696 29.4077 99.9696C29.4077 100.138 29.5757 100.474 29.7438 100.642C29.9118 100.81 30.2479 101.146 30.4159 101.314C30.9201 101.65 31.5922 101.818 32.2644 101.818C32.7686 101.818 33.4407 101.65 33.9449 101.314C34.1129 101.146 34.1129 101.146 34.281 100.978C34.281 100.978 34.281 100.978 34.449 100.81C34.449 100.81 34.449 100.642 34.617 100.642C34.7851 100.474 34.9531 100.138 35.1212 99.8016C35.2892 99.1296 35.1212 98.4575 34.617 97.7854C34.281 97.2814 33.6088 97.1134 33.1046 96.9454C31.7603 96.7773 30.4159 97.4494 29.4077 98.2895C28.3994 99.1296 27.2231 100.474 27.3911 101.986C27.5592 102.826 28.2314 102.826 28.2314 102.322Z" fill="black"/>
<path d="M39.8261 85.6882C40.6663 84.176 42.1787 82.6639 44.0272 82.3278C44.8674 82.1598 45.7076 82.4958 46.3798 82.6639C47.052 82.8319 47.5561 82.6639 48.2283 82.6639C50.4129 82.6639 53.7738 82.3278 54.4459 79.6396C54.1098 79.6396 53.7738 79.6396 53.4377 79.6396C53.6057 80.1436 53.7738 80.6477 53.7738 81.1517C53.7738 81.4877 53.6057 81.8238 53.7738 81.9918C53.7738 82.4958 54.1098 82.9999 54.4459 83.3359C55.1181 84.512 56.1264 85.5201 57.1346 86.6962C57.8068 87.5363 58.479 88.2084 58.8151 89.0485C59.3192 90.2246 59.6553 91.4007 60.3275 92.4088C60.6636 92.9128 61.3357 92.4088 61.3357 91.9048C61.1677 90.0566 60.1594 88.0404 58.9831 86.6962C58.1429 85.8562 57.1346 85.0161 56.2944 84.176C55.7903 83.672 55.2862 83.1679 54.9501 82.6639C54.1098 81.4877 54.2779 80.8157 54.614 79.6396C54.782 79.1355 53.9418 78.7995 53.6057 79.3035C52.2614 81.6558 48.5644 81.8238 46.0437 81.4877C44.5313 81.1517 43.355 81.3197 42.0107 82.1598C40.8344 82.9999 39.9941 84.008 39.49 85.3521C39.1539 85.6882 39.6581 86.0242 39.8261 85.6882Z" fill="black"/>
<path d="M64.8648 93.4171C68.0576 92.745 71.9227 91.4009 73.4351 88.3766C74.1072 86.8645 73.9392 85.0163 73.4351 83.5042C73.099 82.4961 72.5948 81.488 72.0907 80.6479C71.5866 79.4718 71.2505 78.2957 71.0824 77.1195C70.9144 76.4475 69.7381 76.4475 69.9061 77.2876C69.9061 77.6236 69.9061 77.7916 69.9061 78.1276C69.9061 78.4637 70.0742 78.6317 70.4103 78.7997C74.4433 79.4718 76.6279 76.4475 79.9888 74.7673C80.997 74.2633 82.1734 73.9272 83.1816 73.9272C84.3579 73.9272 85.5342 74.4313 86.7105 74.5993C88.0549 74.7673 89.5673 74.9353 90.9116 74.7673C91.7519 74.5993 92.7601 73.5912 93.6004 74.4313C94.1045 74.9353 94.7767 74.4313 94.6086 73.9272C93.9364 71.911 92.088 73.0872 90.7436 73.4232C89.2312 73.7592 87.2147 73.4232 85.7023 73.0872C84.3579 72.7511 83.3497 72.2471 82.0053 72.2471C80.1568 72.4151 78.3083 73.4232 76.7959 74.5993C74.9475 75.9434 72.9309 77.7916 70.5783 77.6236C70.7464 77.7916 70.9144 78.1276 71.0824 78.2957C71.0824 77.9596 71.0824 77.7916 71.0824 77.4556C70.7464 77.4556 70.2422 77.4556 69.9061 77.4556C69.234 80.9839 73.267 84.1762 72.2588 87.7046C71.4185 90.7289 67.2174 92.241 64.5287 93.0811C64.3607 92.745 64.3607 93.4171 64.8648 93.4171Z" fill="black"/>
<path d="M94.1047 78.4637C95.1129 78.7997 96.1212 78.9677 97.1295 78.9677C97.9697 78.9677 98.8099 78.7997 99.6501 78.7997C101.499 78.6317 103.515 78.9677 104.859 77.4556C105.364 76.9515 104.523 76.2794 104.019 76.7835C103.515 77.2875 102.507 77.2875 101.835 77.2875C100.994 77.2875 100.154 77.2875 99.314 77.4556C98.4738 77.6236 97.8016 77.7916 96.9614 77.7916C96.1212 77.7916 95.281 77.7916 94.4408 77.6236C93.7686 77.2875 93.4325 78.1276 94.1047 78.4637Z" fill="black"/>
<path d="M27.5591 23.0183C28.7354 23.6903 30.4158 24.0264 31.7602 23.8584C32.9365 23.8584 34.2809 23.6903 35.2891 22.8503C37.1376 21.5061 38.1459 19.1539 39.6583 17.6418C39.9944 17.3057 40.3304 16.9697 40.8346 16.8017C41.3387 16.4657 41.8428 16.6337 42.347 16.2976C43.0192 15.9616 43.0192 15.1215 42.1789 14.9535C41.6748 14.7855 40.8346 15.1215 40.3304 15.2895C38.1459 16.2976 36.9696 18.4818 35.4572 20.33C35.1211 20.8341 34.6169 21.1701 34.2809 21.6742C33.7767 22.0102 33.1045 22.1782 32.6004 22.1782C31.2561 22.3462 29.4076 22.5142 28.0632 21.8422C27.3911 21.5061 26.7189 22.6823 27.5591 23.0183Z" fill="black"/>
</g>
<defs>
<clipPath id="clip0_2031_2438">
<rect width="122" height="166" fill="white"/>
</clipPath>
</defs>
</svg>
