<svg width="39" height="39" viewBox="0 0 39 39" fill="none" xmlns="http://www.w3.org/2000/svg">
<circle opacity="0.15" cx="19.5" cy="19.5" r="19.5" fill="url(#paint0_linear_3205_1642)"/>
<g clip-path="url(#clip0_3205_1642)">
<path d="M15.3057 13.8002H24.8088V27.377H15.3057V13.8002Z" fill="#02EDD6"/>
<path d="M29.6282 19.4387V27.377H24.8096V17.4486L29.6282 19.4387Z" fill="white"/>
<path d="M28.334 20.6982V21.3966C28.334 21.5243 28.2305 21.6278 28.1028 21.6278H26.3338C26.2061 21.6278 26.1025 21.5243 26.1025 21.3966V20.6982C26.1025 20.5705 26.2061 20.4669 26.3338 20.4669H28.1028C28.2305 20.4669 28.334 20.5704 28.334 20.6982Z" fill="#02EDD6"/>
<path d="M28.334 23.009V23.7074C28.334 23.8351 28.2305 23.9386 28.1028 23.9386H26.3338C26.2061 23.9386 26.1025 23.8351 26.1025 23.7074V23.009C26.1025 22.8813 26.2061 22.7777 26.3338 22.7777H28.1028C28.2305 22.7777 28.334 22.8813 28.334 23.009Z" fill="#02EDD6"/>
<path d="M28.334 25.3196V26.018C28.334 26.1457 28.2305 26.2493 28.1028 26.2493H26.3338C26.2061 26.2493 26.1025 26.1457 26.1025 26.018V25.3196C26.1025 25.1919 26.2061 25.0884 26.3338 25.0884H28.1028C28.2305 25.0884 28.334 25.1919 28.334 25.3196Z" fill="#02EDD6"/>
<path d="M10.4863 19.4387V27.377H15.3049V17.4486L10.4863 19.4387Z" fill="white"/>
<path d="M11.7793 20.6982V21.3966C11.7793 21.5243 11.8828 21.6278 12.0106 21.6278H13.7795C13.9072 21.6278 14.0108 21.5243 14.0108 21.3966V20.6982C14.0108 20.5705 13.9072 20.4669 13.7795 20.4669H12.0105C11.8828 20.4669 11.7793 20.5704 11.7793 20.6982Z" fill="#02EDD6"/>
<path d="M11.7793 23.009V23.7074C11.7793 23.8351 11.8828 23.9386 12.0106 23.9386H13.7795C13.9072 23.9386 14.0108 23.8351 14.0108 23.7074V23.009C14.0108 22.8813 13.9072 22.7777 13.7795 22.7777H12.0105C11.8828 22.7777 11.7793 22.8813 11.7793 23.009Z" fill="#02EDD6"/>
<path d="M11.7793 25.3196V26.018C11.7793 26.1457 11.8828 26.2493 12.0106 26.2493H13.7795C13.9072 26.2493 14.0108 26.1457 14.0108 26.018V25.3196C14.0108 25.1919 13.9072 25.0884 13.7795 25.0884H12.0105C11.8828 25.0884 11.7793 25.1919 11.7793 25.3196Z" fill="#02EDD6"/>
<path d="M16.9727 22.7777H23.142V27.3771H16.9727V22.7777Z" fill="white"/>
<path d="M18.0146 22.7777H22.098V27.3771H18.0146V22.7777Z" fill="#02EDD6"/>
<path d="M25.4284 12.9143V13.5362C25.4284 13.682 25.3102 13.8002 25.1644 13.8002H14.9495C14.8037 13.8002 14.6855 13.682 14.6855 13.5362V12.9143C14.6855 12.7686 14.8037 12.6504 14.9495 12.6504H25.1644C25.3102 12.6503 25.4284 12.7685 25.4284 12.9143Z" fill="white"/>
<path d="M18.0353 15.3839V17.008C18.0353 17.1591 17.9128 17.2816 17.7617 17.2816H16.551C16.3999 17.2816 16.2773 17.1591 16.2773 17.008V15.3839C16.2773 15.2328 16.3999 15.1102 16.551 15.1102H17.7617C17.9128 15.1103 18.0353 15.2328 18.0353 15.3839Z" fill="white"/>
<path d="M20.9357 15.3839V17.008C20.9357 17.1591 20.8132 17.2816 20.662 17.2816H19.4514C19.3003 17.2816 19.1777 17.1591 19.1777 17.008V15.3839C19.1777 15.2328 19.3003 15.1102 19.4514 15.1102H20.662C20.8132 15.1103 20.9357 15.2328 20.9357 15.3839Z" fill="white"/>
<path d="M23.8361 15.3839V17.008C23.8361 17.1591 23.7136 17.2816 23.5624 17.2816H22.3518C22.2007 17.2816 22.0781 17.1591 22.0781 17.008V15.3839C22.0781 15.2328 22.2007 15.1102 22.3518 15.1102H23.5624C23.7136 15.1103 23.8361 15.2328 23.8361 15.3839Z" fill="white"/>
<path d="M18.0353 19.3192V20.9433C18.0353 21.0944 17.9128 21.2169 17.7617 21.2169H16.551C16.3999 21.2169 16.2773 21.0944 16.2773 20.9433V19.3192C16.2773 19.1681 16.3999 19.0455 16.551 19.0455H17.7617C17.9128 19.0455 18.0353 19.1681 18.0353 19.3192Z" fill="white"/>
<path d="M20.9357 19.3192V20.9433C20.9357 21.0944 20.8132 21.2169 20.662 21.2169H19.4514C19.3003 21.2169 19.1777 21.0944 19.1777 20.9433V19.3192C19.1777 19.1681 19.3003 19.0455 19.4514 19.0455H20.662C20.8132 19.0455 20.9357 19.1681 20.9357 19.3192Z" fill="white"/>
<path d="M23.8361 19.3192V20.9433C23.8361 21.0944 23.7136 21.2169 23.5624 21.2169H22.3518C22.2007 21.2169 22.0781 21.0944 22.0781 20.9433V19.3192C22.0781 19.1681 22.2007 19.0455 22.3518 19.0455H23.5624C23.7136 19.0455 23.8361 19.1681 23.8361 19.3192Z" fill="white"/>
<path d="M20.3779 6.17296L20.912 7.25503L22.1061 7.42853C22.3999 7.47123 22.5172 7.83228 22.3046 8.03956L21.4405 8.88185L21.6445 10.0712C21.6947 10.3638 21.3875 10.587 21.1247 10.4488L20.0567 9.88731L18.9886 10.4488C18.7258 10.587 18.4187 10.3638 18.4689 10.0712L18.6728 8.88185L17.8088 8.03956C17.5961 7.83233 17.7135 7.47123 18.0073 7.42853L19.2014 7.25503L19.7354 6.17296C19.8669 5.9067 20.2465 5.9067 20.3779 6.17296Z" fill="#02EDD6"/>
<path d="M25.0612 8.77082L25.3957 9.44857L26.1436 9.55726C26.3277 9.58398 26.4012 9.81015 26.268 9.93999L25.7267 10.4676L25.8545 11.2125C25.8859 11.3958 25.6935 11.5356 25.5289 11.4491L24.8599 11.0974L24.1909 11.4491C24.0263 11.5356 23.8339 11.3958 23.8653 11.2125L23.9931 10.4676L23.4518 9.93999C23.3186 9.81019 23.3921 9.58403 23.5762 9.55726L24.3241 9.44857L24.6586 8.77082C24.7411 8.60406 24.9789 8.60406 25.0612 8.77082Z" fill="#02EDD6"/>
<path d="M15.4547 8.77082L15.7892 9.44857L16.5371 9.55726C16.7212 9.58398 16.7946 9.81015 16.6615 9.93999L16.1203 10.4676L16.248 11.2125C16.2795 11.3958 16.0871 11.5356 15.9225 11.4491L15.2534 11.0974L14.5844 11.4491C14.4198 11.5356 14.2274 11.3958 14.2589 11.2125L14.3866 10.4676L13.8454 9.93999C13.7122 9.81019 13.7857 9.58403 13.9697 9.55726L14.7177 9.44857L15.0522 8.77082C15.1346 8.60406 15.3724 8.60406 15.4547 8.77082Z" fill="#02EDD6"/>
<path d="M16.2777 26.524C16.3955 26.524 16.4909 26.4285 16.4909 26.3108V24.6772C16.4909 24.5594 16.3954 24.464 16.2777 24.464C16.16 24.464 16.0645 24.5595 16.0645 24.6772V26.3108C16.0645 26.4285 16.16 26.524 16.2777 26.524Z" fill="#122986"/>
<path d="M28.103 20.2537H26.3341C26.089 20.2537 25.8896 20.4531 25.8896 20.6982V21.3966C25.8896 21.6417 26.089 21.8411 26.3341 21.8411H28.103C28.3481 21.8411 28.5475 21.6417 28.5475 21.3966V20.6982C28.5475 20.4531 28.3481 20.2537 28.103 20.2537ZM28.121 21.3966C28.121 21.4065 28.1129 21.4146 28.103 21.4146H26.3341C26.3243 21.4146 26.3161 21.4065 26.3161 21.3966V20.6982C26.3161 20.6883 26.3243 20.6802 26.3341 20.6802H28.103C28.1129 20.6802 28.121 20.6883 28.121 20.6982V21.3966Z" fill="#122986"/>
<path d="M28.103 22.5645H26.3341C26.089 22.5645 25.8896 22.7638 25.8896 23.0089V23.7073C25.8896 23.9524 26.089 24.1518 26.3341 24.1518H28.103C28.3481 24.1518 28.5475 23.9524 28.5475 23.7073V23.0089C28.5475 22.7638 28.3481 22.5645 28.103 22.5645ZM28.121 23.7073C28.121 23.7172 28.1129 23.7254 28.103 23.7254H26.3341C26.3243 23.7254 26.3161 23.7172 26.3161 23.7073V23.0089C26.3161 22.9991 26.3243 22.9909 26.3341 22.9909H28.103C28.1129 22.9909 28.121 22.9991 28.121 23.0089V23.7073Z" fill="#122986"/>
<path d="M28.103 24.8752H26.3341C26.089 24.8752 25.8896 25.0746 25.8896 25.3197V26.0181C25.8896 26.2632 26.089 26.4626 26.3341 26.4626H28.103C28.3481 26.4626 28.5475 26.2632 28.5475 26.0181V25.3197C28.5475 25.0746 28.3481 24.8752 28.103 24.8752ZM28.121 26.0181C28.121 26.028 28.1129 26.0361 28.103 26.0361H26.3341C26.3243 26.0361 26.3161 26.028 26.3161 26.0181V25.3197C26.3161 25.3099 26.3243 25.3017 26.3341 25.3017H28.103C28.1129 25.3017 28.121 25.3099 28.121 25.3197V26.0181Z" fill="#122986"/>
<path d="M10.1454 19.8101L10.2728 19.7576V27.1638H10.064C9.94622 27.1638 9.85077 27.2593 9.85077 27.3771C9.85077 27.4948 9.94627 27.5903 10.064 27.5903H30.0497C30.1675 27.5903 30.2629 27.4948 30.2629 27.3771C30.2629 27.2593 30.1674 27.1638 30.0497 27.1638H29.841V19.7576L29.9682 19.8101C30.0773 19.8553 30.2019 19.8031 30.2468 19.6945C30.2917 19.5855 30.2399 19.4609 30.1311 19.4159C29.5142 19.1612 26.0517 17.7311 25.0217 17.3057V14.0134H25.1643C25.4274 14.0134 25.6415 13.7994 25.6415 13.5362V12.9142C25.6415 12.6511 25.4275 12.437 25.1643 12.437H14.9494C14.6862 12.437 14.4721 12.6511 14.4721 12.9142V13.5362C14.4721 13.7993 14.6862 14.0134 14.9494 14.0134H15.092V17.3057C13.6543 17.8995 11.5377 18.7736 9.98248 19.4159C9.87366 19.4609 9.82182 19.5855 9.86679 19.6945C9.91193 19.8037 10.0369 19.8551 10.1454 19.8101ZM25.0224 17.7675C25.3952 17.9215 28.9147 19.3751 29.4144 19.5815V27.1638H25.0224V17.7675ZM17.8019 27.1638H17.1854V22.991H17.8019V27.1638ZM19.8436 27.1638H18.2285V22.991H19.8436V27.1638ZM21.8853 27.1638H20.27V22.991H21.8853V27.1638ZM22.9282 27.1638H22.3118V22.991H22.9282V27.1638ZM24.5952 27.1638H23.3547V22.7777C23.3547 22.6599 23.2592 22.5644 23.1415 22.5644H22.0985H18.0152H16.9721C16.8544 22.5644 16.7589 22.6599 16.7589 22.7777V27.1638H15.5186V14.0134H24.5952V27.1638H24.5952ZM14.9494 13.5869C14.9213 13.5869 14.8987 13.5642 14.8987 13.5362V12.9142C14.8987 12.8862 14.9213 12.8635 14.9494 12.8635H25.1643C25.1924 12.8635 25.215 12.8862 25.215 12.9142V13.5362C25.215 13.5642 25.1923 13.5869 25.1643 13.5869C21.8513 13.5869 18.1997 13.5869 14.9494 13.5869ZM10.6992 19.5814L13.0782 18.5989L15.0913 17.7675V27.1638H10.6992V19.5814Z" fill="#122986"/>
<path d="M13.7798 20.2537H12.0108C11.7658 20.2537 11.5664 20.4531 11.5664 20.6982V21.3966C11.5664 21.6417 11.7658 21.8411 12.0108 21.8411H13.7798C14.0249 21.8411 14.2244 21.6417 14.2244 21.3966V20.6982C14.2244 20.4531 14.025 20.2537 13.7798 20.2537ZM13.7979 21.3966C13.7979 21.4065 13.7897 21.4146 13.7798 21.4146H12.0108C12.0009 21.4146 11.9929 21.4065 11.9929 21.3966V20.6982C11.9929 20.6883 12.0009 20.6802 12.0108 20.6802H13.7798C13.7897 20.6802 13.7979 20.6883 13.7979 20.6982V21.3966Z" fill="#122986"/>
<path d="M13.7798 22.5645H12.0108C11.7658 22.5645 11.5664 22.7638 11.5664 23.0089V23.7073C11.5664 23.9524 11.7658 24.1518 12.0108 24.1518H13.7798C14.0249 24.1518 14.2244 23.9524 14.2244 23.7073V23.0089C14.2244 22.7638 14.025 22.5645 13.7798 22.5645ZM13.7979 23.7073C13.7979 23.7172 13.7897 23.7254 13.7798 23.7254H12.0108C12.0009 23.7254 11.9929 23.7172 11.9929 23.7073V23.0089C11.9929 22.9991 12.0009 22.9909 12.0108 22.9909H13.7798C13.7897 22.9909 13.7979 22.9991 13.7979 23.0089V23.7073Z" fill="#122986"/>
<path d="M13.7798 24.8752H12.0108C11.7658 24.8752 11.5664 25.0746 11.5664 25.3197V26.0181C11.5664 26.2632 11.7658 26.4626 12.0108 26.4626H13.7798C14.0249 26.4626 14.2244 26.2632 14.2244 26.0181V25.3197C14.2244 25.0746 14.025 24.8752 13.7798 24.8752ZM13.7979 26.0181C13.7979 26.028 13.7897 26.0361 13.7798 26.0361H12.0108C12.0009 26.0361 11.9929 26.028 11.9929 26.0181V25.3197C11.9929 25.3099 12.0009 25.3017 12.0108 25.3017H13.7798C13.7897 25.3017 13.7979 25.3099 13.7979 25.3197V26.0181Z" fill="#122986"/>
<path d="M16.5513 17.4948H17.7619C18.0303 17.4948 18.2488 17.2764 18.2488 17.0079V15.3839C18.2488 15.1154 18.0303 14.897 17.7619 14.897H16.5513C16.2829 14.897 16.0645 15.1154 16.0645 15.3839V17.0079C16.0645 17.2764 16.2829 17.4948 16.5513 17.4948ZM16.491 15.3839C16.491 15.3505 16.518 15.3235 16.5513 15.3235H17.7619C17.7953 15.3235 17.8223 15.3506 17.8223 15.3839V17.0079C17.8223 17.0413 17.7953 17.0683 17.7619 17.0683H16.5513C16.518 17.0683 16.491 17.0413 16.491 17.0079V15.3839Z" fill="#122986"/>
<path d="M19.4517 17.4948H20.6624C20.9309 17.4948 21.1493 17.2764 21.1493 17.0079V15.3839C21.1493 15.1154 20.9309 14.897 20.6624 14.897H19.4517C19.1833 14.897 18.9648 15.1154 18.9648 15.3839V17.0079C18.9648 17.2764 19.1833 17.4948 19.4517 17.4948ZM19.3913 15.3839C19.3913 15.3505 19.4184 15.3235 19.4517 15.3235H20.6624C20.6957 15.3235 20.7228 15.3506 20.7228 15.3839V17.0079C20.7228 17.0413 20.6957 17.0683 20.6624 17.0683H19.4517C19.4183 17.0683 19.3913 17.0413 19.3913 17.0079V15.3839Z" fill="#122986"/>
<path d="M22.3521 17.4948H23.5628C23.8313 17.4948 24.0497 17.2764 24.0497 17.0079V15.3839C24.0497 15.1154 23.8313 14.897 23.5628 14.897H22.3521C22.0837 14.897 21.8652 15.1154 21.8652 15.3839V17.0079C21.8652 17.2764 22.0837 17.4948 22.3521 17.4948ZM22.2917 15.3839C22.2917 15.3505 22.3188 15.3235 22.3521 15.3235H23.5628C23.5962 15.3235 23.6232 15.3506 23.6232 15.3839V17.0079C23.6232 17.0413 23.5962 17.0683 23.5628 17.0683H22.3521C22.3188 17.0683 22.2917 17.0413 22.2917 17.0079V15.3839Z" fill="#122986"/>
<path d="M16.5513 21.4303H17.7619C18.0303 21.4303 18.2488 21.2118 18.2488 20.9434V19.3192C18.2488 19.0508 18.0303 18.8324 17.7619 18.8324H16.5513C16.2829 18.8324 16.0645 19.0508 16.0645 19.3192V20.9434C16.0645 21.2118 16.2829 21.4303 16.5513 21.4303ZM16.491 19.3192C16.491 19.286 16.518 19.2589 16.5513 19.2589H17.7619C17.7953 19.2589 17.8223 19.286 17.8223 19.3192V20.9434C17.8223 20.9767 17.7953 21.0037 17.7619 21.0037H16.5513C16.518 21.0037 16.491 20.9767 16.491 20.9434V19.3192Z" fill="#122986"/>
<path d="M19.4517 21.4303H20.6624C20.9309 21.4303 21.1493 21.2118 21.1493 20.9434V19.3192C21.1493 19.0508 20.9309 18.8324 20.6624 18.8324H19.4517C19.1833 18.8324 18.9648 19.0508 18.9648 19.3192V20.9434C18.9648 21.2118 19.1833 21.4303 19.4517 21.4303ZM19.3913 19.3192C19.3913 19.286 19.4184 19.2589 19.4517 19.2589H20.6624C20.6957 19.2589 20.7228 19.286 20.7228 19.3192V20.9434C20.7228 20.9767 20.6957 21.0037 20.6624 21.0037H19.4517C19.4183 21.0037 19.3913 20.9767 19.3913 20.9434V19.3192Z" fill="#122986"/>
<path d="M22.3521 21.4303H23.5628C23.8313 21.4303 24.0497 21.2118 24.0497 20.9434V19.3192C24.0497 19.0508 23.8313 18.8324 23.5628 18.8324H22.3521C22.0837 18.8324 21.8652 19.0508 21.8652 19.3192V20.9434C21.8652 21.2118 22.0837 21.4303 22.3521 21.4303ZM22.2917 19.3192C22.2917 19.286 22.3188 19.2589 22.3521 19.2589H23.5628C23.5962 19.2589 23.6232 19.286 23.6232 19.3192V20.9434C23.6232 20.9767 23.5962 21.0037 23.5628 21.0037H22.3521C22.3188 21.0037 22.2917 20.9767 22.2917 20.9434V19.3192Z" fill="#122986"/>
<path d="M18.4441 9.03488L18.259 10.1137C18.2221 10.3297 18.3091 10.5438 18.4865 10.6726C18.5866 10.7454 18.7038 10.7823 18.8218 10.7823C18.9126 10.7823 19.0039 10.7605 19.0883 10.7161L20.0571 10.2068L21.026 10.7161C21.22 10.8183 21.4508 10.8015 21.6277 10.6726C21.8051 10.5438 21.8921 10.3297 21.8552 10.1137L21.6701 9.03488L22.454 8.27081C22.6108 8.11786 22.6662 7.89348 22.5985 7.68499C22.5307 7.47662 22.354 7.32763 22.1372 7.29607L21.054 7.13864L20.5696 6.15724C20.4725 5.96076 20.2761 5.83862 20.057 5.83862C19.838 5.83862 19.6416 5.96076 19.5445 6.15724L19.0602 7.13864L17.9771 7.29607C17.7602 7.32763 17.5834 7.47662 17.5157 7.68507C17.448 7.89344 17.5034 8.11795 17.6602 8.2709L18.4441 9.03488ZM17.9213 7.81692C17.9298 7.7911 17.9579 7.72986 18.0385 7.7182L19.2326 7.54461C19.3021 7.53451 19.362 7.4909 19.3932 7.42787L19.927 6.34588C19.9631 6.27298 20.03 6.2651 20.0571 6.2651C20.0842 6.2651 20.1511 6.27302 20.1871 6.34588L20.7212 7.42787C20.7522 7.49086 20.8122 7.53451 20.8816 7.54461L22.0759 7.7182C22.1563 7.72986 22.1845 7.7911 22.1928 7.81678C22.2013 7.8426 22.2145 7.90863 22.1562 7.96539L21.2921 8.80767C21.2418 8.85673 21.2189 8.92733 21.2307 8.99645L21.4347 10.1858C21.4485 10.2659 21.3989 10.3117 21.3771 10.3276C21.3552 10.3435 21.2967 10.3765 21.2244 10.3385L20.1563 9.77706C20.0942 9.74437 20.0199 9.74437 19.9578 9.77706L18.8898 10.3385C18.8177 10.3765 18.7591 10.3435 18.737 10.3275C18.7152 10.3115 18.6657 10.2659 18.6795 10.1857L18.8834 8.9964C18.8952 8.92728 18.8723 8.85668 18.8221 8.80763L17.958 7.96534C17.8998 7.90867 17.913 7.84264 17.9213 7.81692Z" fill="#122986"/>
<path d="M23.7644 10.6205L23.6556 11.255C23.6273 11.4203 23.694 11.5844 23.8297 11.683C23.9064 11.7388 23.9961 11.7671 24.0865 11.7671C24.156 11.7671 24.226 11.7503 24.2906 11.7164L24.8603 11.4168L25.4301 11.7164C25.5788 11.7945 25.7553 11.7818 25.8909 11.683C26.0267 11.5845 26.0934 11.4205 26.0651 11.255L25.9563 10.6205L26.4172 10.1712C26.5374 10.0541 26.5797 9.88212 26.5279 9.72251C26.476 9.56299 26.3407 9.44886 26.1747 9.4247L25.5376 9.33212L25.2527 8.75495C25.1785 8.60448 25.0281 8.51099 24.8603 8.51099C24.6925 8.51099 24.5421 8.60448 24.4679 8.75487L24.1829 9.33216L23.5459 9.42474C23.3799 9.4489 23.2445 9.56303 23.1926 9.72264C23.1408 9.88217 23.1832 10.0541 23.3034 10.1713L23.7644 10.6205ZM24.3553 9.73814C24.4248 9.72804 24.4848 9.68442 24.5158 9.62153L24.8603 8.93751C24.8672 8.93751 24.8686 8.94042 24.8702 8.94364C24.8702 8.94364 24.8703 8.94364 24.8703 8.94373L25.2048 9.62149C25.2359 9.68438 25.2959 9.728 25.3653 9.73809L26.1195 9.86576L25.5782 10.3933C25.5279 10.4423 25.5049 10.5129 25.5169 10.582L25.6285 11.3387L24.9595 10.987C24.8982 10.9547 24.8236 10.954 24.761 10.987L24.0759 11.327L24.2037 10.582C24.2154 10.5129 24.1925 10.4423 24.1423 10.3933L23.6073 9.84678L24.3553 9.73814Z" fill="#122986"/>
<path d="M14.157 10.6205L14.0482 11.255C14.0198 11.4203 14.0866 11.5843 14.2223 11.683C14.358 11.7815 14.5348 11.7943 14.6832 11.7164L15.253 11.4168L15.8227 11.7164C15.9716 11.7946 16.148 11.7815 16.2836 11.683C16.4193 11.5843 16.4861 11.4203 16.4577 11.255L16.3489 10.6205L16.8099 10.1712C16.93 10.0541 16.9724 9.88212 16.9206 9.7226C16.8687 9.56299 16.7333 9.44886 16.5673 9.4247L15.9302 9.33212L15.6454 8.75495C15.6453 8.75487 15.6453 8.75487 15.6453 8.75487C15.571 8.60453 15.4206 8.51099 15.253 8.51099C15.0852 8.51099 14.9347 8.60448 14.8604 8.75495L14.5756 9.33212L13.9385 9.4247C13.7724 9.44886 13.6371 9.56299 13.5852 9.7226C13.5334 9.88221 13.5757 10.0541 13.696 10.1713L14.157 10.6205ZM14.748 9.73814C14.8175 9.72804 14.8774 9.68442 14.9086 9.6214L15.253 8.93751C15.2599 8.93751 15.2614 8.94042 15.2631 8.94377L15.5974 9.62144C15.6285 9.68442 15.6885 9.72808 15.758 9.73818L16.5123 9.86584L15.971 10.3933C15.9207 10.4424 15.8978 10.513 15.9096 10.5821L16.0212 11.3388L15.3523 10.9871C15.291 10.9548 15.2163 10.9541 15.1538 10.9871L14.4686 11.327L14.5964 10.5821C14.6081 10.513 14.5853 10.4424 14.535 10.3933L14.0001 9.84687L14.748 9.73814Z" fill="#122986"/>
</g>
<defs>
<linearGradient id="paint0_linear_3205_1642" x1="19.5" y1="0" x2="19.5" y2="39" gradientUnits="userSpaceOnUse">
<stop offset="0.55" stop-color="#8FCCB9"/>
<stop offset="1" stop-color="#FBFBFB"/>
</linearGradient>
<clipPath id="clip0_3205_1642">
<rect width="22.2857" height="22.2857" fill="white" transform="translate(8.91406 5.57153)"/>
</clipPath>
</defs>
</svg>
