<svg width="255" height="31" viewBox="0 0 255 31" fill="none" xmlns="http://www.w3.org/2000/svg">
<path d="M254.348 30.1196L251.315 25.2071L248.577 30.2903L254.348 30.1196ZM1.2898 25.295C1.87144 25.0492 2.46433 24.8023 3.06829 24.5544L2.68865 23.6293C2.08154 23.8784 1.48544 24.1267 0.900535 24.3739L1.2898 25.295ZM6.74749 23.087C7.94911 22.6208 9.18764 22.1527 10.4619 21.6836L10.1164 20.7452C8.83689 21.2162 7.59297 21.6864 6.38583 22.1547L6.74749 23.087ZM14.147 20.3599C15.3635 19.9334 16.6085 19.5071 17.8811 19.0817L17.564 18.1333C16.2869 18.5602 15.0373 18.9881 13.8162 19.4162L14.147 20.3599ZM21.6645 17.8461C22.8896 17.4552 24.1375 17.0658 25.4075 16.6786L25.1158 15.7221C23.8418 16.1105 22.5898 16.5012 21.3606 16.8934L21.6645 17.8461ZM29.1946 15.5498C30.4471 15.1849 31.7191 14.8225 33.0099 14.4633L32.7418 13.4999C31.4471 13.8602 30.1713 14.2237 28.9149 14.5897L29.1946 15.5498ZM36.7996 13.4323C38.0655 13.0958 39.3479 12.7626 40.6465 12.4333L40.4006 11.464C39.0984 11.7943 37.8123 12.1284 36.5427 12.4659L36.7996 13.4323ZM44.4598 11.4886C45.7307 11.1813 47.0157 10.8779 48.3145 10.5788L48.0901 9.60434C46.7877 9.90419 45.4991 10.2084 44.2247 10.5167L44.4598 11.4886ZM52.1631 9.71468C53.4391 9.43542 54.7273 9.16061 56.0275 8.89065L55.8242 7.91153C54.5205 8.18223 53.2288 8.45778 51.9493 8.7378L52.1631 9.71468ZM59.9021 8.10765C61.1834 7.85582 62.4755 7.60889 63.7779 7.36721L63.5955 6.38399C62.2896 6.62632 60.994 6.87391 59.7093 7.12643L59.9021 8.10765ZM67.6717 6.66599C68.9586 6.44126 70.255 6.22184 71.5604 6.00804L71.3988 5.02119C70.0899 5.23556 68.7901 5.45557 67.4997 5.6809L67.6717 6.66599ZM75.4683 5.38926C76.7609 5.19161 78.0618 4.99962 79.3707 4.81362L79.23 3.82356C77.9176 4.01007 76.6132 4.20257 75.3171 4.40075L75.4683 5.38926ZM83.2888 4.27808C84.587 4.10768 85.8925 3.94331 87.2051 3.78526L87.0856 2.79243C85.7694 2.95092 84.4603 3.11573 83.1587 3.28659L83.2888 4.27808ZM91.1306 3.33395C92.434 3.19119 93.744 3.0548 95.0603 2.92505L94.9622 1.92987C93.6423 2.05998 92.3287 2.19675 91.0217 2.33989L91.1306 3.33395ZM98.9907 2.55917C100.299 2.44458 101.613 2.33669 102.933 2.23575L102.856 1.23866C101.533 1.33988 100.215 1.44808 98.9034 1.56299L98.9907 2.55917ZM106.866 1.95675C108.179 1.87097 109.496 1.79221 110.819 1.72071L110.765 0.722166C109.439 0.793869 108.117 0.872855 106.801 0.958875L106.866 1.95675ZM114.754 1.53026C116.07 1.47402 117.39 1.42513 118.715 1.3838L118.684 0.38429C117.355 0.425735 116.031 0.474775 114.711 0.531167L114.754 1.53026ZM122.649 1.28379C123.965 1.25799 125.284 1.23979 126.607 1.22942L126.599 0.229449C125.272 0.23985 123.949 0.258104 122.63 0.283988L122.649 1.28379ZM130.549 1.2219C131.863 1.22722 133.181 1.24041 134.501 1.2617L134.517 0.261835C133.193 0.24048 131.872 0.227242 130.553 0.221905L130.549 1.2219ZM138.449 1.34947C139.761 1.38669 141.076 1.43205 142.394 1.48577L142.434 0.486598C141.113 0.432708 139.794 0.387208 138.478 0.349873L138.449 1.34947ZM146.344 1.67173C147.654 1.74167 148.966 1.82002 150.279 1.90699L150.345 0.909177C149.027 0.821924 147.711 0.743318 146.397 0.673151L146.344 1.67173ZM154.226 2.19396C155.534 2.29755 156.842 2.40982 158.153 2.53099L158.245 1.53524C156.93 1.41367 155.617 1.30102 154.305 1.19709L154.226 2.19396ZM162.085 2.92113C163.392 3.05952 164.699 3.20692 166.007 3.36351L166.126 2.3706C164.813 2.21346 163.501 2.06556 162.191 1.92669L162.085 2.92113ZM169.923 3.85952C171.227 4.03378 172.532 4.21735 173.837 4.41041L173.983 3.42118C172.673 3.22742 171.364 3.04321 170.056 2.86833L169.923 3.85952ZM177.733 5.01503C179.033 5.2261 180.333 5.44676 181.632 5.67722L181.807 4.69258C180.502 4.46128 179.198 4.2398 177.894 4.02797L177.733 5.01503ZM185.508 6.3935C186.799 6.64193 188.091 6.90021 189.382 7.16853L189.585 6.18945C188.289 5.92012 186.993 5.66087 185.697 5.41151L185.508 6.3935ZM193.24 8.00067C194.522 8.28732 195.803 8.58406 197.084 8.89108L197.317 7.91863C196.031 7.61041 194.745 7.31252 193.458 7.02477L193.24 8.00067ZM200.92 9.84211C202.191 10.1678 203.461 10.5037 204.73 10.8502L204.994 9.88555C203.719 9.53766 202.444 9.20034 201.168 8.8734L200.92 9.84211ZM208.534 11.9215C209.795 12.2873 211.054 12.6638 212.312 13.051L212.606 12.0953C211.343 11.7064 210.079 11.3285 208.813 10.9611L208.534 11.9215ZM216.075 14.2433C217.325 14.6506 218.573 15.0688 219.819 15.498L220.145 14.5525C218.893 14.1214 217.64 13.7015 216.385 13.2925L216.075 14.2433ZM223.536 16.8128C224.773 17.2622 226.008 17.7226 227.241 18.1944L227.598 17.2604C226.36 16.7866 225.12 16.3242 223.877 15.8729L223.536 16.8128ZM230.907 19.6336C232.126 20.1242 233.343 20.6262 234.557 21.1397L234.947 20.2186C233.727 19.7029 232.505 19.1987 231.281 18.7059L230.907 19.6336ZM238.179 22.7084C239.378 23.2405 240.574 23.784 241.768 24.3392L242.19 23.4324C240.991 22.8748 239.789 22.3288 238.584 21.7944L238.179 22.7084ZM245.34 26.0396C246.517 26.6129 247.691 27.1978 248.862 27.7943L249.316 26.9033C248.14 26.304 246.961 25.7165 245.778 25.1406L245.34 26.0396Z" fill="black"/>
</svg>
