<svg width="137" height="112" viewBox="0 0 137 112" fill="none" xmlns="http://www.w3.org/2000/svg">
<path d="M136.743 110.803C136.743 111.465 106.133 112.002 68.3713 112.002C47.0668 112.002 28.0353 111.829 15.496 111.561C12.6081 111.498 10.0635 111.432 7.91805 111.362C6.50517 111.316 5.26235 111.266 4.20268 111.217C1.48484 111.088 0 110.949 0 110.803C0 110.617 2.41041 110.442 6.71121 110.283C8.47405 110.22 10.5509 110.157 12.9122 110.101C16.9219 110.005 21.746 109.919 27.2046 109.846C34.9035 109.743 43.8682 109.67 53.6145 109.63C53.6178 109.63 53.6243 109.63 53.6276 109.63C58.3764 109.611 63.3085 109.604 68.368 109.604C73.4374 109.604 78.3792 109.614 83.1379 109.63C92.6847 109.667 101.483 109.74 109.074 109.839C112.674 109.885 116.004 109.938 119.013 109.998C130.028 110.21 136.743 110.492 136.743 110.803Z" fill="#C2C8D0"/>
<path d="M120.311 83.2662C120.311 83.2662 117.296 87.313 114.28 92.8667C111.628 97.7514 109.597 104.292 109.074 109.836C101.483 109.736 92.6849 109.667 83.1381 109.627C78.4775 109.581 73.516 109.554 68.3682 109.554C63.2334 109.554 58.2817 109.581 53.6277 109.627C53.6212 109.627 53.6179 109.627 53.6146 109.627C43.8683 109.663 34.9037 109.74 27.2047 109.842C15.9376 95.7743 -5.89017 71.7516 14.5869 61.8133C14.5869 61.8133 16.1012 61.3464 18.3742 60.343C24.9775 57.4254 37.978 49.9742 38.7826 36.2905C38.8545 35.0751 38.8284 33.8067 38.6943 32.492C38.6943 32.492 38.5634 31.7965 38.4293 30.6043C38.2854 29.3227 38.135 27.4682 38.135 25.2958C38.135 15.5065 41.1963 -0.717233 61.6242 0.0245766C73.9968 0.474961 85.3915 6.84989 92.2793 17.0531C99.0363 27.0609 109.839 39.3736 118.64 32.3463C120.671 30.7236 123.356 30.1208 125.865 30.8362C132.197 32.6344 139.392 41.96 120.311 83.2662Z" fill="#E4EBF9"/>
<g clip-path="url(#clip0_2018_1478)">
<path d="M77.7118 26.7793C82.8287 25.5711 85.9973 20.4435 84.7891 15.3266C83.5808 10.2096 78.4533 7.04102 73.3363 8.24928C68.2194 9.45753 65.0508 14.5851 66.259 19.702C67.4673 24.819 72.5949 27.9876 77.7118 26.7793Z" fill="#F9FBFD"/>
<path d="M76.8159 25.4805C81.2142 24.7666 84.2011 20.6224 83.4873 16.2241C82.7735 11.8258 78.6293 8.83891 74.231 9.55273C69.8326 10.2666 66.8458 14.4108 67.5596 18.8091C68.2734 23.2074 72.4176 26.1943 76.8159 25.4805Z" fill="#F7F7F7"/>
<path d="M75.8833 11.9531V17.6007L79.6349 15.503" fill="#F7F7F7"/>
<path d="M75.8833 11.9531V17.6007L79.6349 15.503" stroke="#F9FBFD" stroke-width="2" stroke-miterlimit="10" stroke-linecap="round" stroke-linejoin="round"/>
</g>
<path d="M113 104.781H109.937V104.851H113V104.781Z" fill="#EBEBEB"/>
<path d="M30.0717 101.136H14.8594V101.206H30.0717V101.136Z" fill="#EBEBEB"/>
<path d="M35.4245 101.136H33.2061V101.206H35.4245V101.136Z" fill="#EBEBEB"/>
<path d="M75.6734 102.643H42.6782V102.713H75.6734V102.643Z" fill="#EBEBEB"/>
<path d="M18.3439 97.13C18.3439 96.9898 18.8017 83.2143 21.0553 81.0411C23.2386 78.9379 25.7388 80.971 25.8444 81.0411L26.0557 80.7606C26.0205 80.7256 23.2034 78.4472 20.7736 80.7606C18.4143 83.039 17.9565 96.4991 17.9565 97.095L18.3439 97.13Z" fill="#F3F3F3"/>
<path d="M18.1679 99.8642C18.1679 99.689 19.7173 83.3196 13.6958 76.4844L13.4141 76.7297C19.33 83.4598 17.8158 99.689 17.7806 99.8642H18.1679Z" fill="#F3F3F3"/>
<path d="M18.379 98.1117L18.7311 98.0766C18.7311 97.9014 17.5691 79.4639 21.9708 75.4329L21.7243 75.1875C17.1817 79.3587 18.3086 97.3405 18.379 98.1117Z" fill="#F3F3F3"/>
<path d="M17.8157 98.1118H18.1678C18.1678 97.6211 18.027 85.6683 14.6113 83.7404C13.8718 83.3198 13.0971 83.2497 12.3928 83.5301C10.3504 84.3713 9.32922 88.0168 9.25879 88.192L9.61093 88.2972C9.61093 88.2621 10.6321 84.6517 12.5337 83.8806C13.1323 83.6352 13.7661 83.7053 14.4352 84.0909C17.6749 85.8786 17.8157 97.9716 17.8157 98.1118Z" fill="#F3F3F3"/>
<path d="M19.1187 98.1118L19.4708 98.0767C19.4708 97.9716 18.9426 88.6477 21.478 85.3528C22.0766 84.5465 22.7457 84.161 23.4499 84.2311C25.105 84.3362 26.5135 86.7548 26.5135 86.7899L26.8305 86.6146C26.76 86.5095 25.3163 84.0208 23.4852 83.8806C22.6752 83.8105 21.9005 84.2311 21.1963 85.1424C18.5905 88.5425 19.1187 97.7262 19.1187 98.1118Z" fill="#F3F3F3"/>
<path d="M18.555 99.3736C18.6255 98.4623 20.2101 77.1505 17.4282 73.3999L17.1465 73.6102C19.8579 77.2557 18.2381 99.1282 18.2029 99.3386L18.555 99.3736Z" fill="#F3F3F3"/>
<path d="M11.6533 85.6684C11.6533 85.6684 13.3435 86.2994 12.8153 87.7365C12.3223 89.1737 7.0403 91.5572 7.0403 91.5572C7.0403 91.5572 4.82184 89.5242 6.86423 86.2293C8.87141 82.9694 11.5829 84.6169 11.6533 85.6684Z" fill="#F9FBFD"/>
<path d="M18.9075 82.8992C18.9075 82.8992 17.1116 82.8291 17.0411 84.3714C16.9355 85.9137 20.9146 90.1199 20.9146 90.1199C20.9146 90.1199 23.7317 89.1034 23.1331 85.2827C22.4992 81.462 19.3652 81.9528 18.9075 82.8992Z" fill="#F9FBFD"/>
<path d="M20.4215 75.5732C20.4215 75.5732 19.2242 75.433 19.3298 74.732C19.4355 73.9959 23.9428 72.1731 26.6191 75.1526C26.6191 75.1526 24.8936 78.0619 22.4286 78.097C19.9637 78.1671 20.4215 75.5732 20.4215 75.5732Z" fill="#F9FBFD"/>
<path d="M18.203 73.8207C18.203 73.8207 19.2946 74.3465 19.5763 73.6805C19.8932 73.0145 17.0409 69.0536 13.1674 70.2103C13.1674 70.2103 13.0618 73.5753 15.1394 74.9073C17.217 76.2744 18.203 73.8207 18.203 73.8207Z" fill="#F9FBFD"/>
<path d="M23.8373 85.0727C23.8373 85.0727 23.0274 84.4067 23.9077 84.0912C24.7881 83.7757 29.1193 83.8458 29.1898 88.1573C29.1898 88.1573 24.119 88.9985 23.5204 87.3511C22.8513 85.7387 23.8373 85.0727 23.8373 85.0727Z" fill="#F9FBFD"/>
<path d="M13.5195 75.4682C13.5195 75.4682 14.3294 74.8022 13.449 74.4867C12.5687 74.1712 8.23742 74.2413 8.16699 78.5528C8.16699 78.5528 13.2378 79.394 13.8364 77.7466C14.5055 76.1342 13.5195 75.4682 13.5195 75.4682Z" fill="#F9FBFD"/>
<path d="M16.196 78.9385C16.196 78.9385 16.2665 78.1323 15.6326 78.4477C14.9988 78.7632 12.7099 81.1818 15.0692 83.4952C15.0692 83.4952 18.2384 81.1818 17.675 79.955C17.0764 78.7281 16.196 78.9385 16.196 78.9385Z" fill="#F9FBFD"/>
<path d="M24.5766 80.0599C24.5766 80.0599 24.0836 79.4289 24.7878 79.3238C25.4921 79.2537 28.7318 80.0949 27.9571 83.2847C27.9571 83.2847 24.0483 83.0043 23.8723 81.6723C23.7314 80.3754 24.5766 80.0599 24.5766 80.0599Z" fill="#F9FBFD"/>
<path d="M11.3363 109.995H24.788L26.2317 95.3076H9.89258L11.3363 109.995Z" fill="#F0F0F0"/>
<path d="M9.16826 96.9404H26.9512V93.7156H9.16826V96.9404Z" fill="#F7F7F7"/>
<path d="M31.2339 102.503L41.3754 101.521V87.3252H45.3898V101.486L55.5665 102.468C56.5877 102.573 57.3624 103.414 57.3624 104.431V105.938H43.77H43.0305H29.438V104.431C29.438 103.449 30.2127 102.608 31.2339 102.503Z" fill="#263238"/>
<path opacity="0.2" d="M31.2339 102.503L41.3754 101.521V87.3252H45.3898V101.486L55.5665 102.468C56.5877 102.573 57.3624 103.414 57.3624 104.431V105.938H43.77H43.0305H29.438V104.431C29.438 103.449 30.2127 102.608 31.2339 102.503Z" fill="white"/>
<path d="M56.3061 110.46C57.7647 110.46 58.9471 109.283 58.9471 107.831C58.9471 106.379 57.7647 105.202 56.3061 105.202C54.8475 105.202 53.665 106.379 53.665 107.831C53.665 109.283 54.8475 110.46 56.3061 110.46Z" fill="#263238"/>
<path d="M30.5297 110.46C31.9883 110.46 33.1707 109.283 33.1707 107.831C33.1707 106.379 31.9883 105.202 30.5297 105.202C29.0711 105.202 27.8887 106.379 27.8887 107.831C27.8887 109.283 29.0711 110.46 30.5297 110.46Z" fill="#263238"/>
<path d="M42.1504 90.34H44.6505C45.4604 90.34 46.0943 89.674 46.0943 88.9029V77.7212H40.6714V88.9029C40.6714 89.7091 41.3404 90.34 42.1504 90.34Z" fill="#263238"/>
<path opacity="0.3" d="M42.1504 90.34H44.6505C45.4604 90.34 46.0943 89.674 46.0943 88.9029V77.7212H40.6714V88.9029C40.6714 89.7091 41.3404 90.34 42.1504 90.34Z" fill="white"/>
<path d="M40.46 43.8956C40.5305 53.6051 41.5164 73.4096 48.524 77.721H29.0508C28.3465 77.721 27.7127 77.3354 27.3605 76.7395C25.6351 73.69 20.9164 63.4547 21.6911 43.7203C21.7968 40.811 24.2265 38.5326 27.1141 38.5326H35.0019C37.9951 38.4976 40.4248 40.9162 40.46 43.8956Z" fill="#263238"/>
<path d="M42.5729 43.8956C42.6433 53.6051 43.6293 73.4096 50.6369 77.721H30.0721C30.0721 77.721 22.8181 67.7662 23.804 43.7203C23.9097 40.811 26.3394 38.5326 29.2269 38.5326H37.1148C40.108 38.4976 42.5377 40.9162 42.5729 43.8956Z" fill="#263238"/>
<path opacity="0.3" d="M42.5729 43.8956C42.6433 53.6051 43.6293 73.4096 50.6369 77.721H30.0721C30.0721 77.721 22.8181 67.7662 23.804 43.7203C23.9097 40.811 26.3394 38.5326 29.2269 38.5326H37.1148C40.108 38.4976 42.5377 40.9162 42.5729 43.8956Z" fill="white"/>
<path d="M55.5315 75.0571H31.9736C30.9876 75.0571 30.2129 75.8283 30.2129 76.8097V79.1582H57.2922V76.8097C57.2922 75.8633 56.4823 75.0571 55.5315 75.0571Z" fill="#263238"/>
<path d="M57.7147 77.125H29.7902C29.4029 77.125 29.0859 77.4405 29.0859 77.826V78.457C29.0859 78.8426 29.4029 79.158 29.7902 79.158H57.7147C58.102 79.158 58.4189 78.8426 58.4189 78.457V77.826C58.4189 77.4405 58.102 77.125 57.7147 77.125Z" fill="#263238"/>
<path opacity="0.6" d="M57.7147 77.125H29.7902C29.4029 77.125 29.0859 77.4405 29.0859 77.826V78.457C29.0859 78.8426 29.4029 79.158 29.7902 79.158H57.7147C58.102 79.158 58.4189 78.8426 58.4189 78.457V77.826C58.4189 77.4405 58.102 77.125 57.7147 77.125Z" fill="white"/>
<path d="M67.1167 110.46H69.2647L73.1382 56.7598H70.2859L67.1167 110.46Z" fill="#263238"/>
<path opacity="0.4" d="M67.1167 110.46H69.2647L72.9622 59.4239L73.1382 56.8301H70.2859L70.1451 59.4239L67.1167 110.46Z" fill="white"/>
<path opacity="0.2" d="M70.145 59.2837H72.9621L73.1382 56.8301H70.2859L70.145 59.2837Z" fill="black"/>
<path d="M73.3847 96.5787L70.955 96.3333C70.955 96.3333 68.1027 88.5517 65.2151 81.5763C62.891 75.9329 60.6021 70.8504 59.8274 70.8153C59.6514 70.8153 59.3344 70.8854 58.8415 71.0256C54.475 72.2875 38.5584 78.8773 34.5088 74.7762C30.0015 70.2194 36.516 59.2831 36.516 59.2831C36.516 59.2831 47.3266 57.7408 48.1365 60.1945C48.3126 60.6502 48.4534 61.5966 48.5943 62.3677C48.6999 63.1038 48.8056 63.7348 48.8056 63.7348C49.1577 63.6646 60.0035 60.8605 64.2644 63.7348C68.5604 66.609 73.3847 96.5787 73.3847 96.5787Z" fill="#E4897B"/>
<path d="M77.1527 100.68C76.8005 100.504 76.4132 100.434 76.0258 100.399C76.0258 100.399 74.6877 99.6282 73.3496 96.5786H71.8706C71.3424 96.5786 70.8846 96.8941 70.7086 97.3848C70.6733 97.4549 70.6733 97.525 70.6733 97.5951C70.6733 97.9456 70.7438 98.2962 70.779 98.6817C70.9198 99.8034 71.6593 102.187 71.6593 102.187L71.9058 102.117L71.448 99.9086C71.3072 99.1725 72.0819 99.8735 72.4692 100.645C72.8214 101.416 73.42 102.152 75.0398 101.801C76.9766 101.311 77.7513 101.03 77.1527 100.68Z" fill="#2E353A"/>
<path d="M73.103 95.7724C73.103 95.7724 74.9694 99.6632 76.0258 100.399C76.0258 100.399 74.582 101.241 73.103 99.3478C71.1663 96.8941 70.7085 97.5951 70.7085 97.5951C70.7085 97.5951 70.7789 96.7539 70.955 96.3333C71.2367 95.5271 73.103 95.7724 73.103 95.7724Z" fill="#E4897B"/>
<path d="M56.6583 109.933C56.3414 109.688 56.0245 109.513 55.6371 109.407C55.6371 109.407 54.5103 108.321 53.9469 105.061L52.5031 104.71C52.0101 104.605 51.4819 104.816 51.2002 105.236C51.165 105.306 51.1298 105.341 51.0946 105.411C51.0241 105.762 50.9889 106.112 50.9537 106.463C50.8129 107.585 50.9537 110.073 50.9537 110.073H51.2002L51.2706 107.83C51.3058 107.059 51.9045 107.97 52.0806 108.776C52.2566 109.618 52.6088 110.459 54.299 110.494C56.3414 110.494 57.1513 110.389 56.6583 109.933Z" fill="#2E353A"/>
<path d="M53.8765 104.185C53.8765 104.185 54.7569 108.391 55.6372 109.373C55.6372 109.373 54.0526 109.863 53.0314 107.655C51.7285 104.816 51.1299 105.377 51.1299 105.377C51.1299 105.377 51.4116 104.57 51.6581 104.22C52.1159 103.519 53.8765 104.185 53.8765 104.185Z" fill="#E4897B"/>
<path opacity="0.1" d="M53.8765 104.185C53.8765 104.185 54.7569 108.391 55.6372 109.373C55.6372 109.373 54.0526 109.863 53.0314 107.655C51.7285 104.816 51.1299 105.377 51.1299 105.377C51.1299 105.377 51.4116 104.57 51.6581 104.22C52.1159 103.519 53.8765 104.185 53.8765 104.185Z" fill="black"/>
<path opacity="0.2" d="M65.215 81.5763C62.8909 75.9329 60.602 70.8503 59.8273 70.8152C59.6512 70.8152 59.3343 70.8853 58.8413 71.0256L58.8765 69.7637C58.8765 69.7637 61.9049 69.8688 64.1234 72.2524C65.6023 73.8998 65.4615 78.6669 65.215 81.5763Z" fill="black"/>
<path d="M42.2207 75.8628C42.2207 75.8628 54.4751 74.6009 55.7428 75.6875C57.0809 76.8442 53.8412 79.1577 51.6228 104.22L53.9469 105.026C53.9469 105.026 63.1376 77.9659 63.0672 74.3906C62.9968 70.8152 58.8416 69.7637 58.8416 69.7637C58.8416 69.7637 50.7776 74.3906 42.2207 75.8628Z" fill="#E4897B"/>
<path opacity="0.1" d="M63.0671 74.3906C63.1376 77.9659 53.9468 105.026 53.9468 105.026L51.6227 104.22C53.8412 79.1577 57.0808 76.8442 55.7427 75.6875C55.461 75.4421 54.5806 75.3019 53.4538 75.2669C51.3762 75.1968 48.383 75.337 45.9885 75.5473C43.8757 75.7226 42.2559 75.8628 42.2559 75.8628C43.3475 75.6875 44.4039 75.4421 45.4603 75.1617C52.5735 73.3039 58.6654 69.8688 58.8767 69.7637C58.8767 69.7637 62.9967 70.7802 63.0671 74.3906Z" fill="black"/>
<path opacity="0.2" d="M58.8416 69.7637C58.6656 69.9039 55.2851 72.8132 53.454 75.2669C51.3763 75.1968 48.3832 75.337 45.9887 75.5473C45.7422 75.4071 45.5661 75.2669 45.4604 75.1617C52.5736 73.3039 58.6304 69.8688 58.8416 69.7637Z" fill="black"/>
<path d="M56.5879 62.473L50.7072 78.6671C50.7072 78.6671 36.5513 78.3166 33.7694 75.4774C30.9875 72.6382 31.9735 67.9061 34.1215 64.5761C36.2696 61.2462 47.1506 60.6152 47.1506 60.6152L49.4747 63.5246C49.4395 63.5246 53.3482 62.473 56.5879 62.473Z" fill="#263238"/>
<path opacity="0.1" d="M56.5879 62.473L50.7072 78.6671C50.7072 78.6671 36.5513 78.3166 33.7694 75.4774C30.9875 72.6382 31.9735 67.9061 34.1215 64.5761C36.2696 61.2462 47.1506 60.6152 47.1506 60.6152L48.5239 62.3328L49.4043 63.4545L49.4747 63.5246C49.4395 63.5246 53.3482 62.473 56.5879 62.473Z" fill="white"/>
<path opacity="0.3" d="M49.3692 63.4542L42.4321 64.9965C42.4321 64.9965 45.8831 63.1037 48.4889 62.3325L49.3692 63.4542Z" fill="black"/>
<path d="M48.1014 60.1596L49.4395 63.5246L46.1646 64.2257L44.4391 62.438L40.6008 66.1886L31.7622 66.6092L36.4808 59.2483L36.0583 53.4997L35.5653 47.0851L35.1427 41.7222C35.1427 41.7222 39.6149 39.9345 43.3123 40.1097C47.0449 40.285 50.0029 40.7757 50.0029 40.7757C52.327 46.349 48.1014 60.1596 48.1014 60.1596Z" fill="#468AFF"/>
<path opacity="0.2" d="M48.1014 60.1596L49.4395 63.5246L46.1646 64.2257L44.4391 62.438L40.6008 66.1886L31.7622 66.6092L36.4808 59.2483L36.0583 53.4997L35.5653 47.0851L35.1427 41.7222C35.1427 41.7222 39.6149 39.9345 43.3123 40.1097C47.0449 40.285 50.0029 40.7757 50.0029 40.7757C52.327 46.349 48.1014 60.1596 48.1014 60.1596Z" fill="black"/>
<path d="M26.0225 39.8993C26.0929 40.0746 26.0225 40.2498 25.8464 40.2849L22.8181 41.3364C22.642 41.4065 22.4307 41.3014 22.3603 41.1612L19.5784 35.4126C19.508 35.2374 19.5784 35.027 19.7193 34.9569L22.7476 33.9054C22.9237 33.8353 23.135 33.9755 23.2054 34.1157L26.0225 39.8993Z" fill="#263238"/>
<path opacity="0.5" d="M22.8883 34.2557L25.7054 40.0393C25.7759 40.2146 25.7406 40.3548 25.5646 40.4249L22.994 41.3363C22.8179 41.4064 22.4658 41.4064 22.3953 41.2311L19.5783 35.4124C19.5078 35.2372 19.7543 35.0268 19.9304 34.9567L22.501 34.0454C22.6418 34.0103 22.8179 34.0804 22.8883 34.2557Z" fill="white"/>
<path d="M25.1423 46.4194L23.1 42.3182C23.1 42.3182 24.5789 39.1285 24.1211 38.7079C23.6634 38.2872 23.1704 36.7099 22.3605 36.5697C21.5153 36.4295 20.4941 40.2502 20.4941 40.5656C20.4941 40.8811 21.2688 42.809 21.2688 42.809L23.0647 48.4173L25.1423 46.4194Z" fill="#E4897B"/>
<path d="M53.8411 37.7616L52.3269 39.4441L51.1297 37.9368C51.1297 37.9368 50.9184 38.4626 50.6015 38.4977C50.2846 38.5327 48.3126 39.5492 47.9605 39.1637C47.8548 39.0235 47.7492 38.7781 47.6787 38.4626C47.5027 37.7616 47.3618 36.8502 47.3618 36.8502C47.3618 36.8502 50.6719 34.9574 51.0593 35.2378C51.0945 35.2729 51.1649 35.3079 51.2353 35.378C51.9396 35.9389 53.8411 37.7616 53.8411 37.7616Z" fill="#E4897B"/>
<path opacity="0.2" d="M51.2354 35.3428C51.0241 36.3943 50.2494 38.0067 47.6436 38.3923C47.4675 37.6913 47.3267 36.7799 47.3267 36.7799C47.3267 36.7799 50.6367 34.8871 51.0241 35.1675C51.0945 35.2026 51.165 35.2727 51.2354 35.3428Z" fill="black"/>
<path d="M60.3556 47.8561C59.2992 50.2046 55.2848 49.3633 52.5382 48.4169C50.9888 47.8911 49.7915 47.3303 49.7915 47.3303L49.8619 45.1921L50.0028 40.7755L53.1368 42.7735L55.3553 44.2106L51.2705 38.427L53.2072 36.5342C53.2424 36.5692 62.0459 44.1756 60.3556 47.8561Z" fill="#468AFF"/>
<path opacity="0.2" d="M60.3556 47.8561C59.2992 50.2046 55.2848 49.3633 52.5382 48.4169C50.9888 47.8911 49.7915 47.3303 49.7915 47.3303L49.8619 45.1921L50.0028 40.7755L53.1368 42.7735L55.3553 44.2106L51.2705 38.427L53.2072 36.5342C53.2424 36.5692 62.0459 44.1756 60.3556 47.8561Z" fill="black"/>
<path opacity="0.2" d="M52.5382 48.4517C50.9888 47.926 49.7915 47.3651 49.7915 47.3651L49.8619 45.2269L50.5662 43.5444C50.5662 43.5444 52.1156 45.963 52.5382 48.4517Z" fill="black"/>
<path opacity="0.2" d="M56.5876 46.419C56.5876 46.419 53.524 45.4025 53.1719 42.8086L55.3903 44.2457L56.5876 46.419Z" fill="black"/>
<path opacity="0.6" d="M40.5659 52.2377H41.9392C42.0801 52.2377 42.2209 52.0975 42.2209 51.9573V49.3634C42.2209 49.2232 42.0801 49.083 41.9392 49.083H40.5659C40.425 49.083 40.2842 49.2232 40.2842 49.3634V51.9573C40.2842 52.0975 40.425 52.2377 40.5659 52.2377Z" fill="white"/>
<path opacity="0.2" d="M40.5467 51.4238H42.1313V49.2856H40.5467V51.4238Z" fill="black"/>
<path d="M41.4815 48.312H41.1294V49.5739H41.4815V48.312Z" fill="#263238"/>
<path opacity="0.2" d="M36.0233 53.4996L35.5303 47.0851L36.5867 46.1387C36.6219 46.1387 37.7487 49.9594 36.0233 53.4996Z" fill="black"/>
<path opacity="0.4" d="M39.8965 41.7573C39.8965 41.7573 44.0165 51.4668 44.3334 55.0071C44.3334 55.0071 47.0449 46.5595 46.7279 42.3883L39.8965 41.7573Z" fill="white"/>
<path d="M37.7134 42.178C37.7134 42.178 38.805 38.3573 42.9954 38.7078C47.1859 39.0583 48.7705 42.9491 48.7705 42.9491L46.7985 41.9676L44.58 48.4173L40.5657 42.0377L37.7134 42.178Z" fill="#468AFF"/>
<path opacity="0.6" d="M37.7134 42.178C37.7134 42.178 38.805 38.3573 42.9954 38.7078C47.1859 39.0583 48.7705 42.9491 48.7705 42.9491L46.7985 41.9676L44.58 48.4173L40.5657 42.0377L37.7134 42.178Z" fill="white"/>
<path d="M41.1996 27.8767C41.1996 27.8767 40.9883 26.1241 38.6642 25.9839C36.3401 25.8437 34.4034 27.4911 35.7767 30.2602C37.1853 33.0644 37.2205 36.1841 35.3189 36.5346C35.3189 36.5346 39.0516 38.2522 39.7206 32.3984L41.1996 27.8767Z" fill="#263238"/>
<path d="M47.4325 27.0701C47.4325 27.0701 45.2844 24.4412 41.094 27.4206C36.9036 30.4351 40.1784 36.7095 43.4533 36.5342C46.693 36.3239 47.4325 27.0701 47.4325 27.0701Z" fill="#263238"/>
<path d="M45.7071 39.5842C45.7423 40.3203 46.024 40.8811 46.024 40.8811L44.2985 45.7884L40.2842 40.4254C41.7279 40.2502 42.5731 38.4625 42.9956 37.1305C43.2069 36.4295 43.3478 35.8686 43.3478 35.7284C43.3478 35.6934 43.3478 35.6934 43.3478 35.6934L43.4534 35.7635L46.7283 37.5862C45.8832 38.1821 45.7071 38.9182 45.7071 39.5842Z" fill="#E4897B"/>
<path opacity="0.2" d="M46.7283 37.5859C45.8831 38.1467 45.6718 38.9179 45.7071 39.5839C44.1577 39.1282 43.383 38.0416 42.9956 37.1653C43.2069 36.4642 43.3477 35.9034 43.3477 35.7632H43.4534L46.7283 37.5859Z" fill="black"/>
<path d="M43.7349 26.9301C43.7349 26.9301 46.1998 24.8269 49.0521 26.229C51.9044 27.6311 51.8692 31.8724 49.9677 33.3096C48.0661 34.7467 43.7349 26.9301 43.7349 26.9301Z" fill="#263238"/>
<path d="M45.4953 27.8414C48.4885 27.5609 49.6153 29.0331 50.1435 32.0827C50.8126 35.8683 50.214 38.6725 46.4109 38.2519C41.1993 37.6209 40.5302 28.3321 45.4953 27.8414Z" fill="#E4897B"/>
<path d="M48.1719 32.0825C48.1719 32.0825 48.6649 32.8186 49.1579 33.2392C49.1579 33.2392 48.9466 33.6599 48.4184 33.6599L48.1719 32.0825Z" fill="#DE5753"/>
<path d="M46.3056 32.048C46.3408 32.2934 46.2351 32.5037 46.0591 32.5387C45.883 32.5738 45.7422 32.3635 45.7069 32.1181C45.6717 31.8727 45.7774 31.6624 45.9534 31.6274C46.1295 31.5923 46.3056 31.8026 46.3056 32.048Z" fill="#263238"/>
<path d="M45.9185 31.6623L46.4114 31.3818C46.4114 31.3818 46.2002 31.8375 45.9185 31.6623Z" fill="#263238"/>
<path d="M49.3691 31.592C49.4043 31.8374 49.2986 32.0477 49.1226 32.0827C48.9465 32.1178 48.8056 31.9075 48.7704 31.6621C48.7352 31.4168 48.8408 31.2064 49.0169 31.1714C49.1578 31.1714 49.3338 31.3817 49.3691 31.592Z" fill="#263238"/>
<path d="M48.9463 31.2414L49.4393 30.9609C49.4393 30.9609 49.228 31.4166 48.9463 31.2414Z" fill="#263238"/>
<path d="M46.0944 29.9794C46.0944 29.9794 45.2492 29.9443 44.8267 30.5402" stroke="#263238" stroke-width="0.7247" stroke-miterlimit="10" stroke-linecap="round" stroke-linejoin="round"/>
<path d="M48.2422 29.6292C48.2422 29.6292 48.7352 29.3838 49.4395 29.7694" stroke="#263238" stroke-width="0.7247" stroke-miterlimit="10" stroke-linecap="round" stroke-linejoin="round"/>
<path d="M42.7136 33.1695C42.7136 33.1695 43.8756 30.5757 43.453 28.7179C43.453 28.7179 49.1224 25.7385 50.038 31.6623C50.038 31.6623 50.0732 26.2993 44.932 26.6849C39.7908 27.0705 40.5655 34.5366 43.4178 36.4995C43.453 36.5346 42.0093 34.7819 42.7136 33.1695Z" fill="#263238"/>
<path d="M43.277 33.7303C43.2066 33.2396 42.6432 32.5035 41.7628 32.6788C40.8473 32.854 40.6008 34.8169 42.9249 35.0273C43.277 35.0623 43.4179 34.7468 43.277 33.7303Z" fill="#E4897B"/>
<path d="M48.8056 34.817C48.6647 35.2026 48.5239 35.8686 48.5239 35.8686C48.4534 35.8686 48.383 35.8686 48.3126 35.8686C47.4322 35.8335 47.0449 35.5531 46.8688 35.2026C46.7632 35.0273 46.7632 34.8521 46.7632 34.6768C46.7632 34.5015 46.7984 34.3613 46.7984 34.3613C47.2562 34.6417 48.0661 34.7469 48.5239 34.782C48.6999 34.817 48.8056 34.817 48.8056 34.817Z" fill="#263238"/>
<path d="M48.4887 34.8171L48.3831 35.1326C47.5732 35.0975 46.9745 34.9573 46.728 34.712C46.728 34.5367 46.7632 34.3965 46.7632 34.3965C47.2562 34.6769 48.0661 34.7821 48.4887 34.8171Z" fill="white"/>
<path d="M48.3124 35.8686C47.4321 35.8336 47.0447 35.5532 46.8687 35.2026C47.1504 35.2377 47.5377 35.2727 47.8194 35.4129C48.0659 35.5532 48.242 35.6934 48.3124 35.8686Z" fill="#DE5753"/>
<path d="M50.3902 30.6458C50.3902 30.6458 49.7212 30.4005 48.5239 30.8211C48.5239 30.8211 47.9605 30.6108 47.4323 30.9263C47.0449 30.9263 46.1998 30.9613 45.1786 31.3469L42.8545 32.2232V32.4686L45.249 31.8727C45.4603 32.4686 45.9885 33.3449 46.7632 33.1696C47.8196 32.9593 47.7492 31.8376 47.6788 31.3469C47.89 31.1015 48.3478 31.0665 48.4183 31.2417C48.4887 31.6974 48.8056 32.749 49.9324 32.6789C51.0241 32.6438 50.3902 30.6458 50.3902 30.6458Z" fill="#468AFF"/>
<path opacity="0.2" d="M50.3902 30.6458C50.3902 30.6458 49.7212 30.4005 48.5239 30.8211C48.5239 30.8211 47.9605 30.6108 47.4323 30.9263C47.0449 30.9263 46.1998 30.9613 45.1786 31.3469L42.8545 32.2232V32.4686L45.249 31.8727C45.4603 32.4686 45.9885 33.3449 46.7632 33.1696C47.8196 32.9593 47.7492 31.8376 47.6788 31.3469C47.89 31.1015 48.3478 31.0665 48.4183 31.2417C48.4887 31.6974 48.8056 32.749 49.9324 32.6789C51.0241 32.6438 50.3902 30.6458 50.3902 30.6458Z" fill="black"/>
<g opacity="0.3">
<path d="M49.968 30.786L49.5103 32.5036C49.5103 32.5036 50.1793 32.7139 50.3554 32.1881C50.5315 31.6623 50.3202 30.751 50.3202 30.751C50.3202 30.751 50.1089 30.751 49.968 30.786Z" fill="white"/>
<path d="M49.8269 30.751L49.3692 32.5036C49.3692 32.5036 49.0875 32.3984 49.0522 32.2933L49.4396 30.786C49.4396 30.8211 49.7213 30.786 49.8269 30.751Z" fill="white"/>
<path d="M47.01 31.2064L46.5522 32.924C46.5522 32.924 47.2213 33.1343 47.3974 32.6085C47.5734 32.0827 47.3622 31.1714 47.3622 31.1714C47.3622 31.1714 47.1157 31.1714 47.01 31.2064Z" fill="white"/>
<path d="M46.8338 31.2065L46.376 32.9592C46.376 32.9592 46.0943 32.854 46.0591 32.7488L46.4464 31.2416C46.4464 31.2416 46.7281 31.2065 46.8338 31.2065Z" fill="white"/>
</g>
<path d="M45.3898 27.7012C45.3898 27.7012 46.0941 30.9961 43.77 32.4332" stroke="#263238" stroke-width="0.5" stroke-miterlimit="10" stroke-linecap="round" stroke-linejoin="round"/>
<path d="M45.4604 28.0515C45.4604 28.0515 44.7561 33.064 41.6573 33.3094C38.5585 33.5547 41.4812 27.9814 42.7137 26.8948C43.2419 26.4041 45.2139 25.703 45.4604 28.0515Z" fill="#263238"/>
<path d="M35.1431 41.7573C33.805 41.9326 29.5441 50.5905 28.5229 50.5905C27.5017 50.5905 24.2973 43.8605 24.2973 43.8605L21.6562 45.7883C21.6562 45.7883 24.8255 56.5844 28.4173 56.0586C32.2908 55.4978 36.5164 49.2235 36.5164 49.2235C36.5164 49.2235 36.7981 47.0152 36.5164 45.0873C36.1995 43.1244 35.1431 41.7573 35.1431 41.7573Z" fill="#468AFF"/>
<path opacity="0.2" d="M35.1431 41.7573C33.805 41.9326 29.5441 50.5905 28.5229 50.5905C27.5017 50.5905 24.2973 43.8605 24.2973 43.8605L21.6562 45.7883C21.6562 45.7883 24.8255 56.5844 28.4173 56.0586C32.2908 55.4978 36.5164 49.2235 36.5164 49.2235C36.5164 49.2235 36.7981 47.0152 36.5164 45.0873C36.1995 43.1244 35.1431 41.7573 35.1431 41.7573Z" fill="black"/>
<path d="M89.865 38.3223H82.5405V49.7843H89.865V38.3223Z" fill="white"/>
<path opacity="0.2" d="M89.865 38.3223H82.5405V49.7843H89.865V38.3223Z" fill="black"/>
<path d="M87.928 38.3223H80.6035V49.7843H87.928V38.3223Z" fill="white"/>
<path opacity="0.1" d="M87.928 38.3223H80.6035V49.7843H87.928V38.3223Z" fill="black"/>
<path d="M90.4282 38.918V54.1657H80.2515V42.8088L85.5335 38.918H90.4282Z" fill="#263238"/>
<path opacity="0.2" d="M90.4636 38.918H87.3647V54.1657H90.4636V38.918Z" fill="black"/>
<path opacity="0.4" d="M90.1112 41.3369H87.8223V42.3885H90.1112V41.3369Z" fill="white"/>
<path opacity="0.4" d="M90.1112 43.0894H87.8223V46.5595H90.1112V43.0894Z" fill="white"/>
<path opacity="0.4" d="M90.1112 47.4707H87.8223V48.3821H90.1112V47.4707Z" fill="white"/>
<path d="M84.5827 37.9717H77.2583V49.4338H84.5827V37.9717Z" fill="white"/>
<path opacity="0.2" d="M84.5827 37.9717H77.2583V49.4338H84.5827V37.9717Z" fill="black"/>
<path d="M82.6457 37.9717H75.3213V49.4338H82.6457V37.9717Z" fill="white"/>
<path opacity="0.1" d="M82.6457 37.9717H75.3213V49.4338H82.6457V37.9717Z" fill="black"/>
<path d="M85.146 38.918V54.1657H74.9692V42.8088L80.2513 38.918H85.146Z" fill="#468AFF"/>
<path opacity="0.2" d="M85.1813 38.918H82.0825V54.1657H85.1813V38.918Z" fill="black"/>
<path opacity="0.4" d="M84.8289 41.3369H82.54V42.3885H84.8289V41.3369Z" fill="white"/>
<path opacity="0.4" d="M84.8289 43.0894H82.54V46.5595H84.8289V43.0894Z" fill="white"/>
<path opacity="0.4" d="M84.8289 47.4707H82.54V48.3821H84.8289V47.4707Z" fill="white"/>
<path d="M68.1729 110.459H70.3562L70.7083 56.7593H67.8208L68.1729 110.459Z" fill="#263238"/>
<path opacity="0.5" d="M67.8208 56.8296L67.8912 65.4875L68.1729 110.46H70.3562L70.6379 65.4875L70.7083 56.8296H67.8208Z" fill="white"/>
<path opacity="0.2" d="M67.8208 56.8296L67.8912 65.5926H70.6379L70.7083 56.8296H67.8208Z" fill="black"/>
<path d="M45.2842 110.459H47.4322L51.3057 56.7593H48.4534L45.2842 110.459Z" fill="#263238"/>
<path opacity="0.5" d="M45.2842 110.46H47.4322L51.1297 59.4235L51.3057 56.8296H48.4534L48.3126 59.4235L45.2842 110.46Z" fill="white"/>
<path opacity="0.2" d="M48.3125 59.2832H51.1296L51.3057 56.8296H48.4534L48.3125 59.2832Z" fill="black"/>
<path d="M91.8012 110.459H93.9493L90.78 56.7593H87.9277L91.8012 110.459Z" fill="#263238"/>
<path opacity="0.5" d="M87.9277 56.8296L88.1038 59.4235L91.8012 110.46H93.9493L90.9561 59.4235L90.78 56.8296H87.9277Z" fill="white"/>
<path opacity="0.2" d="M90.78 56.8296H87.9277L88.1038 59.2832H90.9561L90.78 56.8296Z" fill="black"/>
<path d="M46.9392 58.0916H92.2944C92.717 58.0916 93.0691 57.7411 93.0691 57.3205V55.3926H46.1997V57.3205C46.1997 57.7411 46.5166 58.0916 46.9392 58.0916Z" fill="#468AFF"/>
<path opacity="0.6" d="M46.9392 58.0916H92.2944C92.717 58.0916 93.0691 57.7411 93.0691 57.3205V55.3926H46.1997V57.3205C46.1997 57.7411 46.5166 58.0916 46.9392 58.0916Z" fill="white"/>
<path opacity="0.2" d="M46.1706 56.7568L93.04 56.7568V55.4248L46.1706 55.4248V56.7568Z" fill="black"/>
<path d="M44.8616 55.743H94.4073C94.8298 55.743 95.182 55.3925 95.182 54.9718C95.182 54.5512 94.8298 54.2007 94.4073 54.2007H44.8616C44.439 54.2007 44.0869 54.5512 44.0869 54.9718C44.0869 55.4275 44.439 55.743 44.8616 55.743Z" fill="#468AFF"/>
<path opacity="0.6" d="M44.8616 55.743H94.4073C94.8298 55.743 95.182 55.3925 95.182 54.9718C95.182 54.5512 94.8298 54.2007 94.4073 54.2007H44.8616C44.439 54.2007 44.0869 54.5512 44.0869 54.9718C44.0869 55.4275 44.439 55.743 44.8616 55.743Z" fill="white"/>
<path d="M79.6526 52.7983V53.7097C79.6526 53.9901 79.1597 54.2004 78.9132 54.2004H57.1511C56.8694 54.2004 56.4116 53.9901 56.4116 53.7097V52.7983H79.6526Z" fill="#263238"/>
<path opacity="0.6" d="M79.6526 52.7983V53.7097C79.6526 53.9901 79.1597 54.2004 78.9132 54.2004H57.1511C56.8694 54.2004 56.4116 53.9901 56.4116 53.7097V52.7983H79.6526Z" fill="white"/>
<path opacity="0.2" d="M79.6528 52.7983V53.7097C79.6528 53.9901 79.1598 54.2004 78.9133 54.2004H64.5461C64.2644 54.2004 63.8066 53.9901 63.8066 53.7097V52.7983H79.6528Z" fill="black"/>
<path d="M83.1386 41.4066L80.5328 53.1491C80.4623 53.5346 80.075 53.8501 79.6876 53.8501H65.5317C65.1444 53.8501 64.8979 53.4645 65.0035 53.079L67.5741 41.4767C67.6446 41.0911 68.0319 40.9158 68.4193 40.9158H82.5752C82.9977 40.8808 83.2442 41.021 83.1386 41.4066Z" fill="#263238"/>
<path opacity="0.6" d="M83.1386 41.4066L80.5328 53.1491C80.4623 53.5346 80.075 53.8501 79.6876 53.8501H65.5317C65.1444 53.8501 64.8979 53.4645 65.0035 53.079L67.5741 41.4767C67.6446 41.0911 68.0319 40.9158 68.4193 40.9158H82.5752C82.9977 40.8808 83.2442 41.021 83.1386 41.4066Z" fill="white"/>
<path opacity="0.4" d="M83.1388 41.4066L80.5329 53.1491C80.4625 53.5346 80.0752 53.8501 79.6878 53.8501H66.0249C65.6376 53.8501 65.3911 53.4645 65.4967 53.079L68.1025 41.4767C68.1729 41.0911 68.5603 40.9158 68.9476 40.9158H82.6105C82.9979 40.8808 83.2444 41.021 83.1388 41.4066Z" fill="white"/>
<path opacity="0.2" d="M74.8285 48.9428C75.4976 48.9428 76.1666 48.2417 76.3427 47.3654C76.5188 46.4891 76.1314 45.7881 75.4624 45.7881C75.3215 45.7881 75.2159 45.8231 75.1102 45.8582C74.9694 46.5242 74.4764 47.1201 73.9834 47.2953C73.9834 47.3304 73.9834 47.3304 73.9482 47.3654C73.7721 48.2417 74.1595 48.9428 74.8285 48.9428Z" fill="black"/>
<path d="M31.6921 77.7912C31.3047 77.7912 30.9878 77.4757 30.9878 77.0901C31.1286 69.0982 33.7697 63.8755 34.7909 62.1228C35.0022 61.7723 35.4599 61.6672 35.8121 61.9125L35.8473 61.9476C36.1642 62.1579 36.2346 62.5435 36.0586 62.8589C35.143 64.4713 32.6076 69.4838 32.4316 77.1252C32.3963 77.4757 32.0794 77.7912 31.6921 77.7912Z" fill="#263238"/>
<g opacity="0.2">
<path d="M31.6921 77.7912C31.3047 77.7912 30.9878 77.4757 30.9878 77.0901C31.1286 69.0982 33.7697 63.8755 34.7909 62.1228C35.0022 61.7723 35.4599 61.6672 35.8121 61.9125L35.8473 61.9476C36.1642 62.1579 36.2346 62.5435 36.0586 62.8589C35.143 64.4713 32.6076 69.4838 32.4316 77.1252C32.3963 77.4757 32.0794 77.7912 31.6921 77.7912Z" fill="white"/>
</g>
<path d="M40.6714 62.999H21.163C20.5292 62.999 20.001 62.4732 20.001 61.8423C20.001 61.2113 20.5292 60.6855 21.163 60.6855H40.6714C41.3053 60.6855 41.8335 61.2113 41.8335 61.8423C41.8335 62.5083 41.3053 62.999 40.6714 62.999Z" fill="#263238"/>
<path opacity="0.6" d="M40.6714 62.999H21.163C20.5292 62.999 20.001 62.4732 20.001 61.8423C20.001 61.2113 20.5292 60.6855 21.163 60.6855H40.6714C41.3053 60.6855 41.8335 61.2113 41.8335 61.8423C41.8335 62.5083 41.3053 62.999 40.6714 62.999Z" fill="white"/>
<defs>
<clipPath id="clip0_2018_1478">
<rect width="19" height="19" fill="white" transform="translate(66 8)"/>
</clipPath>
</defs>
</svg>
