<svg width="137" height="112" viewBox="0 0 137 112" fill="none" xmlns="http://www.w3.org/2000/svg">
<path d="M136.743 110.803C136.743 111.465 106.133 112.002 68.3713 112.002C47.0668 112.002 28.0353 111.829 15.496 111.561C12.6081 111.498 10.0635 111.432 7.91805 111.362C6.50517 111.316 5.26235 111.266 4.20268 111.217C1.48484 111.088 0 110.949 0 110.803C0 110.617 2.41041 110.442 6.71121 110.283C8.47405 110.22 10.5509 110.157 12.9122 110.101C16.9219 110.005 21.746 109.919 27.2046 109.846C34.9035 109.743 43.8682 109.67 53.6145 109.63C53.6178 109.63 53.6243 109.63 53.6276 109.63C58.3764 109.611 63.3085 109.604 68.368 109.604C73.4374 109.604 78.3792 109.614 83.1379 109.63C92.6847 109.667 101.483 109.74 109.074 109.839C112.674 109.885 116.004 109.938 119.013 109.998C130.028 110.21 136.743 110.492 136.743 110.803Z" fill="#C2C8D0"/>
<path d="M120.312 83.2662C120.312 83.2662 117.296 87.313 114.281 92.8667C111.629 97.7514 109.597 104.292 109.074 109.836C101.483 109.736 92.6853 109.667 83.1385 109.627C78.478 109.581 73.5165 109.554 68.3686 109.554C63.2338 109.554 58.2822 109.581 53.6282 109.627C53.6216 109.627 53.6184 109.627 53.6151 109.627C43.8688 109.663 34.9042 109.74 27.2052 109.842C15.9381 95.7743 -5.88968 71.7516 14.5874 61.8133C14.5874 61.8133 16.1016 61.3464 18.3747 60.343C24.978 57.4254 37.9785 49.9742 38.7831 36.2905C38.855 35.0751 38.8288 33.8067 38.6948 32.492C38.6948 32.492 38.5639 31.7965 38.4298 30.6043C38.2859 29.3227 38.1355 27.4682 38.1355 25.2958C38.1355 15.5065 41.1967 -0.717233 61.6247 0.0245766C73.9973 0.474961 85.392 6.84989 92.2798 17.0531C99.0368 27.0609 109.84 39.3736 118.641 32.3463C120.672 30.7236 123.357 30.1208 125.865 30.8362C132.197 32.6344 139.392 41.96 120.312 83.2662Z" fill="#E4EBF9"/>
<g clip-path="url(#clip0_2469_27)">
<path d="M120.349 81.2718H120.882L120.944 68.7403L120.38 68.709L120.349 81.2718Z" fill="white"/>
<path d="M116.932 81.2406H117.496L117.527 68.7091L116.994 68.6777L116.932 81.2406Z" fill="white"/>
<path d="M122.073 68.4583C122.073 68.1763 121.884 67.9884 121.602 67.9884L116.367 67.957C116.211 67.957 116.023 68.0197 115.897 68.145C115.772 68.2703 115.678 68.4583 115.678 68.6149C115.678 68.8969 115.866 69.0849 116.148 69.0849L121.383 69.1162C121.54 69.1162 121.728 69.0535 121.853 68.9282C121.978 68.8029 122.073 68.6149 122.073 68.4583Z" fill="#1A0C54"/>
<path d="M126.649 108.403V107.933C126.649 107.807 126.554 107.713 126.429 107.713C126.304 107.713 126.21 107.807 126.21 107.933V108.371C126.116 108.371 125.99 108.371 125.865 108.371C125.426 108.371 125.05 108.716 125.05 109.186C125.05 109.624 125.395 110 125.865 110C125.896 110 126.429 110 126.429 110C126.868 110 127.244 109.656 127.244 109.186C127.244 108.81 126.993 108.497 126.649 108.403Z" fill="#00327D"/>
<path d="M123.671 108.371V107.901C123.671 107.776 123.577 107.682 123.452 107.682C123.326 107.682 123.232 107.776 123.232 107.901V108.34C123.138 108.34 123.013 108.34 122.887 108.34C122.448 108.34 122.072 108.685 122.072 109.155C122.072 109.593 122.417 109.969 122.887 109.969C122.919 109.969 123.452 109.969 123.452 109.969C123.89 109.969 124.267 109.625 124.267 109.155C124.267 108.779 124.016 108.465 123.671 108.371Z" fill="#00327D"/>
<path d="M113.577 108.277V107.807C113.577 107.682 113.483 107.588 113.358 107.588C113.232 107.588 113.138 107.682 113.138 107.807V108.246C113.044 108.246 112.919 108.246 112.794 108.246C112.355 108.246 111.979 108.59 111.979 109.06C111.979 109.499 112.323 109.875 112.794 109.875C112.825 109.875 113.358 109.875 113.358 109.875C113.797 109.875 114.173 109.53 114.173 109.06C114.173 108.684 113.922 108.371 113.577 108.277Z" fill="#00327D"/>
<path d="M110.568 108.246V107.776C110.568 107.651 110.474 107.557 110.349 107.557C110.223 107.557 110.129 107.651 110.129 107.776V108.215C110.035 108.215 109.91 108.215 109.784 108.215C109.345 108.215 108.969 108.559 108.969 109.029C108.969 109.468 109.314 109.844 109.784 109.844C109.816 109.844 110.349 109.844 110.349 109.844C110.787 109.844 111.164 109.499 111.164 109.029C111.195 108.684 110.913 108.371 110.568 108.246Z" fill="#00327D"/>
<path d="M109.627 108.089L112.574 108.121L112.825 81.1466L109.878 81.1152C108.405 81.1152 107.182 82.3057 107.151 83.7782L106.963 105.364C106.963 106.836 108.154 108.058 109.627 108.089Z" fill="#468AFF"/>
<path d="M112.574 108.089L126.085 108.215C127.558 108.215 128.781 107.024 128.812 105.552L129 83.9662C129 82.4937 127.809 81.2719 126.336 81.2405L112.825 81.1152L112.574 108.089Z" fill="#3468BF"/>
<path d="M126.398 105.583C126.68 105.583 126.9 105.364 126.9 105.082L127.088 84.4051C127.088 84.1231 126.868 83.9038 126.586 83.9038C126.304 83.9038 126.085 84.1231 126.085 84.4051L125.896 105.113C125.896 105.364 126.116 105.583 126.398 105.583Z" fill="#468AFF"/>
<path d="M122.605 105.552C122.887 105.552 123.107 105.332 123.107 105.05L123.295 84.3421C123.295 84.0601 123.075 83.8408 122.793 83.8408C122.511 83.8408 122.292 84.0601 122.292 84.3421L122.104 105.05C122.104 105.332 122.323 105.552 122.605 105.552Z" fill="#468AFF"/>
<path d="M118.812 105.52C119.094 105.52 119.314 105.301 119.314 105.019L119.502 84.3108C119.502 84.0289 119.282 83.8096 119 83.8096C118.718 83.8096 118.499 84.0289 118.499 84.3108L118.311 105.019C118.311 105.301 118.53 105.52 118.812 105.52Z" fill="#468AFF"/>
<path d="M115.019 105.489C115.301 105.489 115.521 105.27 115.521 104.988L115.709 84.2796C115.709 83.9976 115.489 83.7783 115.207 83.7783C114.925 83.7783 114.706 83.9976 114.706 84.2796L114.518 104.988C114.518 105.27 114.737 105.489 115.019 105.489Z" fill="#468AFF"/>
<path d="M107.07 93.8637L107.058 95.2422L128.907 95.4353L128.919 94.0568L107.07 93.8637Z" fill="#9EBFFF"/>
<path d="M107.083 93.8681L107.071 95.2466L112.682 95.2962L112.695 93.9177L107.083 93.8681Z" fill="#BCCEFF"/>
<path d="M108.248 92.3624H109.596C109.753 92.3624 109.909 92.2371 109.909 92.0491C109.909 91.8925 109.784 91.7358 109.596 91.7358H108.248C108.091 91.7358 107.935 91.8612 107.935 92.0491C107.935 92.2371 108.06 92.3624 108.248 92.3624Z" fill="#BCCEFF"/>
<path d="M108.186 97.4064H109.533C109.69 97.4064 109.847 97.281 109.847 97.0931C109.847 96.9364 109.722 96.7798 109.533 96.7798H108.186C108.029 96.7798 107.872 96.9051 107.872 97.0931C107.903 97.2497 108.029 97.4064 108.186 97.4064Z" fill="#BCCEFF"/>
<path d="M108.06 97.9074C108.342 97.9074 108.562 97.6881 108.562 97.4061L108.624 91.7356C108.624 91.4537 108.405 91.2344 108.123 91.2344C107.841 91.2344 107.621 91.4537 107.621 91.7356L107.559 97.4061C107.559 97.6881 107.778 97.9074 108.06 97.9074Z" fill="#00327D"/>
<path d="M117.37 64.3226C117.59 64.0719 117.903 64.0093 118.185 64.0093C119.094 64.0719 119.909 64.8865 120.254 66.077C120.411 66.6096 120.442 67.2675 120.223 67.8314C119.815 68.8966 118.875 69.2099 118.311 68.8026C117.652 68.3953 117.057 64.6985 117.37 64.3226Z" fill="#FF9885"/>
<path d="M105.992 52.7309C109.252 57.0856 112.7 61.409 117.339 65.607C117.998 65.3564 118.562 65.2937 119.189 64.4479C117.559 62.4741 112.637 56.1771 109.158 51.0078C107.559 51.7284 107.653 52.3549 105.992 52.7309Z" fill="#FE9B88"/>
<path d="M109.628 51.0079C107.841 48.439 106.712 46.5279 105.396 44.8048C102.982 43.3324 102.794 42.8624 99.7534 43.2384C101.352 47.0292 103.358 50.35 105.772 53.4202C107.245 52.8563 108.405 52.0105 109.628 51.0079Z" fill="#9EBFFF"/>
<path d="M86.4621 41.1709C84.8634 42.4554 84.5813 44.2411 84.3305 45.9329C83.9857 48.2825 83.6722 50.6009 83.3274 52.9505C82.3556 59.6236 87.3398 63.2577 92.418 63.665C95.3647 63.8843 90.5686 62.9444 94.0481 61.8479C97.747 60.6887 99.283 57.6499 100.129 54.8929C101.133 51.6034 101.728 48.2825 101.916 44.9304C101.979 43.6772 101.979 42.3927 101.164 41.2649C98.8442 38.1634 89.3147 38.8839 86.4621 41.1709Z" fill="#468AFF"/>
<path d="M88.5624 41.5467C87.3399 42.7998 87.0891 44.5543 86.901 46.2147C86.6502 48.5017 86.3681 50.82 86.1173 53.107C85.8666 55.2374 85.6785 57.5244 86.807 59.4354C88.1863 61.7224 91.6971 62.9129 94.393 61.8477C97.2456 60.6886 98.4368 57.7123 99.095 54.9867C99.8787 51.7599 100.349 48.5017 100.474 45.2122C100.537 43.9903 100.537 42.7059 99.8787 41.6093C98.1233 38.5705 90.7567 39.291 88.5624 41.5467Z" fill="#3468BF"/>
<path d="M91.3524 32.5242C91.7599 31.177 92.4182 29.9552 93.4213 29.0467C94.1423 28.3888 94.8632 28.2635 95.741 28.1068C96.2739 27.3863 96.7441 26.8537 97.5904 26.3837C98.5935 25.8512 100.286 25.5692 101.227 26.1644C103.233 27.4489 103.578 29.5479 103.515 31.553C103.358 35.2498 102.418 38.226 100.694 41.4216C100.6 41.5782 99.3772 41.5469 99.1578 41.5469C98.5622 41.5155 98.0293 41.5782 97.4964 41.5469C96.3993 41.4842 95.4588 41.4529 94.4557 41.0456C92.7003 40.325 91.3524 39.3539 90.8195 37.3488C90.412 35.7824 90.8822 34.0593 91.3524 32.5242Z" fill="#00327D"/>
<path d="M92.2615 41.9542C94.5812 39.8239 98.3742 38.978 101.603 40.1998C103.108 40.7638 104.267 41.8289 105.051 43.1134C106.054 44.7738 107.089 46.9668 107.183 48.8779C107.245 49.9744 106.869 51.1649 106.054 51.9795C105.803 55.8329 104.926 62.0986 104.832 62.8819C104.738 63.7591 91.2898 62.9759 91.2898 62.3806C91.2271 58.5898 87.7789 46.0583 92.2615 41.9542Z" fill="#BCCEFF"/>
<path d="M96.0854 39.9176C96.0854 39.949 96.0854 39.949 96.0854 39.9803C96.2735 42.7686 100.349 43.0505 100.913 40.3249C100.944 40.2309 100.944 40.1056 100.976 40.0116C99.3455 39.5104 97.6528 39.5417 96.0854 39.9176Z" fill="#FF9885"/>
<path d="M96.8378 40.2621C96.7751 39.7295 96.7124 37.1606 96.7124 36.4087L100.944 34.4663C100.882 36.0641 100.599 38.4137 100.349 39.9802C100.317 40.1995 99.8158 40.7007 99.2515 41.202C98.3738 41.9852 96.9632 41.4526 96.8378 40.2935V40.2621Z" fill="#FF9885"/>
<path d="M99.5652 35.2184C98.4368 35.7823 96.7127 36.1269 96.7127 36.1269C96.7127 36.6908 96.6813 37.2234 96.7127 38.1633C96.7127 38.3199 96.8067 39.9177 96.838 40.1997C97.3396 40.137 97.8098 39.9804 98.2487 39.7297C99.3145 39.1345 100.004 38.0693 100.474 36.7535C100.537 35.9076 100.537 35.563 100.568 34.7798C100.255 34.9364 99.9101 35.0931 99.5652 35.2184Z" fill="#FF785E"/>
<path d="M101.885 29.0778C101.853 28.8899 101.822 28.7019 101.791 28.5452C101.54 27.3547 101.038 27.4174 99.7531 26.8535C98.8754 26.4775 97.841 26.6029 96.9319 26.8535C96.6498 26.9161 96.399 27.0101 96.1482 27.1041C95.584 27.3234 94.9884 27.3547 94.3928 27.2921C93.9539 27.2294 94.236 28.2006 94.0166 28.6079C93.421 29.8297 90.4744 39.197 96.8379 38.7897C97.9977 38.7271 101.885 36.9727 101.979 33.4639C101.947 31.9914 102.136 30.5189 101.885 29.0778Z" fill="#FF9885"/>
<path d="M98.7498 33.2759C98.7812 33.5578 98.6244 33.8085 98.4363 33.8398C98.2483 33.8398 98.0915 33.6205 98.0602 33.3385C98.0288 33.0566 98.1856 32.806 98.3736 32.7746C98.5617 32.7433 98.7185 32.9939 98.7498 33.2759Z" fill="#00327D"/>
<path d="M94.5807 33.2759C94.5493 33.5578 94.7061 33.8085 94.8941 33.8398C95.0822 33.8398 95.239 33.6205 95.2703 33.3385C95.3017 33.0566 95.1449 32.806 94.9568 32.7746C94.7688 32.7433 94.612 32.9939 94.5807 33.2759Z" fill="#00327D"/>
<path d="M94.1732 31.5843C94.0792 31.5843 93.9852 31.5216 93.9852 31.4276C93.9538 31.3336 94.0478 31.2083 94.1419 31.2083C94.5181 31.1457 95.051 31.083 95.6152 31.083C95.7092 31.083 95.8033 31.177 95.8033 31.271C95.8033 31.365 95.7092 31.459 95.6152 31.459C95.1137 31.459 94.5808 31.5216 94.2046 31.5843C94.1732 31.5843 94.1732 31.5843 94.1732 31.5843Z" fill="#00327D"/>
<path d="M99.0632 31.5841H99.0318C98.687 31.5215 98.1541 31.4588 97.6212 31.4588C97.5271 31.4588 97.4331 31.3648 97.4331 31.2709C97.4331 31.1769 97.5271 31.0829 97.6212 31.0829C98.1854 31.0516 98.7183 31.1455 99.0945 31.2082C99.1885 31.2395 99.2826 31.3335 99.2512 31.4275C99.2512 31.5215 99.1572 31.5841 99.0632 31.5841Z" fill="#00327D"/>
<path d="M96.493 34.5603C96.2422 34.5603 96.1169 34.435 96.0542 34.341C95.8661 33.9651 96.3049 33.2759 96.399 33.1505C96.4303 33.0879 96.5244 33.0879 96.5871 33.1192C96.6498 33.1505 96.6498 33.2445 96.6184 33.3072C96.4303 33.5891 96.2109 34.0591 96.3049 34.247C96.3049 34.2784 96.3363 34.341 96.5244 34.341C96.5871 34.341 96.6498 34.4037 96.6498 34.4663C96.6498 34.529 96.5557 34.5603 96.493 34.5603Z" fill="#FF785E"/>
<path d="M101.697 34.3409C101.854 34.5289 103.202 34.1843 103.076 32.4925C102.982 31.3334 102.042 31.2707 101.603 31.7406C100.882 32.4925 101.195 33.777 101.697 34.3409Z" fill="#FF9885"/>
<path d="M102.355 33.8082H102.324C102.073 33.7142 101.854 33.4949 101.76 33.1503C101.666 32.7744 101.728 32.2418 102.073 31.8658C102.136 31.8032 102.198 31.8032 102.261 31.8658C102.324 31.9285 102.324 31.9912 102.261 32.0538C101.979 32.3358 101.948 32.7744 102.01 33.0877C102.073 33.3383 102.199 33.5263 102.387 33.5576C102.449 33.5889 102.481 33.6516 102.481 33.7142C102.449 33.7769 102.418 33.8082 102.355 33.8082Z" fill="#FF785E"/>
<path d="M96.7441 35.4061C96.2425 35.4061 95.741 35.2495 95.3961 34.9049C95.3334 34.8422 95.3334 34.7796 95.3961 34.7169C95.4588 34.6543 95.5215 34.6543 95.5842 34.7169C96.1485 35.2808 97.3083 35.2808 98.0606 34.7169C98.1233 34.6856 98.186 34.6856 98.2487 34.7482C98.2801 34.8109 98.2801 34.8736 98.2174 34.9362C97.7785 35.2495 97.2456 35.4061 96.7441 35.4061Z" fill="#FF785E"/>
<path d="M99.8785 29.0464C99.7217 30.4875 99.1575 33.3698 101.947 32.8999C103.107 32.7119 103.389 31.9913 103.358 31.4274C103.295 30.2682 102.95 29.673 102.48 28.6391C102.135 27.9186 100.944 26.3835 100.098 27.0727C99.1888 27.8246 100.035 27.668 99.8785 29.0464Z" fill="#00327D"/>
<path d="M93.515 26.6029C94.6121 25.3811 96.1795 24.5979 97.8095 24.5039C98.7813 24.4412 99.8471 24.6605 100.568 25.3184C101.164 25.851 101.446 26.6969 101.352 27.4801C101.32 27.7308 101.32 28.0127 101.164 28.232C99.2201 31.0829 93.8285 30.4564 92.8567 30.2684C91.1326 29.9238 92.9821 27.1982 93.515 26.6029Z" fill="#00327D"/>
<path d="M93.6094 51.9165C97.4964 53.6709 101.164 54.2975 105.208 52.2298C100.945 52.8564 98.5309 52.8564 93.6094 51.9165Z" fill="#9EBFFF"/>
<path d="M93.7974 55.6759C94.9259 54.7987 95.6156 53.4516 95.929 52.0418C96.2425 50.632 96.1485 49.1909 95.929 47.7811C95.5215 45.2748 94.6751 42.8624 93.3899 40.6694C92.6376 41.0454 92.1047 41.6406 91.7285 42.3925C94.2363 46.3086 95.1767 51.2272 93.7974 55.6759Z" fill="#3468BF"/>
<path d="M105.458 51.1021C104.957 46.6534 104.33 42.612 104.299 42.1107C104.236 41.6408 103.609 41.0769 103.139 40.9829C103.389 44.0531 104.079 47.3426 105.082 50.2876C105.208 50.7262 105.239 50.7262 105.458 51.1021Z" fill="#3468BF"/>
<path d="M104.173 62.6309L96.9009 63.6334L99.1265 107.306C99.3146 107.901 101.478 108.903 101.634 108.089L101.164 107.118L104.173 62.6309Z" fill="#FE9B88"/>
<path d="M96.5561 85.6575C96.8695 82.5247 97.904 74.5672 98.6563 67.8315C96.2112 67.6435 93.5781 66.6096 90.8822 67.1109C91.3211 72.6561 91.5092 81.8668 91.5719 85.031C91.5719 85.5322 91.5092 86.0335 91.3838 86.5347C90.7255 89.1977 86.5563 106.773 86.4937 106.93C86.7758 106.93 88.0924 107.306 88.4685 107.431C91.039 101.259 95.1141 89.7303 96.1172 87.3493C96.368 86.8167 96.4934 86.2528 96.5561 85.6575Z" fill="#FE9B88"/>
<path d="M104.957 82.9633C104.142 83.3706 91.5403 82.932 88.1862 82.0548C88.1862 82.0548 86.5248 65.1686 91.2269 61.6284C95.6782 62.2237 99.5339 62.4116 104.988 61.6284C105.772 69.022 104.957 82.9633 104.957 82.9633Z" fill="#00327D"/>
<path d="M88.8133 106.804C89.7851 107.274 90.9449 107.964 91.4465 108.935C91.3524 108.904 91.0076 109.091 90.9136 109.123C89.4089 109.248 87.6535 109.185 86.1802 108.747C85.9921 108.308 86.4936 106.898 86.6817 106.491C86.9952 106.617 87.0892 107.149 87.3714 107.024C87.6848 106.898 87.9669 106.742 88.2804 106.742C88.4685 106.711 88.6566 106.742 88.8133 106.804Z" fill="#FE9B88"/>
<path d="M90.443 107.713C89.8787 108.339 88.6249 108.935 86.3365 108.559C86.1484 108.527 85.9917 108.653 85.9917 108.841C85.9917 108.903 85.9917 108.966 85.9917 108.966C85.9917 109.091 87.3396 109.405 89.0324 109.655C90.5997 109.906 91.885 110.031 92.073 109.937C92.1044 109.937 92.1044 109.937 92.1044 109.937C92.1357 109.436 92.073 108.245 91.0699 107.901C90.9132 107.87 90.443 107.713 90.443 107.713Z" fill="#00327D"/>
<path d="M105.96 108.653C103.923 107.494 101.572 106.867 99.2832 106.617C99.0638 107.4 98.8443 108.308 99.0951 109.342L99.5026 109.374C101.916 109.844 104.393 109.875 106.775 109.468C106.681 109.092 106.305 108.841 105.96 108.653Z" fill="#FE9B88"/>
<path d="M103.985 107.494C103.734 107.995 103.578 108.559 103.546 109.123C102.825 109.217 102.104 109.279 101.352 109.279C100.694 109.279 100.035 109.217 99.3772 109.123C99.2831 109.123 99.1891 109.091 99.095 109.091C98.907 109.06 98.7816 109.217 98.8129 109.405C98.8756 109.655 99.4712 109.687 99.6279 109.718C100.192 109.812 100.756 109.875 101.321 109.906C102.731 110 104.142 110.031 105.553 110C106.085 109.969 106.65 109.906 107.151 109.812C107.151 109.812 107.151 109.812 107.183 109.812C107.057 108.371 104.173 107.556 103.985 107.494Z" fill="#00327D"/>
<path d="M107.841 58.934C107.809 57.7749 107.809 56.6157 107.809 55.4565C105.082 56.1771 101.853 56.7724 98.2485 57.0856C98.3426 57.9002 98.4993 59.0594 98.656 60.4378C101.759 60.6258 104.925 60.1245 107.841 58.934Z" fill="#3468BF"/>
<path d="M107.778 60.4692C107.904 59.31 108.06 58.1509 108.217 56.9917C105.427 57.3676 102.136 57.5556 98.5309 57.399C98.5309 58.2135 98.4995 59.404 98.4995 60.7512C101.572 61.3464 104.769 61.2524 107.778 60.4692Z" fill="#468AFF"/>
<path d="M97.2768 57.9002L96.4932 59.5606C98.0919 60.1245 100.568 61.0331 101.759 59.3726C102.449 58.3701 98.4994 57.6809 97.2768 57.9002Z" fill="#FE9B88"/>
<path d="M91.0386 43.5518C91.6655 44.335 92.4492 48.0004 92.4492 49.003C92.2925 50.4754 91.4148 52.0105 90.4117 55.4254C93.0448 56.0206 96.2736 57.2424 97.9036 57.8377C97.9663 58.5582 97.0886 59.4981 97.0886 59.6547C96.4616 59.4668 90.2236 59.4668 86.7754 57.4304C87.2769 53.0757 88.9383 47.2172 91.0386 43.5518Z" fill="#FE9B88"/>
<path d="M91.133 53.4829C91.76 51.9791 92.3556 50.0367 92.4496 49.0342C92.4496 48.0317 91.6659 44.3662 91.039 43.583C89.6911 45.9327 88.2491 49.3475 87.2773 52.637C88.5626 52.919 89.8478 53.2009 91.133 53.4829Z" fill="#BCCEFF"/>
<path d="M37.8743 65.4194C38.5012 64.7302 42.1061 62.0359 42.2942 62.8191L41.9807 64.6362C41.73 66.0773 40.4761 67.1425 39.0028 67.0799H38.9714C38.0624 67.0485 37.216 66.1713 37.8743 65.4194Z" fill="#FF9885"/>
<path d="M40.2879 66.8916L38.7832 75.7263H39.849L41.3537 66.8916H40.2879Z" fill="white"/>
<path d="M34.708 75.7263H35.7738L37.2785 66.8916H36.1813L34.708 75.7263Z" fill="white"/>
<path d="M42.2939 66.4531C42.1998 66.3278 42.0431 66.2651 41.8864 66.2651H35.5229C35.2408 66.2651 34.99 66.4844 34.9273 66.7664L34.7706 67.6749C34.7392 67.8316 34.7706 67.9882 34.896 68.1135C34.99 68.2388 35.1467 68.3015 35.3035 68.3015C35.5856 68.3015 35.8677 68.0822 35.8991 67.8002L35.9618 67.4556H41.1654L41.134 67.7063C41.1027 67.8629 41.134 68.0195 41.2594 68.1449C41.3535 68.2702 41.5102 68.3328 41.6669 68.3328C41.9491 68.3328 42.2312 68.1135 42.2625 67.8316L42.4193 66.923C42.4193 66.7351 42.3879 66.5784 42.2939 66.4531Z" fill="#00327D"/>
<path d="M41.1342 108.089L41.2283 107.525C41.2596 107.368 41.1656 107.274 41.0088 107.274C40.8521 107.274 40.7267 107.4 40.6954 107.525L40.6013 108.058C40.4759 108.058 40.3505 108.058 40.1938 108.058C39.6609 108.058 39.128 108.496 39.034 109.029C38.9399 109.561 39.3161 110 39.849 110C39.9117 110 40.5073 110 40.5073 110C41.0402 110 41.5731 109.561 41.6671 109.029C41.7925 108.559 41.5417 108.183 41.1342 108.089Z" fill="#00327D"/>
<path d="M25.4291 108.089L25.5232 107.525C25.5545 107.368 25.4605 107.274 25.3038 107.274C25.147 107.274 25.0216 107.4 24.9903 107.525L24.8962 108.058C24.7709 108.058 24.6455 108.058 24.4887 108.058C23.9558 108.058 23.4229 108.496 23.3289 109.029C23.2348 109.561 23.611 110 24.1439 110C24.2066 110 24.8022 110 24.8022 110C25.3351 110 25.868 109.561 25.962 109.029C26.0561 108.559 25.8053 108.183 25.4291 108.089Z" fill="#00327D"/>
<path d="M20.7273 107.87H24.2695L29.9746 75.4443H26.4324C24.6456 75.4443 22.9529 76.8855 22.6081 78.6712L18.0628 104.643C17.7493 106.428 18.9405 107.87 20.7273 107.87Z" fill="#468AFF"/>
<path d="M24.2695 107.87H40.5073C42.2941 107.87 43.9868 106.428 44.3317 104.643L48.9083 78.7025C49.2218 76.9167 48.0306 75.4756 46.2438 75.4756H29.9747L24.2695 107.87Z" fill="#3468BF"/>
<path d="M20.1943 92.4871H46.4632L46.7453 90.8267H20.4765L20.1943 92.4871Z" fill="#9EBFFF"/>
<path d="M20.1943 92.4871H26.9653L27.2474 90.8267H20.4765L20.1943 92.4871Z" fill="#BCCEFF"/>
<path d="M22.6395 89.0097H24.2696C24.4577 89.0097 24.6771 88.8531 24.7084 88.6338C24.7398 88.4458 24.6144 88.2578 24.395 88.2578H22.7649C22.5768 88.2578 22.3574 88.4145 22.3261 88.6338C22.2947 88.8531 22.4201 89.0097 22.6395 89.0097Z" fill="white"/>
<path d="M21.5736 95.0561H23.2037C23.3917 95.0561 23.6112 94.8994 23.6425 94.6801C23.6739 94.4922 23.5485 94.3042 23.329 94.3042H21.699C21.5109 94.3042 21.2915 94.4608 21.2601 94.6801C21.2288 94.8681 21.3542 95.0561 21.5736 95.0561Z" fill="white"/>
<path d="M21.2915 95.6515C21.6363 95.6515 21.9498 95.3696 22.0125 95.0563L23.2036 88.2266C23.2663 87.882 23.0469 87.6313 22.7021 87.6313C22.3573 87.6313 22.0438 87.9133 21.9811 88.2266L20.8213 95.0563C20.7586 95.4009 20.978 95.6515 21.2915 95.6515Z" fill="#00327D"/>
<path d="M24.0502 84.4984C24.4577 84.4984 24.8652 84.1537 24.9593 83.7465L25.7743 79.1098C25.837 78.7025 25.5549 78.3579 25.1474 78.3579C24.7398 78.3579 24.3323 78.7025 24.2383 79.1098L23.4233 83.7465C23.3606 84.1537 23.6427 84.4984 24.0502 84.4984Z" fill="#3468BF"/>
<path d="M20.4453 104.988C20.8528 104.988 21.2603 104.643 21.3544 104.236L22.1694 99.5991C22.2321 99.1918 21.95 98.8472 21.5425 98.8472C21.135 98.8472 20.7274 99.1918 20.6334 99.5991L19.8184 104.236C19.7243 104.643 20.0065 104.988 20.4453 104.988Z" fill="#3468BF"/>
<path d="M38.6893 65.419C38.3759 65.3563 37.9997 65.3876 37.8116 65.5756C37.6549 65.7323 37.6235 65.9202 37.6235 66.1082C37.6549 66.7348 38.0937 67.33 38.7834 67.5807C39.0968 67.706 39.473 67.7686 39.7865 67.6433C40.4134 67.424 40.6015 66.7974 40.3821 66.3902C40.1 65.9516 39.2849 65.5443 38.6893 65.419Z" fill="#FF9885"/>
<path d="M73.1081 107.337L72.92 99.0974C72.8259 98.4395 69.6912 98.4395 69.7853 99.0974L70.7257 107.431C71.0705 108.715 73.1394 108.151 73.1081 107.337Z" fill="white"/>
<path d="M53.6106 106.335L56.4005 98.8784C56.6199 98.2518 53.7673 98.4084 53.5479 99.035L51.479 105.833C51.1655 107.118 53.2344 107.055 53.6106 106.335Z" fill="white"/>
<path d="M78.3745 109.436C78.2804 108.058 77.967 107.337 75.8354 107.4C75.083 107.431 74.4247 106.836 74.174 106.115C74.0486 105.802 73.6097 105.771 73.4216 106.053C73.1395 106.554 72.826 106.867 72.2304 106.899C71.8229 106.93 71.3841 106.899 70.9766 106.899C69.8481 106.93 70.0675 108.59 70.2556 109.311C70.3183 109.53 70.8825 109.593 71.0393 109.593C71.5722 109.687 72.1364 109.687 72.6693 109.718C74.0486 109.781 75.4278 109.749 76.7758 109.655C77.34 109.624 77.8729 109.53 78.3745 109.436Z" fill="#00327D"/>
<path d="M51.4472 105.238C51.6353 105.113 51.698 105.207 51.7921 105.207C52.1055 105.207 52.3563 105.238 52.6384 105.113C52.9832 104.987 53.2027 104.862 53.5788 104.956C54.049 105.081 54.6446 105.144 54.7387 105.865C54.7387 105.865 54.77 106.899 54.8641 107.024C54.9268 107.055 55.0835 107.024 55.1462 107.055C56.2747 107.149 56.5255 108.026 56.5255 109.06C56.4628 109.06 56.5568 109.06 56.4941 109.06C55.5537 109.217 52.9519 109.248 52.9519 109.248C52.9519 109.248 50.8516 108.496 50.1933 107.807C50.162 107.776 50.2247 107.776 50.2247 107.682C50.3814 106.961 50.8203 105.645 51.4472 105.238Z" fill="#00327D"/>
<path d="M64.7701 40.5127C66.3688 41.2019 68.7826 41.9225 70.2245 44.0528C71.7605 51.1331 72.4502 58.9653 79.3779 63.1321C79.8481 63.2887 82.2932 64.2912 82.5126 64.4479C82.8887 64.6985 82.5126 65.1371 82.3872 65.607C82.2305 66.171 81.8543 66.5782 77.4657 64.8238C69.5662 61.6596 63.2028 51.0392 64.7701 40.5127Z" fill="#FF9885"/>
<path d="M70.8826 49.003C71.3842 50.6634 72.1992 52.2611 73.2337 53.6709C72.5754 55.2374 71.1648 56.4279 69.5347 56.9918C69.1586 54.9241 68.9705 52.9504 69.1272 50.8514C69.1586 50.3814 69.2212 49.9115 69.472 49.5042C69.7228 49.0656 70.4438 48.8776 70.8826 49.003Z" fill="#9EBFFF"/>
<path d="M51.7925 103.39C52.7329 103.734 53.6733 103.953 54.5824 104.298C59.3785 90.67 61.1966 82.086 61.4787 67.5494C59.2217 67.2674 56.9334 67.0168 54.6764 66.7349C55.7109 81.0834 55.1153 89.4169 51.7925 103.39Z" fill="#00327D"/>
<path d="M69.9734 105.489C70.9765 105.551 72.7633 105.551 73.1394 105.363C73.7977 90.9209 72.8573 82.3681 68.9389 68.3955C66.6819 68.7715 64.425 69.1787 62.168 69.586C67.3089 82.9947 69.127 91.1402 69.9734 105.489Z" fill="#00327D"/>
<path d="M55.2092 70.7763C54.5196 68.7399 54.5196 66.0456 54.8958 64.3539C59.5978 63.8213 65.4597 63.0694 70.1618 63.6333C70.1931 65.8577 70.632 69.3352 69.7856 71.4655C69.4095 71.4655 63.14 73.4392 55.2092 70.7763Z" fill="#00327D"/>
<path d="M69.0017 66.7662C69.0017 68.7086 62.3248 70.275 59.002 69.1159C56.1494 68.1134 58.4378 66.7662 58.4378 64.7925C58.4378 62.8501 60.8828 61.2837 63.9235 61.2837C66.9642 61.2837 69.0017 64.8238 69.0017 66.7662Z" fill="white"/>
<path d="M56.8705 43.2699C52.1684 48.7524 43.7361 60.1248 40.8208 63.2576C41.1656 64.4795 40.6954 64.1975 41.7926 64.8241C53.1402 56.0207 59.2215 51.1021 64.1117 41.9228C60.8516 41.8601 59.6604 41.5468 56.8705 43.2699Z" fill="#FF9885"/>
<path d="M56.0868 43.2695L48.5635 53.1381C49.1591 55.1118 50.413 56.5843 52.1684 57.3675C53.7357 55.989 55.2404 54.7359 56.8705 53.0441C56.6197 50.2558 56.3689 46.0891 56.0868 43.2695Z" fill="#BCCEFF"/>
<path d="M71.6037 50.2563C71.6037 46.4028 70.4125 43.0506 67.654 41.5469C64.1744 39.6358 58.7827 40.325 56.4944 42.7374C54.6763 44.6484 54.8644 47.656 54.6449 50.2876C54.2061 55.7388 53.9553 65.5134 54.3315 69.5548C54.3628 69.9307 57.5602 70.056 61.9802 69.9307C62.4817 67.6124 63.2654 65.2001 63.7356 62.8818C63.7042 65.2001 64.1118 69.9307 64.1118 69.9307C68.3436 69.8054 72.2933 69.3981 72.3247 68.9595C72.4814 67.7064 71.6037 50.2563 71.6037 50.2563Z" fill="#BCCEFF"/>
<path d="M60.7891 40.3564C61.4787 42.612 62.5445 44.8677 63.3282 47.4053C63.6416 46.5281 65.4284 41.8601 65.8673 40.3564C64.394 39.9804 62.2937 40.0744 60.7891 40.3564Z" fill="#FF9885"/>
<path d="M61.7295 42.9565C62.3251 44.4603 62.952 46.0268 63.3595 47.5932C63.673 46.716 64.3313 45.2435 64.3313 45.2435C64.3313 45.2435 64.6761 44.241 65.0209 43.1132C64.488 43.2385 63.9551 43.3012 63.3909 43.3012C62.8266 43.2385 62.2624 43.1445 61.7295 42.9565Z" fill="white"/>
<path d="M65.3029 40.92C65.4283 40.3874 65.1776 36.9099 65.1776 36.1267L60.6636 34.0903C60.7263 35.7821 61.0397 38.8836 61.3532 40.5441C61.5726 41.5153 64.9268 42.4551 65.3029 40.92C65.3029 40.9513 65.3029 40.9513 65.3029 40.92Z" fill="#FF9885"/>
<path d="M60.6948 34.0903L65.2088 36.1267L65.3342 36.2207C65.3342 37.0352 65.3655 40.3874 65.3342 40.5441C64.7386 40.4814 63.9549 40.2621 63.422 40.0115C62.1995 39.3849 61.3531 38.2257 60.8516 36.8473C60.7575 35.8761 60.7262 34.9362 60.6948 34.0903Z" fill="#FF785E"/>
<path d="M59.3471 27.5428C59.3785 27.3235 59.4098 27.1356 59.4725 26.9476C59.7546 25.6004 60.2875 24.6919 61.6668 24.0653C62.6072 23.6267 63.7044 23.752 64.6761 24.034C64.9582 24.128 67.466 25.8197 67.4974 26.0704C67.7481 29.0466 69.9738 32.4301 69.2528 35.4063C68.4378 38.8212 64.4254 40.0743 61.6041 38.1319C58.6888 36.0956 58.8142 31.0516 59.2844 27.9501C59.3158 27.7935 59.3158 27.6681 59.3471 27.5428Z" fill="#FF9885"/>
<path d="M63.0143 32.8375C62.9829 33.1508 63.1397 33.4327 63.3277 33.4327C63.5158 33.4327 63.7039 33.2134 63.7352 32.9001C63.7666 32.5869 63.6099 32.3049 63.4218 32.3049C63.2023 32.2736 63.0456 32.5242 63.0143 32.8375Z" fill="#00327D"/>
<path d="M62.3875 30.8322C62.2934 30.8322 62.2307 30.7696 62.1994 30.6756C62.168 30.5816 62.2307 30.4563 62.3561 30.4563C62.7636 30.3623 63.4219 30.2057 64.3623 30.237C64.4564 30.237 64.5504 30.331 64.5504 30.425C64.5504 30.5189 64.4564 30.6129 64.3623 30.6129C63.4846 30.5816 62.8263 30.7382 62.4502 30.8322C62.4188 30.8322 62.4188 30.8322 62.3875 30.8322Z" fill="#00327D"/>
<path d="M67.4345 32.8375C67.4659 33.1508 67.3092 33.4014 67.0897 33.4327C66.9016 33.4327 66.7136 33.2134 66.6822 32.9001C66.6509 32.5869 66.8076 32.3362 67.027 32.3049C67.2151 32.2736 67.4032 32.5242 67.4345 32.8375Z" fill="#00327D"/>
<path d="M68.0613 30.8322H68.0299C67.6538 30.7382 66.9955 30.5816 66.1178 30.6129C66.0237 30.6129 65.9297 30.5189 65.9297 30.425C65.9297 30.331 66.0237 30.237 66.1178 30.237C67.0582 30.2057 67.7478 30.3623 68.124 30.4563C68.218 30.4876 68.2807 30.5816 68.2807 30.6756C68.218 30.7696 68.124 30.8322 68.0613 30.8322Z" fill="#00327D"/>
<path d="M59.6291 33.9654C59.4411 34.1847 58.0304 33.8088 58.1558 31.9917C58.2499 30.7699 59.253 30.6759 59.7232 31.1772C60.4755 31.9917 60.1307 33.3389 59.6291 33.9654Z" fill="#FF9885"/>
<path d="M58.9081 33.3704C58.8454 33.3704 58.8141 33.3391 58.7828 33.2764C58.7514 33.2138 58.8141 33.1511 58.8768 33.1198C59.0649 33.0571 59.2216 32.8692 59.2843 32.6185C59.3783 32.2739 59.3156 31.804 59.0335 31.4907C59.0022 31.428 59.0022 31.3654 59.0335 31.334C59.0962 31.3027 59.1589 31.3027 59.1903 31.334C59.5664 31.71 59.6291 32.2739 59.5037 32.6812C59.4097 33.0258 59.1903 33.2764 58.9395 33.3704H58.9081Z" fill="#FF785E"/>
<path d="M65.0207 35.4061C64.2683 35.4061 63.6414 35.0615 63.2652 34.4663C63.2339 34.4036 63.2339 34.341 63.2966 34.3096C63.3593 34.2783 63.422 34.2783 63.4533 34.341C63.9235 35.0615 64.6131 35.1555 64.9893 35.1555C65.5849 35.1555 66.1492 34.9049 66.4313 34.4976C66.4626 34.435 66.5567 34.435 66.588 34.4663C66.6507 34.4976 66.6507 34.5916 66.6194 34.6229C66.3372 35.1242 65.6789 35.4061 65.0207 35.4061Z" fill="#FF785E"/>
<path d="M61.6353 28.3576C61.6353 29.6107 61.0711 30.9265 60.7576 32.117C60.6949 32.2737 60.6322 32.493 60.4441 32.493C60.2874 32.493 60.1934 32.3676 60.1307 32.2423C59.6605 31.5531 58.8768 30.9265 58.9081 30.0806C58.9081 29.7047 59.0022 27.7936 59.2843 27.6057C59.5978 27.3864 59.9739 27.2611 60.3501 27.1984C60.883 27.1357 61.6353 28.0443 61.6353 28.3576Z" fill="#00327D"/>
<path d="M65.397 34.3101C65.3343 34.3101 65.2716 34.2787 65.2716 34.2161C65.2716 34.1534 65.3029 34.0908 65.3656 34.0908C65.5537 34.0594 65.6791 33.9968 65.7104 33.9028C65.8358 33.5895 65.4283 32.9629 65.2716 32.7436C65.2402 32.681 65.2402 32.6183 65.3029 32.587C65.3656 32.5557 65.4283 32.5557 65.4596 32.6183C65.5223 32.7123 66.1493 33.5268 65.9299 34.0281C65.8985 34.1534 65.7104 34.2787 65.397 34.3101C65.4283 34.3101 65.4283 34.3101 65.397 34.3101Z" fill="#FF785E"/>
<path d="M67.0582 26.4151C65.7417 26.3838 61.3844 26.3838 60.6634 26.4464C60.35 26.6344 60.1305 26.7597 60.0679 26.7911C58.8767 27.449 57.6228 28.0755 56.4316 28.7334C56.2122 28.8588 56.3062 29.0781 56.557 29.172C60.444 30.2685 66.7761 29.7986 70.3497 28.0755C70.5691 27.9502 70.6318 27.7309 70.381 27.6369L67.0582 26.4151Z" fill="#3468BF"/>
<path d="M66.3371 23.4073C65.3967 22.6868 60.6006 23 59.6915 23.8146C59.6915 23.8146 58.8765 27.5114 58.8765 27.5427C58.9078 27.8873 60.9767 28.044 63.4531 27.856C65.8042 27.6994 67.7163 27.2921 67.8731 26.9475C67.9358 26.9475 66.3371 23.4073 66.3371 23.4073Z" fill="#468AFF"/>
<path d="M66.3688 23.4386C66.4002 23.7832 64.9582 24.1905 63.1087 24.3158C61.2279 24.4725 59.7233 24.2845 59.6919 23.9399C59.6606 23.5953 61.1025 23.188 62.952 23.0627C64.8015 22.906 66.3061 23.094 66.3688 23.4386Z" fill="#3468BF"/>
<path d="M60.7891 39.9487L59.0337 41.1392L61.1653 45.3686L61.6042 43.7708L62.5759 45.0553L60.7891 39.9487Z" fill="#9EBFFF"/>
<path d="M65.7103 40.1367L67.2777 41.3272L65.5222 45.5566L65.0834 43.9588L64.3311 45.2433L65.7103 40.1367Z" fill="#9EBFFF"/>
<path d="M63.0773 49.5356C63.3594 49.567 63.5475 49.7863 63.5162 50.0682C63.4848 50.3502 63.2654 50.5382 62.9833 50.5068C62.7012 50.4755 62.5131 50.2562 62.5444 49.9742C62.5758 49.7236 62.8265 49.5356 63.0773 49.5356Z" fill="#9EBFFF"/>
<path d="M63.0773 54.6422C63.3594 54.6735 63.5475 54.8928 63.5162 55.1747C63.4848 55.4567 63.2654 55.6447 62.9833 55.6133C62.7012 55.582 62.5131 55.3627 62.5444 55.0808C62.5758 54.8301 62.8265 54.6108 63.0773 54.6422Z" fill="#9EBFFF"/>
<path d="M63.0773 59.7173C63.3594 59.7486 63.5475 59.9679 63.5162 60.2499C63.4848 60.5318 63.2654 60.7198 62.9833 60.6885C62.7012 60.6572 62.5131 60.4378 62.5444 60.1559C62.5758 59.9053 62.8265 59.7173 63.0773 59.7173Z" fill="#9EBFFF"/>
<path d="M82.857 61.6283C81.9166 61.033 80.9762 60.4064 80.0358 59.7485C79.1581 62.3175 77.9042 65.2624 76.2114 68.3326C76.9011 68.6772 77.9355 69.2098 79.1267 69.8051C80.9762 67.4241 82.2614 64.6045 82.857 61.6283Z" fill="#3468BF"/>
<path d="M83.6722 62.7249C82.8259 62.0043 81.9795 61.2525 81.1331 60.4692C79.9106 62.9129 78.2492 65.6385 76.1489 68.4267C76.8072 68.8653 77.7476 69.5233 78.8134 70.3065C80.9764 68.1761 82.6378 65.5445 83.6722 62.7249Z" fill="#468AFF"/>
<path d="M81.1646 65.4507C80.9138 65.858 80.7258 66.7352 81.1646 66.8292C83.1081 67.1738 83.3276 65.1688 83.1081 64.8241C82.6066 63.9156 81.7602 64.4169 81.1646 65.4507Z" fill="#FF9885"/>
</g>
<defs>
<clipPath id="clip0_2469_27">
<rect width="111" height="87" fill="white" transform="translate(18 23)"/>
</clipPath>
</defs>
</svg>
