<svg width="70" height="70" viewBox="0 0 70 70" fill="none" xmlns="http://www.w3.org/2000/svg">
<g clip-path="url(#clip0_74_1114)">
<g clip-path="url(#clip1_74_1114)">
<path opacity="0.15" d="M35 69.1384C54.33 69.1384 70 53.6923 70 34.6384C70 15.5846 54.33 0.138428 35 0.138428C15.67 0.138428 0 15.5846 0 34.6384C0 53.6923 15.67 69.1384 35 69.1384Z" fill="url(#paint0_linear_74_1114)"/>
<path d="M49.0277 41.2544H47.9989V29.5919H48.5133C50.2155 29.5919 51.5998 28.2274 51.5998 26.5495V20.4648C51.5998 20.1849 51.3693 19.9577 51.0854 19.9577C50.8014 19.9577 50.5709 20.1849 50.5709 20.4648V24.0142C50.5709 24.8529 49.8785 25.5354 49.0277 25.5354C48.1769 25.5354 47.4845 24.8529 47.4845 24.0142V20.4648C47.4845 20.1849 47.254 19.9577 46.9701 19.9577C46.6861 19.9577 46.4556 20.1849 46.4556 20.4648V24.0142C46.4556 24.8529 45.7632 25.5354 44.9124 25.5354C44.0616 25.5354 43.3692 24.8529 43.3692 24.0142V20.4648C43.3692 20.1849 43.1387 19.9577 42.8548 19.9577C42.5708 19.9577 42.3403 20.1849 42.3403 20.4648V26.5495C42.3403 28.2274 43.7246 29.5919 45.4268 29.5919H45.9412V36.6908H44.9124V30.5746C42.8856 30.3241 41.3115 28.6143 41.3115 26.5495V20.4648C41.3115 19.6261 42.0039 18.9436 42.8548 18.9436C43.7056 18.9436 44.398 19.6261 44.398 20.4648V24.0142C44.398 24.2941 44.6285 24.5213 44.9124 24.5213C45.1964 24.5213 45.4268 24.2941 45.4268 24.0142V20.4648C45.4268 19.6261 46.1192 18.9436 46.9701 18.9436C47.8209 18.9436 48.5133 19.6261 48.5133 20.4648V24.0142C48.5133 24.2941 48.7437 24.5213 49.0277 24.5213C49.3117 24.5213 49.5421 24.2941 49.5421 24.0142V20.4648C49.5421 19.6261 50.2345 18.9436 51.0854 18.9436C51.9362 18.9436 52.6286 19.6261 52.6286 20.4648V26.5495C52.6286 28.6143 51.0545 30.3241 49.0277 30.5746V41.2544Z" fill="#122986"/>
<path d="M48.8097 47.8992H20.623C19.9465 47.8992 19.3975 48.4403 19.3975 49.1072V50.3152C19.3975 50.982 19.9465 51.5232 20.623 51.5232H48.8097C49.4862 51.5232 50.0352 50.982 50.0352 50.3152V49.1072C50.0352 48.4403 49.4862 47.8992 48.8097 47.8992Z" fill="#02EDD6"/>
<path d="M36.5542 34.6111H32.8777C26.4481 34.6111 21.2354 39.7494 21.2354 46.0872H48.1966C48.1966 39.7494 42.9839 34.6111 36.5542 34.6111Z" fill="#02EDD6"/>
<path d="M20.6215 48.5022C20.2832 48.5022 20.0087 48.7728 20.0087 49.1062V50.3142C20.0087 50.6477 20.2832 50.9182 20.6215 50.9182H48.8082C49.1465 50.9182 49.421 50.6477 49.421 50.3142V49.1062C49.421 48.7728 49.1465 48.5022 48.8082 48.5022H20.6215ZM48.8082 52.1263H20.6215C19.608 52.1263 18.7832 51.3133 18.7832 50.3142V49.1062C18.7832 48.1072 19.608 47.2942 20.6215 47.2942H48.8082C49.8217 47.2942 50.6465 48.1072 50.6465 49.1062V50.3142C50.6465 51.3133 49.8217 52.1263 48.8082 52.1263Z" fill="#122986"/>
<path d="M48.8098 46.0872H47.5843C47.5843 40.0924 42.6363 35.2151 36.5547 35.2151H32.8782C26.7966 35.2151 21.8486 40.0924 21.8486 46.0872H20.623C20.623 39.4262 26.1207 34.0071 32.8782 34.0071H36.5547C43.3122 34.0071 48.8098 39.4262 48.8098 46.0872Z" fill="#122986"/>
<path d="M40.843 35.2148H39.6175V30.9868C39.6175 30.6534 39.343 30.3828 39.0047 30.3828H30.4262C30.0879 30.3828 29.8134 30.6534 29.8134 30.9868V35.2148H28.5879V30.9868C28.5879 29.9878 29.4127 29.1748 30.4262 29.1748H39.0047C40.0182 29.1748 40.843 29.9878 40.843 30.9868V35.2148Z" fill="#122986"/>
<path d="M38.3921 34.6097H37.1666V32.7977H32.2646V34.6097H31.0391V31.5896H38.3921V34.6097Z" fill="#122986"/>
<path d="M24.298 46.0871H23.0723C23.0723 45.6563 23.1011 45.2231 23.1587 44.7991L24.3734 44.9585C24.3232 45.3301 24.298 45.7095 24.298 46.0871Z" fill="#122986"/>
<path d="M24.6091 43.8317L23.4277 43.5091C24.4002 40.0379 27.3408 37.332 30.9193 36.615L31.1632 37.7995C28.0326 38.4258 25.4602 40.7935 24.6091 43.8317Z" fill="#122986"/>
<path d="M21.4315 41.2544H20.4026V31.3894C18.0441 30.8124 16.8018 29.1477 16.8018 26.5495C16.8018 23.391 18.5574 18.9436 22.4603 18.9436C26.3631 18.9436 28.1188 23.391 28.1188 26.5495C28.1188 29.1477 26.8765 30.8124 24.5179 31.3894V36.6908H23.4891V30.5574L23.9104 30.4813C26.0504 30.0939 27.09 28.808 27.09 26.5495C27.09 23.891 25.6188 19.9577 22.4603 19.9577C19.3018 19.9577 17.8306 23.891 17.8306 26.5495C17.8306 28.808 18.8702 30.0939 21.0102 30.4813L21.4315 30.5574V41.2544Z" fill="#122986"/>
</g>
</g>
<defs>
<linearGradient id="paint0_linear_74_1114" x1="35" y1="0.138478" x2="35" y2="69.1384" gradientUnits="userSpaceOnUse">
<stop offset="0.55" stop-color="#8FCCB9"/>
<stop offset="1" stop-color="#A6A6A6" stop-opacity="0"/>
</linearGradient>
<clipPath id="clip0_74_1114">
<rect width="70" height="70" fill="white"/>
</clipPath>
<clipPath id="clip1_74_1114">
<rect width="70" height="70" fill="white"/>
</clipPath>
</defs>
</svg>
