<svg width="114" height="146" viewBox="0 0 114 146" fill="none" xmlns="http://www.w3.org/2000/svg">
<g opacity="0.2">
<path d="M67.2531 116.455L66.2812 116.51L67.1855 128.908L68.1573 128.853L67.2531 116.455Z" fill="#E9C7AC"/>
<path d="M46.2084 116.36L45.3066 128.758L46.2784 128.813L47.1802 116.415L46.2084 116.36Z" fill="#E9C7AC"/>
<path d="M42.3075 128.592C42.3075 138.204 44.8945 146 56.754 146C68.6135 146 71.2005 138.204 71.2005 128.592H42.293H42.3075Z" fill="#CD6F19"/>
<g style="mix-blend-mode:multiply" opacity="0.3">
<path d="M56.7676 146C68.9323 146 71.2141 138.204 71.2141 128.592H56.7676C56.7676 128.592 69.3828 132.145 56.7676 146Z" fill="#CD6F19"/>
</g>
<path d="M71.2162 128.618C71.2162 129.308 64.7487 129.858 56.7697 129.858C48.7907 129.858 42.3232 129.308 42.3232 128.618C42.3232 127.928 48.7907 127.378 56.7697 127.378C64.7487 127.378 71.2162 127.941 71.2162 128.618Z" fill="#FFD478"/>
<path d="M70.374 128.58C70.374 128.887 64.0665 129.334 56.5526 129.334C49.0386 129.334 43.167 128.887 43.167 128.58C43.167 128.273 49.2566 127.66 56.7705 127.66C64.2844 127.66 70.374 128.273 70.374 128.58Z" fill="#FFEDBA"/>
<g style="mix-blend-mode:multiply" opacity="0.4">
<path d="M59.2979 129.833C66.0706 129.731 71.2155 129.232 71.2155 128.619C71.2155 128.005 65.6927 127.468 58.5566 127.392C62.5825 128.325 59.3124 129.833 59.2979 129.846V129.833Z" fill="#FFD478"/>
</g>
<path d="M108.567 28.5533C93.9021 -0.268319 56.754 8.97399e-05 56.754 8.97399e-05C56.754 8.97399e-05 19.6059 -0.25554 4.94145 28.5533C-9.72304 57.375 12.3245 81.7743 18.5159 86.9635C24.7218 92.1526 43.1359 104.576 44.5021 111.107C45.8537 117.638 44.5021 119.415 56.754 119.939C69.0059 119.415 67.6543 117.651 69.0059 111.107C70.3575 104.576 88.7862 92.1526 94.9776 86.9635C101.183 81.7743 123.217 57.3622 108.552 28.5533H108.567Z" fill="#EDF0F0"/>
<path d="M65.895 0.830368C65.6189 0.792024 65.3718 0.753676 65.1102 0.715332C73.8449 4.25573 95.3403 16.743 90.1081 52.6965C83.6697 97.009 66.7961 90.1455 63.2354 119.338C63.7876 119.236 64.2963 119.121 64.7323 118.98C64.9357 115.312 66.9559 104.218 82.8122 90.0944C99.5405 75.2043 124.161 20.0022 65.8805 0.817584L65.895 0.830368Z" fill="#C22F1B"/>
<path d="M58.6432 119.849C59.2391 119.811 59.806 119.773 60.3292 119.722C61.7244 112.845 68.1483 81.9275 74.1362 68.1365C80.8944 52.569 84.2662 15.2223 58.2363 0.0893555C58.2363 0.0893555 70.0522 20.8588 64.9218 50.9714C60.1983 78.7705 58.8322 114.507 58.6432 119.849Z" fill="#D35543"/>
<path d="M39.4001 68.1239C45.388 81.9148 51.8119 112.845 53.2072 119.709C53.7304 119.76 54.2827 119.798 54.8931 119.837C54.7187 114.507 53.338 78.7578 48.6145 50.9587C43.4987 20.8461 55.3 0.0766602 55.3 0.0766602C29.2702 15.2096 32.642 52.5436 39.4001 68.1239Z" fill="#D35543"/>
<path d="M48.4112 0.715332C48.1496 0.753676 47.9025 0.792024 47.6264 0.830368C-10.6537 20.015 13.9663 75.217 30.6946 90.1072C46.5654 104.23 48.5856 115.312 48.7745 118.993C49.2105 119.121 49.7047 119.236 50.2715 119.351C46.7253 90.1583 29.8516 97.0218 23.3987 52.7093C18.1666 16.743 39.6619 4.26851 48.3966 0.728116L48.4112 0.715332Z" fill="#D35543"/>
<path d="M68.4973 113.919C55.1118 115.811 45.0254 113.919 45.0254 113.919C45.7811 118.201 46.4788 119.518 56.7686 119.952C67.044 119.518 67.7416 118.201 68.5119 113.932L68.4973 113.919Z" fill="#CD6F19"/>
<g style="mix-blend-mode:multiply">
<path d="M74.3409 83.2569C60.8972 103.515 58.8479 114.724 58.8479 114.724C63.2371 119.338 54.764 119.773 54.793 119.837C55.418 119.875 56.0575 119.913 56.7696 119.939C69.0215 119.415 67.6699 117.651 69.0215 111.107C70.3731 104.576 88.8018 92.1526 94.9932 86.9635C101.199 81.7743 123.232 57.3622 108.568 28.5533C93.9032 -0.268319 56.7551 8.97399e-05 56.7551 8.97399e-05C94.6153 9.59878 88.8164 61.4138 74.3263 83.2569H74.3409Z" fill="#D1D3D4"/>
</g>
</g>
</svg>
