<svg width="239" height="600" viewBox="0 0 239 600" fill="none" xmlns="http://www.w3.org/2000/svg">
<g opacity="0.2">
<path d="M165.46 526.415L163.358 526.55L165.314 557.042L167.416 556.907L165.46 526.415Z" fill="#E9C7AC"/>
<path d="M119.944 526.181L117.993 556.673L120.095 556.808L122.045 526.315L119.944 526.181Z" fill="#E9C7AC"/>
<path d="M111.506 556.265C111.506 579.904 117.101 599.079 142.752 599.079C168.403 599.079 173.998 579.904 173.998 556.265H111.475H111.506Z" fill="#CD6F19"/>
<g style="mix-blend-mode:multiply" opacity="0.3">
<path d="M142.781 599.079C169.092 599.079 174.027 579.904 174.027 556.265H142.781C142.781 556.265 170.067 565.004 142.781 599.079Z" fill="#CD6F19"/>
</g>
<path d="M174.032 556.328C174.032 558.026 160.044 559.378 142.786 559.378C125.528 559.378 111.54 558.026 111.54 556.328C111.54 554.631 125.528 553.279 142.786 553.279C160.044 553.279 174.032 554.662 174.032 556.328Z" fill="#FFD478"/>
<path d="M172.211 556.234C172.211 556.989 158.568 558.089 142.317 558.089C126.065 558.089 113.365 556.989 113.365 556.234C113.365 555.48 126.536 553.971 142.788 553.971C159.04 553.971 172.211 555.48 172.211 556.234Z" fill="#FFEDBA"/>
<g style="mix-blend-mode:multiply" opacity="0.4">
<path d="M148.255 559.315C162.903 559.064 174.031 557.838 174.031 556.329C174.031 554.82 162.086 553.5 146.651 553.311C155.359 555.606 148.286 559.315 148.255 559.346V559.315Z" fill="#FFD478"/>
</g>
<path d="M234.817 70.2253C203.099 -0.659916 122.752 0.00022071 122.752 0.00022071C122.752 0.00022071 42.4054 -0.628486 10.6878 70.2253C-21.0298 141.111 26.6565 201.119 40.0477 213.882C53.4703 226.644 93.2981 257.199 96.2529 273.262C99.1763 289.325 96.2529 293.694 122.752 294.983C149.252 293.694 146.328 289.356 149.252 273.262C152.175 257.199 192.034 226.644 205.426 213.882C218.848 201.119 266.503 141.079 234.786 70.2253H234.817Z" fill="#EDF0F0"/>
<path d="M142.523 2.04269C141.926 1.94839 141.391 1.85407 140.826 1.75977C159.718 10.4672 206.21 41.1789 194.893 129.605C180.968 238.589 144.472 221.708 136.771 293.505C137.965 293.254 139.065 292.971 140.008 292.625C140.448 283.603 144.818 256.318 179.113 221.583C215.294 184.961 268.545 49.1947 142.492 2.01125L142.523 2.04269Z" fill="#C22F1B"/>
<path d="M126.838 294.763C128.127 294.668 129.353 294.574 130.485 294.448C133.502 277.537 147.396 201.496 160.348 167.578C174.965 129.291 182.258 37.4384 125.958 0.219727C125.958 0.219727 151.514 51.3011 140.418 125.361C130.202 193.732 127.247 281.623 126.838 294.763Z" fill="#D35543"/>
<path d="M85.2182 167.546C98.1693 201.464 112.063 277.536 115.081 294.417C116.213 294.542 117.407 294.637 118.728 294.731C118.35 281.623 115.364 193.7 105.148 125.329C94.0829 51.2694 119.608 0.187988 119.608 0.187988C63.3083 37.4067 70.6011 129.227 85.2182 167.546Z" fill="#D35543"/>
<path d="M104.708 1.75977C104.142 1.85407 103.608 1.94839 103.01 2.04269C-23.0427 49.2262 30.2075 184.993 66.3889 221.614C100.716 256.349 105.085 283.603 105.494 292.656C106.437 292.971 107.506 293.254 108.731 293.537C101.061 221.74 64.5656 238.62 50.6086 129.636C39.2921 41.1789 85.7841 10.4986 104.676 1.79121L104.708 1.75977Z" fill="#D35543"/>
<path d="M148.152 280.178C119.201 284.831 97.3848 280.178 97.3848 280.178C99.0194 290.709 100.528 293.947 122.784 295.015C145.008 293.947 146.517 290.709 148.183 280.21L148.152 280.178Z" fill="#CD6F19"/>
<g style="mix-blend-mode:multiply">
<path d="M160.791 204.766C131.714 254.59 127.281 282.158 127.281 282.158C136.774 293.506 118.448 294.575 118.511 294.732C119.863 294.826 121.246 294.92 122.786 294.983C149.285 293.694 146.362 289.356 149.285 273.262C152.209 257.199 192.068 226.644 205.459 213.882C218.882 201.119 266.537 141.079 234.819 70.2253C203.102 -0.659916 122.755 0.00022071 122.755 0.00022071C204.642 23.6077 192.1 151.044 160.759 204.766H160.791Z" fill="#D1D3D4"/>
</g>
</g>
</svg>
