<?xml version="1.0" encoding="UTF-8"?>
<svg id="Layer_1" xmlns="http://www.w3.org/2000/svg" xmlns:xlink="http://www.w3.org/1999/xlink" version="1.1" viewBox="0 0 200 60">
  <!-- Generator: Adobe Illustrator 29.0.1, SVG Export Plug-In . SVG Version: 2.1.0 Build 192)  -->
  <defs>
    <style>
      .st0 {
        fill: #fff;
      }

      .st0, .st1, .st2, .st3, .st4, .st5 {
        fill-rule: evenodd;
      }

      .st1 {
        fill: #333232;
      }

      .st2 {
        fill: url(#linear-gradient);
      }

      .st3 {
        fill: url(#linear-gradient1);
      }

      .st4 {
        fill: url(#linear-gradient2);
      }

      .st5 {
        fill: url(#linear-gradient3);
      }
    </style>
    <linearGradient id="linear-gradient" x1="1.6" y1="59.8" x2="1.2" y2="60.8" gradientTransform="translate(-54.9 2440.7) scale(55.9 -40)" gradientUnits="userSpaceOnUse">
      <stop offset="0" stop-color="#be2025"/>
      <stop offset=".4" stop-color="#dc1f26"/>
      <stop offset=".8" stop-color="#ed1c24"/>
      <stop offset="1" stop-color="#ed2224"/>
    </linearGradient>
    <linearGradient id="linear-gradient1" x1="1.6" y1="58.3" x2="1.6" y2="58.7" gradientTransform="translate(23.4 271) scale(3.8 -4.1)" gradientUnits="userSpaceOnUse">
      <stop offset="0" stop-color="#fff" stop-opacity="0"/>
      <stop offset=".5" stop-color="#e0e1e0" stop-opacity=".3"/>
      <stop offset=".7" stop-color="#c6c5c5" stop-opacity=".5"/>
      <stop offset=".8" stop-color="#b5b6b6" stop-opacity=".8"/>
      <stop offset="1" stop-color="#b0b0b0"/>
    </linearGradient>
    <linearGradient id="linear-gradient2" x1="1" y1="59.5" x2="1.9" y2="59.5" gradientTransform="translate(5.9 541.3) scale(17.7 -8.4)" gradientUnits="userSpaceOnUse">
      <stop offset="0" stop-color="#fff" stop-opacity="0"/>
      <stop offset="0" stop-color="#f2f2f2" stop-opacity="0"/>
      <stop offset=".2" stop-color="#d4d4d4" stop-opacity=".3"/>
      <stop offset=".4" stop-color="#c1c0c0" stop-opacity=".6"/>
      <stop offset=".7" stop-color="#b4b4b4" stop-opacity=".8"/>
      <stop offset="1" stop-color="#b0b0b0"/>
    </linearGradient>
    <linearGradient id="linear-gradient3" x1="1.3" y1="60.1" x2="2" y2="60.1" gradientTransform="translate(-18.3 1607.2) scale(19.8 -26.3)" gradientUnits="userSpaceOnUse">
      <stop offset="0" stop-color="#fff" stop-opacity="0"/>
      <stop offset=".3" stop-color="#ededee" stop-opacity=".3"/>
      <stop offset=".9" stop-color="#bdbdbd" stop-opacity=".8"/>
      <stop offset="1" stop-color="#b0b0b0"/>
    </linearGradient>
  </defs>
  <path class="st2" d="M55.7,48.9l-30.9-31.2c-4.1-4.1-9.7-6.6-15.5-6.6H2.8l.5,1.3,2.1,5.7,11.7,30.9s38.5,0,38.5,0Z"/>
  <path class="st0" d="M22,37.2c0,.5.4.8.9.9,6.4,1,12.6,3.6,18,8,0,0,0,0,.1,0s0,0,.1,0c0,0,0-.2,0-.3-3.7-3.9-8.3-7.1-13.4-9.1l-1.6-.6c-.8-.3-1.4-1.1-1.4-2,0-3.4,8-2.7,8.8-4.3v-.3c-1.5-1.4-3.4-2.4-5.6-3,0,0,0,.5.4,1.2.5.8-.5,2-2,.7h-.1C15.6,18.3,7.6,23.4,3.3,12.3l2.2,5.6c4.2,7.2,15.3,8,16.5,19.2Z"/>
  <path class="st3" d="M28.4,27.5c.2.3.2.6,0,.8-.1.3-.4.4-.8.4v2.6c1.2-.3,2.5-.5,3.6-.8v-1.5s-1.8.1-2.8-1.7h0Z"/>
  <path class="st4" d="M24.2,38.3c5.9,1.1,11.7,3.7,16.7,7.7-11.2-9.6-16.3-7.9-16.7-7.7h0Z"/>
  <path class="st5" d="M3.3,12.4l2.2,5.6c4.2,7.2,15.3,8,16.5,19.2-1.3-14.4-7.5-12.2-14.3-18.8-1.7-1.3-3.2-3.1-4.4-6.1Z"/>
  <path class="st1" d="M47.4,32.7c0-5.2,5.2-9.2,13-9.2s13,4,13,9-1,4.1-2.9,5.6h4.6l-1.1,1.9c-.7,1.2-1.5,1.9-3.4,1.9h-10.5c-7.8,0-12.8-4-12.8-9.1h0ZM60.4,37.7c4.2,0,7.9-2.1,7.9-5s-3.6-5-7.9-5-7.9,2.1-7.9,5,3.6,5,7.9,5h0ZM82.3,38.5l-1.9,3.3h-5.1l8.5-14.7c.7-1.2,1.6-2.1,3.6-2.3h1.9c1.9.2,2.9,1.1,3.6,2.3l8.5,14.7h-5.2l-2-3.3h-11.8ZM92.3,35.2l-3.8-6.9c0-.2-.2-.2-.3-.2s-.2,0-.3.2l-3.8,6.9h8.1ZM125.7,41.8h-4.7l-13.3-11.1v11.1h-4.7v-17h2.9c1.4.2,2.2.6,3,1.3l12,10.1v-11.4h4.7v17ZM141.8,41.8h-4.7v-13.2h-9.5v-3.8h23.6v3.8h-9.5M154.1,38.5l-1.9,3.3h-5.1l8.5-14.7c.7-1.2,1.6-2.1,3.6-2.3h1.9c1.9.2,2.9,1.1,3.6,2.3l8.5,14.7h-5.2l-2.1-3.3h-11.8ZM164.2,35.2l-3.8-6.9c0-.2-.2-.2-.3-.2s-.2,0-.3.2l-3.8,6.9h8.1,0ZM174.4,40.5l1.2-3.7c3.3,1.1,6.8,1.5,9.9,1.5,5.2,0,6.5-.6,6.5-1.3s-.2-.5-.6-.6c-.5-.2-1.9-.5-6.2-1.2-4.7-.8-6.8-1.2-8.4-1.9-1.5-.7-2.5-1.9-2.5-3.6s.6-2.3,1.6-3.1c1.8-1.4,4.9-1.9,8.2-1.9s7.9.4,12,1.4h.4c0,0-1,3.7-1,3.7-4.5-1-7-1.2-10.4-1.3-2.4,0-4.1.2-4.9.4-.5.2-.7.4-.7.7s.2.5.7.6c.5.2,1.4.4,6,1.1,5,.8,6.6,1.2,8,1.7,1.9.7,3,2,3,3.7s-1.6,3.6-4.4,4.5c-1.7.5-4.1.8-6.7.8-4.1,0-8.5-.5-11.3-1.4,0,0-.4-.1-.4-.1Z"/>
</svg>