<svg width="39" height="39" viewBox="0 0 39 39" fill="none" xmlns="http://www.w3.org/2000/svg">
<circle opacity="0.15" cx="19.5" cy="19.5" r="19.5" fill="url(#paint0_linear_3205_1630)"/>
<path fill-rule="evenodd" clip-rule="evenodd" d="M12.7098 20.3928C12.8615 20.3052 13.062 20.3584 13.1497 20.5101L14.5861 22.9978L14.5144 23.1181L14.2884 23.2478C13.1175 23.9425 12.098 24.8748 11.2982 25.9761L11.2096 26.0981L9.27498 22.7474C9.18678 22.5946 9.24027 22.3957 9.39298 22.3075L12.7098 20.3928ZM23.1181 22.5885C22.7346 22.4331 22.3871 22.3182 21.9891 22.2077C21.8402 21.6455 21.7104 21.1369 21.4165 20.6234C21.0646 20.0087 20.5661 19.5791 19.872 19.3985C19.5486 19.3144 19.2076 19.3143 18.8842 19.3985C17.4448 19.7733 17.2104 20.9643 16.8342 22.1844C16.272 22.3355 15.935 22.4622 15.412 22.6703C16.3835 20.9999 16.9548 19.8214 17.5094 17.9818H21.2462C21.8864 20.1053 22.3668 20.799 23.367 22.6894L23.1181 22.5885ZM17.6946 17.3205C17.9806 16.2276 18.1721 15.1791 18.3345 14.0629H20.4208C20.5965 15.2667 20.7827 16.2647 21.094 17.4432H17.6625L17.6946 17.3205ZM18.4232 13.4139C18.6372 11.7704 18.7808 10.1086 18.9675 8.45959H19.7888C19.979 10.1527 20.128 11.8324 20.3467 13.5245H18.4088L18.4232 13.4139ZM27.6673 23.7167L26.8129 25.1971C26.0465 24.3602 25.3258 23.7586 24.3418 23.1858L24.9435 22.1435L27.6673 23.7167ZM27.464 17.7778L27.5995 17.5437L28.7235 16.9164L30.3046 17.8295L30.3235 19.1163L30.1881 19.3503L27.464 17.7778Z" fill="#02EDD6"/>
<path fill-rule="evenodd" clip-rule="evenodd" d="M23.9992 25.3159C23.9992 25.5187 23.8352 25.6832 23.632 25.6832H15.1048C14.9016 25.6832 14.7376 25.5188 14.7376 25.3159C14.7376 25.1134 14.9016 24.9487 15.1048 24.9487H23.6321C23.8352 24.9487 23.9992 25.1134 23.9992 25.3159ZM21.8674 27.3659C21.8674 27.5687 21.7031 27.7334 21.5003 27.7334H17.2366C17.0338 27.7334 16.8695 27.5687 16.8695 27.3659C16.8695 27.1634 17.0338 26.9987 17.2366 26.9987H21.5003C21.7031 26.9987 21.8674 27.1634 21.8674 27.3659ZM26.9489 20.3908C27.2637 19.8435 28.09 19.9485 28.2545 20.5626C28.4186 21.1751 27.7585 21.6815 27.2097 21.3649C26.8688 21.1683 26.752 20.7313 26.9489 20.3908ZM26.3128 20.0236C25.7524 20.9941 26.4658 22.1951 27.5639 22.1951C28.5124 22.1951 29.212 21.2973 28.9641 20.3728C28.6304 19.1285 26.9546 18.911 26.3128 20.0236ZM28.167 23.2697L30.0511 20.0065L26.965 18.2248L25.081 21.488L28.167 23.2697ZM24.4983 23.1636C24.4908 23.159 24.4831 23.1547 24.4756 23.1503L24.9796 22.2773L27.5338 23.7526L26.7951 25.0325C26.1271 24.3031 25.3536 23.6713 24.4983 23.1636ZM17.5789 21.9203C17.8438 21.0274 18.0901 20.263 19.0446 20.0143C19.2632 19.9575 19.4927 19.9575 19.7117 20.0149C20.7103 20.2742 21.0645 21.2331 21.2598 21.9389C20.0432 21.7078 18.7984 21.7004 17.5789 21.9203ZM11.2192 25.9185L9.35991 22.6985C9.2989 22.5924 9.33623 22.4541 9.44209 22.3924L12.7589 20.4777C12.8641 20.4169 13.0042 20.4544 13.065 20.5592L14.4727 22.9972L14.4438 23.0455C14.3747 23.0843 14.3068 23.1234 14.2385 23.1637C13.0539 23.8667 12.0255 24.8083 11.2192 25.9185ZM9.15494 19.3813L10.1635 21.1282L11.3035 20.4695L10.2946 18.7232L9.28609 18.2921L9.15494 19.3813ZM17.0803 19.5423C16.7196 20.4711 16.2572 21.4123 15.6394 22.4745C16.0041 22.3294 16.3772 22.2059 16.7568 22.1039C17.0987 20.995 17.3484 19.6972 18.8598 19.3038C19.1991 19.2154 19.557 19.2154 19.8969 19.3038C21.4888 19.7179 21.8601 21.3376 22.0696 22.1284C22.4383 22.2308 22.8006 22.3542 23.1551 22.4978C22.2275 20.7446 21.7763 20.0789 21.1737 18.0797H17.5824C17.431 18.5818 17.2645 19.0675 17.0803 19.5423ZM18.0501 16.254C18.2017 15.5441 18.3221 14.8305 18.4194 14.1609H20.3363C20.4918 15.2269 20.6865 16.2832 20.9671 17.3453H17.7895C17.8823 16.9908 17.9697 16.6286 18.0501 16.254ZM18.6409 12.4344C18.7909 11.1284 18.9072 9.86392 19.0552 8.55747H19.7015C19.8856 10.1969 20.0233 11.7853 20.2356 13.4265H18.5206C18.5664 13.0739 18.6061 12.7399 18.6409 12.4344ZM28.7228 17.029L30.2077 17.8865L30.2254 19.0907L30.1525 19.2166L27.5979 17.742L27.6708 17.6161L28.7228 17.029ZM30.8835 15.0017L29.6749 15.6976L29.2274 16.4723L30.4378 17.171L30.8851 16.3966L30.8835 15.0017ZM31.6194 16.4943L31.6173 14.3659C31.6172 14.0842 31.3112 13.9074 31.0671 14.0483L29.2227 15.1105C29.1669 15.1425 29.1204 15.189 29.0878 15.2448L28.4589 16.3352L27.2246 17.024C27.1008 17.0932 27.0386 17.2425 26.9594 17.3797C26.7941 17.3174 26.6037 17.3816 26.5126 17.5391L24.2613 21.4387C24.1702 21.5968 24.2098 21.7935 24.3466 21.9057L23.9934 22.5167C23.4402 21.4103 22.8179 20.4534 22.3606 19.2765C22.2089 18.8866 22.0703 18.4887 21.9419 18.0797H22.2818C22.4843 18.0797 22.6489 17.9153 22.6489 17.7124C22.6489 17.5096 22.4842 17.3452 22.2818 17.3452H21.7266C21.4375 16.2868 21.2388 15.2348 21.0788 14.1608H21.3495C21.5523 14.1608 21.7167 13.9961 21.7167 13.7936C21.7167 13.5908 21.5524 13.4264 21.3495 13.4264H20.9758C20.7422 11.6521 20.6006 9.92381 20.3937 8.14803C20.3719 7.96317 20.2151 7.82299 20.029 7.82299H19.7356V7.17654C19.7356 6.97368 19.5712 6.80933 19.3684 6.80933C19.1659 6.80933 19.0012 6.97368 19.0012 7.17654V7.82316H18.7274C18.541 7.82316 18.3837 7.96334 18.3627 8.1482C18.1587 9.92515 18.0122 11.6541 17.7802 13.4266H17.3873C17.1848 13.4266 17.0201 13.5909 17.0201 13.7938C17.0201 13.9963 17.1848 14.161 17.3873 14.161H17.6773C17.5192 15.2294 17.3169 16.2921 17.03 17.3454H16.4551C16.2525 17.3454 16.0879 17.5098 16.0879 17.7126C16.0879 17.9155 16.2525 18.0798 16.4551 18.0798H16.8142C16.3471 19.5677 15.7888 20.7788 14.9044 22.2764L13.7011 20.1921C13.4372 19.7349 12.8495 19.5771 12.3917 19.8416L11.9393 20.1024L10.8697 18.2503C10.83 18.1811 10.7692 18.1271 10.6963 18.0958L9.23712 17.4728L8.06823 15.4486C7.96711 15.2727 7.7423 15.2125 7.56641 15.3139C7.39091 15.4153 7.33041 15.6399 7.43242 15.8157L8.60097 17.8399L8.41087 19.4151C8.4019 19.4939 8.418 19.5735 8.45739 19.6427L9.52733 21.4954L9.07515 21.7562C8.61729 22.0207 8.45934 22.6081 8.72376 23.0656L10.7641 26.6001C10.7154 26.6811 10.6667 26.7617 10.6196 26.8438C10.5194 27.0203 10.5806 27.2445 10.757 27.3447C10.9325 27.4458 11.1568 27.3841 11.2579 27.2083C12.917 24.3008 16.0246 22.4946 19.3684 22.4946C22.7122 22.4946 25.8197 24.3008 27.4789 27.2083C27.5803 27.3853 27.8043 27.4451 27.98 27.3447C28.1562 27.2445 28.2172 27.0204 28.1171 26.8438C27.8743 26.4186 27.5995 26.0127 27.299 25.6281L28.1729 24.1147C28.3425 24.1776 28.529 24.1116 28.6192 23.9553L30.8707 20.0555C30.9608 19.8997 30.9248 19.704 30.786 19.5887C30.865 19.4514 30.9632 19.3221 30.9612 19.1815L30.9408 17.7682L31.5704 16.6778C31.6027 16.6221 31.6194 16.5585 31.6194 16.4943Z" fill="#122986"/>
<defs>
<linearGradient id="paint0_linear_3205_1630" x1="19.5" y1="0" x2="19.5" y2="39" gradientUnits="userSpaceOnUse">
<stop offset="0.55" stop-color="#8FCCB9"/>
<stop offset="1" stop-color="#FBFBFB"/>
</linearGradient>
</defs>
</svg>
