<svg width="39" height="39" viewBox="0 0 39 39" fill="none" xmlns="http://www.w3.org/2000/svg">
<circle opacity="0.15" cx="19.5" cy="19.5" r="19.5" fill="url(#paint0_linear_3205_1656)"/>
<g clip-path="url(#clip0_3205_1656)">
<path d="M27.2825 22.8721V27.0159C27.2825 27.8107 26.6382 28.455 25.8433 28.455H12.6247C11.8299 28.455 11.1855 27.8107 11.1855 27.0159V22.8721C11.1855 20.8206 12.8487 19.1575 14.9002 19.1575H23.5678C25.6194 19.1575 27.2825 20.8206 27.2825 22.8721Z" fill="#02EDD6"/>
<path d="M20.6184 17.463V20.2165C20.6184 20.9813 19.9984 21.6013 19.2335 21.6013C18.4687 21.6013 17.8486 20.9813 17.8486 20.2165V17.463H20.6184Z" fill="white"/>
<path d="M22.9123 12.3252V14.6332C22.9123 16.6865 21.2478 18.351 19.1944 18.351C17.1411 18.351 15.4766 16.6865 15.4766 14.6332V12.3252H22.9123Z" fill="white"/>
<path d="M24.4251 8.31653V10.6489C24.4251 11.5746 23.6747 12.325 22.749 12.325H15.9481C15.0437 12.325 14.3105 11.5919 14.3105 10.6875C14.3105 9.78315 15.0437 9.05 15.9481 9.05H22.2708C23.0502 9.05004 23.8077 8.79214 24.4251 8.31653Z" fill="#02EDD6"/>
<path d="M25.1264 15.098V23.9664C25.1264 24.2756 24.8757 24.5262 24.5666 24.5262C24.2575 24.5262 24.0068 24.2756 24.0068 23.9664V15.098C24.0068 14.7888 24.2575 14.5382 24.5666 14.5382C24.8757 14.5382 25.1264 14.7888 25.1264 15.098Z" fill="white"/>
<path d="M25.126 15.3171V21.6348L29.7799 18.9341C30.1317 18.73 30.1317 18.222 29.7799 18.0179L25.126 15.3171Z" fill="#02EDD6"/>
<path d="M10.918 22.8719V27.0152C10.918 27.9569 11.6831 28.7229 12.6233 28.7229H25.842C26.7834 28.7229 27.5494 27.9569 27.5494 27.0152V22.8719C27.5494 22.4493 27.4843 22.0363 27.3561 21.6446C27.3103 21.504 27.159 21.4266 27.0184 21.4734C26.8778 21.5193 26.8013 21.6705 26.8473 21.8111C26.9577 22.149 27.0138 22.5059 27.0138 22.8718V27.0152C27.0138 27.6615 26.488 28.1873 25.842 28.1873H25.1061V26.0329C25.1061 25.885 24.9863 25.7652 24.8383 25.7652C24.6904 25.7652 24.5706 25.885 24.5706 26.0329V28.1873H13.8969V26.0329C13.8969 25.885 13.777 25.7652 13.6291 25.7652C13.4812 25.7652 13.3613 25.885 13.3613 26.0329V28.1873H12.6233C11.9783 28.1873 11.4536 27.6615 11.4536 27.0152V22.8719C11.4536 20.9711 13 19.4248 14.9007 19.4248H17.581V20.2175C17.581 21.1318 18.3184 21.8693 19.2328 21.8693C20.1448 21.8693 20.8867 21.1282 20.8867 20.2175V19.4248H22.9347C23.0827 19.4248 23.2025 19.3049 23.2025 19.157C23.2025 19.0091 23.0827 18.8892 22.9347 18.8892H20.8867V18.2365C22.2395 17.5985 23.1802 16.2253 23.1802 14.633V12.5428C24.0448 12.3459 24.6926 11.5723 24.6926 10.6489V8.31656C24.6926 8.21446 24.6346 8.12134 24.543 8.07615C24.4518 8.03136 24.3424 8.04182 24.2614 8.10439C23.6938 8.54146 22.9868 8.78225 22.2704 8.78225C19.5471 8.78225 18.211 8.78225 15.9476 8.78225C14.8969 8.78225 14.0423 9.63692 14.0423 10.6874C14.0423 11.4762 14.524 12.1544 15.2087 12.4435V14.633C15.2087 16.2563 16.1855 17.6537 17.581 18.2745V18.8892H14.9007C12.7047 18.8892 10.918 20.6759 10.918 22.8719ZM14.5779 10.6874C14.5779 9.93237 15.1923 9.3179 15.9476 9.3179H17.1035C16.7581 9.65776 16.5431 10.1301 16.5431 10.6521C16.5431 10.8 16.663 10.9199 16.8109 10.9199C16.9588 10.9199 17.0786 10.8 17.0786 10.6521C17.0786 9.93055 17.653 9.34213 18.3677 9.3179H22.2704C22.9311 9.3179 23.5851 9.14195 24.1569 8.81578V10.649C24.1569 11.4254 23.5251 12.0572 22.7487 12.0572H15.9476C15.1923 12.0572 14.5779 11.4427 14.5779 10.6874ZM15.7442 14.633V12.5929H22.6445V14.633C22.6445 16.5355 21.0969 18.0833 19.1944 18.0833C17.292 18.0833 15.7442 16.5355 15.7442 14.633ZM19.1945 18.6189C19.5967 18.6189 19.9847 18.5578 20.351 18.4464V20.2175C20.351 20.833 19.8493 21.3337 19.2328 21.3337C18.6144 21.3337 18.1166 20.8358 18.1166 20.2175V18.4668C18.46 18.5634 18.8205 18.6189 19.1945 18.6189Z" fill="#122986"/>
<path d="M30.3113 18.4761C30.3113 18.1885 30.163 17.9305 29.914 17.7861L25.3936 15.1628V15.0978C25.3936 14.6415 25.0223 14.2704 24.566 14.2704C24.1097 14.2704 23.7383 14.6415 23.7383 15.0978V23.9664C23.7383 24.4227 24.1097 24.7939 24.566 24.7939C25.0223 24.7939 25.3936 24.4227 25.3936 23.9664V21.7888L29.914 19.1655C30.1627 19.0214 30.3111 18.7636 30.3113 18.4761ZM24.858 23.9664C24.858 24.1273 24.7271 24.2583 24.566 24.2583C24.4049 24.2583 24.2739 24.1273 24.2739 23.9664V15.0979C24.2739 14.937 24.4049 14.806 24.566 14.806C24.7271 14.806 24.858 14.937 24.858 15.0979V23.9664ZM29.6454 18.7023L25.3936 21.1696V15.782L29.6452 18.2493C29.763 18.3177 29.7757 18.4305 29.7757 18.4759C29.7757 18.5213 29.7629 18.6341 29.6454 18.7023Z" fill="#122986"/>
</g>
<defs>
<linearGradient id="paint0_linear_3205_1656" x1="19.5" y1="0" x2="19.5" y2="39" gradientUnits="userSpaceOnUse">
<stop offset="0.55" stop-color="#8FCCB9"/>
<stop offset="1" stop-color="#FBFBFB"/>
</linearGradient>
<clipPath id="clip0_3205_1656">
<rect width="21.1714" height="21.1714" fill="white" transform="translate(10.0293 7.80005)"/>
</clipPath>
</defs>
</svg>
