<svg width="15" height="15" viewBox="0 0 15 15" fill="none" xmlns="http://www.w3.org/2000/svg">
<g clip-path="url(#clip0_88_1148)">
<path d="M14.1514 2.46094C14.0439 2.35352 13.9268 2.27295 13.7998 2.21924C13.6729 2.16553 13.5361 2.13867 13.3896 2.13867H12.3203V1.33301C12.3203 1.15723 12.2886 0.98877 12.2251 0.827637C12.1616 0.666504 12.0615 0.522461 11.9248 0.395508C11.7979 0.258789 11.6562 0.158691 11.5 0.0952148C11.3438 0.0317383 11.1729 0 10.9873 0H10.4453C10.2598 0 10.0889 0.0317383 9.93262 0.0952148C9.77637 0.158691 9.63477 0.258789 9.50781 0.395508C9.37109 0.522461 9.271 0.666504 9.20752 0.827637C9.14404 0.98877 9.1123 1.15723 9.1123 1.33301V2.13867H5.88965V1.33301C5.88965 1.15723 5.85791 0.98877 5.79443 0.827637C5.73096 0.666504 5.63086 0.522461 5.49414 0.395508C5.36719 0.258789 5.22559 0.158691 5.06934 0.0952148C4.91309 0.0317383 4.74219 0 4.55664 0H4.01465C3.8291 0 3.6582 0.0317383 3.50195 0.0952148C3.3457 0.158691 3.2041 0.258789 3.07715 0.395508C2.94043 0.522461 2.84033 0.666504 2.77686 0.827637C2.71338 0.98877 2.68164 1.15723 2.68164 1.33301V2.13867H1.6123C1.46582 2.13867 1.3291 2.16553 1.20215 2.21924C1.0752 2.27295 0.958008 2.35352 0.850586 2.46094C0.743164 2.56836 0.665039 2.68555 0.616211 2.8125C0.567383 2.93945 0.542969 3.07129 0.542969 3.20801V13.9307C0.542969 14.0771 0.567383 14.2114 0.616211 14.3335C0.665039 14.4556 0.743164 14.5703 0.850586 14.6777C0.958008 14.7852 1.0752 14.8657 1.20215 14.9194C1.3291 14.9731 1.46582 15 1.6123 15H13.3896C13.5361 15 13.6729 14.9731 13.7998 14.9194C13.9268 14.8657 14.0439 14.7852 14.1514 14.6777C14.2588 14.5703 14.3369 14.4556 14.3857 14.3335C14.4346 14.2114 14.459 14.0771 14.459 13.9307V3.20801C14.459 3.07129 14.4346 2.93945 14.3857 2.8125C14.3369 2.68555 14.2588 2.56836 14.1514 2.46094ZM10.1816 1.33301C10.1816 1.29395 10.1865 1.25977 10.1963 1.23047C10.2061 1.20117 10.2256 1.17188 10.2549 1.14258C10.2842 1.12305 10.3135 1.10596 10.3428 1.09131C10.3721 1.07666 10.4062 1.06934 10.4453 1.06934H10.9873C11.0264 1.06934 11.0605 1.07666 11.0898 1.09131C11.1191 1.10596 11.1484 1.12305 11.1777 1.14258C11.1973 1.17188 11.2144 1.20117 11.229 1.23047C11.2437 1.25977 11.251 1.29395 11.251 1.33301V3.75C11.251 3.78906 11.2437 3.82568 11.229 3.85986C11.2144 3.89404 11.1973 3.9209 11.1777 3.94043C11.1484 3.96973 11.1191 3.98926 11.0898 3.99902C11.0605 4.00879 11.0264 4.01367 10.9873 4.01367H10.4453C10.4062 4.01367 10.3721 4.00879 10.3428 3.99902C10.3135 3.98926 10.2842 3.96973 10.2549 3.94043C10.2256 3.9209 10.2061 3.89404 10.1963 3.85986C10.1865 3.82568 10.1816 3.78906 10.1816 3.75V1.33301ZM3.75098 1.33301C3.75098 1.29395 3.7583 1.25977 3.77295 1.23047C3.7876 1.20117 3.80469 1.17188 3.82422 1.14258C3.85352 1.12305 3.88281 1.10596 3.91211 1.09131C3.94141 1.07666 3.97559 1.06934 4.01465 1.06934H4.55664C4.5957 1.06934 4.62988 1.07666 4.65918 1.09131C4.68848 1.10596 4.71777 1.12305 4.74707 1.14258C4.77637 1.17188 4.7959 1.20117 4.80566 1.23047C4.81543 1.25977 4.82031 1.29395 4.82031 1.33301V3.75C4.82031 3.78906 4.81543 3.82568 4.80566 3.85986C4.7959 3.89404 4.77637 3.9209 4.74707 3.94043C4.71777 3.96973 4.68848 3.98926 4.65918 3.99902C4.62988 4.00879 4.5957 4.01367 4.55664 4.01367H4.01465C3.97559 4.01367 3.94141 4.00879 3.91211 3.99902C3.88281 3.98926 3.85352 3.96973 3.82422 3.94043C3.80469 3.9209 3.7876 3.89404 3.77295 3.85986C3.7583 3.82568 3.75098 3.78906 3.75098 3.75V1.33301ZM13.3896 13.9307H1.6123V5.36133H13.3896V13.9307Z" fill="#6E7699"/>
</g>
<defs>
<clipPath id="clip0_88_1148">
<rect width="15" height="15" fill="white" transform="matrix(1 0 0 -1 0 15)"/>
</clipPath>
</defs>
</svg>
