<svg width="13" height="13" viewBox="0 0 13 13" fill="none" xmlns="http://www.w3.org/2000/svg">
<path fill-rule="evenodd" clip-rule="evenodd" d="M10.5457 2.42123C10.7044 2.26258 10.9616 2.26258 11.1203 2.42123L12.2036 3.50457C12.3623 3.66322 12.3623 3.92044 12.2036 4.07909L11.1203 5.16242C10.9616 5.32107 10.7044 5.32107 10.5457 5.16242C10.3871 5.00377 10.3871 4.74655 10.5457 4.5879L10.9356 4.19808H9.96479C9.50763 4.19808 9.19352 4.19852 8.94641 4.22254C8.70805 4.24571 8.56386 4.28855 8.44426 4.35627C8.32465 4.42399 8.21372 4.52559 8.07123 4.71806C7.92349 4.9176 7.76151 5.18672 7.5263 5.57873L6.1596 7.85657C5.93703 8.22752 5.75509 8.53077 5.58113 8.76573C5.39928 9.01135 5.20834 9.20788 4.95541 9.35109C4.70248 9.4943 4.43571 9.55691 4.13154 9.58647C3.84056 9.61476 3.48692 9.61475 3.05433 9.61475H1.08301C0.858642 9.61475 0.676758 9.43286 0.676758 9.2085C0.676758 8.98413 0.858642 8.80225 1.08301 8.80225H3.03456C3.49172 8.80225 3.80583 8.8018 4.05294 8.77779C4.29129 8.75462 4.43549 8.71177 4.55509 8.64405C4.6747 8.57633 4.78562 8.47473 4.92812 8.28227C5.07585 8.08273 5.23784 7.81361 5.47305 7.42159L6.83975 5.14375C7.06232 4.7728 7.24426 4.46956 7.41822 4.23459C7.60007 3.98898 7.79101 3.79244 8.04394 3.64924C8.29687 3.50603 8.56364 3.44341 8.8678 3.41385C9.15879 3.38557 9.51242 3.38557 9.94502 3.38558L10.9356 3.38558L10.5457 2.99576C10.3871 2.83711 10.3871 2.57988 10.5457 2.42123ZM4.18747 4.22053C4.08124 4.19985 3.96106 4.19808 3.6113 4.19808H1.08301C0.858642 4.19808 0.676758 4.0162 0.676758 3.79183C0.676758 3.56746 0.858642 3.38558 1.08301 3.38558H3.6113C3.62463 3.38558 3.63778 3.38558 3.65075 3.38557C3.94611 3.3855 4.14982 3.38545 4.3427 3.423C4.77574 3.50729 5.16957 3.73027 5.46464 4.05823C5.59608 4.20431 5.70084 4.37901 5.85274 4.63233C5.85941 4.64345 5.86617 4.65472 5.87303 4.66615C5.98847 4.85854 5.92608 5.10808 5.73369 5.22352C5.5413 5.33895 5.29175 5.27657 5.17632 5.08418C4.99637 4.78427 4.93302 4.68212 4.86063 4.60167C4.68359 4.40489 4.44729 4.2711 4.18747 4.22053ZM7.26566 7.77681C7.45805 7.66137 7.7076 7.72376 7.82303 7.91615C8.00297 8.21605 8.06633 8.3182 8.13872 8.39865C8.31576 8.59543 8.55206 8.72922 8.81188 8.77979C8.91811 8.80047 9.03829 8.80225 9.38805 8.80225H10.9356L10.5457 8.41242C10.3871 8.25377 10.3871 7.99655 10.5457 7.8379C10.7044 7.67925 10.9616 7.67925 11.1203 7.8379L12.2036 8.92123C12.3623 9.07988 12.3623 9.33711 12.2036 9.49576L11.1203 10.5791C10.9616 10.7377 10.7044 10.7377 10.5457 10.5791C10.3871 10.4204 10.3871 10.1632 10.5457 10.0046L10.9356 9.61475H9.38805C9.37471 9.61475 9.36156 9.61475 9.34859 9.61475C9.05323 9.61482 8.84953 9.61487 8.65665 9.57733C8.22361 9.49304 7.82978 9.27006 7.5347 8.94209C7.40327 8.79601 7.29851 8.62131 7.14661 8.368C7.13994 8.35688 7.13317 8.34561 7.12632 8.33418C7.01088 8.14178 7.07327 7.89224 7.26566 7.77681Z" fill="#122986"/>
</svg>
