<svg width="18" height="18" viewBox="0 0 18 18" fill="none" xmlns="http://www.w3.org/2000/svg">
<path d="M13.125 10.2083C13.5852 10.2083 13.9583 9.83524 13.9583 9.375C13.9583 8.91476 13.5852 8.54167 13.125 8.54167C12.6648 8.54167 12.2917 8.91476 12.2917 9.375C12.2917 9.83524 12.6648 10.2083 13.125 10.2083Z" fill="#939393"/>
<path d="M13.125 13.5417C13.5852 13.5417 13.9583 13.1686 13.9583 12.7083C13.9583 12.2481 13.5852 11.875 13.125 11.875C12.6648 11.875 12.2917 12.2481 12.2917 12.7083C12.2917 13.1686 12.6648 13.5417 13.125 13.5417Z" fill="#939393"/>
<path d="M9.79167 9.375C9.79167 9.83524 9.41857 10.2083 8.95833 10.2083C8.4981 10.2083 8.125 9.83524 8.125 9.375C8.125 8.91476 8.4981 8.54167 8.95833 8.54167C9.41857 8.54167 9.79167 8.91476 9.79167 9.375Z" fill="#939393"/>
<path d="M9.79167 12.7083C9.79167 13.1686 9.41857 13.5417 8.95833 13.5417C8.4981 13.5417 8.125 13.1686 8.125 12.7083C8.125 12.2481 8.4981 11.875 8.95833 11.875C9.41857 11.875 9.79167 12.2481 9.79167 12.7083Z" fill="#939393"/>
<path d="M4.79167 10.2083C5.2519 10.2083 5.625 9.83524 5.625 9.375C5.625 8.91476 5.2519 8.54167 4.79167 8.54167C4.33143 8.54167 3.95833 8.91476 3.95833 9.375C3.95833 9.83524 4.33143 10.2083 4.79167 10.2083Z" fill="#939393"/>
<path d="M4.79167 13.5417C5.2519 13.5417 5.625 13.1686 5.625 12.7083C5.625 12.2481 5.2519 11.875 4.79167 11.875C4.33143 11.875 3.95833 12.2481 3.95833 12.7083C3.95833 13.1686 4.33143 13.5417 4.79167 13.5417Z" fill="#939393"/>
<path fill-rule="evenodd" clip-rule="evenodd" d="M4.79167 0C5.13685 0 5.41667 0.279822 5.41667 0.625V1.2606C5.96833 1.24999 6.57611 1.24999 7.24455 1.25H10.672C11.3405 1.24999 11.9483 1.24999 12.5 1.2606V0.625C12.5 0.279822 12.7798 0 13.125 0C13.4702 0 13.75 0.279822 13.75 0.625V1.31424C13.9666 1.33075 14.1717 1.35152 14.3659 1.37761C15.3429 1.50897 16.1337 1.78573 16.7573 2.40937C17.3809 3.03301 17.6577 3.8238 17.7891 4.80081C17.9167 5.75015 17.9167 6.96317 17.9167 8.49462V10.2553C17.9167 11.7868 17.9167 12.9998 17.7891 13.9492C17.6577 14.9262 17.3809 15.717 16.7573 16.3406C16.1337 16.9643 15.3429 17.241 14.3659 17.3724C13.4165 17.5 12.2035 17.5 10.672 17.5H7.24466C5.71321 17.5 4.50015 17.5 3.55082 17.3724C2.5738 17.241 1.78301 16.9643 1.15937 16.3406C0.535734 15.717 0.258969 14.9262 0.127613 13.9492C-2.31862e-05 12.9998 -1.28481e-05 11.7868 2.64964e-07 10.2553V8.49465C-1.28481e-05 6.96319 -2.31862e-05 5.75016 0.127613 4.80081C0.258969 3.8238 0.535734 3.03301 1.15937 2.40937C1.78301 1.78573 2.5738 1.50897 3.55082 1.37761C3.74492 1.35152 3.95005 1.33075 4.16667 1.31424V0.625C4.16667 0.279822 4.44649 0 4.79167 0ZM3.71738 2.61647C2.87897 2.72919 2.39593 2.94058 2.04325 3.29325C1.69058 3.64593 1.47919 4.12897 1.36647 4.96737C1.34738 5.10936 1.33142 5.25884 1.31807 5.41667H16.5986C16.5853 5.25884 16.5693 5.10936 16.5502 4.96737C16.4375 4.12897 16.2261 3.64593 15.8734 3.29325C15.5207 2.94058 15.0377 2.72919 14.1993 2.61647C13.3429 2.50133 12.214 2.5 10.625 2.5H7.29167C5.70265 2.5 4.57376 2.50133 3.71738 2.61647ZM1.25 8.54167C1.25 7.82999 1.25027 7.21061 1.2609 6.66667H16.6558C16.6664 7.21061 16.6667 7.82999 16.6667 8.54167V10.2083C16.6667 11.7973 16.6653 12.9262 16.5502 13.7826C16.4375 14.621 16.2261 15.1041 15.8734 15.4567C15.5207 15.8094 15.0377 16.0208 14.1993 16.1335C13.3429 16.2487 12.214 16.25 10.625 16.25H7.29167C5.70265 16.25 4.57376 16.2487 3.71737 16.1335C2.87897 16.0208 2.39593 15.8094 2.04325 15.4567C1.69058 15.1041 1.47919 14.621 1.36647 13.7826C1.25133 12.9262 1.25 11.7973 1.25 10.2083V8.54167Z" fill="#939393"/>
</svg>
