<svg width="20" height="20" viewBox="0 0 20 20" fill="none" xmlns="http://www.w3.org/2000/svg">
<path fill-rule="evenodd" clip-rule="evenodd" d="M18.5355 18.5355C20 17.0711 20 14.714 20 10C20 5.28595 20 2.92893 18.5355 1.46447C17.0711 0 14.714 0 10 0C5.28595 0 2.92893 0 1.46447 1.46447C0 2.92893 0 5.28595 0 10C0 14.714 0 17.0711 1.46447 18.5355C2.92893 20 5.28595 20 10 20C14.714 20 17.0711 20 18.5355 18.5355ZM12.8284 6.42157C13.2426 6.42157 13.5784 6.75736 13.5784 7.17157L13.5784 11.4142C13.5784 11.8284 13.2426 12.1642 12.8284 12.1642C12.4142 12.1642 12.0784 11.8284 12.0784 11.4142L12.0784 8.98223L7.7019 13.3588C7.40901 13.6517 6.93413 13.6517 6.64124 13.3588C6.34835 13.0659 6.34835 12.591 6.64124 12.2981L11.0178 7.92157H8.58579C8.17157 7.92157 7.83579 7.58579 7.83579 7.17157C7.83579 6.75736 8.17157 6.42157 8.58579 6.42157L12.8284 6.42157Z" fill="white"/>
</svg>
