<svg width="20" height="20" viewBox="0 0 20 20" fill="none" xmlns="http://www.w3.org/2000/svg">
<path d="M10.0003 7.29163C9.65515 7.29163 9.37533 7.0118 9.37533 6.66663V4.16663C9.37533 3.82145 9.65515 3.54163 10.0003 3.54163C10.3455 3.54163 10.6253 3.82145 10.6253 4.16663V6.66663C10.6253 7.0118 10.3455 7.29163 10.0003 7.29163Z" fill="white"/>
<path fill-rule="evenodd" clip-rule="evenodd" d="M3.33366 6.04163C4.59931 6.04163 5.62533 7.06764 5.62533 8.33329C5.62533 9.59895 4.59931 10.625 3.33366 10.625C2.06801 10.625 1.04199 9.59895 1.04199 8.33329C1.04199 7.06764 2.06801 6.04163 3.33366 6.04163ZM4.37533 8.33329C4.37533 7.758 3.90896 7.29163 3.33366 7.29163C2.75836 7.29163 2.29199 7.758 2.29199 8.33329C2.29199 8.90859 2.75836 9.37496 3.33366 9.37496C3.90896 9.37496 4.37533 8.90859 4.37533 8.33329Z" fill="white"/>
<path fill-rule="evenodd" clip-rule="evenodd" d="M12.292 9.99996C12.292 11.2656 11.266 12.2916 10.0003 12.2916C8.73467 12.2916 7.70866 11.2656 7.70866 9.99996C7.70866 8.73431 8.73467 7.70829 10.0003 7.70829C11.266 7.70829 12.292 8.73431 12.292 9.99996ZM10.0003 11.0416C10.5756 11.0416 11.042 10.5753 11.042 9.99996C11.042 9.42466 10.5756 8.95829 10.0003 8.95829C9.42503 8.95829 8.95866 9.42466 8.95866 9.99996C8.95866 10.5753 9.42503 11.0416 10.0003 11.0416Z" fill="white"/>
<path fill-rule="evenodd" clip-rule="evenodd" d="M18.9587 11.6666C18.9587 12.9323 17.9326 13.9583 16.667 13.9583C15.4013 13.9583 14.3753 12.9323 14.3753 11.6666C14.3753 10.401 15.4013 9.37496 16.667 9.37496C17.9326 9.37496 18.9587 10.401 18.9587 11.6666ZM16.667 12.7083C17.2423 12.7083 17.7087 12.2419 17.7087 11.6666C17.7087 11.0913 17.2423 10.625 16.667 10.625C16.0917 10.625 15.6253 11.0913 15.6253 11.6666C15.6253 12.2419 16.0917 12.7083 16.667 12.7083Z" fill="white"/>
<path d="M16.042 8.33329C16.042 8.67847 16.3218 8.95829 16.667 8.95829C17.0122 8.95829 17.292 8.67847 17.292 8.33329V4.16663C17.292 3.82145 17.0122 3.54163 16.667 3.54163C16.3218 3.54163 16.042 3.82145 16.042 4.16663V8.33329Z" fill="white"/>
<path d="M3.33366 11.0416C2.98848 11.0416 2.70866 11.3214 2.70866 11.6666L2.70866 15.8333C2.70866 16.1785 2.98848 16.4583 3.33366 16.4583C3.67884 16.4583 3.95866 16.1785 3.95866 15.8333L3.95866 11.6666C3.95866 11.3214 3.67884 11.0416 3.33366 11.0416Z" fill="white"/>
<path d="M9.37533 15.8333C9.37533 16.1785 9.65515 16.4583 10.0003 16.4583C10.3455 16.4583 10.6253 16.1785 10.6253 15.8333V13.3333C10.6253 12.9881 10.3455 12.7083 10.0003 12.7083C9.65515 12.7083 9.37533 12.9881 9.37533 13.3333V15.8333Z" fill="white"/>
<path d="M16.667 16.4583C16.3218 16.4583 16.042 16.1785 16.042 15.8333V15C16.042 14.6548 16.3218 14.375 16.667 14.375C17.0122 14.375 17.292 14.6548 17.292 15V15.8333C17.292 16.1785 17.0122 16.4583 16.667 16.4583Z" fill="white"/>
<path d="M2.70866 4.16663C2.70866 3.82145 2.98848 3.54163 3.33366 3.54163C3.67884 3.54163 3.95866 3.82145 3.95866 4.16663V4.99996C3.95866 5.34514 3.67884 5.62496 3.33366 5.62496C2.98848 5.62496 2.70866 5.34514 2.70866 4.99996V4.16663Z" fill="white"/>
</svg>
