<svg width="56" height="55" viewBox="0 0 56 55" fill="none" xmlns="http://www.w3.org/2000/svg">
<g clip-path="url(#clip0_72_294)">
<path fill-rule="evenodd" clip-rule="evenodd" d="M25.9769 1.21906L24.5383 3.94323C24.4876 4.04099 24.3923 4.10979 24.2848 4.1279L21.2496 4.65535C20.4144 4.80019 19.7277 5.39644 19.4658 6.20271C19.2039 7.00898 19.4103 7.8949 19.9992 8.50323L22.1451 10.7144C22.2223 10.7941 22.2585 10.9039 22.2428 11.0126L21.8059 14.0614C21.6852 14.9015 22.0401 15.7391 22.7256 16.2364C23.4111 16.7349 24.3162 16.8133 25.0778 16.4392L27.8427 15.0801C27.9417 15.0318 28.0575 15.0318 28.1577 15.0801L30.9226 16.4392C31.683 16.8133 32.5893 16.7349 33.2748 16.2364C33.9615 15.7379 34.3151 14.9015 34.1945 14.0614L33.7576 11.0126C33.7419 10.9039 33.7781 10.7929 33.8553 10.7144L36.0011 8.50323C36.5913 7.8949 36.7965 7.00898 36.5346 6.20271C36.2715 5.39644 35.586 4.80019 34.7508 4.65535L31.7155 4.1279C31.6069 4.10979 31.5128 4.04099 31.4621 3.94323L30.0235 1.21906C29.6264 0.468311 28.848 0 28.0008 0C27.1536 0 26.3751 0.468311 25.9781 1.21906H25.9769ZM27.6858 2.12068C27.7474 2.0036 27.868 1.93118 28.0008 1.93118C28.1335 1.93118 28.2542 2.0036 28.3158 2.12068L29.7556 4.84485C30.0863 5.47127 30.6885 5.90941 31.3861 6.03011L34.4213 6.55756C34.5517 6.57929 34.6591 6.67223 34.6989 6.79775C34.7388 6.92328 34.7074 7.06088 34.6157 7.15623L32.4698 9.36622C31.9762 9.87557 31.7457 10.5829 31.8471 11.2853L32.284 14.3342C32.3033 14.4657 32.2478 14.5961 32.1416 14.6733C32.0342 14.7506 31.893 14.7627 31.7747 14.7047L29.0097 13.3457C28.3749 13.0343 27.6291 13.0343 26.9943 13.3457L24.2293 14.7047C24.1111 14.7627 23.9698 14.7506 23.8624 14.6733C23.7562 14.5961 23.7007 14.4657 23.72 14.3342L24.1569 11.2853C24.2583 10.5829 24.0278 9.87557 23.5342 9.36622L21.3884 7.15623C21.2966 7.06208 21.2653 6.92328 21.3051 6.79775C21.3449 6.67223 21.4523 6.57929 21.5827 6.55756L24.6179 6.03011C25.3155 5.90941 25.9189 5.47127 26.2484 4.84485L27.6882 2.12068H27.6858Z" fill="white"/>
<path fill-rule="evenodd" clip-rule="evenodd" d="M51.8083 10.2423L48.8648 11.1511C48.7598 11.1837 48.6451 11.1656 48.5546 11.1028L46.0359 9.32857C45.3431 8.84095 44.4356 8.77577 43.6801 9.1608C42.9246 9.54583 42.4442 10.3171 42.4322 11.1656L42.3863 14.247C42.3839 14.3569 42.332 14.4607 42.2439 14.5259L39.7795 16.3738C39.1012 16.8819 38.7584 17.7244 38.8924 18.562C39.0252 19.3997 39.6093 20.0949 40.4119 20.3701L43.3277 21.3647C43.4314 21.4009 43.5135 21.4829 43.5497 21.5867L44.5454 24.5028C44.8181 25.3055 45.5145 25.8909 46.3521 26.0236C47.1896 26.1564 48.032 25.8136 48.5401 25.1353L50.3879 22.6706C50.453 22.5813 50.5568 22.5294 50.6678 22.5282L53.7478 22.4823C54.595 22.4703 55.3674 21.9887 55.7524 21.2343C56.1374 20.4787 56.0734 19.5711 55.5846 18.8783L53.8105 16.3605C53.7466 16.27 53.7285 16.1553 53.7611 16.0491L54.6698 13.1064C54.9196 12.2953 54.7012 11.4142 54.1014 10.8144C53.5016 10.2145 52.6206 9.99604 51.8107 10.2459L51.8083 10.2423ZM52.378 12.0877C52.5035 12.0491 52.6411 12.0829 52.734 12.1771C52.8281 12.2712 52.8619 12.4076 52.8233 12.5343L51.9145 15.477C51.7045 16.1553 51.8216 16.8891 52.2307 17.4685L54.0048 19.9875C54.0797 20.0961 54.0905 20.2361 54.0314 20.3544C53.9723 20.4727 53.8504 20.5463 53.7188 20.5487L50.6389 20.5946C49.9304 20.6055 49.2667 20.9434 48.8418 21.5107L46.9953 23.9754C46.9157 24.0804 46.7853 24.1347 46.655 24.113C46.5247 24.0924 46.416 24.0007 46.3726 23.8764L45.3781 20.9603C45.1488 20.2904 44.6226 19.763 43.9516 19.5337L41.0358 18.5391C40.9115 18.4969 40.8198 18.387 40.7993 18.2567C40.7787 18.1263 40.8318 17.9947 40.9368 17.9163L43.4025 16.0696C43.9697 15.6447 44.3076 14.9809 44.3173 14.2724L44.3632 11.1922C44.3656 11.0594 44.4392 10.9399 44.5575 10.8796C44.6757 10.8192 44.8157 10.8301 44.9243 10.9061L47.4431 12.6804C48.0224 13.0883 48.7586 13.2042 49.4344 12.9954L52.378 12.0865V12.0877Z" fill="white"/>
<path fill-rule="evenodd" clip-rule="evenodd" d="M1.33259 13.1045L2.24137 16.0471C2.27395 16.1533 2.25585 16.2668 2.19188 16.3585L0.417785 18.8763C-0.0709975 19.5691 -0.134962 20.4768 0.25003 21.2323C0.635022 21.9879 1.40621 22.4683 2.25464 22.4804L5.33458 22.5262C5.44561 22.5286 5.5494 22.5805 5.61457 22.6686L7.46229 25.1333C7.97038 25.8116 8.81278 26.1544 9.65034 26.0217C10.4879 25.8889 11.1831 25.3035 11.457 24.5009L12.4527 21.5848C12.4889 21.481 12.571 21.3989 12.6748 21.3627L15.5906 20.3681C16.3931 20.0941 16.9785 19.3989 17.11 18.5601C17.2428 17.7224 16.9012 16.8799 16.223 16.3718L13.7585 14.5251C13.6692 14.4587 13.6173 14.3549 13.6161 14.2451L13.5703 11.1636C13.5582 10.3163 13.0767 9.54386 12.3224 9.15883C11.5669 8.77501 10.6593 8.83898 9.96655 9.3266L7.44781 11.1009C7.3585 11.1648 7.24264 11.183 7.13764 11.1504L4.19408 10.2415C3.38427 9.99165 2.50205 10.2101 1.90344 10.81C1.30242 11.4099 1.08518 12.291 1.33501 13.1021L1.33259 13.1045ZM3.17669 12.5348C3.13807 12.408 3.17186 12.2717 3.266 12.1775C3.35893 12.0834 3.49651 12.0496 3.62203 12.0882L6.56558 12.9971C7.24264 13.2071 7.97762 13.09 8.55692 12.682L11.0757 10.9078C11.1843 10.8317 11.3243 10.8209 11.4425 10.8812C11.5608 10.9416 11.6344 11.0623 11.6369 11.1938L11.6827 14.274C11.6936 14.9825 12.0315 15.6464 12.5975 16.0712L15.0632 17.9179C15.1682 17.9976 15.2213 18.128 15.2007 18.2583C15.1802 18.3887 15.0885 18.4973 14.9642 18.5407L12.0484 19.5353C11.3786 19.7646 10.8512 20.2909 10.6219 20.962L9.62741 23.878C9.58397 24.0024 9.47535 24.0941 9.34501 24.1146C9.21466 24.1363 9.08312 24.082 9.00467 23.977L7.15816 21.5123C6.73334 20.9451 6.06956 20.6071 5.36113 20.5962L2.28119 20.5504C2.14844 20.548 2.02775 20.4743 1.96861 20.3561C1.90948 20.2378 1.91913 20.0978 1.99517 19.9891L3.76926 17.4701C4.17719 16.8908 4.29425 16.1557 4.08546 15.4786L3.17669 12.536V12.5348Z" fill="white"/>
<path fill-rule="evenodd" clip-rule="evenodd" d="M27.9992 18.9521C18.0522 18.9521 9.97705 27.0281 9.97705 36.9761C9.97705 46.9241 18.0522 55 27.9992 55C37.9463 55 46.0214 46.9253 46.0214 36.9761C46.0214 27.0269 37.9463 18.9521 27.9992 18.9521ZM27.9992 20.8833C36.8794 20.8833 44.0905 28.0939 44.0905 36.9761C44.0905 45.8583 36.8806 53.0689 27.9992 53.0689C19.1179 53.0689 11.908 45.8583 11.908 36.9761C11.908 28.0939 19.1179 20.8833 27.9992 20.8833Z" fill="white"/>
<path fill-rule="evenodd" clip-rule="evenodd" d="M34.9388 38.5693C31.3519 38.5693 24.6405 38.5693 21.0549 38.5947C20.1027 38.5947 19.2084 39.0727 18.675 39.8681C18.1415 40.6647 18.0402 41.6749 18.4058 42.5596C19.9374 46.3484 23.6581 49.0291 28.0005 49.0291C32.3428 49.0291 36.0599 46.352 37.618 42.5705C37.9873 41.6761 37.8847 40.6574 37.3465 39.8548C36.8082 39.0521 35.9055 38.5693 34.9388 38.5693ZM34.9388 40.5005C35.261 40.5005 35.5627 40.6623 35.7413 40.929C35.9212 41.1969 35.9549 41.5361 35.8318 41.8342C34.5622 44.9157 31.5342 47.0991 27.9993 47.0991C24.4643 47.0991 21.4411 44.9193 20.1932 41.8318L20.1908 41.8258C20.0713 41.5349 20.1051 41.2042 20.2801 40.9435C20.4551 40.6828 20.7472 40.5259 21.061 40.5259H21.0682C24.6514 40.5005 31.3556 40.5005 34.94 40.5005H34.9388Z" fill="white"/>
<path fill-rule="evenodd" clip-rule="evenodd" d="M19.5175 33.3516C19.5803 32.9496 19.8905 32.6732 20.2417 32.4258C20.442 32.2846 20.681 32.2061 20.9296 32.1192C21.2699 31.9997 21.6465 31.9478 22.0302 31.972C22.3464 31.9527 22.659 31.9828 22.9511 32.0637C23.1611 32.1216 23.3662 32.1723 23.5497 32.2677C24.0397 32.5224 24.4681 32.8507 24.5417 33.3516C24.5417 33.6195 24.759 33.838 25.0269 33.838C25.2948 33.838 25.5133 33.6195 25.5133 33.3516C25.6448 32.4608 25.1874 31.6207 24.4573 30.9641C24.0155 30.5682 23.4423 30.2943 22.8232 30.1361C22.5661 30.071 22.2994 30.0516 22.029 30.042C21.6694 30.0565 21.3122 30.0963 20.9791 30.2025C20.4577 30.3679 19.9737 30.6117 19.5948 30.9533C18.8622 31.6135 18.4096 32.4584 18.5448 33.3516C18.5448 33.6195 18.7632 33.838 19.0312 33.838C19.2991 33.838 19.5163 33.6195 19.5163 33.3516H19.5175Z" fill="white"/>
<path fill-rule="evenodd" clip-rule="evenodd" d="M31.4569 33.3516C31.5209 32.9496 31.8299 32.6732 32.1823 32.4258C32.3814 32.2846 32.6216 32.2061 32.869 32.1192C33.2105 31.9997 33.5871 31.9478 33.9697 31.972C34.2859 31.9527 34.5984 31.9828 34.8905 32.0637C35.1005 32.1216 35.3057 32.1723 35.4891 32.2677C35.9803 32.5224 36.4075 32.8507 36.4811 33.3516C36.4811 33.6195 36.6996 33.838 36.9663 33.838C37.233 33.838 37.4527 33.6195 37.4527 33.3516C37.5842 32.4608 37.128 31.6207 36.3967 30.9641C35.955 30.5682 35.3817 30.2943 34.7626 30.1361C34.5067 30.071 34.2388 30.0516 33.9684 30.042C33.6088 30.0565 33.2516 30.0963 32.9185 30.2025C32.3971 30.3679 31.9131 30.6117 31.5342 30.9533C30.8028 31.6135 30.349 32.4584 30.4842 33.3516C30.4842 33.6195 30.7027 33.838 30.9706 33.838C31.2385 33.838 31.4557 33.6195 31.4557 33.3516H31.4569Z" fill="white"/>
<path fill-rule="evenodd" clip-rule="evenodd" d="M22.0098 46.2011C21.8384 46.6295 21.9929 47.1196 22.3803 47.3706C24 48.4207 25.9285 49.0302 27.9995 49.0302C30.0705 49.0302 31.9991 48.4207 33.6187 47.3731C34.0073 47.122 34.1618 46.632 33.9904 46.2023C33.1323 44.0587 30.7874 42.4751 27.9995 42.4751C25.2116 42.4751 22.8691 44.0587 22.0098 46.2011ZM24.2027 46.1938C24.9823 45.11 26.4016 44.4063 27.9995 44.4063C29.5974 44.4063 31.0179 45.1087 31.7975 46.195C30.6558 46.7732 29.3657 47.0991 27.9995 47.0991C26.6333 47.0991 25.3432 46.7732 24.2027 46.1938Z" fill="white"/>
</g>
<defs>
<clipPath id="clip0_72_294">
<rect width="56" height="55" fill="white"/>
</clipPath>
</defs>
</svg>
