<svg width="17" height="17" viewBox="0 0 17 17" fill="none" xmlns="http://www.w3.org/2000/svg">
<g clip-path="url(#clip0_25_200)">
<path d="M8.31618 0.621277C6.19586 0.621277 5.92923 0.631043 5.09614 0.668156C4.26306 0.707223 3.69562 0.838094 3.1985 1.03147C2.67681 1.22712 2.2044 1.53484 1.81458 1.93293C1.41649 2.32275 1.10877 2.79516 0.913125 3.31685C0.719747 3.81299 0.587899 4.3814 0.549809 5.21156C0.512696 6.0466 0.50293 6.31225 0.50293 8.4355C0.50293 10.5568 0.512696 10.8224 0.549809 11.6555C0.588875 12.4876 0.719747 13.0551 0.913125 13.5522C1.11334 14.0659 1.37997 14.5015 1.81458 14.9361C2.24821 15.3707 2.6838 15.6383 3.19752 15.8376C3.69562 16.031 4.26208 16.1628 5.09419 16.2009C5.92825 16.238 6.1939 16.2478 8.31618 16.2478C10.4385 16.2478 10.7031 16.238 11.5372 16.2009C12.3683 16.1618 12.9377 16.031 13.4348 15.8376C13.9562 15.6418 14.4282 15.3341 14.8178 14.9361C15.2524 14.5015 15.519 14.0659 15.7192 13.5522C15.9116 13.0551 16.0435 12.4876 16.0825 11.6555C16.1197 10.8224 16.1294 10.5568 16.1294 8.43453C16.1294 6.31225 16.1197 6.0466 16.0825 5.21254C16.0435 4.3814 15.9116 3.81299 15.7192 3.31685C15.5236 2.79516 15.2159 2.32275 14.8178 1.93293C14.428 1.53484 13.9555 1.22712 13.4339 1.03147C12.9358 0.838094 12.3673 0.706246 11.5362 0.668156C10.7021 0.631043 10.4375 0.621277 8.31423 0.621277H8.31618ZM7.61592 2.02961H8.31716C10.4033 2.02961 10.6504 2.03645 11.4737 2.07454C12.2355 2.10872 12.6496 2.23667 12.925 2.34312C13.2893 2.48474 13.5501 2.65467 13.8235 2.92814C14.097 3.2016 14.266 3.46139 14.4076 3.82666C14.515 4.1011 14.642 4.5152 14.6762 5.277C14.7143 6.10032 14.7221 6.34741 14.7221 8.43257C14.7221 10.5177 14.7143 10.7658 14.6762 11.5891C14.642 12.3509 14.514 12.764 14.4076 13.0395C14.2814 13.3783 14.0816 13.6848 13.8226 13.937C13.5491 14.2105 13.2893 14.3794 12.924 14.521C12.6506 14.6285 12.2365 14.7554 11.4737 14.7906C10.6504 14.8277 10.4033 14.8365 8.31716 14.8365C6.23102 14.8365 5.98295 14.8277 5.15963 14.7906C4.39783 14.7554 3.98471 14.6285 3.70929 14.521C3.37023 14.3953 3.06333 14.1958 2.81077 13.937C2.55124 13.6846 2.35108 13.3777 2.22477 13.0385C2.11832 12.764 1.99038 12.3499 1.95619 11.5881C1.91908 10.7648 1.91127 10.5177 1.91127 8.43062C1.91127 6.3435 1.91908 6.09836 1.95619 5.27504C1.99135 4.51325 2.11832 4.09915 2.22575 3.82373C2.36737 3.45944 2.5373 3.19867 2.81077 2.92521C3.08423 2.65174 3.34402 2.48278 3.70929 2.34117C3.98471 2.23374 4.39783 2.10677 5.15963 2.07161C5.8804 2.0384 6.15972 2.02864 7.61592 2.02766V2.02961ZM12.4875 3.32661C12.3644 3.32661 12.2424 3.35087 12.1287 3.39798C12.0149 3.4451 11.9116 3.51416 11.8245 3.60123C11.7374 3.68829 11.6684 3.79165 11.6213 3.9054C11.5741 4.01916 11.5499 4.14108 11.5499 4.2642C11.5499 4.38733 11.5741 4.50925 11.6213 4.623C11.6684 4.73676 11.7374 4.84012 11.8245 4.92718C11.9116 5.01424 12.0149 5.08331 12.1287 5.13042C12.2424 5.17754 12.3644 5.20179 12.4875 5.20179C12.7361 5.20179 12.9746 5.10301 13.1505 4.92718C13.3263 4.75135 13.4251 4.51287 13.4251 4.2642C13.4251 4.01554 13.3263 3.77706 13.1505 3.60123C12.9746 3.4254 12.7361 3.32661 12.4875 3.32661ZM8.31716 4.42242C7.78495 4.41412 7.2564 4.51177 6.7623 4.7097C6.26819 4.90762 5.8184 5.20186 5.4391 5.57529C5.0598 5.94872 4.75858 6.39387 4.55297 6.88483C4.34736 7.37578 4.24147 7.90274 4.24147 8.43501C4.24147 8.96729 4.34736 9.49424 4.55297 9.9852C4.75858 10.4762 5.0598 10.9213 5.4391 11.2947C5.8184 11.6682 6.26819 11.9624 6.7623 12.1603C7.2564 12.3583 7.78495 12.4559 8.31716 12.4476C9.37052 12.4312 10.3752 12.0012 11.1143 11.2505C11.8534 10.4998 12.2676 9.48851 12.2676 8.43501C12.2676 7.38152 11.8534 6.37028 11.1143 5.61956C10.3752 4.86884 9.37052 4.43886 8.31716 4.42242ZM8.31716 5.82978C8.65921 5.82978 8.99792 5.89716 9.31395 6.02806C9.62997 6.15896 9.91711 6.35082 10.159 6.59269C10.4009 6.83457 10.5927 7.12171 10.7236 7.43773C10.8545 7.75376 10.9219 8.09247 10.9219 8.43453C10.9219 8.77658 10.8545 9.1153 10.7236 9.43132C10.5927 9.74734 10.4009 10.0345 10.159 10.2764C9.91711 10.5182 9.62997 10.7101 9.31395 10.841C8.99792 10.9719 8.65921 11.0393 8.31716 11.0393C7.62634 11.0393 6.96381 10.7648 6.47532 10.2764C5.98684 9.78787 5.71241 9.12535 5.71241 8.43453C5.71241 7.7437 5.98684 7.08118 6.47532 6.59269C6.96381 6.10421 7.62634 5.82978 8.31716 5.82978Z" fill="white"/>
</g>
<defs>
<clipPath id="clip0_25_200">
<rect width="15.6265" height="15.6265" fill="white" transform="translate(0.50293 0.621277)"/>
</clipPath>
</defs>
</svg>
