<svg width="17" height="16" viewBox="0 0 17 16" fill="none" xmlns="http://www.w3.org/2000/svg">
<g clip-path="url(#clip0_25_30)">
<path d="M16.3101 6.33929V13.4286C16.3101 13.8214 16.1702 14.1577 15.8904 14.4375C15.6107 14.7173 15.2743 14.8571 14.8815 14.8571H1.73863C1.34577 14.8571 1.00946 14.7173 0.729701 14.4375C0.44994 14.1577 0.310059 13.8214 0.310059 13.4286V6.33929C0.571963 6.63096 0.872559 6.88988 1.21184 7.11608C3.36661 8.58036 4.84577 9.60715 5.64934 10.1964C5.98863 10.4464 6.26393 10.6414 6.47524 10.7813C6.68655 10.9211 6.9678 11.064 7.31899 11.2098C7.67018 11.3557 7.99756 11.4286 8.30113 11.4286H8.31006H8.31899C8.62256 11.4286 8.94994 11.3557 9.30113 11.2098C9.65232 11.064 9.93357 10.9211 10.1449 10.7813C10.3562 10.6414 10.6315 10.4464 10.9708 10.1964C11.9827 9.46429 13.4648 8.4375 15.4172 7.11608C15.7565 6.88393 16.0541 6.625 16.3101 6.33929ZM16.3101 3.71429C16.3101 4.18453 16.1642 4.63393 15.8726 5.0625C15.5809 5.49108 15.2178 5.85715 14.7833 6.16072C12.5452 7.71429 11.1523 8.68155 10.6047 9.0625C10.5452 9.10417 10.4187 9.19494 10.2252 9.33483C10.0318 9.47471 9.87107 9.5878 9.74309 9.67411C9.61512 9.76042 9.46036 9.85715 9.27881 9.96429C9.09726 10.0714 8.92613 10.1518 8.76542 10.2054C8.6047 10.2589 8.45589 10.2857 8.31899 10.2857H8.31006H8.30113C8.16423 10.2857 8.01542 10.2589 7.8547 10.2054C7.69399 10.1518 7.52286 10.0714 7.34131 9.96429C7.15976 9.85715 7.005 9.76042 6.87702 9.67411C6.74905 9.5878 6.58833 9.47471 6.39488 9.33483C6.20143 9.19494 6.07494 9.10417 6.01542 9.0625C5.47375 8.68155 4.69399 8.1384 3.67613 7.43304C2.65827 6.72768 2.04815 6.30358 1.84577 6.16072C1.47673 5.91072 1.12851 5.56697 0.80113 5.12947C0.473749 4.69197 0.310059 4.28572 0.310059 3.91072C0.310059 3.44643 0.433571 3.05953 0.680594 2.75C0.927618 2.44048 1.2803 2.28572 1.73863 2.28572H14.8815C15.2684 2.28572 15.6032 2.4256 15.886 2.70536C16.1687 2.98512 16.3101 3.32143 16.3101 3.71429Z" fill="#A9A9A9"/>
</g>
<defs>
<clipPath id="clip0_25_30">
<rect width="16" height="16" fill="white" transform="matrix(1 0 0 -1 0.310059 16)"/>
</clipPath>
</defs>
</svg>
