<svg width="17" height="13" viewBox="0 0 17 13" fill="none" xmlns="http://www.w3.org/2000/svg">
<path d="M16.3101 4.33929V11.4286C16.3101 11.8214 16.1702 12.1577 15.8904 12.4375C15.6107 12.7173 15.2743 12.8571 14.8815 12.8571H1.73863C1.34577 12.8571 1.00946 12.7173 0.729701 12.4375C0.44994 12.1577 0.310059 11.8214 0.310059 11.4286V4.33929C0.571963 4.63096 0.872559 4.88988 1.21184 5.11608C3.36661 6.58036 4.84577 7.60715 5.64934 8.19643C5.98863 8.44643 6.26393 8.64137 6.47524 8.78125C6.68655 8.92114 6.9678 9.06399 7.31899 9.20983C7.67018 9.35566 7.99756 9.42858 8.30113 9.42858H8.31006H8.31899C8.62256 9.42858 8.94994 9.35566 9.30113 9.20983C9.65232 9.06399 9.93357 8.92114 10.1449 8.78125C10.3562 8.64137 10.6315 8.44643 10.9708 8.19643C11.9827 7.46429 13.4648 6.4375 15.4172 5.11608C15.7565 4.88393 16.0541 4.625 16.3101 4.33929ZM16.3101 1.71429C16.3101 2.18453 16.1642 2.63393 15.8726 3.0625C15.5809 3.49108 15.2178 3.85715 14.7833 4.16072C12.5452 5.71429 11.1523 6.68155 10.6047 7.0625C10.5452 7.10417 10.4187 7.19494 10.2252 7.33483C10.0318 7.47471 9.87107 7.5878 9.74309 7.67411C9.61512 7.76042 9.46036 7.85715 9.27881 7.96429C9.09726 8.07143 8.92613 8.15179 8.76542 8.20536C8.6047 8.25893 8.45589 8.28572 8.31899 8.28572H8.31006H8.30113C8.16423 8.28572 8.01542 8.25893 7.8547 8.20536C7.69399 8.15179 7.52286 8.07143 7.34131 7.96429C7.15976 7.85715 7.005 7.76042 6.87702 7.67411C6.74905 7.5878 6.58833 7.47471 6.39488 7.33483C6.20143 7.19494 6.07494 7.10417 6.01542 7.0625C5.47375 6.68155 4.69399 6.1384 3.67613 5.43304C2.65827 4.72768 2.04815 4.30358 1.84577 4.16072C1.47673 3.91072 1.12851 3.56697 0.80113 3.12947C0.473749 2.69197 0.310059 2.28572 0.310059 1.91072C0.310059 1.44643 0.433571 1.05953 0.680594 0.750004C0.927618 0.44048 1.2803 0.285718 1.73863 0.285718H14.8815C15.2684 0.285718 15.6032 0.425599 15.886 0.705361C16.1687 0.985123 16.3101 1.32143 16.3101 1.71429Z" fill="white"/>
</svg>
