<svg width="22" height="22" viewBox="0 0 22 22" fill="none" xmlns="http://www.w3.org/2000/svg">
<path fill-rule="evenodd" clip-rule="evenodd" d="M10.9998 2.75C6.94975 2.75 3.6665 6.41903 3.6665 10.5417C3.6665 14.632 6.00705 19.078 9.65882 20.7849C10.5101 21.1828 11.4896 21.1828 12.3409 20.7849C15.9926 19.078 18.3332 14.632 18.3332 10.5417C18.3332 6.41903 15.0499 2.75 10.9998 2.75ZM10.9998 11.9167C12.0124 11.9167 12.8332 11.0959 12.8332 10.0833C12.8332 9.07081 12.0124 8.25 10.9998 8.25C9.98732 8.25 9.1665 9.07081 9.1665 10.0833C9.1665 11.0959 9.98732 11.9167 10.9998 11.9167Z" fill="white"/>
</svg>
