<svg width="9" height="5" viewBox="0 0 9 5" fill="none" xmlns="http://www.w3.org/2000/svg">
<path d="M8.55029 0.570312C8.60238 0.622396 8.62842 0.682292 8.62842 0.75C8.62842 0.817708 8.60238 0.877604 8.55029 0.929688L4.90967 4.57031C4.85758 4.6224 4.79769 4.64844 4.72998 4.64844C4.66227 4.64844 4.60238 4.6224 4.55029 4.57031L0.909668 0.929688C0.857585 0.877604 0.831543 0.817708 0.831543 0.75C0.831543 0.682292 0.857585 0.622396 0.909668 0.570312L1.30029 0.179688C1.35238 0.127604 1.41227 0.101562 1.47998 0.101562C1.54769 0.101562 1.60758 0.127604 1.65967 0.179688L4.72998 3.25L7.80029 0.179688C7.85238 0.127604 7.91227 0.101562 7.97998 0.101562C8.04769 0.101562 8.10758 0.127604 8.15967 0.179688L8.55029 0.570312Z" fill="black"/>
</svg>
