<svg width="38" height="38" viewBox="0 0 38 38" fill="none" xmlns="http://www.w3.org/2000/svg">
<path d="M9.42054 28.6317C10.2141 29.4253 10.2139 30.7164 9.4204 31.5098C9.30314 31.6271 9.17206 31.7297 9.03068 31.8151C8.94502 31.8687 8.84402 31.9126 8.74902 31.9591L2.90933 35.0897C2.96716 34.9772 6.05689 29.3848 6.11641 29.2556C6.21846 29.022 6.36162 28.8121 6.54198 28.6317C6.93875 28.2349 7.45991 28.0364 7.98115 28.0364C8.50239 28.0364 9.02377 28.2349 9.42054 28.6317L7.26375 26.4751C6.57575 26.6113 5.9195 26.945 5.38743 27.477C5.0717 27.7927 4.81906 28.1589 4.63612 28.5656L0.14907 36.7188C-0.0253448 37.0356 0.0295029 37.4292 0.283851 37.6865C0.44112 37.8455 0.65153 37.9288 0.864537 37.9288C0.995979 37.9288 1.12846 37.8971 1.25003 37.8319L9.49485 33.412C9.89993 33.229 10.261 32.9777 10.5749 32.6645C11.107 32.1324 11.4408 31.4762 11.577 30.7882L9.42054 28.6317Z" fill="white"/>
<path d="M23.993 18.4685C21.6462 18.517 19.5347 16.4579 19.5818 14.0594C19.5659 10.1606 24.3602 8.17565 27.1122 10.9403C28.8233 12.5822 28.8236 15.5367 27.1122 17.1787C26.2522 18.0385 25.1226 18.4685 23.993 18.4685ZM23.993 11.2823C22.515 11.2516 21.1849 12.5488 21.2147 14.0594C21.2147 14.8015 21.5036 15.4992 22.0284 16.024C23.7618 17.7651 26.7816 16.5149 26.7714 14.0592C26.8008 12.5488 25.4711 11.2516 23.993 11.2823Z" fill="white"/>
<path d="M36.8652 7.93855C37.9989 3.8704 38.0005 0.954271 38.0001 0.832107C37.9992 0.610044 37.9078 0.397779 37.747 0.244517C37.5863 0.0912559 37.37 0.0103575 37.1482 0.0197833C32.9419 0.2034 28.9142 1.17656 25.1769 2.91231C20.5935 5.08194 16.7075 8.06494 13.5865 12.2072L6.87919 11.8811C6.64889 11.8693 6.42504 11.9565 6.26229 12.1192L0.239133 18.1423C0.0278318 18.3536 -0.0511368 18.6633 0.0332499 18.95C0.117637 19.2367 0.351871 19.4543 0.643921 19.5175L8.0275 21.1141C6.91896 23.1787 6.22606 24.6442 6.21686 24.6637C6.06998 24.9753 6.13448 25.3456 6.37806 25.5891L9.42029 28.6314L12.5263 31.7373C12.7822 31.9934 13.1757 32.0489 13.4908 31.8788C13.6493 31.7934 15.0058 31.0605 16.8762 29.9875L18.466 37.3394C18.5899 37.9612 19.3982 38.2011 19.8412 37.7442L25.8642 31.7212C26.0271 31.5583 26.1135 31.3342 26.1023 31.1042L25.7764 24.3991C31.6689 20.252 35.1036 14.0422 36.8652 7.93855ZM35.2769 7.55529C34.9979 8.54982 34.629 9.67275 34.1431 10.8733L27.1165 3.84665C30.0322 2.65299 33.1213 1.93373 36.3276 1.70255C36.2476 2.82673 36.006 4.95659 35.2769 7.55529ZM7.161 13.5296L12.4456 13.7865C11.3057 15.4274 9.98873 17.5732 8.84629 19.6206L2.45248 18.238L7.161 13.5296ZM9.46163 21.8997L12.2296 24.6678L9.99771 26.8998L7.94333 24.8453C8.23286 24.2561 8.76167 23.2022 9.46163 21.8997ZM13.2487 30.1505L11.1523 28.0543L13.3842 25.8223L16.1052 28.5433C14.8556 29.2613 13.8328 29.8294 13.2487 30.1505ZM24.4538 30.8222L19.7452 35.5308L18.3603 29.1263C20.1937 28.0501 22.2927 26.7702 24.1947 25.4941L24.4538 30.8222ZM27.6304 20.7921C25.6568 22.7657 21.1209 25.6064 17.5658 27.6947L14.5388 24.6678L18.4733 20.7332C18.7921 20.4144 18.792 19.8975 18.4733 19.5787C18.1544 19.2599 17.6374 19.2599 17.3186 19.5787L13.3841 23.5132L10.2797 20.4086C12.1157 17.1315 14.6997 12.9816 17.2597 10.4215C19.6859 7.99533 22.4637 6.02511 25.5189 4.55834L33.4401 12.4795C32.1774 15.1598 30.3296 18.093 27.6304 20.7921Z" fill="white"/>
</svg>
