<svg width="13" height="16" viewBox="0 0 13 16" fill="none" xmlns="http://www.w3.org/2000/svg">
<g clip-path="url(#clip0_25_224)">
<path d="M12.5753 11.0714C12.5753 11.2322 12.5456 11.442 12.486 11.7009C12.4265 11.9598 12.364 12.1637 12.2985 12.3125C12.1735 12.6101 11.8105 12.9256 11.2093 13.2589C10.6497 13.5625 10.0962 13.7143 9.54855 13.7143C9.38784 13.7143 9.2301 13.7039 9.07534 13.683C8.92057 13.6622 8.74944 13.625 8.56194 13.5714C8.37444 13.5179 8.23456 13.4747 8.1423 13.442C8.05004 13.4092 7.88486 13.3482 7.64676 13.2589C7.40867 13.1697 7.26284 13.1161 7.20926 13.0982C6.62593 12.8899 6.1051 12.6429 5.64676 12.3572C4.89081 11.8869 4.1051 11.2441 3.28962 10.4286C2.47414 9.6131 1.83129 8.82739 1.36105 8.07144C1.07533 7.6131 0.828311 7.09227 0.619978 6.50894C0.602121 6.45537 0.548549 6.30953 0.459263 6.07144C0.369978 5.83334 0.308966 5.66816 0.276228 5.5759C0.24349 5.48364 0.200335 5.34376 0.146763 5.15626C0.093192 4.96876 0.0559896 4.79763 0.0351562 4.64287C0.0143229 4.4881 0.00390625 4.33037 0.00390625 4.16965C0.00390625 3.62203 0.155692 3.06846 0.459263 2.50894C0.792597 1.90775 1.10807 1.54465 1.40569 1.41965C1.5545 1.35417 1.75837 1.29167 2.0173 1.23215C2.27623 1.17263 2.48605 1.14287 2.64676 1.14287C2.7301 1.14287 2.7926 1.15179 2.83426 1.16965C2.94141 1.20537 3.09914 1.43156 3.30748 1.84822C3.37295 1.96132 3.46224 2.12203 3.57534 2.33037C3.68843 2.5387 3.7926 2.72769 3.88784 2.89733C3.98307 3.06697 4.07534 3.2262 4.16462 3.37501C4.18248 3.39882 4.23456 3.47322 4.32087 3.59822C4.40718 3.72322 4.47117 3.82888 4.51284 3.91519C4.5545 4.0015 4.57534 4.08632 4.57534 4.16965C4.57534 4.2887 4.49051 4.43751 4.32087 4.61608C4.15123 4.79465 3.9667 4.95834 3.7673 5.10715C3.56789 5.25596 3.38337 5.4137 3.21373 5.58037C3.04409 5.74703 2.95926 5.88394 2.95926 5.99108C2.95926 6.04465 2.97414 6.11162 3.00391 6.19197C3.03367 6.27233 3.05897 6.33334 3.0798 6.37501C3.10063 6.41668 3.1423 6.4881 3.2048 6.58929C3.2673 6.69048 3.30153 6.74703 3.30748 6.75894C3.75986 7.57441 4.27772 8.27382 4.86105 8.85715C5.44438 9.44048 6.14379 9.95834 6.95926 10.4107C6.97117 10.4167 7.02772 10.4509 7.12891 10.5134C7.2301 10.5759 7.30153 10.6176 7.34319 10.6384C7.38486 10.6592 7.44587 10.6845 7.52623 10.7143C7.60659 10.7441 7.67355 10.7589 7.72712 10.7589C7.83426 10.7589 7.97117 10.6741 8.13784 10.5045C8.3045 10.3348 8.46224 10.1503 8.61105 9.9509C8.75986 9.7515 8.92355 9.56697 9.10212 9.39733C9.28069 9.22769 9.4295 9.14287 9.54855 9.14287C9.63188 9.14287 9.7167 9.1637 9.80301 9.20537C9.88932 9.24703 9.99498 9.31102 10.12 9.39733C10.245 9.48364 10.3194 9.53572 10.3432 9.55358C10.492 9.64287 10.6512 9.73513 10.8209 9.83037C10.9905 9.9256 11.1795 10.0298 11.3878 10.1429C11.5962 10.256 11.7569 10.3452 11.87 10.4107C12.2866 10.6191 12.5128 10.7768 12.5485 10.8839C12.5664 10.9256 12.5753 10.9881 12.5753 11.0714Z" fill="white"/>
</g>
<defs>
<clipPath id="clip0_25_224">
<rect width="12.58" height="16" fill="white" transform="matrix(1 0 0 -1 0 16)"/>
</clipPath>
</defs>
</svg>
