<svg width="16" height="18" viewBox="0 0 16 18" fill="none" xmlns="http://www.w3.org/2000/svg">
<g clip-path="url(#clip0_25_212)">
<g clip-path="url(#clip1_25_212)">
<g clip-path="url(#clip2_25_212)">
<path fill-rule="evenodd" clip-rule="evenodd" d="M8.09933 6.42857C9.5195 6.42857 10.6707 5.2773 10.6707 3.85714C10.6707 2.43698 9.5195 1.28571 8.09933 1.28571C6.67917 1.28571 5.52791 2.43698 5.52791 3.85714C5.52791 5.2773 6.67917 6.42857 8.09933 6.42857ZM8.09933 7.71429C10.2296 7.71429 11.9565 5.98738 11.9565 3.85714C11.9565 1.7269 10.2296 0 8.09933 0C5.96909 0 4.24219 1.7269 4.24219 3.85714C4.24219 5.98738 5.96909 7.71429 8.09933 7.71429Z" fill="white"/>
<path fill-rule="evenodd" clip-rule="evenodd" d="M11.25 11.3365H4.5C2.63604 11.3365 1.125 12.9638 1.125 14.9712V16.7885H14.625V14.9712C14.625 12.9638 13.114 11.3365 11.25 11.3365ZM4.5 10.125C2.01472 10.125 0 12.2947 0 14.9712V17.3942C0 17.7288 0.25184 18 0.5625 18H15.1875C15.4982 18 15.75 17.7288 15.75 17.3942V14.9712C15.75 12.2947 13.7353 10.125 11.25 10.125H4.5Z" fill="white"/>
</g>
</g>
</g>
<defs>
<clipPath id="clip0_25_212">
<rect width="16" height="18" fill="white"/>
</clipPath>
<clipPath id="clip1_25_212">
<rect width="16" height="18" fill="white"/>
</clipPath>
<clipPath id="clip2_25_212">
<rect width="16" height="18" fill="white"/>
</clipPath>
</defs>
</svg>
