<svg width="16" height="16" viewBox="0 0 16 16" fill="none" xmlns="http://www.w3.org/2000/svg">
<g clip-path="url(#clip0_2941_479)">
<path fill-rule="evenodd" clip-rule="evenodd" d="M8.89065 0.833496H10.442C11.2386 0.833491 11.872 0.833486 12.3801 0.881791C12.901 0.931321 13.3414 1.03514 13.7338 1.27558C14.1375 1.52295 14.4769 1.86234 14.7242 2.26601C14.9647 2.65836 15.0685 3.0988 15.118 3.61973C15.1663 4.12777 15.1663 4.76124 15.1663 5.55785V6.10167C15.1663 6.66872 15.1663 7.11973 15.1414 7.48545C15.1158 7.85955 15.0625 8.18078 14.9379 8.48157C14.6335 9.21666 14.0494 9.80068 13.3144 10.1052C13.0616 10.2099 12.7921 10.2648 12.4869 10.2947C12.4834 10.3876 12.4789 10.4759 12.4731 10.56C12.446 10.9573 12.3896 11.2959 12.2586 11.612C11.9372 12.3879 11.3208 13.0044 10.5448 13.3258C10.1469 13.4906 9.70803 13.5389 9.1561 13.5566C8.85913 13.5661 8.66931 13.5726 8.52511 13.5902C8.38878 13.6068 8.33762 13.629 8.30996 13.6454C8.27923 13.6636 8.2368 13.6969 8.16283 13.7988C8.08291 13.9088 7.99244 14.0607 7.84912 14.3028L7.67617 14.595C7.22487 15.3574 6.10779 15.3574 5.65649 14.595L5.48354 14.3028C5.34022 14.0607 5.24975 13.9088 5.16983 13.7988C5.09586 13.6969 5.05343 13.6636 5.0227 13.6454C4.99504 13.629 4.94388 13.6068 4.80755 13.5902C4.66335 13.5726 4.47353 13.5661 4.17656 13.5566C3.62464 13.5389 3.18575 13.4906 2.78784 13.3258C2.01192 13.0044 1.39545 12.3879 1.07406 11.612C0.94312 11.2959 0.886652 10.9573 0.859541 10.56C0.833003 10.171 0.833005 9.6909 0.833008 9.0851V8.50771C0.833003 7.65666 0.832999 6.98229 0.884373 6.44196C0.936973 5.88875 1.04693 5.42465 1.29965 5.01226C1.56076 4.58616 1.919 4.22792 2.3451 3.9668C2.75749 3.71409 3.22159 3.60413 3.7748 3.55153C3.91543 3.53816 4.06514 3.52827 4.22468 3.52095C4.27803 3.04106 4.3844 2.63153 4.60839 2.26601C4.85575 1.86234 5.19514 1.52295 5.59881 1.27558C5.99116 1.03514 6.4316 0.931321 6.95253 0.881791C7.46057 0.833486 8.09404 0.833491 8.89065 0.833496ZM5.23522 3.50096C5.42641 3.50016 5.62796 3.50016 5.84054 3.50016H7.49214C8.34319 3.50016 9.01756 3.50015 9.55788 3.55153C10.1111 3.60413 10.5752 3.71409 10.9876 3.9668C11.4137 4.22792 11.7719 4.58616 12.033 5.01226C12.2857 5.42465 12.3957 5.88875 12.4483 6.44196C12.4997 6.98229 12.4997 7.65666 12.4997 8.5077V9.0851C12.4997 9.15399 12.4997 9.22124 12.4996 9.28693C12.6832 9.26311 12.8172 9.22872 12.9317 9.18129C13.4217 8.9783 13.8111 8.58895 14.0141 8.09889C14.0798 7.94026 14.1216 7.74056 14.1437 7.41738C14.166 7.0897 14.1663 6.67279 14.1663 6.08352V5.58351C14.1663 4.75547 14.1658 4.16955 14.1225 3.71438C14.0799 3.26665 13.9996 2.99733 13.8716 2.7885C13.7067 2.51939 13.4804 2.29313 13.2113 2.12822C13.0025 2.00025 12.7332 1.91987 12.2854 1.8773C11.8303 1.83402 11.2443 1.8335 10.4163 1.8335H8.91631C8.08827 1.8335 7.50235 1.83402 7.04718 1.8773C6.59946 1.91987 6.33013 2.00025 6.12131 2.12822C5.8522 2.29313 5.62594 2.51939 5.46103 2.7885C5.35398 2.96318 5.2812 3.17808 5.23522 3.50096ZM3.86945 4.54704C3.38944 4.59268 3.09646 4.6792 2.8676 4.81944C2.57606 4.9981 2.33094 5.24322 2.15229 5.53475C2.01204 5.76362 1.92552 6.0566 1.87988 6.53662C1.83354 7.02408 1.83301 7.65091 1.83301 8.53351V9.06685C1.83301 9.69495 1.83328 10.141 1.85722 10.4919C1.88086 10.8383 1.92588 11.0554 1.99794 11.2293C2.21784 11.7602 2.63963 12.182 3.17053 12.4019C3.39332 12.4942 3.68035 12.5402 4.20853 12.5571L4.22926 12.5577C4.49953 12.5664 4.73461 12.5739 4.92864 12.5976C5.13548 12.6228 5.3387 12.6705 5.53182 12.7847C5.72186 12.8971 5.85912 13.0461 5.97893 13.2111C6.08977 13.3637 6.20397 13.5567 6.33342 13.7754L6.51705 14.0856C6.54732 14.1368 6.60017 14.1668 6.66633 14.1668C6.73249 14.1668 6.78534 14.1368 6.81561 14.0856L6.99925 13.7754C7.1287 13.5566 7.24289 13.3637 7.35373 13.2111C7.47354 13.0461 7.6108 12.8971 7.80084 12.7847C7.99396 12.6705 8.19718 12.6228 8.40403 12.5976C8.59805 12.5739 8.83313 12.5664 9.1034 12.5577L9.12413 12.5571C9.65232 12.5402 9.93937 12.4942 10.1622 12.4019C10.693 12.182 11.1148 11.7602 11.3347 11.2293C11.4068 11.0554 11.4518 10.8383 11.4755 10.4919C11.4994 10.141 11.4997 9.69495 11.4997 9.06685V8.53351C11.4997 7.65091 11.4991 7.02408 11.4528 6.53662C11.4072 6.0566 11.3206 5.76362 11.1804 5.53475C11.0017 5.24322 10.7566 4.9981 10.4651 4.81944C10.2362 4.6792 9.94324 4.59268 9.46323 4.54704C8.97577 4.50069 8.34894 4.50016 7.46634 4.50016H5.86634C4.98375 4.50016 4.35691 4.50069 3.86945 4.54704Z" fill="white"/>
<path d="M4.99967 8.66683C4.99967 9.03502 4.7012 9.3335 4.33301 9.3335C3.96482 9.3335 3.66634 9.03502 3.66634 8.66683C3.66634 8.29864 3.96482 8.00016 4.33301 8.00016C4.7012 8.00016 4.99967 8.29864 4.99967 8.66683Z" fill="white"/>
<path d="M7.33301 8.66683C7.33301 9.03502 7.03453 9.3335 6.66634 9.3335C6.29815 9.3335 5.99967 9.03502 5.99967 8.66683C5.99967 8.29864 6.29815 8.00016 6.66634 8.00016C7.03453 8.00016 7.33301 8.29864 7.33301 8.66683Z" fill="white"/>
<path d="M9.66634 8.66683C9.66634 9.03502 9.36787 9.3335 8.99968 9.3335C8.63149 9.3335 8.33301 9.03502 8.33301 8.66683C8.33301 8.29864 8.63149 8.00016 8.99968 8.00016C9.36787 8.00016 9.66634 8.29864 9.66634 8.66683Z" fill="white"/>
</g>
<defs>
<clipPath id="clip0_2941_479">
<rect width="16" height="16" fill="white"/>
</clipPath>
</defs>
</svg>
