<svg width="14" height="14" viewBox="0 0 14 14" fill="none" xmlns="http://www.w3.org/2000/svg">
<path d="M8.00293 3.99756V7.99756C8.00293 8.08089 7.97614 8.14934 7.92257 8.20292C7.869 8.25649 7.80055 8.28327 7.71722 8.28327H4.86007C4.77674 8.28327 4.70829 8.25649 4.65472 8.20292C4.60114 8.14934 4.57436 8.08089 4.57436 7.99756V7.42613C4.57436 7.3428 4.60114 7.27434 4.65472 7.22077C4.70829 7.1672 4.77674 7.14042 4.86007 7.14042H6.86007V3.99756C6.86007 3.91422 6.88686 3.84577 6.94043 3.7922C6.994 3.73863 7.06245 3.71184 7.14579 3.71184H7.71722C7.80055 3.71184 7.869 3.73863 7.92257 3.7922C7.97614 3.84577 8.00293 3.91422 8.00293 3.99756ZM11.0654 9.57792C11.0654 9.57792 11.1741 9.3919 11.3913 9.01988C11.6086 8.64786 11.7172 8.02137 11.7172 7.14042C11.7172 6.25946 11.5 5.44696 11.0654 4.70292C10.6309 3.95887 10.0416 3.36958 9.29757 2.93506C8.55352 2.50053 7.74103 2.28327 6.86007 2.28327C5.97912 2.28327 5.16662 2.50053 4.42257 2.93506C3.67852 3.36958 3.08924 3.95887 2.65472 4.70292C2.22019 5.44696 2.00293 6.25946 2.00293 7.14042C2.00293 8.02137 2.22019 8.83387 2.65472 9.57792C3.08924 10.322 3.67852 10.9112 4.42257 11.3458C5.16662 11.7803 5.97912 11.9976 6.86007 11.9976C7.74103 11.9976 8.55352 11.7803 9.29757 11.3458C10.0416 10.9112 10.6309 10.322 11.0654 9.57792ZM12.7976 3.69845C12.7976 3.69845 12.9508 3.9611 13.2574 4.4864C13.5639 5.01169 13.7172 5.89637 13.7172 7.14042C13.7172 8.38446 13.4107 9.53178 12.7976 10.5824C12.1845 11.633 11.3526 12.4648 10.302 13.0779C9.25144 13.691 8.10412 13.9976 6.86007 13.9976C5.61603 13.9976 4.4687 13.691 3.41811 13.0779C2.36751 12.4648 1.53567 11.633 0.922573 10.5824C0.309477 9.53178 0.00292969 8.38446 0.00292969 7.14042C0.00292969 5.89637 0.309477 4.74905 0.922573 3.69845C1.53567 2.64786 2.36751 1.81601 3.41811 1.20292C4.4687 0.58982 5.61603 0.283272 6.86007 0.283272C8.10412 0.283272 9.25144 0.58982 10.302 1.20292C11.3526 1.81601 12.1845 2.64786 12.7976 3.69845Z" fill="#122986"/>
</svg>
