<svg width="44" height="44" viewBox="0 0 44 44" fill="none" xmlns="http://www.w3.org/2000/svg">
<path d="M8.90827 13.0402C6.82513 13.0402 5.13037 11.3455 5.13037 9.26233C5.3379 4.25036 12.4795 4.25183 12.6863 9.26233C12.6863 11.3455 10.9914 13.0402 8.90827 13.0402ZM8.90827 7.37497C7.86766 7.37497 7.02099 8.22163 7.02099 9.26224C7.12471 11.766 10.6923 11.7653 10.7956 9.26224C10.7956 8.22163 9.94897 7.37497 8.90827 7.37497Z" fill="white"/>
<path d="M8.90859 26.051C8.57387 26.051 8.2638 25.8738 8.09399 25.5854L1.37239 14.1696C0.468843 12.6353 -0.00587481 10.8812 5.48774e-05 9.1006C5.48774e-05 4.15361 4.02477 0.128906 8.97167 0.128906C16.2099 0.140164 20.2616 8.15736 16.5359 14.1952L9.71985 25.5909C9.54917 25.8763 9.241 26.051 8.90859 26.051ZM8.97176 2.01954C5.05558 2.01841 1.87151 5.21796 1.89068 9.13396C1.89068 10.5664 2.27481 11.976 3.00159 13.2103L8.91505 23.2534L14.9135 13.2246C15.6589 11.9786 16.0528 10.5525 16.0528 9.1006C16.0528 5.19613 12.8762 2.01954 8.97176 2.01954Z" fill="white"/>
<path d="M29.1414 35.3687C27.0095 35.3687 25.2386 36.9429 24.9295 38.9899H6.11444C4.51832 38.9899 3.21981 37.6913 3.21981 36.0953C3.21981 34.4991 4.51832 33.2005 6.11444 33.2005H17.9584C23.9518 32.9543 23.9563 24.4088 17.9584 24.1602H10.5764L9.72072 25.5907C9.55349 25.8704 9.254 26.0426 8.92924 26.0494L8.92778 26.0507H17.9584C21.4448 26.1944 21.4479 31.165 17.9584 31.3099H6.11437C3.47573 31.3099 1.3291 33.4565 1.3291 36.0952C1.3291 38.7338 3.47573 40.8804 6.11437 40.8804H25.0694C26.5863 45.4897 33.2855 44.536 33.4014 39.6285C33.4014 37.2798 31.4904 35.3687 29.1414 35.3687ZM29.1414 41.998C27.8349 41.998 26.772 40.9352 26.772 39.6288C26.9023 36.4854 31.3812 36.4863 31.5108 39.6288C31.5108 40.9352 30.4479 41.998 29.1414 41.998Z" fill="white"/>
<path d="M43.9996 21.5252C43.9847 21.1529 43.7522 20.8239 43.4061 20.6854L29.4928 15.1202C28.8894 14.8666 28.1844 15.3419 28.1964 15.998V35.476C28.8009 35.3343 29.4827 35.3345 30.0871 35.4763V29.0554L43.4754 22.4099C43.8093 22.2441 44.0146 21.8978 43.9996 21.5252ZM30.0871 26.9446V17.3941L40.7417 21.6559L30.0871 26.9446Z" fill="white"/>
</svg>
