<svg width="42" height="42" viewBox="0 0 42 42" fill="none" xmlns="http://www.w3.org/2000/svg">
<g clip-path="url(#clip0_72_309)">
<path d="M23.52 36H4.99969C2.23969 35.9963 0.0028125 33.7603 0 31.0003V4.99969C0.00375 2.23969 2.23969 0.00375 4.99969 0H30.9994C33.7594 0.00375 35.9963 2.23969 35.9991 4.99969V23.22C35.9991 23.7722 35.5509 24.2203 34.9987 24.2203C34.4466 24.2203 33.9984 23.7722 33.9984 23.22V4.99969C33.9984 3.34313 32.655 1.99969 30.9984 1.99969H4.99969C3.34313 1.99969 1.99969 3.34313 1.99969 4.99969V30.9994C1.99969 32.6559 3.34313 33.9994 4.99969 33.9994H23.52C24.0722 33.9994 24.5203 34.4475 24.5203 34.9997C24.5203 35.5519 24.0722 36 23.52 36Z" fill="white"/>
<path d="M9.00007 12C8.73475 12 8.48069 11.895 8.29319 11.7066L6.2935 9.70688C5.91007 9.30938 5.92038 8.67656 6.31788 8.29313C6.70507 7.91906 7.32007 7.91906 7.70725 8.29313L9.07413 9.66L13.3744 6.21938C13.8057 5.87438 14.4357 5.94375 14.7807 6.375C15.1257 6.80625 15.0563 7.43625 14.6251 7.78125L9.62538 11.7816C9.44819 11.9231 9.22788 12 9.001 12.0009L9.00007 12Z" fill="white"/>
<path d="M28.9998 10.0001H19.9998C19.4476 10.0001 18.9995 9.55201 18.9995 8.99982C18.9995 8.44764 19.4476 7.99951 19.9998 7.99951H28.9998C29.552 7.99951 30.0001 8.44764 30.0001 8.99982C30.0001 9.55201 29.552 10.0001 28.9998 10.0001Z" fill="white"/>
<path d="M9.00007 12C8.73475 12 8.48069 11.895 8.29319 11.7066L6.2935 9.70688C5.91007 9.30938 5.92038 8.67656 6.31788 8.29313C6.70507 7.91906 7.32007 7.91906 7.70725 8.29313L9.07413 9.66L13.3744 6.21938C13.8057 5.87438 14.4357 5.94375 14.7807 6.375C15.1257 6.80625 15.0563 7.43625 14.6251 7.78125L9.62538 11.7816C9.44819 11.9231 9.22788 12 9.001 12.0009L9.00007 12Z" fill="white"/>
<path d="M28.9998 10.0001H19.9998C19.4476 10.0001 18.9995 9.55201 18.9995 8.99982C18.9995 8.44764 19.4476 7.99951 19.9998 7.99951H28.9998C29.552 7.99951 30.0001 8.44764 30.0001 8.99982C30.0001 9.55201 29.552 10.0001 28.9998 10.0001Z" fill="white"/>
<path d="M9.00007 21C8.73475 21 8.48069 20.895 8.29319 20.7066L6.2935 18.7069C5.91007 18.3094 5.92038 17.6766 6.31788 17.2931C6.70507 16.9191 7.32007 16.9191 7.70725 17.2931L9.07413 18.66L13.3744 15.2194C13.8057 14.8744 14.4357 14.9438 14.7807 15.375C15.1257 15.8063 15.0563 16.4363 14.6251 16.7813L9.62538 20.7816C9.44819 20.9231 9.22788 21 9.001 21.0009L9.00007 21Z" fill="white"/>
<path d="M28.9998 19.0001H19.9998C19.4476 19.0001 18.9995 18.552 18.9995 17.9998C18.9995 17.4476 19.4476 16.9995 19.9998 16.9995H28.9998C29.552 16.9995 30.0001 17.4476 30.0001 17.9998C30.0001 18.552 29.552 19.0001 28.9998 19.0001Z" fill="white"/>
<path d="M9.00007 30C8.73475 30 8.48069 29.895 8.29319 29.7066L6.2935 27.7069C5.91007 27.3094 5.92038 26.6766 6.31788 26.2931C6.70507 25.9191 7.32007 25.9191 7.70725 26.2931L9.07413 27.66L13.3744 24.2194C13.8057 23.8744 14.4357 23.9438 14.7807 24.375C15.1257 24.8063 15.0563 25.4363 14.6251 25.7813L9.62538 29.7816C9.44819 29.9231 9.22788 30 9.001 30.0009L9.00007 30Z" fill="white"/>
<path d="M24.5205 28.0001H20.0008C19.4486 28.0001 19.0005 27.552 19.0005 26.9998C19.0005 26.4476 19.4486 25.9995 20.0008 25.9995H24.5205C25.0727 25.9995 25.5208 26.4476 25.5208 26.9998C25.5208 27.552 25.0727 28.0001 24.5205 28.0001Z" fill="white"/>
<path d="M31.9998 42.0001C26.477 42.0001 21.9995 37.5226 21.9995 31.9998C21.9995 26.477 26.477 21.9995 31.9998 21.9995C37.5226 21.9995 42.0001 26.477 42.0001 31.9998C41.9945 37.5198 37.5208 41.9936 31.9998 42.0001ZM31.9998 24.0001C27.5814 24.0001 24.0001 27.5823 24.0001 31.9998C24.0001 36.4173 27.5823 39.9995 31.9998 39.9995C36.4173 39.9995 39.9995 36.4173 39.9995 31.9998C39.9948 27.5833 36.4154 24.0048 31.9998 24.0001Z" fill="white"/>
<path d="M31.0004 35.9999C30.7351 35.9999 30.481 35.8949 30.2935 35.7065L27.2935 32.7065C26.9101 32.309 26.9204 31.6761 27.3179 31.2927C27.7051 30.9186 28.3201 30.9186 28.7073 31.2927L31.0004 33.5858L35.2932 29.293C35.6907 28.9096 36.3235 28.9199 36.7069 29.3174C37.081 29.7046 37.081 30.3196 36.7069 30.7068L31.7073 35.7065C31.5198 35.894 31.2657 35.999 31.0004 35.9999Z" fill="white"/>
</g>
<defs>
<clipPath id="clip0_72_309">
<rect width="42" height="42" fill="white"/>
</clipPath>
</defs>
</svg>
