<svg width="44" height="44" viewBox="0 0 44 44" fill="none" xmlns="http://www.w3.org/2000/svg">
<g clip-path="url(#clip0_72_324)">
<path d="M44.0002 24.8777V19.1223C44.0002 18.7736 43.7474 18.4765 43.4032 18.4215L39.8823 17.8581C39.4263 15.8808 38.651 14.0108 37.5723 12.2872L39.6649 9.39702C39.8699 9.11492 39.8388 8.72548 39.5922 8.47887L35.5222 4.40887C35.2756 4.16226 34.887 4.13121 34.604 4.33613L31.7139 6.42879C29.9894 5.35008 28.1194 4.57476 26.1429 4.11879L25.5796 0.597903C25.5246 0.25371 25.2274 0 24.8788 0H19.1233C18.7747 0 18.4775 0.252823 18.4225 0.597903L17.8592 4.11879C15.8819 4.57476 14.0119 5.35008 12.2882 6.42879L9.39808 4.33613C9.11599 4.13121 8.72655 4.16226 8.47994 4.40887L4.40994 8.47887C4.16332 8.72548 4.13228 9.11492 4.33719 9.39702L6.42986 12.2872C5.35026 14.0126 4.57582 15.8826 4.11986 17.8581L0.598969 18.4215C0.254776 18.4765 0.00195312 18.7736 0.00195312 19.1223V24.8777C0.00195312 25.2264 0.254776 25.5235 0.598969 25.5785L4.11986 26.1419C4.57582 28.1192 5.35115 29.9892 6.42986 31.7128L4.33719 34.603C4.13228 34.8851 4.16332 35.2745 4.40994 35.5211L8.47994 39.5911C8.72655 39.8377 9.11599 39.8688 9.39808 39.6639L12.2882 37.5712C14.0136 38.6508 15.8836 39.4261 17.8592 39.8812L18.4225 43.4021C18.4775 43.7463 18.7747 43.9991 19.1233 43.9991H24.8788C25.2274 43.9991 25.5246 43.7454 25.5796 43.4021L26.0853 40.2431C27.934 42.5319 30.7611 43.9991 33.9263 43.9991C39.4813 43.9991 44.0011 39.4794 44.0011 33.9244C44.0011 30.7601 42.5338 27.932 40.2451 26.0833L43.404 25.5777C43.7482 25.5227 44.002 25.2255 44.002 24.8769L44.0002 24.8777ZM34.6768 23.878C34.4284 23.8594 34.1782 23.8496 33.9245 23.8496C32.4014 23.8496 30.9563 24.1902 29.6603 24.7979V23.6757C29.6603 21.9991 28.3908 20.7226 26.1766 20.1726C25.4049 19.981 24.634 19.8444 23.8657 19.7574C25.0411 18.9324 25.8378 17.3552 25.8378 15.5464C25.8378 13.1006 24.367 11.5819 22.0002 11.5819C19.6334 11.5819 18.1626 13.1006 18.1626 15.5464C18.1626 17.3507 18.9557 18.9253 20.1275 19.7512C19.3522 19.8373 18.5813 19.9765 17.8184 20.1735C15.5758 20.7501 14.3401 21.9938 14.3401 23.6748V29.9892C14.3401 30.3813 14.6577 30.6989 15.0498 30.6989H24.3794C24.0361 31.7119 23.8498 32.7969 23.8498 33.9235C23.8498 34.1763 23.8595 34.4273 23.8782 34.6757C23.2572 34.7671 22.6282 34.8132 22.0002 34.8132C14.9345 34.8132 9.18607 29.0648 9.18607 21.9991C9.18607 14.9334 14.9345 9.18589 22.0002 9.18589C29.0659 9.18589 34.8143 14.9343 34.8143 22C34.8143 22.6281 34.7682 23.257 34.6768 23.878ZM25.7925 24.4182C25.4004 24.4182 25.0828 24.7358 25.0828 25.1279V29.1003C25.05 29.1598 25.0181 29.2201 24.987 29.2813H18.9184V25.1288C18.9184 24.7367 18.6008 24.4191 18.2087 24.4191C17.8166 24.4191 17.499 24.7367 17.499 25.1288V29.2813H15.7603V23.6766C15.7603 22.4311 17.0724 21.8332 18.1724 21.5502C20.6678 20.9089 23.2457 20.9089 25.836 21.552C26.7346 21.7747 28.2427 22.3477 28.2427 23.6775V25.6123C27.6066 26.0487 27.0229 26.5552 26.504 27.1212V25.1288C26.504 24.7367 26.1864 24.4191 25.7943 24.4191L25.7925 24.4182ZM22.0002 18.9493C20.6669 18.9493 19.582 17.4235 19.582 15.5481C19.582 13.334 21.0971 13.0031 22.0002 13.0031C22.9032 13.0031 24.4184 13.334 24.4184 15.5481C24.4184 17.4235 23.3335 18.9493 22.0002 18.9493ZM42.5808 33.9252C42.5808 38.6978 38.698 42.5806 33.9254 42.5806C29.1528 42.5806 25.27 38.6978 25.27 33.9252C25.27 29.1527 29.1528 25.2698 33.9254 25.2698C38.698 25.2698 42.5808 29.1527 42.5808 33.9252ZM42.5808 24.2727L39.1788 24.8174C39.0005 24.8458 38.8453 24.9407 38.737 25.0756C37.9147 24.6267 37.0223 24.2887 36.0811 24.0829C36.1822 23.3945 36.2336 22.6964 36.2336 22C36.2336 14.1519 29.8483 7.76653 22.0002 7.76653C14.152 7.76653 7.76671 14.1519 7.76671 22C7.76671 29.8481 14.152 36.2335 22.0002 36.2335C22.6965 36.2335 23.3947 36.182 24.0831 36.0809C24.2889 37.0221 24.626 37.9136 25.0757 38.7369C24.9409 38.8451 24.846 39.0003 24.8176 39.1786L24.2729 42.5806H19.7274L19.1828 39.1786C19.1357 38.8868 18.9131 38.6535 18.623 38.5949C16.4869 38.1629 14.4794 37.3299 12.6555 36.1208C12.4089 35.9576 12.0869 35.9638 11.8474 36.1377L9.05478 38.1594L5.84082 34.9454L7.86252 32.1528C8.03639 31.9133 8.0426 31.5913 7.87937 31.3447C6.67026 29.5217 5.83816 27.5142 5.40526 25.3772C5.34671 25.0871 5.11429 24.8635 4.82155 24.8174L1.41953 24.2727V19.7273L4.82155 19.1826C5.1134 19.1356 5.34671 18.9129 5.40526 18.6228C5.83728 16.4867 6.67026 14.4792 7.87937 12.6553C8.0426 12.4087 8.03639 12.0867 7.86252 11.8472L5.84082 9.0546L9.05478 5.84064L11.8474 7.86234C12.0869 8.03621 12.4089 8.04242 12.6555 7.87919C14.4785 6.67008 16.486 5.83798 18.623 5.40508C18.9131 5.34653 19.1357 5.11411 19.1828 4.82137L19.7274 1.41935H24.2729L24.8176 4.82137C24.8646 5.11323 25.0873 5.34564 25.3774 5.40508C27.5135 5.83798 29.5219 6.67008 31.3449 7.87919C31.5915 8.04242 31.9135 8.03621 32.153 7.86234L34.9456 5.84064L38.1595 9.0546L36.1378 11.8472C35.964 12.0867 35.9578 12.4087 36.121 12.6553C37.3301 14.4774 38.1622 16.4858 38.5951 18.6228C38.6536 18.9129 38.8861 19.1356 39.1788 19.1826L42.5808 19.7273V24.2727ZM36.7819 30.0185L32.5415 34.3209L31.0681 32.8474C30.6733 32.4527 30.149 32.2362 29.592 32.2362C29.0349 32.2362 28.5097 32.4535 28.1158 32.8474C27.7211 33.2422 27.5046 33.7664 27.5046 34.3235C27.5046 34.8806 27.722 35.4058 28.1158 35.7997L31.0716 38.7555C31.4788 39.1627 32.0128 39.3658 32.5478 39.3658C33.0827 39.3658 33.6167 39.1627 34.0239 38.7555C35.5311 37.2483 38.6084 34.0982 39.7395 32.9556C40.1315 32.5609 40.3471 32.0366 40.3453 31.4804C40.3436 30.9242 40.1253 30.4008 39.7306 30.0087C38.9162 29.1988 37.5936 29.2023 36.781 30.0194L36.7819 30.0185ZM38.7326 31.955C37.5971 33.102 34.5224 36.2494 33.0206 37.7513C32.7598 38.0121 32.3357 38.0121 32.0749 37.7513L29.1191 34.7955C28.9932 34.6695 28.9231 34.501 28.9231 34.3227C28.9231 34.1444 28.9923 33.9767 29.1191 33.8498C29.2451 33.7239 29.4128 33.6538 29.592 33.6538C29.7711 33.6538 29.9379 33.723 30.0648 33.8498L32.0439 35.829C32.177 35.962 32.3579 36.0365 32.546 36.0365H32.5486C32.7376 36.0365 32.9186 35.9594 33.0516 35.8254L37.7914 31.0165C38.0495 30.7565 38.4718 30.7556 38.7317 31.0138C38.8577 31.1389 38.9269 31.3056 38.9278 31.4831C38.9278 31.6605 38.8586 31.8273 38.7326 31.955Z" fill="white"/>
</g>
<defs>
<clipPath id="clip0_72_324">
<rect width="44" height="44" fill="white"/>
</clipPath>
</defs>
</svg>
