<svg width="14" height="14" viewBox="0 0 14 14" fill="none" xmlns="http://www.w3.org/2000/svg">
<path fill-rule="evenodd" clip-rule="evenodd" d="M3.2812 2.58073C2.31346 3.02309 1.60449 4.07525 1.60449 5.32992C1.60449 6.61174 2.12904 7.59975 2.88099 8.44648C3.50075 9.14435 4.25098 9.72273 4.98265 10.2868C5.15643 10.4208 5.32916 10.5539 5.49885 10.6877C5.8057 10.9296 6.07943 11.1419 6.34327 11.2961C6.60724 11.4504 6.81973 11.5208 7.00033 11.5208C7.18093 11.5208 7.39341 11.4504 7.65739 11.2961C7.92122 11.1419 8.19495 10.9296 8.5018 10.6877C8.67149 10.5539 8.84422 10.4208 9.018 10.2868C9.74967 9.72273 10.4999 9.14435 11.1197 8.44648C11.8716 7.59975 12.3962 6.61174 12.3962 5.32992C12.3962 4.07525 11.6872 3.02309 10.7195 2.58073C9.77929 2.15098 8.51602 2.26478 7.31554 3.51204C7.23306 3.59773 7.11926 3.64615 7.00033 3.64615C6.88139 3.64615 6.76759 3.59773 6.68511 3.51204C5.48463 2.26478 4.22137 2.15098 3.2812 2.58073ZM7.00033 2.60092C5.65163 1.39426 4.14139 1.22546 2.91744 1.78493C1.62474 2.37582 0.729492 3.74788 0.729492 5.32992C0.729492 6.88482 1.37728 8.07098 2.22674 9.0275C2.907 9.79349 3.73962 10.4346 4.47497 11.0008C4.64167 11.1291 4.80336 11.2536 4.95715 11.3749C5.25596 11.6104 5.57673 11.8616 5.90181 12.0516C6.22674 12.2414 6.59759 12.3958 7.00033 12.3958C7.40306 12.3958 7.77391 12.2414 8.09885 12.0516C8.42392 11.8616 8.74469 11.6104 9.0435 11.3749C9.19729 11.2536 9.35898 11.1291 9.52568 11.0008C10.261 10.4346 11.0937 9.79349 11.7739 9.0275C12.6234 8.07098 13.2712 6.88482 13.2712 5.32992C13.2712 3.74788 12.3759 2.37582 11.0832 1.78493C9.85927 1.22546 8.34903 1.39426 7.00033 2.60092Z" fill="#122986"/>
</svg>
