<svg width="18" height="14" viewBox="0 0 18 14" fill="none" xmlns="http://www.w3.org/2000/svg">
<path d="M9.28857 0.385742C10.0123 0.385742 10.7546 0.404364 11.4741 0.434836L12.3239 0.475464L13.1373 0.523711L13.8991 0.575344L14.5949 0.629516C15.3499 0.687308 16.0604 1.00952 16.6014 1.53947C17.1423 2.06941 17.479 2.77315 17.5523 3.52686L17.5862 3.8866L17.6497 4.65685C17.7089 5.45504 17.7529 6.32518 17.7529 7.15722C17.7529 7.98927 17.7089 8.85941 17.6497 9.65759L17.5862 10.4278C17.5752 10.5514 17.5642 10.6708 17.5523 10.7876C17.479 11.5414 17.1422 12.2453 16.6011 12.7752C16.0599 13.3052 15.3492 13.6273 14.594 13.6849L13.9 13.7383L13.1382 13.7907L12.3239 13.839L11.4741 13.8796C10.746 13.9113 10.0173 13.9276 9.28857 13.9287C8.55981 13.9276 7.83115 13.9113 7.10308 13.8796L6.25325 13.839L5.43983 13.7907L4.67804 13.7383L3.98227 13.6849C3.22721 13.6271 2.51671 13.3049 1.97577 12.775C1.43483 12.245 1.0981 11.5413 1.02482 10.7876L0.990967 10.4278L0.927484 9.65759C0.862763 8.82566 0.828319 7.99166 0.824219 7.15722C0.824219 6.32518 0.868233 5.45504 0.927484 4.65685L0.990967 3.8866C1.00197 3.76302 1.01297 3.64367 1.02482 3.52686C1.09807 2.77328 1.43468 2.06965 1.97545 1.53972C2.51621 1.00979 3.22651 0.687498 3.98142 0.629516L4.67635 0.575344L5.43814 0.523711L6.25241 0.475464L7.10223 0.434836C7.83059 0.403207 8.55953 0.386839 9.28857 0.385742ZM9.28857 2.07861C8.59026 2.07861 7.87164 2.09723 7.17248 2.12601L6.34467 2.1658L5.54987 2.21235L4.80331 2.26314L4.11939 2.31646C3.75994 2.34196 3.42112 2.49391 3.163 2.74537C2.90488 2.99683 2.74412 3.33156 2.70923 3.69022C2.6102 4.71357 2.51709 5.98745 2.51709 7.15722C2.51709 8.327 2.6102 9.60088 2.70923 10.6242C2.78118 11.3623 3.36691 11.9362 4.11939 11.998L4.80331 12.0505L5.54987 12.1013L6.34467 12.1487L7.17248 12.1884C7.87164 12.2172 8.59026 12.2358 9.28857 12.2358C9.98688 12.2358 10.7055 12.2172 11.4047 12.1884L12.2325 12.1487L13.0273 12.1021L13.7738 12.0513L14.4578 11.998C14.8172 11.9725 15.156 11.8205 15.4141 11.5691C15.6723 11.3176 15.833 10.9829 15.8679 10.6242C15.9669 9.60088 16.0601 8.327 16.0601 7.15722C16.0601 5.98745 15.9669 4.71357 15.8679 3.69022C15.833 3.33156 15.6723 2.99683 15.4141 2.74537C15.156 2.49391 14.8172 2.34196 14.4578 2.31646L13.7738 2.26398L13.0273 2.2132L12.2325 2.1658L11.4047 2.12601C10.6997 2.09568 9.99419 2.07988 9.28857 2.07861ZM7.5957 5.10462C7.59565 5.02189 7.6158 4.9404 7.65442 4.86724C7.69303 4.79408 7.74893 4.73145 7.81726 4.68482C7.88559 4.63818 7.96428 4.60894 8.04648 4.59964C8.12868 4.59034 8.21191 4.60127 8.28893 4.63146L8.35749 4.66532L11.9125 6.71708C11.9833 6.75792 12.0432 6.81525 12.0871 6.88419C12.131 6.95314 12.1576 7.03166 12.1647 7.11308C12.1717 7.19451 12.159 7.27643 12.1277 7.3519C12.0963 7.42737 12.0472 7.49416 11.9845 7.54658L11.9125 7.59737L8.35749 9.64997C8.28585 9.69146 8.20516 9.7148 8.12243 9.71797C8.03971 9.72114 7.95746 9.70404 7.88286 9.66816C7.80826 9.63227 7.74356 9.5787 7.69439 9.51209C7.64523 9.44549 7.61309 9.36787 7.60078 9.28601L7.5957 9.20983V5.10462Z" fill="white"/>
</svg>
